<svg xmlns="http://www.w3.org/2000/svg" viewBox="0 0 317 48">
  <g id="Page-1" fill="none" fill-rule="evenodd">
    <g id="sidebar" transform="translate(-24 -40)">
      <g id="Wordmark/Horizontal---Retail-Large" transform="translate(24 40)">
        <path id="Sidebar" fill="#181A1A" fill-rule="nonzero" d="M231.644,37.336 C230.393327,37.336 229.203339,37.0980024 228.074,36.622 C226.944661,36.1459976 225.960004,35.478671 225.12,34.62 L226.8,32.66 C227.472003,33.3320034 228.237329,33.863998 229.096,34.256 C229.954671,34.648002 230.822662,34.844 231.7,34.844 C232.782672,34.844 233.631997,34.6060024 234.248,34.13 C234.864003,33.6539976 235.172,33.0146707 235.172,32.212 C235.172,31.6893307 235.055335,31.2553351 234.822,30.91 C234.588665,30.5646649 234.280669,30.2800011 233.898,30.056 C233.515331,29.8319989 232.960004,29.5706682 232.232,29.272 L229.684,28.152 C227.201321,27.1253282 225.96,25.5293442 225.96,23.364 C225.96,22.4119952 226.216664,21.5533372 226.73,20.788 C227.243336,20.0226628 227.957329,19.4206689 228.872,18.982 C229.786671,18.5433311 230.813328,18.324 231.952,18.324 C233.016005,18.324 234.033328,18.5293313 235.004,18.94 C235.974672,19.3506687 236.80533,19.9106631 237.496,20.62 L236.012,22.44 C234.779994,21.3573279 233.426674,20.816 231.952,20.816 C230.999995,20.816 230.244003,21.0306645 229.684,21.46 C229.123997,21.8893355 228.844,22.4679964 228.844,23.196 C228.844,23.6813358 228.979332,24.0919983 229.25,24.428 C229.520668,24.7640017 229.847331,25.0346656 230.23,25.24 C230.612669,25.4453344 231.139997,25.6879986 231.812,25.968 L234.36,27.06 C235.554673,27.5453358 236.473997,28.1753295 237.118,28.95 C237.762003,29.7246705 238.084,30.7373271 238.084,31.988 C238.084,32.9773383 237.822669,33.8779959 237.3,34.69 C236.777331,35.5020041 236.030672,36.1459976 235.06,36.622 C234.089328,37.0980024 232.950673,37.336 231.644,37.336 Z M241.276,23.308 L244.104,23.308 L244.104,37 L241.276,37 L241.276,23.308 Z M242.704,20.732 C242.199997,20.732 241.784668,20.5733349 241.458,20.256 C241.131332,19.9386651 240.968,19.5280025 240.968,19.024 C240.968,18.5386642 241.131332,18.1373349 241.458,17.82 C241.784668,17.5026651 242.199997,17.344 242.704,17.344 C243.208003,17.344 243.623332,17.5026651 243.95,17.82 C244.276668,18.1373349 244.44,18.5386642 244.44,19.024 C244.44,19.5280025 244.276668,19.9386651 243.95,20.256 C243.623332,20.5733349 243.208003,20.732 242.704,20.732 Z M253.148,37.336 C251.430658,37.336 250.063338,36.7013397 249.046,35.432 C248.028662,34.1626603 247.52,32.4080112 247.52,30.168 C247.52,28.7306595 247.790664,27.4660055 248.332,26.374 C248.873336,25.2819945 249.591996,24.4420029 250.488,23.854 C251.384004,23.2659971 252.345328,22.972 253.372,22.972 C254.100004,22.972 254.743997,23.0979987 255.304,23.35 C255.864003,23.6020013 256.451997,23.9893307 257.068,24.512 L256.956,22.244 L256.956,17.148 L259.784,17.148 L259.784,37 L257.46,37 L257.236,35.46 L257.152,35.46 C256.591997,36.0200028 255.96667,36.4726649 255.276,36.818 C254.58533,37.1633351 253.876004,37.336 253.148,37.336 Z M253.82,34.984 C254.39867,34.984 254.939997,34.848668 255.444,34.578 C255.948003,34.307332 256.451997,33.8826696 256.956,33.304 L256.956,26.584 C256.022662,25.7439958 255.014672,25.324 253.932,25.324 C253.278663,25.324 252.686003,25.519998 252.154,25.912 C251.621997,26.304002 251.202002,26.8639964 250.894,27.592 C250.585998,28.3200036 250.432,29.1693285 250.432,30.14 C250.432,31.6893411 250.725997,32.8839958 251.314,33.724 C251.902003,34.5640042 252.737328,34.984 253.82,34.984 Z M274.96,29.44 C274.96,29.9626693 274.922667,30.4479978 274.848,30.896 L265.804,30.896 C265.934667,32.2773402 266.405996,33.3273297 267.218,34.046 C268.030004,34.7646703 269.014661,35.124 270.172,35.124 C271.273339,35.124 272.365328,34.7786701 273.448,34.088 L274.428,35.88 C272.971993,36.8506715 271.432008,37.336 269.808,37.336 C268.557327,37.336 267.428005,37.0466696 266.42,36.468 C265.411995,35.8893304 264.614003,35.0586721 264.026,33.976 C263.437997,32.8933279 263.144,31.6240073 263.144,30.168 C263.144,28.7306595 263.437997,27.4660055 264.026,26.374 C264.614003,25.2819945 265.383995,24.4420029 266.336,23.854 C267.288005,23.2659971 268.305328,22.972 269.388,22.972 C271.161342,22.972 272.533328,23.5553275 273.504,24.722 C274.474672,25.8886725 274.96,27.4613234 274.96,29.44 Z M272.496,28.936 C272.496,27.7413274 272.234669,26.8173366 271.712,26.164 C271.189331,25.5106634 270.433338,25.184 269.444,25.184 C268.585329,25.184 267.820003,25.5013302 267.148,26.136 C266.475997,26.7706698 266.046668,27.7039938 265.86,28.936 L272.496,28.936 Z M284.536,37.336 C283.90133,37.336 283.257337,37.1820015 282.604,36.874 C281.950663,36.5659985 281.325336,36.1320028 280.728,35.572 L280.644,35.572 L280.392,37 L278.152,37 L278.152,17.148 L280.98,17.148 L280.98,22.412 L280.896,24.764 C281.53067,24.222664 282.202663,23.7886683 282.912,23.462 C283.621337,23.1353317 284.32133,22.972 285.012,22.972 C286.729342,22.972 288.059329,23.5973271 289.002,24.848 C289.944671,26.0986729 290.416,27.7879894 290.416,29.916 C290.416,31.4280076 290.145336,32.7439944 289.604,33.864 C289.062664,34.9840056 288.344004,35.8426637 287.448,36.44 C286.551996,37.0373363 285.581339,37.336 284.536,37.336 Z M283.976,34.984 C285.021339,34.984 285.870663,34.5406711 286.524,33.654 C287.177337,32.7673289 287.504,31.5400078 287.504,29.972 C287.504,26.8733178 286.421344,25.324 284.256,25.324 C283.229328,25.324 282.137339,25.8839944 280.98,27.004 L280.98,33.724 C281.484003,34.1533355 281.992664,34.4706656 282.506,34.676 C283.019336,34.8813344 283.509331,34.984 283.976,34.984 Z M297.052,37.336 C295.857327,37.336 294.88667,36.9766703 294.14,36.258 C293.39333,35.5393297 293.02,34.5733394 293.02,33.36 C293.02,31.885326 293.673327,30.7513373 294.98,29.958 C296.286673,29.1646627 298.367986,28.6093349 301.224,28.292 C301.186666,26.2759899 300.309342,25.268 298.592,25.268 C297.434661,25.268 296.118674,25.734662 294.644,26.668 L293.58,24.764 C295.446676,23.5693274 297.285324,22.972 299.096,22.972 C300.757342,22.972 301.998663,23.4713283 302.82,24.47 C303.641337,25.4686717 304.052,26.901324 304.052,28.768 L304.052,37 L301.728,37 L301.504,35.432 L301.42,35.432 C299.907992,36.7013397 298.452007,37.336 297.052,37.336 Z M297.92,35.096 C298.49867,35.096 299.039997,34.9653346 299.544,34.704 C300.048003,34.4426654 300.607997,34.0320028 301.224,33.472 L301.224,30.084 C299.245323,30.3266679 297.840671,30.6999975 297.01,31.204 C296.179329,31.7080025 295.764,32.3613293 295.764,33.164 C295.764,33.7986698 295.959998,34.2793317 296.352,34.606 C296.744002,34.9326683 297.266663,35.096 297.92,35.096 Z M308.112,23.308 L310.436,23.308 L310.66,25.772 L310.744,25.772 C311.229336,24.8946623 311.812663,24.2086691 312.494,23.714 C313.175337,23.2193309 313.88933,22.972 314.636,22.972 C315.252003,22.972 315.755998,23.0653324 316.148,23.252 L315.644,25.716 C315.139997,25.5666659 314.682669,25.492 314.272,25.492 C313.655997,25.492 313.049336,25.7299976 312.452,26.206 C311.854664,26.6820024 311.350669,27.4333282 310.94,28.46 L310.94,37 L308.112,37 L308.112,23.308 Z"/>
        <rect id="separator" width="2" height="26" x="215" y="11" fill="#ED5153" fill-rule="nonzero"/>
        <g id="Logo/Horizontal/Base">
          <g id="icon-logo-horizontal">
            <path id="base-1" fill="#ED5153" fill-rule="nonzero" d="M16.3211991,0 L18.5091221,3.85777778 C18.959181,4.65404124 18.959181,5.6304032 18.5091221,6.42666667 L5.48304069,29.3155556 L11.6321627,40.1155556 C12.6026124,41.8222222 14.3891221,42.8711111 16.316788,42.8711111 C18.2488651,42.8711111 20.0309636,41.8222222 21.0014133,40.1155556 L27.1505353,29.3155556 L25.4875375,26.4 L18.5179443,38.6577778 C18.0619249,39.4460489 17.2245576,39.9308319 16.3189936,39.9308319 C15.4134296,39.9308319 14.5760623,39.4460489 14.1200428,38.6577778 L8.81344754,29.3155556 L20.9087794,8.05777778 L23.1011135,11.9111111 C23.552849,12.7085124 23.552849,13.6870432 23.1011135,14.4844444 L14.6582013,29.3155556 L16.3211991,32.2311111 L25.4963597,16.1155556 L31.5087366,26.6844444 C32.4310148,28.3138636 32.4310148,30.3128031 31.5087366,31.9422222 L25.3949036,42.6844444 C24.4509208,44.3288889 21.5660385,48 16.3079657,48 C11.0587152,48 8.18265525,44.3288889 7.24308351,42.6844444 L1.13366167,31.9466667 C0.209705413,30.3161103 0.209705413,28.3150008 1.13366167,26.6844444 L16.3123769,0"/>
            <path id="details-1" fill="#0C0D0D" fill-rule="nonzero" d="M64.9539615,18.4888889 C60.0576017,18.5022222 56.0875803,21.9688889 56.0875803,27.52 C56.0875803,33.08 59.5062099,36.4755556 64.9892505,36.4755556 C67.16394,36.4755556 69.4444968,37.6 69.4444968,40.0533333 C69.4444968,42.5066667 67.4859529,43.8844444 64.9892505,43.8844444 C62.4969593,43.8844444 60.3972591,42.3644444 60.3972591,40.0533333 L56.0875803,40.0533333 C56.0875803,44.8533333 59.8988009,48 64.9892505,48 C70.0841113,48 73.7894647,44.9644444 73.7894647,40.0533333 C73.7894647,37.7777778 73.0748608,35.6444444 70.1546895,34.1644444 C73.0395717,32.8311111 73.8600428,29.72 73.8600428,27.5155556 C73.8600428,21.96 69.8679657,18.4888889 64.9539615,18.4888889 Z M64.9892505,32.8311111 C62.4616702,32.8311111 60.3972591,30.6266667 60.3972591,27.52 C60.3972591,24.4088889 62.4616702,22.1377778 64.9892505,22.1377778 C67.4859529,22.1377778 69.550364,24.4488889 69.550364,27.52 C69.550364,30.5866667 67.4859529,32.8266667 64.9892505,32.8266667 L64.9892505,32.8311111 Z M170.750621,29.4133333 C171.235846,31.5244444 173.145867,33.3688889 176.211606,33.3688889 C177.812848,33.3688889 179.916959,32.5777778 180.913876,31.5333333 L183.692891,34.2977778 C181.840214,36.2444444 178.814176,37.1777778 176.141028,37.1777778 C170.657987,37.1688889 166.687966,33.4888889 166.687966,27.8177778 C166.687966,22.4222222 170.78591,18.5155556 175.832248,18.4976783 C181.147666,18.4755556 185.558801,22.1777778 185.082398,29.4133333 L170.74621,29.4133333 L170.750621,29.4133333 Z M180.957987,26.0577778 C180.46394,23.9466667 178.381884,22.1288889 175.885182,22.1288889 C173.500905,22.1511836 171.414439,23.7490894 170.755032,26.0577778 L180.957987,26.0577778 Z M150.719657,29.4133333 C151.204882,31.5244444 153.114904,33.3688889 156.180642,33.3688889 C157.781884,33.3688889 159.885996,32.5777778 160.882912,31.5333333 L163.661927,34.2977778 C161.809251,36.2444444 158.783212,37.1777778 156.110064,37.1777778 C150.631435,37.1688889 146.657002,33.4888889 146.657002,27.8177778 C146.657002,22.4222222 150.754946,18.5155556 155.801285,18.4976783 C161.116702,18.4755556 165.527837,22.1777778 165.051435,29.4133333 L150.715246,29.4133333 L150.719657,29.4133333 L150.719657,29.4133333 Z M160.927024,26.0577778 C160.432976,23.9466667 158.350921,22.1288889 155.854218,22.1288889 C153.469942,22.1511836 151.383475,23.7490894 150.724069,26.0577778 L160.927024,26.0577778 Z M86.4141328,18.4711111 C84.4291221,18.4711111 82.5146895,19.0844444 80.9575589,21.1288889 L80.9575589,11.0711111 L76.6346467,11.0711111 L76.6346467,36.7111111 L80.9575589,36.7111111 L80.9575589,27.6577778 C80.9575589,24.9955556 82.726424,22.8044444 85.2804711,22.8044444 C87.5830835,22.8044444 89.2504925,24.1688889 89.2504925,27.4044444 L89.2504925,36.7066667 L93.5689936,36.7066667 L93.5689936,27.0933333 C93.5689936,21.8844444 91.3722484,18.4711111 86.4141328,18.4711111 Z M136.087923,18.4933333 C134.102912,18.4933333 131.765011,19.3555556 130.419615,21.3288889 L130.278458,18.8977778 L126.101113,18.8977778 L126.101113,44.5555556 L130.424026,44.0844444 L130.424026,34.6222222 C131.659143,36.56 134.349936,37.1733333 136.19379,37.1733333 C141.795931,37.1733333 145.051349,32.9377778 145.051349,27.7644444 C145.051349,22.5511111 141.47833,18.4933333 136.087923,18.4933333 L136.087923,18.4933333 Z M135.770321,33.3777778 C132.832505,33.3777778 130.812206,30.6311111 130.812206,27.8711111 C130.812206,25.1066667 132.651649,22.1288889 135.770321,22.1288889 C138.888994,22.1288889 140.732848,25.1066667 140.732848,27.8711111 C140.732848,30.6355556 138.712548,33.3777778 135.770321,33.3777778 L135.770321,33.3777778 Z M195.563255,37.1733333 C197.548266,37.1733333 199.886167,36.3155556 201.231563,34.3377778 L201.377131,36.7066667 L205.558887,36.7066667 L205.558887,11.1111111 L201.235974,11.1111111 L201.235974,21.0444444 C200.000857,19.1066667 197.265953,18.5244444 195.42651,18.5244444 C189.828779,18.5244444 186.60424,22.7288889 186.60424,27.9066667 C186.60424,33.1155556 190.18167,37.1733333 195.567666,37.1733333 L195.563255,37.1688889 L195.563255,37.1733333 Z M195.880857,22.2888889 C198.823084,22.2888889 200.843383,25.0311111 200.843383,27.8 C200.843383,30.5644444 198.999529,33.5377778 195.880857,33.5377778 C192.766595,33.5377778 190.922741,30.5644444 190.922741,27.8 C190.922741,25.0311111 192.943041,22.2888889 195.880857,22.2888889 Z M104.08955,33.6977778 C103.54257,33.6977778 103.136745,33.52 102.876488,33.1688889 C102.61182,32.8222222 102.479486,32.2577778 102.479486,31.48 L102.479486,22.7244444 L105.964283,22.7244444 L106.361285,18.9111111 L102.519186,18.9111111 L102.519186,14.0222222 L98.1521627,14.4933333 L98.1521627,18.9111111 L94.8614561,18.9111111 L94.8614561,22.72 L98.1521627,22.72 L98.1698073,31.5688889 C98.1698073,33.4 98.5932762,34.7866667 99.4446253,35.7288889 C100.295974,36.6755556 101.548737,37.1555556 103.207323,37.1733333 C103.939572,37.1733333 104.67182,37.0666667 105.412891,36.8488889 C106.118672,36.6488889 106.789165,36.3333333 107.397901,35.9155556 L105.911349,33.1155556 C105.367083,33.4705288 104.737488,33.6702028 104.08955,33.6933333 L104.08955,33.6977778 Z M121.88848,27.1688889 C120.132848,26.0666667 118.050792,25.92 116.039315,25.7911111 C114.857131,25.72 113.022099,25.4355556 113.022099,23.88 C113.022099,22.76 114.168994,22.1155556 116.242227,22.1155556 C117.927281,22.1155556 119.360899,22.5111111 120.613662,23.6977778 L123.053019,20.8177778 C121.010664,19.0266667 118.933019,18.4888889 116.171649,18.4888889 C112.95152,18.4888889 108.721242,19.9288889 108.721242,24.0222222 C108.721242,25.7288889 109.616702,27.2977778 111.04591,28.1911111 C112.686852,29.2266667 114.77773,29.3688889 116.625996,29.5644444 C117.861113,29.6933333 119.885824,30.0088889 119.5594,31.7422222 C119.32561,32.9644444 117.900814,33.3111111 116.855375,33.3555556 C115.74818,33.4088889 114.632163,33.3288889 113.555846,33.0488889 C112.413362,32.7466667 111.460557,32.1777778 110.485696,31.52 L108.297773,34.3644444 L108.562441,34.5866667 C111.403212,36.9333333 115.329122,37.7111111 118.884497,36.8977778 C121.557645,36.2888889 123.87349,34.3066667 123.87349,31.3511111 C123.87349,29.6888889 123.313276,28.0622222 121.88848,27.1733333 L121.88848,27.1688889 Z M49.2944325,36.7111111 L53.6173448,36.7111111 L53.6173448,18.9333333 L49.2944325,18.9333333 L49.2944325,36.7111111 Z M48.9238818,13.24 C48.9215531,12.5610445 49.1870002,11.9089596 49.6618417,11.4271986 C50.1366827,10.9454376 50.7820216,10.6734645 51.4558887,10.6711111 C52.8574178,10.6760122 53.9903216,11.8234366 53.987884,13.2355556 C53.987884,14.6577778 52.8542184,15.8088889 51.4558887,15.8088889 C50.7853961,15.8088889 50.1413704,15.5422222 49.669379,15.0577778 C49.1919447,14.5732976 48.9239753,13.9182855 48.9238818,13.2355556 L48.9238818,13.24 Z M45.7478801,36.7377778 L45.7478801,11.0933333 L41.4646681,11.0933333 L41.4646681,36.7377778 L45.7522912,36.7377778 L45.7478801,36.7377778 Z"/>
          </g>
        </g>
      </g>
    </g>
  </g>
</svg>
