<?xml version="1.0" encoding="UTF-8" standalone="no"?>
<svg
   xmlns:sketch="http://www.bohemiancoding.com/sketch/ns"
   xmlns:dc="http://purl.org/dc/elements/1.1/"
   xmlns:cc="http://creativecommons.org/ns#"
   xmlns:rdf="http://www.w3.org/1999/02/22-rdf-syntax-ns#"
   xmlns:svg="http://www.w3.org/2000/svg"
   xmlns="http://www.w3.org/2000/svg"
   xmlns:sodipodi="http://sodipodi.sourceforge.net/DTD/sodipodi-0.dtd"
   xmlns:inkscape="http://www.inkscape.org/namespaces/inkscape"
   width="237px"
   height="110px"
   viewBox="0 0 237 110"
   version="1.1"
   id="svg2"
   inkscape:version="0.48.4 r9939"
   sodipodi:docname="englishliveLogo.svg">
  <metadata
     id="metadata74">
    <rdf:RDF>
      <cc:Work
         rdf:about="">
        <dc:format>image/svg+xml</dc:format>
        <dc:type
           rdf:resource="http://purl.org/dc/dcmitype/StillImage" />
      </cc:Work>
    </rdf:RDF>
  </metadata>
  <sodipodi:namedview
     pagecolor="#ffffff"
     bordercolor="#666666"
     borderopacity="1"
     objecttolerance="10"
     gridtolerance="10"
     guidetolerance="10"
     inkscape:pageopacity="0"
     inkscape:pageshadow="2"
     inkscape:window-width="1596"
     inkscape:window-height="959"
     id="namedview72"
     showgrid="false"
     inkscape:zoom="4.92827"
     inkscape:cx="153.9082"
     inkscape:cy="8.0347039"
     inkscape:window-x="75"
     inkscape:window-y="34"
     inkscape:window-maximized="0"
     inkscape:current-layer="svg2" />
  <!-- Generator: Sketch 3.4.4 (17249) - http://www.bohemiancoding.com/sketch -->
  <title
     id="title4">englishliveLogo</title>
  <desc
     id="desc6">Created with Sketch.</desc>
  <defs
     id="defs8" />
  <g
     style="fill:#303033;fill-rule:evenodd;stroke:none"
     id="EF-Logo"
     transform="translate(75,0)"
     sketch:type="MSShapeGroup">
    <path
       d="m 24.958019,12.059803 4.426608,0 c 0.232475,-0.242025 0.468664,-0.483129 0.710734,-0.723006 4.696538,-4.6527553 10.532541,-7.6558195 16.518676,-8.5190087 l 0.560601,-2.70030377 -4.82717,0 C 37.163384,1.7377281 32.06257,4.7475408 27.696944,9.0711556 26.722162,10.039253 25.8096,11.035571 24.958019,12.059803"
       id="Fill-1"
       inkscape:connector-curvature="0" />
    <path
       d="m 59.024945,23.601508 c 0,3.773308 -1.872176,7.707967 -5.271068,11.074834 -2.136225,2.118403 -4.685085,3.642634 -7.359313,4.438032 l -0.652847,3.156131 c 3.444706,-0.905213 6.839264,-2.888647 9.717487,-5.743552 7.473229,-7.403059 8.604026,-17.450594 2.630582,-23.373286 -1.5586,-1.546625 -3.496092,-2.612881 -5.674726,-3.1601198 l -0.676683,3.2662538 c 1.505666,0.518711 2.855317,1.342944 3.959183,2.436807 2.175229,2.15552 3.327385,4.889259 3.327385,7.9049"
       id="Fill-2"
       inkscape:connector-curvature="0" />
    <path
       d="m 52.881247,25.046905 c 0.1523,-1.891102 -0.454424,-3.621775 -1.709971,-4.864719 -0.229378,-0.225766 -0.475783,-0.424539 -0.736426,-0.605214 l -2.649774,12.804587 c 0.841056,-0.4773 1.631344,-1.072084 2.334959,-1.770243 1.620819,-1.60736 2.601483,-3.583432 2.761212,-5.564411"
       id="Fill-3"
       inkscape:connector-curvature="0" />
    <path
       d="M 10.757276,0.11748453 8.9015058,9.0929347 C 11.000275,5.9506069 13.470198,2.9524507 16.286821,0.11748453 l -5.529545,0"
       id="Fill-4"
       inkscape:connector-curvature="0" />
    <path
       d="m 52.539501,33.472049 c 3.075718,-3.045702 4.768044,-6.549993 4.768044,-9.870541 0,-2.555826 -0.976949,-4.871774 -2.823123,-6.703981 -0.880678,-0.870551 -1.921395,-1.527912 -3.093673,-1.961961 l -0.591865,2.873617 c 0.583508,0.313803 1.118106,0.705214 1.587697,1.168403 1.616177,1.60368 2.398417,3.807972 2.207113,6.206742 -0.19378,2.383433 -1.349651,4.739259 -3.259593,6.630054 -1.157728,1.148772 -2.531834,2.062574 -3.983637,2.681592 l -0.555648,2.682819 c 2.030977,-0.748158 4.018308,-1.99601 5.744685,-3.706744"
       id="Fill-5"
       inkscape:connector-curvature="0" />
    <path
       d="m 73.502739,12.059803 5.840336,0 C 78.234566,7.5797462 76.040764,3.5134931 72.855464,0.11748453 l -9.36274,0 c 1.646512,0.93220757 3.15094,2.06809587 4.495947,3.39815577 2.499022,2.4791383 4.350149,5.3506076 5.514068,8.5441627"
       id="Fill-6"
       inkscape:connector-curvature="0" />
    <path
       d="M 3.1255566,47.731236 C 2.5841484,46.390439 2.1318915,45.019582 1.7653807,43.614676 l -1.63010604,7.891095 4.79652364,0 C 4.2541868,50.289515 3.6505584,49.032461 3.1255566,47.731236"
       id="Fill-7"
       inkscape:connector-curvature="0" />
    <path
       d="m 13.379809,18.888016 c -2.177396,4.812571 -3.281571,9.688946 -3.281571,14.488634 0,3.688953 0.663681,7.208888 1.970924,10.467473 1.132035,2.814108 2.729328,5.384043 4.761234,7.661648 l 9.050711,0 C 24.61163,50.699331 23.440281,49.768043 22.377586,48.712523 17.260365,43.644124 14.833779,36.736769 15.547918,29.262544 15.899261,25.572978 16.996007,21.87789 18.805963,18.281575 20.676902,14.567775 23.26074,11.064712 26.482568,7.86993 29.553643,4.8254548 33.033947,2.3499974 36.8204,0.5156436 37.102093,0.37944743 37.385024,0.24570525 37.669194,0.11503055 l -8.749515,0 C 26.933587,1.5585872 25.037884,3.1693217 23.245572,4.9453933 18.963216,9.1895604 15.644189,13.879739 13.379809,18.888016"
       id="Fill-8"
       inkscape:connector-curvature="0" />
    <path
       d="m 28.359078,29.739538 c 0,0.606441 0.03777,1.198771 0.105867,1.778219 l 3.14413,0 c -0.205853,-0.866871 -0.311101,-1.774845 -0.311101,-2.702451 0,-1.922391 0.433375,-3.860426 1.28805,-5.767785 0.571126,-1.27914 1.319315,-2.498771 2.225686,-3.64969 l -3.100482,0 c -2.16099,3.222389 -3.35215,6.832815 -3.35215,10.341707"
       id="Fill-9"
       inkscape:connector-curvature="0" />
    <path
       d="m 40.228578,19.397831 -3.168894,0 c -2.577957,2.799077 -4.043691,6.192631 -4.043691,9.417781 0,0.947239 0.121036,1.849078 0.355986,2.702145 l 3.057146,0 c -0.522526,-1.046318 -0.799885,-2.226072 -0.799885,-3.462573 0,-2.715948 1.26019,-5.45705 3.544691,-7.722078 0.338342,-0.335889 0.690613,-0.649385 1.054647,-0.935275"
       id="Fill-10"
       inkscape:connector-curvature="0" />
    <path
       d="m 56.672343,37.729406 c -3.316861,3.290181 -7.29214,5.507356 -11.310138,6.382202 l -0.702066,3.396008 c 5.197085,-1.012269 10.357333,-3.756744 14.395452,-7.757046 4.573336,-4.532817 7.536377,-10.036492 8.338739,-15.497223 0.14549,-0.986808 0.213591,-1.961347 0.214829,-2.913187 0,-0.223619 -0.0034,-0.450306 -0.01052,-0.673005 C 67.437667,16.231884 65.681882,12.258575 62.423837,9.0303581 59.995084,6.6233056 56.914723,5.1466201 53.5375,4.5588907 l -0.776978,3.7647197 c 2.505831,0.6159503 4.737398,1.8414086 6.54395,3.6276036 6.665295,6.607048 5.531712,17.689244 -2.632129,25.778192"
       id="Fill-11"
       inkscape:connector-curvature="0" />
    <path
       d="m 45.513576,8.1677824 0.733022,-3.565947 c -5.015997,0.863496 -10.14529,3.3858858 -14.441576,7.4579676 l 4.682608,0 c 2.775452,-1.988035 5.866649,-3.3276041 9.025946,-3.8920206"
       id="Fill-12"
       inkscape:connector-curvature="0" />
    <path
       d="m 63.638214,7.8291325 c 2.313908,2.2926355 3.947419,4.9463135 4.852862,7.8920155 0.02693,0.08497 0.05417,0.169939 0.0777,0.256135 l 0.810409,-3.91748 2.290074,0 C 70.583964,9.3328118 68.940856,6.8690108 66.773985,4.7180929 64.676454,2.6407946 62.194768,1.1104282 59.471011,0.11748453 l -5.014758,0 -0.572983,2.77116257 c 0.812577,0.1420244 1.609985,0.3340487 2.390987,0.5714718 2.843554,0.8739254 5.321836,2.3426354 7.363957,4.3690136"
       id="Fill-13"
       inkscape:connector-curvature="0" />
    <path
       d="M 38.06635,44.146577 C 35.327426,43.533388 32.858741,42.175413 30.80207,40.14106 30.534307,39.873269 30.280783,39.595968 30.037475,39.314374 l -5.070169,0 c 0.74819,1.361961 1.687683,2.61288 2.801145,3.718707 2.575791,2.552451 5.836003,4.146315 9.545067,4.695701 l 0.752832,-3.582205"
       id="Fill-14"
       inkscape:connector-curvature="0" />
    <path
       d="m 45.139946,9.9751424 c -1.875272,0.4085886 -3.720517,1.1141096 -5.470421,2.0846606 l 5.040761,0 0.42966,-2.0846606"
       id="Fill-15"
       inkscape:connector-curvature="0" />
    <path
       d="m 22.839129,30.790457 c 0,0.244478 0.0059,0.485275 0.01641,0.7273 l 3.883961,0 c -0.06439,-0.584049 -0.09627,-1.175459 -0.09627,-1.777913 0,-3.502143 1.07353,-7.083427 3.040739,-10.342319 l -3.673775,0 c -2.071838,3.66748 -3.171061,7.552138 -3.171061,11.392932"
       id="Fill-16"
       inkscape:connector-curvature="0" />
    <path
       d="m 39.078589,39.323883 0.0037,-0.0095 -6.666534,0 c 1.728854,1.583127 3.761688,2.653678 6.001923,3.168094 l 0.660896,-3.158585"
       id="Fill-17"
       inkscape:connector-curvature="0" />
    <path
       d="m 17.255722,29.420826 c -0.662443,6.960729 1.586769,13.387409 6.335312,18.092618 1.691087,1.676379 3.680585,3.014414 5.925153,3.992327 l 7.005804,0 0.441422,-2.106746 C 32.92808,48.785529 29.375031,47.03093 26.555313,44.23492 25.104748,42.796579 23.921946,41.135844 23.038791,39.314374 l -4.07898,0 1.573768,-7.796617 0.602699,0 c -0.0071,-0.242945 -0.01424,-0.483129 -0.01424,-0.729448 0,-3.8411 1.014715,-7.714101 2.939825,-11.391705 l -1.006667,0 1.371939,-6.682814 c -4.11303,5.170853 -6.624124,10.97238 -7.171414,16.707036"
       id="Fill-18"
       inkscape:connector-curvature="0" />
    <path
       d="m 8.3811473,33.37665 c 0,-5.041712 1.1558708,-10.151216 3.4320137,-15.184646 C 14.163288,12.993237 17.602112,8.1340401 22.031196,3.7441676 23.3372,2.4487703 24.694899,1.2417164 26.100889,0.11748453 l -7.370147,0 C 18.433881,0.39907931 18.140115,0.68558206 17.847587,0.97085782 13.757154,5.0291356 10.409648,9.4337319 7.8645033,14.110107 L 2.6593698,39.291061 c 0.368368,2.709199 1.0558852,5.32116 2.0613133,7.809194 0.6153914,1.527299 1.3471746,2.997236 2.1916352,4.405516 l 7.6762947,0 C 12.874928,49.370191 11.49587,47.013445 10.474345,44.470196 9.086309,41.015906 8.3811473,37.28002 8.3811473,33.37665"
       id="Fill-19"
       inkscape:connector-curvature="0" />
    <path
       d="m 61.218747,51.505771 1.175992,-5.673613 c -2.538334,2.278525 -5.398294,4.187419 -8.431914,5.673613 l 7.255922,0"
       id="Fill-20"
       inkscape:connector-curvature="0" />
    <path
       d="m 44.288675,49.302399 -0.454424,2.203372 5.76883,0 c 4.738018,-1.693556 9.209202,-4.465946 12.862855,-8.092015 0.184494,-0.179448 0.363106,-0.363497 0.54048,-0.543865 l 1.432921,-6.907047 c -1.195803,1.751532 -2.592197,3.427603 -4.171536,4.990178 -4.453849,4.413186 -10.212463,7.383734 -15.979126,8.349377"
       id="Fill-21"
       inkscape:connector-curvature="0" />
    <path
       d="m 83.240347,0.11748453 -8.097906,0 C 78.069884,3.5895666 80.083216,7.6429363 81.113409,12.059496 l 6.261018,0 C 86.986867,9.4064313 86.305851,6.8472317 85.332926,4.4098111 84.737965,2.9187084 84.039304,1.4874217 83.240347,0.11748453"
       id="Fill-22"
       inkscape:connector-curvature="0" />
    <path
       d="m 85.207557,0.11748453 c 0.644799,1.18282077 1.218091,2.40551887 1.722972,3.66717387 0.608271,1.5269922 1.10758,3.0981561 1.498546,4.7088905 l 1.728853,-8.37606437 -4.950371,0"
       id="Fill-23"
       inkscape:connector-curvature="0" />
    <path
       d="m 73.177399,21.34016 -3.852387,0 c 0,1.037116 -0.07553,2.091409 -0.234332,3.160733 -0.44328,3.030978 -1.508452,6.068398 -3.10946,8.961953 l 3.848673,0 c 1.67592,-3.283432 2.759974,-6.693244 3.179418,-10.090786 0.08358,-0.681901 0.139918,-1.359201 0.168088,-2.0319"
       id="Fill-24"
       inkscape:connector-curvature="0" />
    <path
       d="m 81.715799,22.690159 c -0.384155,3.621775 -1.340984,7.246004 -2.815075,10.772381 l 3.956706,0 2.467757,-12.12238 -3.492687,0 c -0.02972,0.44908 -0.06965,0.898466 -0.116701,1.349999"
       id="Fill-25"
       inkscape:connector-curvature="0" />
    <path
       d="m 80.111695,21.34016 -5.215039,0 c -0.03034,0.742638 -0.09163,1.484968 -0.183255,2.236808 -0.411087,3.327297 -1.422087,6.662876 -2.973566,9.885878 l 5.296761,0 c 1.570362,-3.580057 2.580434,-7.269623 2.971708,-10.951828 0.04365,-0.391104 0.07491,-0.779754 0.103391,-1.170858"
       id="Fill-26"
       inkscape:connector-curvature="0" />
    <path
       d="m 40.388308,21.535866 c -1.963805,1.943249 -3.041978,4.25705 -3.041978,6.519624 0,1.3046 0.369916,2.48466 1.074768,3.460426 l 1.836888,0 2.3817,-11.698147 c -0.800813,0.457362 -1.562004,1.033435 -2.251378,1.718097"
       id="Fill-27"
       inkscape:connector-curvature="0" />
    <path
       d="m 24.958019,12.059803 4.426608,0 c 0.232475,-0.242025 0.468664,-0.483129 0.710734,-0.723006 4.696538,-4.6527553 10.532541,-7.6558195 16.518676,-8.5190087 l 0.560601,-2.70030377 -4.82717,0 C 37.163384,1.7377281 32.06257,4.7475408 27.696944,9.0711556 26.722162,10.039253 25.8096,11.035571 24.958019,12.059803"
       id="Fill-28"
       inkscape:connector-curvature="0" />
    <path
       d="m 59.024945,23.601508 c 0,3.773308 -1.872176,7.707967 -5.271068,11.074834 -2.136225,2.118403 -4.685085,3.642634 -7.359313,4.438032 l -0.652847,3.156131 c 3.444706,-0.905213 6.839264,-2.888647 9.717487,-5.743552 7.473229,-7.403059 8.604026,-17.450594 2.630582,-23.373286 -1.5586,-1.546625 -3.496092,-2.612881 -5.674726,-3.1601198 l -0.676683,3.2662538 c 1.505666,0.518711 2.855317,1.342944 3.959183,2.436807 2.175229,2.15552 3.327385,4.889259 3.327385,7.9049"
       id="Fill-29"
       inkscape:connector-curvature="0" />
    <path
       d="m 52.881247,25.046905 c 0.1523,-1.891102 -0.454424,-3.621775 -1.709971,-4.864719 -0.229378,-0.225766 -0.475783,-0.424539 -0.736426,-0.605214 l -2.649774,12.804587 c 0.841056,-0.4773 1.631344,-1.072084 2.334959,-1.770243 1.620819,-1.60736 2.601483,-3.583432 2.761212,-5.564411"
       id="Fill-30"
       inkscape:connector-curvature="0" />
    <path
       d="M 10.757276,0.11748453 8.9015058,9.0929347 C 11.000275,5.9506069 13.470198,2.9524507 16.286821,0.11748453 l -5.529545,0"
       id="Fill-31"
       inkscape:connector-curvature="0" />
    <path
       d="m 52.539501,33.472049 c 3.075718,-3.045702 4.768044,-6.549993 4.768044,-9.870541 0,-2.555826 -0.976949,-4.871774 -2.823123,-6.703981 -0.880678,-0.870551 -1.921395,-1.527912 -3.093673,-1.961961 l -0.591865,2.873617 c 0.583508,0.313803 1.118106,0.705214 1.587697,1.168403 1.616177,1.60368 2.398417,3.807972 2.207113,6.206742 -0.19378,2.383433 -1.349651,4.739259 -3.259593,6.630054 -1.157728,1.148772 -2.531834,2.062574 -3.983637,2.681592 l -0.555648,2.682819 c 2.030977,-0.748158 4.018308,-1.99601 5.744685,-3.706744"
       id="Fill-32"
       inkscape:connector-curvature="0" />
    <path
       d="m 73.502739,12.059803 5.840336,0 C 78.234566,7.5797462 76.040764,3.5134931 72.855464,0.11748453 l -9.36274,0 c 1.646512,0.93220757 3.15094,2.06809587 4.495947,3.39815577 2.499022,2.4791383 4.350149,5.3506076 5.514068,8.5441627"
       id="Fill-33"
       inkscape:connector-curvature="0" />
    <path
       d="M 3.1255566,47.731236 C 2.5841484,46.390439 2.1318915,45.019582 1.7653807,43.614676 l -1.63010604,7.891095 4.79652364,0 C 4.2541868,50.289515 3.6505584,49.032461 3.1255566,47.731236"
       id="Fill-34"
       inkscape:connector-curvature="0" />
    <path
       d="m 13.379809,18.888016 c -2.177396,4.812571 -3.281571,9.688946 -3.281571,14.488634 0,3.688953 0.663681,7.208888 1.970924,10.467473 1.132035,2.814108 2.729328,5.384043 4.761234,7.661648 l 9.050711,0 C 24.61163,50.699331 23.440281,49.768043 22.377586,48.712523 17.260365,43.644124 14.833779,36.736769 15.547918,29.262544 15.899261,25.572978 16.996007,21.87789 18.805963,18.281575 20.676902,14.567775 23.26074,11.064712 26.482568,7.86993 29.553643,4.8254548 33.033947,2.3499974 36.8204,0.5156436 37.102093,0.37944743 37.385024,0.24570525 37.669194,0.11503055 l -8.749515,0 C 26.933587,1.5585872 25.037884,3.1693217 23.245572,4.9453933 18.963216,9.1895604 15.644189,13.879739 13.379809,18.888016"
       id="Fill-35"
       inkscape:connector-curvature="0" />
    <path
       d="m 28.359078,29.739538 c 0,0.606441 0.03777,1.198771 0.105867,1.778219 l 3.14413,0 c -0.205853,-0.866871 -0.311101,-1.774845 -0.311101,-2.702451 0,-1.922391 0.433375,-3.860426 1.28805,-5.767785 0.571126,-1.27914 1.319315,-2.498771 2.225686,-3.64969 l -3.100482,0 c -2.16099,3.222389 -3.35215,6.832815 -3.35215,10.341707"
       id="Fill-36"
       inkscape:connector-curvature="0" />
    <path
       d="m 40.228578,19.397831 -3.168894,0 c -2.577957,2.799077 -4.043691,6.192631 -4.043691,9.417781 0,0.947239 0.121036,1.849078 0.355986,2.702145 l 3.057146,0 c -0.522526,-1.046318 -0.799885,-2.226072 -0.799885,-3.462573 0,-2.715948 1.26019,-5.45705 3.544691,-7.722078 0.338342,-0.335889 0.690613,-0.649385 1.054647,-0.935275"
       id="Fill-37"
       inkscape:connector-curvature="0" />
    <path
       d="m 56.672343,37.729406 c -3.316861,3.290181 -7.29214,5.507356 -11.310138,6.382202 l -0.702066,3.396008 c 5.197085,-1.012269 10.357333,-3.756744 14.395452,-7.757046 4.573336,-4.532817 7.536377,-10.036492 8.338739,-15.497223 0.14549,-0.986808 0.213591,-1.961347 0.214829,-2.913187 0,-0.223619 -0.0034,-0.450306 -0.01052,-0.673005 C 67.437667,16.231884 65.681882,12.258575 62.423837,9.0303581 59.995084,6.6233056 56.914723,5.1466201 53.5375,4.5588907 l -0.776978,3.7647197 c 2.505831,0.6159503 4.737398,1.8414086 6.54395,3.6276036 6.665295,6.607048 5.531712,17.689244 -2.632129,25.778192"
       id="Fill-38"
       inkscape:connector-curvature="0" />
    <path
       d="m 45.513576,8.1677824 0.733022,-3.565947 c -5.015997,0.863496 -10.14529,3.3858858 -14.441576,7.4579676 l 4.682608,0 c 2.775452,-1.988035 5.866649,-3.3276041 9.025946,-3.8920206"
       id="Fill-39"
       inkscape:connector-curvature="0" />
    <path
       d="m 63.638214,7.8291325 c 2.313908,2.2926355 3.947419,4.9463135 4.852862,7.8920155 0.02693,0.08497 0.05417,0.169939 0.0777,0.256135 l 0.810409,-3.91748 2.290074,0 C 70.583964,9.3328118 68.940856,6.8690108 66.773985,4.7180929 64.676454,2.6407946 62.194768,1.1104282 59.471011,0.11748453 l -5.014758,0 -0.572983,2.77116257 c 0.812577,0.1420244 1.609985,0.3340487 2.390987,0.5714718 2.843554,0.8739254 5.321836,2.3426354 7.363957,4.3690136"
       id="Fill-40"
       inkscape:connector-curvature="0" />
    <path
       d="M 38.06635,44.146577 C 35.327426,43.533388 32.858741,42.175413 30.80207,40.14106 30.534307,39.873269 30.280783,39.595968 30.037475,39.314374 l -5.070169,0 c 0.74819,1.361961 1.687683,2.61288 2.801145,3.718707 2.575791,2.552451 5.836003,4.146315 9.545067,4.695701 l 0.752832,-3.582205"
       id="Fill-41"
       inkscape:connector-curvature="0" />
    <path
       d="m 45.139946,9.9751424 c -1.875272,0.4085886 -3.720517,1.1141096 -5.470421,2.0846606 l 5.040761,0 0.42966,-2.0846606"
       id="Fill-42"
       inkscape:connector-curvature="0" />
    <path
       d="m 22.839129,30.790457 c 0,0.244478 0.0059,0.485275 0.01641,0.7273 l 3.883961,0 c -0.06439,-0.584049 -0.09627,-1.175459 -0.09627,-1.777913 0,-3.502143 1.07353,-7.083427 3.040739,-10.342319 l -3.673775,0 c -2.071838,3.66748 -3.171061,7.552138 -3.171061,11.392932"
       id="Fill-43"
       inkscape:connector-curvature="0" />
    <path
       d="m 39.078589,39.323883 0.0037,-0.0095 -6.666534,0 c 1.728854,1.583127 3.761688,2.653678 6.001923,3.168094 l 0.660896,-3.158585"
       id="Fill-44"
       inkscape:connector-curvature="0" />
    <path
       d="m 17.255722,29.420826 c -0.662443,6.960729 1.586769,13.387409 6.335312,18.092618 1.691087,1.676379 3.680585,3.014414 5.925153,3.992327 l 7.005804,0 0.441422,-2.106746 C 32.92808,48.785529 29.375031,47.03093 26.555313,44.23492 25.104748,42.796579 23.921946,41.135844 23.038791,39.314374 l -4.07898,0 1.573768,-7.796617 0.602699,0 c -0.0071,-0.242945 -0.01424,-0.483129 -0.01424,-0.729448 0,-3.8411 1.014715,-7.714101 2.939825,-11.391705 l -1.006667,0 1.371939,-6.682814 c -4.11303,5.170853 -6.624124,10.97238 -7.171414,16.707036"
       id="Fill-45"
       inkscape:connector-curvature="0" />
    <path
       d="m 8.3811473,33.37665 c 0,-5.041712 1.1558708,-10.151216 3.4320137,-15.184646 C 14.163288,12.993237 17.602112,8.1340401 22.031196,3.7441676 23.3372,2.4487703 24.694899,1.2417164 26.100889,0.11748453 l -7.370147,0 C 18.433881,0.39907931 18.140115,0.68558206 17.847587,0.97085782 13.757154,5.0291356 10.409648,9.4337319 7.8645033,14.110107 L 2.6593698,39.291061 c 0.368368,2.709199 1.0558852,5.32116 2.0613133,7.809194 0.6153914,1.527299 1.3471746,2.997236 2.1916352,4.405516 l 7.6762947,0 C 12.874928,49.370191 11.49587,47.013445 10.474345,44.470196 9.086309,41.015906 8.3811473,37.28002 8.3811473,33.37665"
       id="Fill-46"
       inkscape:connector-curvature="0" />
    <path
       d="m 61.218747,51.505771 1.175992,-5.673613 c -2.538334,2.278525 -5.398294,4.187419 -8.431914,5.673613 l 7.255922,0"
       id="Fill-47"
       inkscape:connector-curvature="0" />
    <path
       d="m 44.288675,49.302399 -0.454424,2.203372 5.76883,0 c 4.738018,-1.693556 9.209202,-4.465946 12.862855,-8.092015 0.184494,-0.179448 0.363106,-0.363497 0.54048,-0.543865 l 1.432921,-6.907047 c -1.195803,1.751532 -2.592197,3.427603 -4.171536,4.990178 -4.453849,4.413186 -10.212463,7.383734 -15.979126,8.349377"
       id="Fill-48"
       inkscape:connector-curvature="0" />
    <path
       d="m 83.240347,0.11748453 -8.097906,0 C 78.069884,3.5895666 80.083216,7.6429363 81.113409,12.059496 l 6.261018,0 C 86.986867,9.4064313 86.305851,6.8472317 85.332926,4.4098111 84.737965,2.9187084 84.039304,1.4874217 83.240347,0.11748453"
       id="Fill-49"
       inkscape:connector-curvature="0" />
    <path
       d="m 85.207557,0.11748453 c 0.644799,1.18282077 1.218091,2.40551887 1.722972,3.66717387 0.608271,1.5269922 1.10758,3.0981561 1.498546,4.7088905 l 1.728853,-8.37606437 -4.950371,0"
       id="Fill-50"
       inkscape:connector-curvature="0" />
    <path
       d="m 73.177399,21.34016 -3.852387,0 c 0,1.037116 -0.07553,2.091409 -0.234332,3.160733 -0.44328,3.030978 -1.508452,6.068398 -3.10946,8.961953 l 3.848673,0 c 1.67592,-3.283432 2.759974,-6.693244 3.179418,-10.090786 0.08358,-0.681901 0.139918,-1.359201 0.168088,-2.0319"
       id="Fill-51"
       inkscape:connector-curvature="0" />
    <path
       d="m 81.715799,22.690159 c -0.384155,3.621775 -1.340984,7.246004 -2.815075,10.772381 l 3.956706,0 2.467757,-12.12238 -3.492687,0 c -0.02972,0.44908 -0.06965,0.898466 -0.116701,1.349999"
       id="Fill-52"
       inkscape:connector-curvature="0" />
    <path
       d="m 80.111695,21.34016 -5.215039,0 c -0.03034,0.742638 -0.09163,1.484968 -0.183255,2.236808 -0.411087,3.327297 -1.422087,6.662876 -2.973566,9.885878 l 5.296761,0 c 1.570362,-3.580057 2.580434,-7.269623 2.971708,-10.951828 0.04365,-0.391104 0.07491,-0.779754 0.103391,-1.170858"
       id="Fill-53"
       inkscape:connector-curvature="0" />
    <path
       d="m 40.388308,21.535866 c -1.963805,1.943249 -3.041978,4.25705 -3.041978,6.519624 0,1.3046 0.369916,2.48466 1.074768,3.460426 l 1.836888,0 2.3817,-11.698147 c -0.800813,0.457362 -1.562004,1.033435 -2.251378,1.718097"
       id="Fill-54"
       inkscape:connector-curvature="0" />
  </g>
  <g
     style="font-size:45.14527512px;font-style:italic;font-variant:normal;font-weight:normal;font-stretch:normal;text-align:start;line-height:125%;writing-mode:lr-tb;text-anchor:start;fill:#303033;fill-rule:evenodd;stroke:none;font-family:Helvetica Neue LT Std;-inkscape-font-specification:Helvetica Neue LT Std Italic"
     id="English-Live"
     transform="translate(-1.1199999,0)">
    <path
       d="m 1.1199999,100.51949 22.4372021,0 0.812615,-3.611619 -18.148401,0 2.3475543,-11.150883 16.7488967,0 0.722325,-3.611622 -16.703752,0 2.166973,-10.247977 17.922674,0 0.722325,-3.611622 -22.2114756,0 -6.8169365,32.233723"
       style="line-height:125%;font-family:Helvetica Neue LT Std;-inkscape-font-specification:Helvetica Neue LT Std Italic"
       id="path3286"
       inkscape:connector-curvature="0" />
    <path
       d="m 28.176832,100.51949 3.837349,0 2.708716,-12.911546 c 0.496598,-1.850954 1.218924,-3.701913 2.573281,-4.875689 1.444647,-1.534938 3.656769,-2.708717 5.778595,-2.708717 2.257261,0 4.063075,1.038344 4.063075,3.25046 0,0.812614 -0.361163,2.753863 -0.541744,3.611622 l -2.979588,13.63387 3.837349,0 2.844152,-13.317853 c 0.406307,-1.805809 0.677179,-3.566478 0.677179,-4.559673 0,-4.108216 -2.121832,-6.004321 -6.500919,-6.004321 -3.205312,0 -6.365486,1.444651 -8.306731,4.063074 l -0.09029,0 0.722325,-3.521331 -3.701913,0 -4.920835,23.340104"
       style="line-height:125%;font-family:Helvetica Neue LT Std;-inkscape-font-specification:Helvetica Neue LT Std Italic"
       id="path3288"
       inkscape:connector-curvature="0" />
    <path
       d="m 58.317654,91.038985 c 0,-4.288797 2.889303,-11.015447 8.261585,-11.015447 4.017925,0 5.959176,2.437849 5.959176,6.094612 0,4.695104 -2.708722,11.196029 -8.487311,11.196029 -3.837345,0 -5.73345,-2.934447 -5.73345,-6.275194 m 20.134792,-13.859599 -3.611622,0 -0.722324,4.288801 -0.09029,0 0,-0.09029 c -0.677178,-2.934439 -4.017933,-4.740253 -7.403825,-4.740253 -7.584398,0 -12.144079,7.494122 -12.144079,14.401342 0,5.552864 2.979594,9.661084 8.758184,9.661084 2.93444,0 5.598015,-1.083484 7.268389,-3.566472 l 0.09029,0.09029 c -1.218921,4.649962 -2.392705,9.390222 -8.351875,9.390222 -2.93444,0 -5.64316,-0.72233 -5.868886,-3.83735 l -3.837349,0 c 0.135436,5.1917 4.559678,7.22324 9.299927,7.22324 4.965975,0 8.62275,-1.85096 10.60914,-6.50092 0.677178,-1.62523 1.264068,-3.972785 1.805811,-6.365483 l 4.19851,-19.954211"
       style="line-height:125%;font-family:Helvetica Neue LT Std;-inkscape-font-specification:Helvetica Neue LT Std Italic"
       id="path3290"
       inkscape:connector-curvature="0" />
    <path
       d="m 79.229792,100.51949 3.837348,0 6.771791,-32.233723 -3.837348,0 -6.771791,32.233723"
       style="line-height:125%;font-family:Helvetica Neue LT Std;-inkscape-font-specification:Helvetica Neue LT Std Italic"
       id="path3292"
       inkscape:connector-curvature="0" />
    <path
       d="m 89.281672,100.51949 3.837348,0 4.87569,-23.340104 -3.837349,0 -4.875689,23.340104 m 10.609139,-32.233723 -3.882493,0 -0.993197,4.695108 3.882494,0 0.993196,-4.695108"
       style="line-height:125%;font-family:Helvetica Neue LT Std;-inkscape-font-specification:Helvetica Neue LT Std Italic"
       id="path3294"
       inkscape:connector-curvature="0" />
    <path
       d="m 119.42319,84.041468 c 0,-5.462573 -4.46939,-7.403825 -8.80333,-7.403825 -4.33394,0 -8.66789,2.392703 -8.66789,6.726646 0,3.521327 3.06988,5.101417 6.1849,6.320338 3.06988,1.264067 6.13976,2.166976 6.13976,4.424237 0,2.663569 -2.84415,3.566477 -5.32714,3.566477 -3.20531,0 -6.13976,-1.038345 -5.95918,-4.514528 l -3.837347,0 c -0.04515,5.959171 4.108227,7.900427 9.435367,7.900427 4.51452,0 9.52565,-2.031546 9.52565,-7.223248 0,-3.656763 -3.11503,-5.281998 -6.1849,-6.546065 -3.06988,-1.264066 -6.13976,-2.12183 -6.13976,-4.288801 0,-2.347552 2.61843,-2.979588 4.96598,-2.979588 2.66357,0 5.01112,1.354361 4.83054,4.01793 l 3.83735,0"
       style="line-height:125%;font-family:Helvetica Neue LT Std;-inkscape-font-specification:Helvetica Neue LT Std Italic"
       id="path3296"
       inkscape:connector-curvature="0" />
    <path
       d="m 121.02444,100.51949 3.83735,0 2.70871,-12.911546 c 0.4966,-1.850954 1.21893,-3.701913 2.57328,-4.875689 1.44465,-1.534938 3.65677,-2.708717 5.7786,-2.708717 2.25726,0 4.06307,1.038344 4.06307,3.25046 0,0.812614 -0.36116,2.753863 -0.54174,3.611622 l -2.97959,13.63387 3.83735,0 2.84415,-13.317853 c 0.40631,-1.805809 0.67718,-3.566478 0.67718,-4.559673 0,-4.108216 -2.12183,-6.004321 -6.50092,-6.004321 -3.20531,0 -6.36548,1.444651 -8.30673,4.063074 l -0.0903,-0.09029 2.75386,-12.32466 -3.83734,0 -6.81694,32.233723"
       style="line-height:125%;font-family:Helvetica Neue LT Std;-inkscape-font-specification:Helvetica Neue LT Std Italic"
       id="path3298"
       inkscape:connector-curvature="0" />
    <path
       d="m 159.21663,100.51949 21.35372,0 0.76747,-3.611619 -17.01977,0 5.95918,-28.622104 -4.2888,0 -6.7718,32.233723"
       style="line-height:125%;font-family:Helvetica Neue LT Std;-inkscape-font-specification:Helvetica Neue LT Std Italic"
       id="path3300"
       inkscape:connector-curvature="0" />
    <path
       d="m 183.80459,100.51949 3.83735,0 4.87569,-23.340104 -3.83735,0 -4.87569,23.340104 m 10.60914,-32.233723 -3.88249,0 -0.9932,4.695108 3.88249,0 0.9932,-4.695108"
       style="line-height:125%;font-family:Helvetica Neue LT Std;-inkscape-font-specification:Helvetica Neue LT Std Italic"
       id="path3302"
       inkscape:connector-curvature="0" />
    <path
       d="m 216.38396,77.179386 -4.15336,0 -10.11254,19.412468 -0.0903,0 -1.98639,-19.412468 -4.06307,0 3.34075,23.340104 4.10822,0 12.95669,-23.340104"
       style="line-height:125%;font-family:Helvetica Neue LT Std;-inkscape-font-specification:Helvetica Neue LT Std Italic"
       id="path3304"
       inkscape:connector-curvature="0" />
    <path
       d="m 220.73906,86.614748 c 1.12863,-3.611618 3.56649,-6.59121 8.08101,-6.59121 4.24365,0 5.73345,3.295609 5.46258,6.59121 l -13.54359,0 m 17.01977,3.385896 c 0.13544,-0.632033 0.36117,-1.805812 0.36117,-3.024733 0,-6.591204 -3.02475,-10.338268 -9.88682,-10.338268 -6.41062,0 -12.00864,6.094621 -12.00864,15.033376 0,4.063071 2.16698,9.390221 9.88681,9.390221 5.10141,0 9.34508,-2.708725 10.564,-7.855281 l -3.83735,0 c -1.08349,2.889294 -3.3859,4.469382 -6.72665,4.469382 -3.11502,0 -6.04946,-2.031541 -6.04946,-5.64316 0,-0.677178 0.0451,-1.354359 0.13543,-2.031537 l 17.56151,0"
       style="line-height:125%;font-family:Helvetica Neue LT Std;-inkscape-font-specification:Helvetica Neue LT Std Italic"
       id="path3306"
       inkscape:connector-curvature="0" />
  </g>
</svg>
