<?xml version="1.0" encoding="UTF-8" standalone="no"?>
<svg width="237px" height="110px" viewBox="0 0 237 110" version="1.1" xmlns="http://www.w3.org/2000/svg" xmlns:xlink="http://www.w3.org/1999/xlink" xmlns:sketch="http://www.bohemiancoding.com/sketch/ns">
    <!-- Generator: Sketch 3.4.4 (17249) - http://www.bohemiancoding.com/sketch -->
    <title>englishliveLogo</title>
    <desc>Created with Sketch.</desc>
    <defs></defs>
    <g id="Page-1" stroke="none" stroke-width="1" fill="none" fill-rule="evenodd" sketch:type="MSPage">
        <g id="wide-projects-normal" sketch:type="MSArtboardGroup" transform="translate(-68.000000, -976.000000)" fill="#303033">
            <g id="EF-English-Live" sketch:type="MSLayerGroup" transform="translate(0.000000, 940.000000)">
                <g id="EF-Logo-+-Englishtown-Mobile" transform="translate(66.000000, 36.000000)">
                    <g id="EF-Logo" transform="translate(77.000000, 0.000000)" sketch:type="MSShapeGroup">
                        <path d="M24.9580195,12.0598026 L29.3846273,12.0598026 C29.6171016,11.8177784 29.8532906,11.5766743 30.095361,11.3367973 C34.791899,6.6840417 40.6279016,3.68097753 46.6140373,2.8177883 L47.1746378,0.117484533 L42.3474684,0.117484533 C37.1633845,1.73772814 32.0625703,4.74754077 27.6969444,9.07115562 C26.722162,10.0392527 25.8095998,11.0355706 24.9580195,12.0598026" id="Fill-1"></path>
                        <path d="M59.0249454,23.6015077 C59.0249454,27.3748164 57.1527689,31.3094746 53.7538771,34.6763421 C51.6176519,36.7947446 49.0687925,38.3189761 46.3945642,39.114374 L45.741717,42.2705054 C49.1864227,41.3652917 52.5809808,39.3818583 55.4592045,36.5269535 C62.9324328,29.1238942 64.0632299,19.0763593 58.0897858,13.1536665 C56.5311865,11.6070424 54.5936943,10.5407859 52.4150604,9.99354724 L51.7383775,13.2598013 C53.2440433,13.7785124 54.5936943,14.6027446 55.6975603,15.6966084 C57.8727892,17.8521275 59.0249454,20.5858668 59.0249454,23.6015077" id="Fill-2"></path>
                        <path d="M52.8812472,25.0469048 C53.0335473,23.1558026 52.4268234,21.4251297 51.1712765,20.1821863 C50.9418977,19.9564197 50.6954935,19.7576469 50.4348499,19.5769722 L47.7850763,32.3815593 C48.6261318,31.9042592 49.4164205,31.3094746 50.1200345,30.6113159 C51.740854,29.0039557 52.7215178,27.0278843 52.8812472,25.0469048" id="Fill-3"></path>
                        <path d="M10.757276,0.117484533 L8.90150584,9.09293474 C11.0002751,5.95060692 13.4701984,2.95245073 16.2868211,0.117484533 L10.757276,0.117484533" id="Fill-4"></path>
                        <path d="M52.5395007,33.4720489 C55.6152192,30.4263468 57.3075454,26.9220561 57.3075454,23.6015077 C57.3075454,21.0456823 56.3305962,18.7297339 54.4844221,16.8975273 C53.6037439,16.0269762 52.5630267,15.3696149 51.3907495,14.9355663 L50.7988842,17.8091828 C51.3823916,18.1229861 51.9169896,18.5143967 52.3865815,18.9775864 C54.0027577,20.5812656 54.7849981,22.7855576 54.5936943,25.184328 C54.3999142,27.567761 53.2440433,29.9235866 51.3341013,31.814382 C50.1763731,32.9631538 48.8022674,33.8769564 47.3504639,34.4959742 L46.7948163,37.1787933 C48.8257934,36.4306346 50.8131236,35.1827832 52.5395007,33.4720489" id="Fill-5"></path>
                        <path d="M73.5027389,12.0598026 L79.3430752,12.0598026 C78.2345659,7.57974623 76.0407638,3.51349305 72.8554636,0.117484533 L63.4927238,0.117484533 C65.1392361,1.04969209 66.6436637,2.18558041 67.9886714,3.51564029 C70.4876927,5.99477865 72.3388196,8.86624787 73.5027389,12.0598026" id="Fill-6"></path>
                        <path d="M3.12555656,47.7312356 C2.58414838,46.3904395 2.13189146,45.0195822 1.76538071,43.6146757 L0.135274658,51.5057713 L4.93179827,51.5057713 C4.25418677,50.289515 3.65055844,49.0324612 3.12555656,47.7312356" id="Fill-7"></path>
                        <path d="M13.379809,18.8880159 C11.2024132,23.7005873 10.0982377,28.5769623 10.0982377,33.3766502 C10.0982377,37.0656032 10.7619193,40.585538 12.0691616,43.8441233 C13.2011969,46.6582307 14.7984903,49.2281665 16.8303962,51.5057713 L25.8811066,51.5057713 C24.6116297,50.6993305 23.4402812,49.7680432 22.3775858,48.7125229 C17.2603653,43.6441236 14.8337794,36.7367692 15.5479181,29.2625444 C15.8992608,25.5729779 16.996007,21.8778899 18.8059634,18.2815749 C20.6769017,14.5677753 23.2607405,11.0647117 26.482568,7.86992996 C29.5536433,4.82545479 33.0339475,2.3499974 36.8203997,0.515643602 C37.102093,0.379447434 37.3850244,0.24570525 37.6691941,0.115030548 L28.9196787,0.115030548 C26.9335867,1.55858724 25.0378842,3.16932165 23.2455724,4.94539331 C18.9632163,9.1895604 15.6441891,13.8797393 13.379809,18.8880159" id="Fill-8"></path>
                        <path d="M28.3590783,29.7395377 C28.3590783,30.3459787 28.3968437,30.9383094 28.4649454,31.5177566 L31.6090751,31.5177566 C31.4032224,30.6508864 31.2979744,29.7429119 31.2979744,28.8153056 C31.2979744,26.8929151 31.7313486,24.9548804 32.5860244,23.0475206 C33.1571496,21.7683809 33.9053392,20.5487503 34.8117104,19.3978313 L31.7112276,19.3978313 C29.5502382,22.6202204 28.3590783,26.2306459 28.3590783,29.7395377" id="Fill-9"></path>
                        <path d="M40.2285782,19.3978313 L37.0596842,19.3978313 C34.4817269,22.196908 33.0159935,25.5904625 33.0159935,28.8156123 C33.0159935,29.7628506 33.1370287,30.66469 33.3719794,31.5177566 L36.4291248,31.5177566 C35.9065993,30.4714387 35.6292398,29.2916854 35.6292398,28.0551837 C35.6292398,25.3392358 36.8894301,22.5981345 39.1739311,20.3331064 C39.5122726,19.9972172 39.8645439,19.6837206 40.2285782,19.3978313" id="Fill-10"></path>
                        <path d="M56.6723427,37.7294062 C53.3554824,41.0195866 49.3802028,43.2367621 45.362205,44.1116077 L44.6601388,47.5076162 C49.857224,46.4953474 55.0174724,43.7508719 59.0555912,39.7505696 C63.6289271,35.2177525 66.5919683,29.7140776 67.3943297,24.2533474 C67.5398196,23.2665387 67.6079212,22.2919999 67.6091594,21.3401605 C67.6091594,21.1165411 67.6057544,20.8898542 67.5986346,20.6671551 C67.4376671,16.2318839 65.6818825,12.2585754 62.4238373,9.03035812 C59.9950845,6.62330557 56.9147227,5.14662008 53.5374995,4.55889067 L52.7605215,8.32361044 C55.266353,8.93956068 57.4979205,10.1650194 59.3044718,11.9512138 C65.9697668,18.5582617 64.8361837,29.6404581 56.6723427,37.7294062" id="Fill-11"></path>
                        <path d="M45.5135764,8.16778239 L46.2465979,4.60183541 C41.2306012,5.46533139 36.1013081,7.98772124 31.8050222,12.0598026 L36.4876303,12.0598026 C39.2630824,10.071768 42.3542786,8.73219894 45.5135764,8.16778239" id="Fill-12"></path>
                        <path d="M63.6382137,7.82913246 C65.9521223,10.121768 67.5856334,12.775446 68.4910759,15.7211483 C68.518007,15.8061175 68.5452477,15.8910867 68.5687737,15.977283 L69.3791835,12.0598026 L71.6692565,12.0598026 C70.5839637,9.33281178 68.9408564,6.86901082 66.7739855,4.71809295 C64.6764544,2.64079463 62.1947681,1.11042822 59.4710113,0.117484533 L54.4562528,0.117484533 L53.8832702,2.88864712 C54.6958468,3.0306715 55.4932553,3.22269583 56.2742575,3.46011888 C59.1178113,4.33404429 61.5960926,5.80275433 63.6382137,7.82913246" id="Fill-13"></path>
                        <path d="M38.0663505,44.146577 C35.3274257,43.5333875 32.8587406,42.1754135 30.8020705,40.1410599 C30.5343071,39.8732688 30.2807832,39.5959685 30.0374746,39.3143737 L24.9673061,39.3143737 C25.7154957,40.6763354 26.654989,41.9272543 27.7684512,43.0330813 C30.3442416,45.5855325 33.6044537,47.1793957 37.3135177,47.7287816 L38.0663505,44.146577" id="Fill-14"></path>
                        <path d="M45.139946,9.97514235 C43.2646739,10.3837309 41.4194286,11.0892516 39.6695255,12.0598026 L44.7102864,12.0598026 L45.139946,9.97514235" id="Fill-15"></path>
                        <path d="M22.8391293,30.7904568 C22.8391293,31.034935 22.8450108,31.2757323 22.8555356,31.5177566 L26.739497,31.5177566 C26.67511,30.9337082 26.643226,30.3422978 26.643226,29.7398444 C26.643226,26.2377011 27.7167558,22.6564167 29.6839651,19.3975246 L26.0101902,19.3975246 C23.938352,23.0650052 22.8391293,26.9496635 22.8391293,30.7904568" id="Fill-16"></path>
                        <path d="M39.0785888,39.3238829 L39.0823035,39.3143737 L32.4157702,39.3143737 C34.1446237,40.8975008 36.1774582,41.9680518 38.4176932,42.4824684 L39.0785888,39.3238829" id="Fill-17"></path>
                        <path d="M17.255722,29.4208264 C16.5932786,36.3815549 18.8424906,42.8082349 23.5910335,47.5134444 C25.2821215,49.189823 27.2716186,50.5278583 29.5161873,51.5057713 L36.5219907,51.5057713 L36.9634132,49.3990252 C32.9280804,48.7855289 29.3750312,47.0309296 26.555313,44.2349205 C25.1047477,42.7965785 23.9219457,41.1358441 23.038791,39.3143737 L18.9598112,39.3143737 L20.5335786,31.5177566 L21.1362783,31.5177566 C21.1291586,31.2748121 21.1220389,31.0346283 21.1220389,30.7883095 C21.1220389,26.9472095 22.1367536,23.0742076 24.0618636,19.3966043 L23.0551973,19.3966043 L24.4271362,12.7137896 C20.3141056,17.8846428 17.8030117,23.6861702 17.255722,29.4208264" id="Fill-18"></path>
                        <path d="M8.38114726,33.3766502 C8.38114726,28.334938 9.53701813,23.2254345 11.8131613,18.1920044 C14.1632876,12.9932372 17.6021118,8.13404009 22.031196,3.74416764 C23.3372001,2.4487703 24.6948995,1.24171642 26.1008892,0.117484533 L18.730742,0.117484533 C18.4338807,0.399079314 18.1401149,0.685582065 17.8475873,0.970857823 C13.7571541,5.02913555 10.409648,9.43373191 7.86450332,14.1101071 L2.65936975,39.2910609 C3.02773782,42.0002603 3.71525501,44.6122207 4.72068313,47.1002547 C5.33607448,48.6275536 6.06785775,50.0974907 6.91231831,51.5057713 L14.5886134,51.5057713 C12.874928,49.3701909 11.4958695,47.013445 10.4743446,44.4701963 C9.08630898,41.0159056 8.38114726,37.2800202 8.38114726,33.3766502" id="Fill-19"></path>
                        <path d="M61.2187475,51.5057713 L62.3947393,45.832158 C59.8564048,48.110683 56.9964447,50.0195766 53.9628253,51.5057713 L61.2187475,51.5057713" id="Fill-20"></path>
                        <path d="M44.2886752,49.3023995 L43.8342514,51.5057713 L49.603081,51.5057713 C54.3410991,49.8122149 58.8122825,47.0398253 62.4659365,43.4137557 C62.6504301,43.2343081 62.8290421,43.0502592 63.006416,42.8698913 L64.4393368,35.9628437 C63.2435336,37.7143755 61.8471401,39.3904473 60.2678007,40.9530222 C55.8139522,45.3662076 50.0553379,48.3367564 44.2886752,49.3023995" id="Fill-21"></path>
                        <path d="M83.2403473,0.117484533 L75.1424411,0.117484533 C78.0698837,3.58956659 80.0832164,7.64293634 81.1134087,12.0594959 L87.3744275,12.0594959 C86.9868672,9.40643133 86.3058506,6.8472317 85.3329256,4.40981108 C84.7379647,2.91870843 84.0393036,1.48742167 83.2403473,0.117484533" id="Fill-22"></path>
                        <path d="M85.2075566,0.117484533 C85.8523555,1.30030531 86.4256476,2.52300335 86.9305286,3.7846584 C87.5388002,5.31165057 88.0381092,6.88281448 88.4290746,8.4935489 L90.157928,0.117484533 L85.2075566,0.117484533" id="Fill-23"></path>
                        <path d="M73.1773987,21.3401605 L69.3250117,21.3401605 C69.3250117,22.3772759 69.2494807,23.4315692 69.0906801,24.5008932 C68.6474002,27.5318714 67.5822283,30.5692914 65.9812203,33.4628465 L69.8298926,33.4628465 C71.5058125,30.1794145 72.5898671,26.7696023 73.0093114,23.3720601 C73.0928907,22.690159 73.1492293,22.0128591 73.1773987,21.3401605" id="Fill-24"></path>
                        <path d="M81.7157988,22.690159 C81.3316436,26.3119341 80.3748153,29.9361632 78.9007239,33.4625397 L82.8574303,33.4625397 L85.3251867,21.3401605 L81.8325003,21.3401605 C81.8027832,21.7892397 81.7628509,22.2386257 81.7157988,22.690159" id="Fill-25"></path>
                        <path d="M80.1116952,21.3401605 L74.896656,21.3401605 C74.8663198,22.0827977 74.8050283,22.8251282 74.7134006,23.5769678 C74.3023142,26.9042648 73.2913142,30.2398439 71.7398346,33.4628465 L77.0365958,33.4628465 C78.6069581,29.8827891 79.6170296,26.1932226 80.0083045,22.5110181 C80.0519515,22.1199142 80.0832164,21.7312643 80.1116952,21.3401605" id="Fill-26"></path>
                        <path d="M40.3883075,21.5358658 C38.4245034,23.4791152 37.3463303,25.7929163 37.3463303,28.0554905 C37.3463303,29.3600903 37.7162461,30.5401503 38.4210983,31.5159161 L40.2579857,31.5159161 L42.6396864,19.8177695 C41.8388729,20.275131 41.077682,20.851204 40.3883075,21.5358658" id="Fill-27"></path>
                        <path d="M24.9580195,12.0598026 L29.3846273,12.0598026 C29.6171016,11.8177784 29.8532906,11.5766743 30.095361,11.3367973 C34.791899,6.6840417 40.6279016,3.68097753 46.6140373,2.8177883 L47.1746378,0.117484533 L42.3474684,0.117484533 C37.1633845,1.73772814 32.0625703,4.74754077 27.6969444,9.07115562 C26.722162,10.0392527 25.8095998,11.0355706 24.9580195,12.0598026" id="Fill-28"></path>
                        <path d="M59.0249454,23.6015077 C59.0249454,27.3748164 57.1527689,31.3094746 53.7538771,34.6763421 C51.6176519,36.7947446 49.0687925,38.3189761 46.3945642,39.114374 L45.741717,42.2705054 C49.1864227,41.3652917 52.5809808,39.3818583 55.4592045,36.5269535 C62.9324328,29.1238942 64.0632299,19.0763593 58.0897858,13.1536665 C56.5311865,11.6070424 54.5936943,10.5407859 52.4150604,9.99354724 L51.7383775,13.2598013 C53.2440433,13.7785124 54.5936943,14.6027446 55.6975603,15.6966084 C57.8727892,17.8521275 59.0249454,20.5858668 59.0249454,23.6015077" id="Fill-29"></path>
                        <path d="M52.8812472,25.0469048 C53.0335473,23.1558026 52.4268234,21.4251297 51.1712765,20.1821863 C50.9418977,19.9564197 50.6954935,19.7576469 50.4348499,19.5769722 L47.7850763,32.3815593 C48.6261318,31.9042592 49.4164205,31.3094746 50.1200345,30.6113159 C51.740854,29.0039557 52.7215178,27.0278843 52.8812472,25.0469048" id="Fill-30"></path>
                        <path d="M10.757276,0.117484533 L8.90150584,9.09293474 C11.0002751,5.95060692 13.4701984,2.95245073 16.2868211,0.117484533 L10.757276,0.117484533" id="Fill-31"></path>
                        <path d="M52.5395007,33.4720489 C55.6152192,30.4263468 57.3075454,26.9220561 57.3075454,23.6015077 C57.3075454,21.0456823 56.3305962,18.7297339 54.4844221,16.8975273 C53.6037439,16.0269762 52.5630267,15.3696149 51.3907495,14.9355663 L50.7988842,17.8091828 C51.3823916,18.1229861 51.9169896,18.5143967 52.3865815,18.9775864 C54.0027577,20.5812656 54.7849981,22.7855576 54.5936943,25.184328 C54.3999142,27.567761 53.2440433,29.9235866 51.3341013,31.814382 C50.1763731,32.9631538 48.8022674,33.8769564 47.3504639,34.4959742 L46.7948163,37.1787933 C48.8257934,36.4306346 50.8131236,35.1827832 52.5395007,33.4720489" id="Fill-32"></path>
                        <path d="M73.5027389,12.0598026 L79.3430752,12.0598026 C78.2345659,7.57974623 76.0407638,3.51349305 72.8554636,0.117484533 L63.4927238,0.117484533 C65.1392361,1.04969209 66.6436637,2.18558041 67.9886714,3.51564029 C70.4876927,5.99477865 72.3388196,8.86624787 73.5027389,12.0598026" id="Fill-33"></path>
                        <path d="M3.12555656,47.7312356 C2.58414838,46.3904395 2.13189146,45.0195822 1.76538071,43.6146757 L0.135274658,51.5057713 L4.93179827,51.5057713 C4.25418677,50.289515 3.65055844,49.0324612 3.12555656,47.7312356" id="Fill-34"></path>
                        <path d="M13.379809,18.8880159 C11.2024132,23.7005873 10.0982377,28.5769623 10.0982377,33.3766502 C10.0982377,37.0656032 10.7619193,40.585538 12.0691616,43.8441233 C13.2011969,46.6582307 14.7984903,49.2281665 16.8303962,51.5057713 L25.8811066,51.5057713 C24.6116297,50.6993305 23.4402812,49.7680432 22.3775858,48.7125229 C17.2603653,43.6441236 14.8337794,36.7367692 15.5479181,29.2625444 C15.8992608,25.5729779 16.996007,21.8778899 18.8059634,18.2815749 C20.6769017,14.5677753 23.2607405,11.0647117 26.482568,7.86992996 C29.5536433,4.82545479 33.0339475,2.3499974 36.8203997,0.515643602 C37.102093,0.379447434 37.3850244,0.24570525 37.6691941,0.115030548 L28.9196787,0.115030548 C26.9335867,1.55858724 25.0378842,3.16932165 23.2455724,4.94539331 C18.9632163,9.1895604 15.6441891,13.8797393 13.379809,18.8880159" id="Fill-35"></path>
                        <path d="M28.3590783,29.7395377 C28.3590783,30.3459787 28.3968437,30.9383094 28.4649454,31.5177566 L31.6090751,31.5177566 C31.4032224,30.6508864 31.2979744,29.7429119 31.2979744,28.8153056 C31.2979744,26.8929151 31.7313486,24.9548804 32.5860244,23.0475206 C33.1571496,21.7683809 33.9053392,20.5487503 34.8117104,19.3978313 L31.7112276,19.3978313 C29.5502382,22.6202204 28.3590783,26.2306459 28.3590783,29.7395377" id="Fill-36"></path>
                        <path d="M40.2285782,19.3978313 L37.0596842,19.3978313 C34.4817269,22.196908 33.0159935,25.5904625 33.0159935,28.8156123 C33.0159935,29.7628506 33.1370287,30.66469 33.3719794,31.5177566 L36.4291248,31.5177566 C35.9065993,30.4714387 35.6292398,29.2916854 35.6292398,28.0551837 C35.6292398,25.3392358 36.8894301,22.5981345 39.1739311,20.3331064 C39.5122726,19.9972172 39.8645439,19.6837206 40.2285782,19.3978313" id="Fill-37"></path>
                        <path d="M56.6723427,37.7294062 C53.3554824,41.0195866 49.3802028,43.2367621 45.362205,44.1116077 L44.6601388,47.5076162 C49.857224,46.4953474 55.0174724,43.7508719 59.0555912,39.7505696 C63.6289271,35.2177525 66.5919683,29.7140776 67.3943297,24.2533474 C67.5398196,23.2665387 67.6079212,22.2919999 67.6091594,21.3401605 C67.6091594,21.1165411 67.6057544,20.8898542 67.5986346,20.6671551 C67.4376671,16.2318839 65.6818825,12.2585754 62.4238373,9.03035812 C59.9950845,6.62330557 56.9147227,5.14662008 53.5374995,4.55889067 L52.7605215,8.32361044 C55.266353,8.93956068 57.4979205,10.1650194 59.3044718,11.9512138 C65.9697668,18.5582617 64.8361837,29.6404581 56.6723427,37.7294062" id="Fill-38"></path>
                        <path d="M45.5135764,8.16778239 L46.2465979,4.60183541 C41.2306012,5.46533139 36.1013081,7.98772124 31.8050222,12.0598026 L36.4876303,12.0598026 C39.2630824,10.071768 42.3542786,8.73219894 45.5135764,8.16778239" id="Fill-39"></path>
                        <path d="M63.6382137,7.82913246 C65.9521223,10.121768 67.5856334,12.775446 68.4910759,15.7211483 C68.518007,15.8061175 68.5452477,15.8910867 68.5687737,15.977283 L69.3791835,12.0598026 L71.6692565,12.0598026 C70.5839637,9.33281178 68.9408564,6.86901082 66.7739855,4.71809295 C64.6764544,2.64079463 62.1947681,1.11042822 59.4710113,0.117484533 L54.4562528,0.117484533 L53.8832702,2.88864712 C54.6958468,3.0306715 55.4932553,3.22269583 56.2742575,3.46011888 C59.1178113,4.33404429 61.5960926,5.80275433 63.6382137,7.82913246" id="Fill-40"></path>
                        <path d="M38.0663505,44.146577 C35.3274257,43.5333875 32.8587406,42.1754135 30.8020705,40.1410599 C30.5343071,39.8732688 30.2807832,39.5959685 30.0374746,39.3143737 L24.9673061,39.3143737 C25.7154957,40.6763354 26.654989,41.9272543 27.7684512,43.0330813 C30.3442416,45.5855325 33.6044537,47.1793957 37.3135177,47.7287816 L38.0663505,44.146577" id="Fill-41"></path>
                        <path d="M45.139946,9.97514235 C43.2646739,10.3837309 41.4194286,11.0892516 39.6695255,12.0598026 L44.7102864,12.0598026 L45.139946,9.97514235" id="Fill-42"></path>
                        <path d="M22.8391293,30.7904568 C22.8391293,31.034935 22.8450108,31.2757323 22.8555356,31.5177566 L26.739497,31.5177566 C26.67511,30.9337082 26.643226,30.3422978 26.643226,29.7398444 C26.643226,26.2377011 27.7167558,22.6564167 29.6839651,19.3975246 L26.0101902,19.3975246 C23.938352,23.0650052 22.8391293,26.9496635 22.8391293,30.7904568" id="Fill-43"></path>
                        <path d="M39.0785888,39.3238829 L39.0823035,39.3143737 L32.4157702,39.3143737 C34.1446237,40.8975008 36.1774582,41.9680518 38.4176932,42.4824684 L39.0785888,39.3238829" id="Fill-44"></path>
                        <path d="M17.255722,29.4208264 C16.5932786,36.3815549 18.8424906,42.8082349 23.5910335,47.5134444 C25.2821215,49.189823 27.2716186,50.5278583 29.5161873,51.5057713 L36.5219907,51.5057713 L36.9634132,49.3990252 C32.9280804,48.7855289 29.3750312,47.0309296 26.555313,44.2349205 C25.1047477,42.7965785 23.9219457,41.1358441 23.038791,39.3143737 L18.9598112,39.3143737 L20.5335786,31.5177566 L21.1362783,31.5177566 C21.1291586,31.2748121 21.1220389,31.0346283 21.1220389,30.7883095 C21.1220389,26.9472095 22.1367536,23.0742076 24.0618636,19.3966043 L23.0551973,19.3966043 L24.4271362,12.7137896 C20.3141056,17.8846428 17.8030117,23.6861702 17.255722,29.4208264" id="Fill-45"></path>
                        <path d="M8.38114726,33.3766502 C8.38114726,28.334938 9.53701813,23.2254345 11.8131613,18.1920044 C14.1632876,12.9932372 17.6021118,8.13404009 22.031196,3.74416764 C23.3372001,2.4487703 24.6948995,1.24171642 26.1008892,0.117484533 L18.730742,0.117484533 C18.4338807,0.399079314 18.1401149,0.685582065 17.8475873,0.970857823 C13.7571541,5.02913555 10.409648,9.43373191 7.86450332,14.1101071 L2.65936975,39.2910609 C3.02773782,42.0002603 3.71525501,44.6122207 4.72068313,47.1002547 C5.33607448,48.6275536 6.06785775,50.0974907 6.91231831,51.5057713 L14.5886134,51.5057713 C12.874928,49.3701909 11.4958695,47.013445 10.4743446,44.4701963 C9.08630898,41.0159056 8.38114726,37.2800202 8.38114726,33.3766502" id="Fill-46"></path>
                        <path d="M61.2187475,51.5057713 L62.3947393,45.832158 C59.8564048,48.110683 56.9964447,50.0195766 53.9628253,51.5057713 L61.2187475,51.5057713" id="Fill-47"></path>
                        <path d="M44.2886752,49.3023995 L43.8342514,51.5057713 L49.603081,51.5057713 C54.3410991,49.8122149 58.8122825,47.0398253 62.4659365,43.4137557 C62.6504301,43.2343081 62.8290421,43.0502592 63.006416,42.8698913 L64.4393368,35.9628437 C63.2435336,37.7143755 61.8471401,39.3904473 60.2678007,40.9530222 C55.8139522,45.3662076 50.0553379,48.3367564 44.2886752,49.3023995" id="Fill-48"></path>
                        <path d="M83.2403473,0.117484533 L75.1424411,0.117484533 C78.0698837,3.58956659 80.0832164,7.64293634 81.1134087,12.0594959 L87.3744275,12.0594959 C86.9868672,9.40643133 86.3058506,6.8472317 85.3329256,4.40981108 C84.7379647,2.91870843 84.0393036,1.48742167 83.2403473,0.117484533" id="Fill-49"></path>
                        <path d="M85.2075566,0.117484533 C85.8523555,1.30030531 86.4256476,2.52300335 86.9305286,3.7846584 C87.5388002,5.31165057 88.0381092,6.88281448 88.4290746,8.4935489 L90.157928,0.117484533 L85.2075566,0.117484533" id="Fill-50"></path>
                        <path d="M73.1773987,21.3401605 L69.3250117,21.3401605 C69.3250117,22.3772759 69.2494807,23.4315692 69.0906801,24.5008932 C68.6474002,27.5318714 67.5822283,30.5692914 65.9812203,33.4628465 L69.8298926,33.4628465 C71.5058125,30.1794145 72.5898671,26.7696023 73.0093114,23.3720601 C73.0928907,22.690159 73.1492293,22.0128591 73.1773987,21.3401605" id="Fill-51"></path>
                        <path d="M81.7157988,22.690159 C81.3316436,26.3119341 80.3748153,29.9361632 78.9007239,33.4625397 L82.8574303,33.4625397 L85.3251867,21.3401605 L81.8325003,21.3401605 C81.8027832,21.7892397 81.7628509,22.2386257 81.7157988,22.690159" id="Fill-52"></path>
                        <path d="M80.1116952,21.3401605 L74.896656,21.3401605 C74.8663198,22.0827977 74.8050283,22.8251282 74.7134006,23.5769678 C74.3023142,26.9042648 73.2913142,30.2398439 71.7398346,33.4628465 L77.0365958,33.4628465 C78.6069581,29.8827891 79.6170296,26.1932226 80.0083045,22.5110181 C80.0519515,22.1199142 80.0832164,21.7312643 80.1116952,21.3401605" id="Fill-53"></path>
                        <path d="M40.3883075,21.5358658 C38.4245034,23.4791152 37.3463303,25.7929163 37.3463303,28.0554905 C37.3463303,29.3600903 37.7162461,30.5401503 38.4210983,31.5159161 L40.2579857,31.5159161 L42.6396864,19.8177695 C41.8388729,20.275131 41.077682,20.851204 40.3883075,21.5358658" id="Fill-54"></path>
                    </g>
                    <text id="English-Live" sketch:type="MSTextLayer" font-family="Helvetica Neue" font-size="45" font-style="italic" font-weight="normal" sketch:alignment="middle" line-spacing="60">
                        <tspan x="2.84" y="93">English Live</tspan>
                    </text>
                </g>
            </g>
        </g>
    </g>
</svg>