<svg xmlns="http://www.w3.org/2000/svg" viewBox="0 0 239 110">
  <g id="dgud-title" fill="none" fill-rule="evenodd">
    <g id="EF-dGUD" fill="#303033">
      <g id="EF-Logo" transform="translate(74)">
        <path id="Combined-Shape" d="M25.1265959,12.2221674 C25.9839281,11.1841459 26.9026541,10.1744142 27.8840205,9.19328334 C32.2791336,4.81145835 37.4144007,1.7611237 42.6335,0.119066263 L47.493274,0.119066263 L46.928887,2.85572504 C40.9023185,3.73053564 35.0268973,6.77403097 30.298637,11.489428 C30.0549315,11.7325346 29.8171473,11.9768847 29.5831027,12.2221674 L25.1265959,12.2221674 Z M59.4236233,23.9192619 C59.4236233,20.8630206 58.2636849,18.0924761 56.0737637,15.9079366 C54.9624418,14.7993458 53.6036747,13.9640167 52.087839,13.438322 L52.7690925,10.1280934 C54.9624418,10.6826997 56.9130205,11.7633115 58.4821473,13.3307582 C64.4959384,19.3331901 63.3575034,29.515998 55.8337979,37.0187269 C52.9361336,39.9120682 49.5186473,41.9222052 46.0506747,42.8396061 L46.7079315,39.6409826 C49.4002226,38.834876 51.9662979,37.2901234 54.1169521,35.1432002 C57.5388014,31.7310035 59.4236233,27.7433718 59.4236233,23.9192619 Z M53.2384281,25.3841189 C53.0776199,27.3917688 52.0903322,29.3944447 50.4585651,31.0234453 C49.7501986,31.7310035 48.9545719,32.3337959 48.1078356,32.8175221 L50.7755068,19.8405429 C51.037911,20.0236501 51.2859795,20.225099 51.5169075,20.4539052 C52.7809349,21.7135827 53.3917568,23.4675562 53.2384281,25.3841189 Z M10.8299349,0.119066263 L16.3968288,0.119066263 C13.5611815,2.99220046 11.0745753,6.03072175 8.96163014,9.21535567 L10.8299349,0.119066263 Z M52.8943733,33.9226932 C51.1563356,35.6564597 49.1555822,36.9211113 47.110887,37.6793426 L47.6702877,34.9604039 C49.1318973,34.3330522 50.5152842,33.4069467 51.6808322,32.2427087 C53.6036747,30.3264569 54.7673527,27.9389141 54.9624418,25.5233922 C55.1550377,23.0923265 54.3675137,20.8583574 52.7404212,19.2330874 C52.2676575,18.7636617 51.7294486,18.3669814 51.142,18.0489532 L51.737863,15.1366484 C52.9180582,15.5765407 53.9658048,16.2427522 54.8524315,17.1250239 C56.7110753,18.981898 57.6946233,21.3290267 57.6946233,23.9192619 C57.6946233,27.2845159 55.9908664,30.8359859 52.8943733,33.9226932 Z M73.9992055,12.2221674 C72.8274247,8.98561685 70.9637945,6.07548817 68.4478938,3.56297242 C67.0938014,2.21500554 65.5792123,1.06382441 63.9215788,0.119066263 L73.3475582,0.119066263 C76.5543733,3.56079627 78.7629932,7.68179465 79.8789897,12.2221674 L73.9992055,12.2221674 Z M3.14666781,48.3738557 C3.67521575,49.6926 4.28292123,50.966578 4.96510959,52.1992091 L0.136188356,52.1992091 L1.77730479,44.2018733 C2.1462911,45.6256944 2.60160274,47.0150081 3.14666781,48.3738557 Z M13.4701815,19.142311 C15.7498562,14.0666064 19.0913014,9.31328223 23.4025822,5.01197464 C25.207,3.21199119 27.1155068,1.57957097 29.1150137,0.116579239 L37.9236267,0.116579239 C37.6375377,0.249013254 37.3526952,0.384556049 37.0690993,0.522585868 C33.2570719,2.38163613 29.7532603,4.89042135 26.6614418,7.97588521 C23.4178527,11.2136793 20.8165616,14.7639057 18.9329863,18.5277053 C17.1108048,22.1724386 16.0066507,25.9172746 15.6529349,29.6565149 C14.9339726,37.2313675 17.3769486,44.2317176 22.5287329,49.3683543 C23.5986062,50.4380854 24.7778664,51.3819109 26.0559178,52.1992091 L16.9440753,52.1992091 C14.8984452,49.8909402 13.290363,47.2864045 12.1506815,44.43441 C10.8346096,41.1319534 10.1664452,37.5646287 10.1664452,33.8260102 C10.1664452,28.9617026 11.2780788,24.0196755 13.4701815,19.142311 Z M28.5506267,30.1399301 C28.5506267,26.583797 29.7498322,22.9247633 31.9254178,19.6589902 L35.0468425,19.6589902 C34.1343493,20.8254044 33.3811062,22.0614552 32.8061233,23.3578163 C31.9456747,25.2908555 31.5093733,27.2549825 31.5093733,29.2032548 C31.5093733,30.1433498 31.6153322,31.0635485 31.8225753,31.9420897 L28.6572089,31.9420897 C28.5886473,31.3548412 28.5506267,30.7545358 28.5506267,30.1399301 Z M40.5002979,19.6589902 C40.1338048,19.9487285 39.7791541,20.2664458 39.4385274,20.6068571 C37.1385959,22.9023801 35.8698938,25.6803856 35.8698938,28.4328992 C35.8698938,29.6860483 36.1491267,30.8816849 36.6751815,31.9420897 L33.597387,31.9420897 C33.3608493,31.0775381 33.2389966,30.1635568 33.2389966,29.2035657 C33.2389966,25.9349947 34.7146301,22.4957517 37.31,19.6589902 L40.5002979,19.6589902 Z M57.0551301,38.2373686 C65.274113,30.0395165 66.4153527,18.8081172 59.7050377,12.1121166 C57.8862842,10.3018742 55.6396438,9.05991669 53.116887,8.43567372 L53.899113,4.62026839 C57.2991473,5.21591059 60.4003151,6.71247713 62.8454726,9.15193657 C66.125524,12.4236163 67.8931678,16.4504187 68.0552226,20.9454032 C68.0623904,21.1711007 68.0658185,21.4008395 68.0658185,21.6274695 C68.0645719,22.5921239 67.9960103,23.5797832 67.8495377,24.5798776 C67.0417568,30.1141272 64.0587021,35.6918998 59.454476,40.2857435 C55.3890822,44.3399031 50.1939795,47.1213283 44.9617911,48.1472256 L45.6685993,44.7054956 C49.7137363,43.8188717 53.7158664,41.5718457 57.0551301,38.2373686 Z M45.8209932,8.27774771 C42.6403562,8.84976318 39.5282808,10.2073673 36.7340822,12.2221674 L32.0198459,12.2221674 C36.3451507,8.09526235 41.509089,5.5389128 46.5589658,4.66379131 L45.8209932,8.27774771 Z M64.0680514,7.93453844 C62.012137,5.88087856 59.5171164,4.39239484 56.6543562,3.5067035 C55.8680788,3.26608396 55.0652842,3.07147435 54.2472192,2.92753785 L54.8240719,0.119066263 L59.8727021,0.119066263 C62.6148562,1.12537825 65.1133048,2.67634845 67.2250034,4.78161406 C69.4065103,6.96149039 71.0607158,9.45846225 72.153339,12.2221674 L69.8477979,12.2221674 L69.0319144,16.19239 C69.0082295,16.1050333 68.9808048,16.0189201 68.9536918,15.9328069 C68.0421336,12.9474457 66.397589,10.2580404 64.0680514,7.93453844 Z M38.3234658,44.7409357 L37.5655479,48.3713687 C33.8314315,47.8145862 30.5491986,46.1992643 27.9560103,43.6124487 C26.8350274,42.4917336 25.8891884,41.2239732 25.1359452,39.8436751 L30.2403596,39.8436751 C30.4853116,40.129061 30.7405479,40.4100947 31.0101199,40.6814912 C33.0806815,42.7432339 35.5660411,44.1194907 38.3234658,44.7409357 Z M45.444839,10.1094407 L45.0122774,12.2221674 L39.9374692,12.2221674 C41.6991918,11.2385495 43.5569007,10.5235302 45.444839,10.1094407 Z M22.9933938,31.204998 C22.9933938,27.312495 24.1000411,23.3755363 26.1858733,19.6586793 L29.8844623,19.6586793 C27.9039658,22.9614469 26.8231849,26.5909472 26.8231849,30.140241 C26.8231849,30.7508053 26.8552842,31.350178 26.9201062,31.9420897 L23.009911,31.9420897 C22.9993151,31.696807 22.9933938,31.4527678 22.9933938,31.204998 Z M39.3425411,39.8533123 L38.6771815,43.0544227 C36.4218151,42.5330804 34.37525,41.4481163 32.6347192,39.8436751 L39.3462808,39.8436751 L39.3425411,39.8533123 Z M17.372274,29.8169279 C17.9232603,24.0050642 20.4513151,18.1254292 24.5921267,12.8849592 L23.2109212,19.6577467 L24.224387,19.6577467 C22.286274,23.3848627 21.2647055,27.3100079 21.2647055,31.2028219 C21.2647055,31.4524569 21.2718733,31.6958743 21.2790411,31.9420897 L20.6722705,31.9420897 L19.0878733,39.8436751 L23.1944041,39.8436751 C24.083524,41.6896684 25.2743151,43.3727618 26.7346781,44.8304686 C29.5734418,47.6641213 33.1504897,49.4423433 37.2130788,50.0640992 L36.7686747,52.1992091 L29.7155514,52.1992091 C27.4558219,51.2081301 25.452887,49.8520804 23.7503767,48.1531323 C18.9697603,43.3845751 16.7053562,36.8713708 17.372274,29.8169279 Z M8.43775685,33.8260102 C8.43775685,37.7819324 9.14768151,41.5681152 10.5450925,45.068912 C11.5735171,47.6464012 12.9618904,50.0348767 14.6871507,52.1992091 L6.95900685,52.1992091 C6.10884247,50.7719684 5.37211644,49.2822411 4.75256849,47.7343797 C3.74034932,45.2128485 3.04818836,42.5657226 2.67733219,39.8200483 L7.91762329,14.3000758 C10.4799589,9.5607411 13.8500753,5.09684432 17.968137,0.983928776 C18.2626404,0.694812264 18.5583904,0.404452239 18.8572568,0.119066263 L26.2771849,0.119066263 C24.8616986,1.25843402 23.4948288,2.48173884 22.1800034,3.79457651 C17.7210034,8.24355114 14.2589521,13.1681691 11.8929521,18.4369289 C9.60143493,23.5381255 8.43775685,28.7164199 8.43775685,33.8260102 Z M61.6322432,52.1992091 L54.3273116,52.1992091 C57.3814212,50.6930053 60.2606986,48.7584117 62.8161781,46.4492102 L61.6322432,52.1992091 Z M44.5878185,49.9661727 C50.3934315,48.9875288 56.1909418,45.9769865 60.6748733,41.5043852 C62.2648801,39.9207728 63.6707055,38.2221356 64.8745856,36.4470224 L63.4319863,43.4470616 C63.2534144,43.6298579 63.0735959,43.8163846 62.8878562,43.9982483 C59.209524,47.6731367 54.7081404,50.4828518 49.9381199,52.1992091 L44.1303253,52.1992091 L44.5878185,49.9661727 Z M83.8025856,0.119066263 C84.6069384,1.50744728 85.3103185,2.95800389 85.9092979,4.4691817 C86.8887945,6.93941805 87.574411,9.53307296 87.964589,12.2218565 L81.6612808,12.2218565 C80.6241301,7.74583551 78.5971986,3.63789401 75.6499829,0.119066263 L83.8025856,0.119066263 Z M85.7830822,0.119066263 L90.7668904,0.119066263 L89.0263596,8.60790012 C88.6327534,6.9754799 88.1300719,5.38316293 87.5176918,3.8356124 C87.0094007,2.55697131 86.4322363,1.31781172 85.7830822,0.119066263 Z M73.6716678,21.6274695 C73.6433082,22.3092249 73.586589,22.9956435 73.5024452,23.6867252 C73.0801678,27.1300096 71.9887911,30.5857291 70.3015514,33.9133669 L66.4268836,33.9133669 C68.0387055,30.980855 69.1110719,27.9025413 69.5573459,24.8307561 C69.7172192,23.7470355 69.7932603,22.6785479 69.7932603,21.6274695 L73.6716678,21.6274695 Z M82.2677397,22.9956435 C82.3151096,22.5380311 82.3553116,22.0825949 82.3852295,21.6274695 L85.9015068,21.6274695 L83.4170822,33.913056 L79.4336507,33.913056 C80.9176986,30.3392029 81.8809897,26.6661797 82.2677397,22.9956435 Z M80.6528014,21.6274695 C80.6241301,22.0238389 80.5926541,22.4177213 80.5487123,22.8140907 C80.1547945,26.5458699 79.1379007,30.2851101 77.5569315,33.9133669 L72.2243938,33.9133669 C73.7863527,30.6469721 74.8041815,27.266485 75.2180445,23.8943917 C75.3102911,23.1324298 75.3719966,22.3801051 75.4025377,21.6274695 L80.6528014,21.6274695 Z M40.6611062,21.8258097 C41.355137,21.13193 42.1214692,20.5481012 42.9276918,20.0845821 L40.5299041,31.9402244 L38.6806096,31.9402244 C37.9709966,30.9513216 37.5985822,29.755374 37.5985822,28.43321 C37.5985822,26.1401741 38.6840377,23.7952216 40.6611062,21.8258097 Z"/>
      </g>
      <text id="DGUD" font-family="HelveticaNeue-Bold, Helvetica Neue" font-size="45" font-weight="bold" letter-spacing="-.041">
        <tspan x="52.488" y="98">DGUD</tspan>
      </text>
    </g>
  </g>
</svg>
