<?xml version="1.0" encoding="UTF-8"?>
<svg width="268px" height="42px" viewBox="0 0 268 42" version="1.1" xmlns="http://www.w3.org/2000/svg" xmlns:xlink="http://www.w3.org/1999/xlink">
    <!-- Generator: Sketch 54.1 (76490) - https://sketchapp.com -->
    <title>flameTitle</title>
    <desc>Created with Sketch.</desc>
    <g id="Page-1" stroke="none" stroke-width="1" fill="none" fill-rule="evenodd">
        <g id="flameHover" transform="translate(-30.000000, -54.000000)">
            <g id="flameTitle" transform="translate(30.000000, 54.000000)">
                <path d="M201.385333,14.9011111 L211.645778,14.9011111 L211.645778,17.1753333 L204.082667,17.1753333 L204.082667,22.4906667 L210.508667,22.4906667 L210.508667,24.7648889 L204.082667,24.7648889 L204.082667,32.2222222 L201.385333,32.2222222 L201.385333,14.9011111 Z M217.119778,32.5395556 C216.185403,32.5395556 215.506669,32.2574843 215.083556,31.6933333 C214.660442,31.1291824 214.448889,30.3005981 214.448889,29.2075556 L214.448889,13.4731111 L217.119778,13.4731111 L217.119778,29.3662222 C217.119778,29.7011869 217.181481,29.9479992 217.304889,30.1066667 C217.428297,30.2653341 217.578147,30.3446667 217.754444,30.3446667 C217.913112,30.3446667 218.071777,30.3270372 218.230444,30.2917778 L218.574222,32.3015556 C218.168739,32.460223 217.683929,32.5395556 217.119778,32.5395556 Z M224.497778,32.5395556 C223.369476,32.5395556 222.452744,32.2001886 221.747556,31.5214444 C221.042367,30.8427003 220.689778,29.9303761 220.689778,28.7844444 C220.689778,27.3916967 221.306809,26.3207075 222.540889,25.5714444 C223.774969,24.8221814 225.740653,24.2977052 228.438,23.998 C228.402741,22.0939905 227.574156,21.142 225.952222,21.142 C224.85918,21.142 223.616303,21.5827363 222.223556,22.4642222 L221.218667,20.666 C222.981638,19.5376981 224.71814,18.9735556 226.428222,18.9735556 C227.997267,18.9735556 229.169626,19.4451434 229.945333,20.3883333 C230.721041,21.3315232 231.108889,22.6845838 231.108889,24.4475556 L231.108889,32.2222222 L228.914,32.2222222 L228.702444,30.7413333 L228.623111,30.7413333 C227.195104,31.9401541 225.820007,32.5395556 224.497778,32.5395556 Z M225.317556,30.424 C225.864077,30.424 226.375331,30.3005938 226.851333,30.0537778 C227.327336,29.8069617 227.856219,29.4191138 228.438,28.8902222 L228.438,25.6904444 C226.56925,25.9196308 225.242634,26.2722198 224.458111,26.7482222 C223.673589,27.2242246 223.281333,27.8412555 223.281333,28.5993333 C223.281333,29.1987437 223.466443,29.6527022 223.836667,29.9612222 C224.206891,30.2697423 224.700515,30.424 225.317556,30.424 Z M234.943333,19.2908889 L237.138222,19.2908889 L237.349778,21.0891111 L237.429111,21.0891111 C238.063781,20.4368116 238.702849,19.92115 239.346333,19.5421111 C239.989818,19.1630722 240.681774,18.9735556 241.422222,18.9735556 C243.202824,18.9735556 244.392812,19.766881 244.992222,21.3535556 C245.715041,20.577848 246.406997,19.9872613 247.068111,19.5817778 C247.729226,19.1762943 248.438811,18.9735556 249.196889,18.9735556 C250.519118,18.9735556 251.510774,19.4098845 252.171889,20.2825556 C252.833003,21.1552266 253.163556,22.4201399 253.163556,24.0773333 L253.163556,32.2222222 L250.492667,32.2222222 L250.492667,24.4211111 C250.492667,23.3104389 250.320779,22.5082988 249.977,22.0146667 C249.633221,21.5210346 249.0823,21.2742222 248.324222,21.2742222 C247.442736,21.2742222 246.464302,21.8648089 245.388889,23.046 L245.388889,32.2222222 L242.718,32.2222222 L242.718,24.4211111 C242.718,23.3104389 242.546113,22.5082988 242.202333,22.0146667 C241.858554,21.5210346 241.307633,21.2742222 240.549556,21.2742222 C239.66807,21.2742222 238.689635,21.8648089 237.614222,23.046 L237.614222,32.2222222 L234.943333,32.2222222 L234.943333,19.2908889 Z M267.337778,25.0822222 C267.337778,25.5758543 267.302519,26.0342201 267.232,26.4573333 L258.690444,26.4573333 C258.813852,27.7619324 259.258996,28.7535892 260.025889,29.4323333 C260.792782,30.1110775 261.722735,30.4504444 262.815778,30.4504444 C263.855931,30.4504444 264.887254,30.1242996 265.909778,29.472 L266.835333,31.1644444 C265.460215,32.0811898 264.005785,32.5395556 262.472,32.5395556 C261.290809,32.5395556 260.224227,32.266299 259.272222,31.7197778 C258.320217,31.1732565 257.566558,30.3887459 257.011222,29.3662222 C256.455886,28.3436986 256.178222,27.1448958 256.178222,25.7697778 C256.178222,24.4122895 256.455886,23.217894 257.011222,22.1865556 C257.566558,21.1552171 258.293773,20.3618917 259.192889,19.8065556 C260.092004,19.2512194 261.05281,18.9735556 262.075333,18.9735556 C263.750157,18.9735556 265.045921,19.524476 265.962667,20.6263333 C266.879412,21.7281907 267.337778,23.2134721 267.337778,25.0822222 Z M265.010667,24.6062222 C265.010667,23.4779203 264.763854,22.6052623 264.270222,21.9882222 C263.77659,21.3711821 263.062597,21.0626667 262.128222,21.0626667 C261.317255,21.0626667 260.594448,21.3623674 259.959778,21.9617778 C259.325108,22.5611882 258.919631,23.4426608 258.743333,24.6062222 L265.010667,24.6062222 Z" id="Flame" fill="#181A1A" fill-rule="nonzero"></path>
                <rect id="separator" fill="#ED5153" fill-rule="nonzero" opacity="0.900000036" x="189" y="9.7" width="2" height="22.4"></rect>
                <g id="Logo/Horizontal/Base">
                    <g id="icon-logo-horizontal">
                        <path d="M14.2699725,0 L16.1829201,3.37555556 C16.5764162,4.07228609 16.5764162,4.9266028 16.1829201,5.62333333 L4.79393939,25.6511111 L10.1702479,35.1011111 C11.0187328,36.5944444 12.5807163,37.5122222 14.2661157,37.5122222 C15.9553719,37.5122222 17.5134986,36.5944444 18.3619835,35.1011111 L23.738292,25.6511111 L22.2842975,23.1 L16.1906336,33.8255556 C15.7919261,34.5152928 15.059798,34.9394779 14.2680441,34.9394779 C13.4762902,34.9394779 12.7441621,34.5152928 12.3454545,33.8255556 L7.70578512,25.6511111 L18.2809917,7.05055556 L20.1977961,10.4222222 C20.5927581,11.1199483 20.5927581,11.9761628 20.1977961,12.6738889 L12.815978,25.6511111 L14.2699725,28.2022222 L22.292011,14.1011111 L27.5487603,23.3488889 C28.3551279,24.7746306 28.3551279,26.5237027 27.5487603,27.9494444 L22.2033058,37.3488889 C21.3779614,38.7877778 18.8556474,42 14.2584022,42 C9.66887052,42 7.15426997,38.7877778 6.33278237,37.3488889 L0.991184573,27.9533333 C0.183349914,26.5265965 0.183349914,24.7756257 0.991184573,23.3488889 L14.262259,0" id="base-1" fill="#ED5153" fill-rule="nonzero"></path>
                        <path d="M56.7906336,16.1777778 C52.5096419,16.1894444 49.0385675,19.2227778 49.0385675,24.08 C49.0385675,28.945 52.0275482,31.9161111 56.8214876,31.9161111 C58.722865,31.9161111 60.7168044,32.9 60.7168044,35.0466667 C60.7168044,37.1933333 59.0044077,38.3988889 56.8214876,38.3988889 C54.6424242,38.3988889 52.8066116,37.0688889 52.8066116,35.0466667 L49.0385675,35.0466667 C49.0385675,39.2466667 52.3707989,42 56.8214876,42 C61.2760331,42 64.5157025,39.3438889 64.5157025,35.0466667 C64.5157025,33.0555556 63.8909091,31.1888889 61.337741,29.8938889 C63.8600551,28.7272222 64.5774105,26.005 64.5774105,24.0761111 C64.5774105,19.215 61.0870523,16.1777778 56.7906336,16.1777778 Z M56.8214876,28.7272222 C54.6115702,28.7272222 52.8066116,26.7983333 52.8066116,24.08 C52.8066116,21.3577778 54.6115702,19.3705556 56.8214876,19.3705556 C59.0044077,19.3705556 60.8093664,21.3927778 60.8093664,24.08 C60.8093664,26.7633333 59.0044077,28.7233333 56.8214876,28.7233333 L56.8214876,28.7272222 Z M149.290909,25.7366667 C149.715152,27.5838889 151.385124,29.1977778 154.065565,29.1977778 C155.465565,29.1977778 157.305234,28.5055556 158.17686,27.5916667 L160.606612,30.0105556 C158.986777,31.7138889 156.341047,32.5305556 154.003857,32.5305556 C149.209917,32.5227778 145.738843,29.3027778 145.738843,24.3405556 C145.738843,19.6194444 149.321763,16.2011111 153.733884,16.1855556 C158.381267,16.1661111 162.238017,19.4055556 161.821488,25.7366667 L149.287052,25.7366667 L149.290909,25.7366667 Z M158.215427,22.8005556 C157.783471,20.9533333 155.963085,19.3627778 153.780165,19.3627778 C151.695541,19.3822857 149.871299,20.7804532 149.294766,22.8005556 L158.215427,22.8005556 Z M131.77741,25.7366667 C132.201653,27.5838889 133.871625,29.1977778 136.552066,29.1977778 C137.952066,29.1977778 139.791736,28.5055556 140.663361,27.5916667 L143.093113,30.0105556 C141.473278,31.7138889 138.827548,32.5305556 136.490358,32.5305556 C131.700275,32.5227778 128.225344,29.3027778 128.225344,24.3405556 C128.225344,19.6194444 131.808264,16.2011111 136.220386,16.1855556 C140.867769,16.1661111 144.724518,19.4055556 144.307989,25.7366667 L131.773554,25.7366667 L131.77741,25.7366667 L131.77741,25.7366667 Z M140.701928,22.8005556 C140.269972,20.9533333 138.449587,19.3627778 136.266667,19.3627778 C134.182043,19.3822857 132.3578,20.7804532 131.781267,22.8005556 L140.701928,22.8005556 Z M75.553719,16.1622222 C73.8181818,16.1622222 72.1443526,16.6988889 70.7829201,18.4877778 L70.7829201,9.68722222 L67.0033058,9.68722222 L67.0033058,32.1222222 L70.7829201,32.1222222 L70.7829201,24.2005556 C70.7829201,21.8711111 72.3294766,19.9538889 74.5625344,19.9538889 C76.5757576,19.9538889 78.0336088,21.1477778 78.0336088,23.9788889 L78.0336088,32.1183333 L81.8093664,32.1183333 L81.8093664,23.7066667 C81.8093664,19.1488889 79.8887052,16.1622222 75.553719,16.1622222 Z M118.984573,16.1816667 C117.249036,16.1816667 115.204959,16.9361111 114.02865,18.6627778 L113.905234,16.5355556 L110.252893,16.5355556 L110.252893,38.9861111 L114.032507,38.5738889 L114.032507,30.2944444 C115.112397,31.99 117.465014,32.5266667 119.077135,32.5266667 C123.975207,32.5266667 126.821488,28.8205556 126.821488,24.2938889 C126.821488,19.7322222 123.697521,16.1816667 118.984573,16.1816667 L118.984573,16.1816667 Z M118.706887,29.2055556 C116.138292,29.2055556 114.371901,26.8022222 114.371901,24.3872222 C114.371901,21.9683333 115.980165,19.3627778 118.706887,19.3627778 C121.433609,19.3627778 123.04573,21.9683333 123.04573,24.3872222 C123.04573,26.8061111 121.279339,29.2055556 118.706887,29.2055556 L118.706887,29.2055556 Z M170.985124,32.5266667 C172.720661,32.5266667 174.764738,31.7761111 175.941047,30.0455556 L176.06832,32.1183333 L179.724518,32.1183333 L179.724518,9.72222222 L175.944904,9.72222222 L175.944904,18.4138889 C174.865014,16.7183333 172.473829,16.2088889 170.865565,16.2088889 C165.97135,16.2088889 163.152066,19.8877778 163.152066,24.4183333 C163.152066,28.9761111 166.27989,32.5266667 170.988981,32.5266667 L170.985124,32.5227778 L170.985124,32.5266667 Z M171.26281,19.5027778 C173.835262,19.5027778 175.601653,21.9022222 175.601653,24.325 C175.601653,26.7438889 173.989532,29.3455556 171.26281,29.3455556 C168.539945,29.3455556 166.927824,26.7438889 166.927824,24.325 C166.927824,21.9022222 168.694215,19.5027778 171.26281,19.5027778 Z M91.0077135,29.4855556 C90.5294766,29.4855556 90.1746556,29.33 89.9471074,29.0227778 C89.7157025,28.7194444 89.6,28.2255556 89.6,27.545 L89.6,19.8838889 L92.646832,19.8838889 L92.9939394,16.5472222 L89.6347107,16.5472222 L89.6347107,12.2694444 L85.8165289,12.6816667 L85.8165289,16.5472222 L82.9393939,16.5472222 L82.9393939,19.88 L85.8165289,19.88 L85.8319559,27.6227778 C85.8319559,29.225 86.2022039,30.4383333 86.9465565,31.2627778 C87.6909091,32.0911111 88.7862259,32.5111111 90.2363636,32.5266667 C90.876584,32.5266667 91.5168044,32.4333333 92.1647383,32.2427778 C92.7818182,32.0677778 93.3680441,31.7916667 93.9002755,31.4261111 L92.600551,28.9761111 C92.1246875,29.2867127 91.5742191,29.4614275 91.0077135,29.4816667 L91.0077135,29.4855556 Z M106.569697,23.7727778 C105.034711,22.8083333 103.214325,22.68 101.455647,22.5672222 C100.422039,22.505 98.8176309,22.2561111 98.8176309,20.895 C98.8176309,19.915 99.8203857,19.3511111 101.633058,19.3511111 C103.106336,19.3511111 104.35978,19.6972222 105.455096,20.7355556 L107.587879,18.2155556 C105.802204,16.6483333 103.985675,16.1777778 101.57135,16.1777778 C98.7559229,16.1777778 95.0573003,17.4377778 95.0573003,21.0194444 C95.0573003,22.5127778 95.8402204,23.8855556 97.0898072,24.6672222 C98.5245179,25.5733333 100.352617,25.6977778 101.968595,25.8688889 C103.048485,25.9816667 104.818733,26.2577778 104.533333,27.7744444 C104.328926,28.8438889 103.083196,29.1472222 102.169146,29.1861111 C101.201102,29.2327778 100.225344,29.1627778 99.2842975,28.9177778 C98.2853994,28.6533333 97.4523416,28.1555556 96.6,27.58 L94.6870523,30.0688889 L94.9184573,30.2633333 C97.4022039,32.3166667 100.834711,32.9972222 103.943251,32.2855556 C106.280441,31.7527778 108.305234,30.0183333 108.305234,27.4322222 C108.305234,25.9777778 107.815427,24.5544444 106.569697,23.7766667 L106.569697,23.7727778 Z M43.0991736,32.1222222 L46.8787879,32.1222222 L46.8787879,16.5666667 L43.0991736,16.5666667 L43.0991736,32.1222222 Z M42.7752066,11.585 C42.7731571,10.990914 43.0052432,10.4203397 43.4204072,9.99879879 C43.8355709,9.57725794 44.3998044,9.33928143 44.9889807,9.33722222 C46.2143675,9.34151066 47.2048895,10.345507 47.2027548,11.5811111 C47.2027548,12.8255556 46.2115702,13.8327778 44.9889807,13.8327778 C44.4027548,13.8327778 43.8396694,13.5994444 43.4269972,13.1755556 C43.0095662,12.7516354 42.7752749,12.1784998 42.7752066,11.5811111 L42.7752066,11.585 Z M39.9983471,32.1455556 L39.9983471,9.70666667 L36.2534435,9.70666667 L36.2534435,32.1455556 L40.0022039,32.1455556 L39.9983471,32.1455556 Z" id="details-1" fill="#0C0D0D" fill-rule="nonzero"></path>
                    </g>
                </g>
            </g>
        </g>
    </g>
</svg>