<?xml version="1.0" encoding="UTF-8" standalone="no"?>
<svg width="200px" height="200px" viewBox="0 0 200 200" version="1.1" xmlns="http://www.w3.org/2000/svg" xmlns:xlink="http://www.w3.org/1999/xlink">
    <!-- Generator: Sketch 3.7.2 (28276) - http://www.bohemiancoding.com/sketch -->
    <title>audi</title>
    <desc>Created with Sketch.</desc>
    <defs></defs>
    <g id="Page-1" stroke="none" stroke-width="1" fill="none" fill-rule="evenodd">
        <g id="audi" fill="#000000">
            <g transform="translate(12.000000, 69.000000)" id="Ebene_1">
                <g>
                    <path d="M143.380682,0 C136.420455,0 129.957386,2.28693182 124.6875,6.16477273 C119.417614,2.28693182 112.954545,0 105.994318,0 C99.0340909,0 92.5710227,2.28693182 87.3011364,6.16477273 C82.03125,2.28693182 75.6676136,0 68.6079545,0 C61.6477273,0 55.1846591,2.28693182 49.9147727,6.16477273 C44.7443182,2.28693182 38.28125,0 31.2215909,0 C14.0198864,0 0,13.8210227 0,30.8238636 C0,47.8267045 14.0198864,61.6477273 31.2215909,61.6477273 C38.1818182,61.6477273 44.6448864,59.3607955 49.9147727,55.4829545 C55.1846591,59.3607955 61.6477273,61.6477273 68.6079545,61.6477273 C75.5681818,61.6477273 82.03125,59.3607955 87.3011364,55.4829545 C92.4715909,59.3607955 98.9346591,61.6477273 105.994318,61.6477273 C112.954545,61.6477273 119.417614,59.3607955 124.6875,55.4829545 C129.857955,59.3607955 136.321023,61.6477273 143.380682,61.6477273 C160.582386,61.6477273 174.602273,47.8267045 174.602273,30.8238636 C174.602273,13.8210227 160.582386,0 143.380682,0 L143.380682,0 Z M124.6875,46.7329545 C120.909091,42.4573864 118.622159,36.8892045 118.622159,30.8238636 C118.622159,24.7585227 120.909091,19.1903409 124.6875,14.9147727 C128.465909,19.1903409 130.752841,24.7585227 130.752841,30.8238636 C130.752841,36.8892045 128.465909,42.4573864 124.6875,46.7329545 L124.6875,46.7329545 Z M87.3011364,46.7329545 C83.5227273,42.4573864 81.2357955,36.8892045 81.2357955,30.8238636 C81.2357955,24.7585227 83.5227273,19.1903409 87.3011364,14.9147727 C91.0795455,19.1903409 93.3664773,24.7585227 93.3664773,30.8238636 C93.3664773,36.8892045 91.0795455,42.4573864 87.3011364,46.7329545 L87.3011364,46.7329545 Z M49.9147727,46.7329545 C46.1363636,42.4573864 43.8494318,36.8892045 43.8494318,30.8238636 C43.8494318,24.7585227 46.1363636,19.1903409 49.9147727,14.9147727 C53.6931818,19.1903409 55.9801136,24.7585227 55.9801136,30.8238636 C56.0795455,36.8892045 53.6931818,42.4573864 49.9147727,46.7329545 L49.9147727,46.7329545 Z M6.46306818,30.8238636 C6.46306818,17.4005682 17.5994318,6.46306818 31.2215909,6.46306818 C36.2926136,6.46306818 41.0653409,7.95454545 45.0426136,10.6392045 C40.2698864,16.0085227 37.3863636,23.0681818 37.3863636,30.8238636 C37.3863636,38.5795455 40.2698864,45.6392045 45.0426136,51.0085227 C41.0653409,53.59375 36.3920455,55.1846591 31.2215909,55.1846591 C17.5994318,55.1846591 6.46306818,44.2471591 6.46306818,30.8238636 L6.46306818,30.8238636 Z M54.7869318,51.0085227 C59.5596591,45.6392045 62.4431818,38.5795455 62.4431818,30.8238636 C62.4431818,23.0681818 59.5596591,16.0085227 54.7869318,10.6392045 C58.7642045,8.05397727 63.4375,6.46306818 68.6079545,6.46306818 C73.7784091,6.46306818 78.4517045,7.95454545 82.4289773,10.6392045 C77.65625,16.0085227 74.6732955,23.0681818 74.6732955,30.8238636 C74.6732955,38.5795455 77.5568182,45.6392045 82.4289773,51.0085227 C78.4517045,53.59375 73.7784091,55.1846591 68.6079545,55.1846591 C63.5369318,55.1846591 58.7642045,53.59375 54.7869318,51.0085227 L54.7869318,51.0085227 Z M92.1732955,51.0085227 C96.9460227,45.6392045 99.9289773,38.5795455 99.9289773,30.8238636 C99.9289773,23.0681818 97.0454545,16.0085227 92.1732955,10.6392045 C96.1505682,8.05397727 100.823864,6.46306818 105.994318,6.46306818 C111.164773,6.46306818 115.838068,7.95454545 119.815341,10.6392045 C115.042614,16.0085227 112.059659,23.0681818 112.059659,30.8238636 C112.059659,38.5795455 114.943182,45.6392045 119.815341,51.0085227 C115.838068,53.59375 111.164773,55.1846591 105.994318,55.1846591 C100.823864,55.1846591 96.1505682,53.59375 92.1732955,51.0085227 L92.1732955,51.0085227 Z M143.380682,55.1846591 C138.309659,55.1846591 133.536932,53.6931818 129.559659,51.0085227 C134.332386,45.6392045 137.315341,38.5795455 137.315341,30.8238636 C137.315341,23.0681818 134.431818,16.0085227 129.559659,10.6392045 C133.536932,8.05397727 138.210227,6.46306818 143.380682,6.46306818 C157.002841,6.46306818 168.139205,17.4005682 168.139205,30.8238636 C168.139205,44.2471591 157.002841,55.1846591 143.380682,55.1846591 L143.380682,55.1846591 Z" id="Shape"></path>
                </g>
            </g>
        </g>
    </g>
</svg>