<?xml version="1.0" encoding="UTF-8" standalone="no"?>
<svg width="200px" height="200px" viewBox="0 0 200 200" version="1.1" xmlns="http://www.w3.org/2000/svg" xmlns:xlink="http://www.w3.org/1999/xlink">
    <!-- Generator: Sketch 3.7.2 (28276) - http://www.bohemiancoding.com/sketch -->
    <title>ba</title>
    <desc>Created with Sketch.</desc>
    <defs></defs>
    <g id="Page-1" stroke="none" stroke-width="1" fill="none" fill-rule="evenodd">
        <g id="ba" fill="#303033">
            <path d="M18.9658579,104.617979 L20.6369908,104.617979 C21.7262578,104.617979 22.7514502,103.649934 22.7514502,101.790041 C22.7514502,100.021931 21.7262578,99.0313733 20.6369908,99.0313733 L18.9658579,99.0313733 L18.9658579,104.617979 Z M18.9658579,94.9894829 L20.4135959,94.9894829 C21.6275484,94.9894829 22.3011968,93.9019477 22.3011968,92.6793364 C22.3011968,91.3943824 21.6275484,90.3033837 20.4135959,90.3033837 L18.9658579,90.3033837 L18.9658579,94.9894829 Z M13,86 L22.0119955,86 C26.2859396,86 28.2705182,88.285902 28.2705182,91.7164868 C28.2705182,94.1495871 27.2089592,96.3333162 24.6719543,96.8511076 L24.6719543,96.9151821 C27.6921157,97.2043834 28.9129952,99.7708279 28.9129952,102.141585 C28.9129952,106.122865 26.9924912,108.912704 22.0119955,108.912704 L13,108.912704 L13,86 Z M38.8104314,105.773052 C40.639153,105.773052 40.8365719,104.098456 40.8365719,97.9040079 C40.8365719,91.7182185 40.639153,90.0436221 38.8104314,90.0436221 C36.9765146,90.0436221 36.7946815,91.7182185 36.7946815,97.9040079 C36.7946815,104.098456 36.9765146,105.773052 38.8104314,105.773052 Z M38.8104314,86 C44.9113654,86 46.9929216,89.3370706 46.9929216,97.9040079 C46.9929216,106.479604 44.9113654,109.816675 38.8104314,109.816675 C32.7146927,109.816675 30.629673,106.479604 30.629673,97.9040079 C30.629673,89.3370706 32.7146927,86 38.8104314,86 Z M49.2381277,86 L57.7686984,86 L60.179286,99.5751409 L60.2433605,99.5751409 L62.6556798,86 L71.1862505,86 L71.1862505,108.912704 L65.6048398,108.912704 L65.6048398,91.8429041 L65.5303748,91.8429041 L62.3612834,108.912704 L58.0596314,108.912704 L54.8870764,91.8429041 L54.8195384,91.8429041 L54.8195384,108.912704 L49.2381277,108.912704 L49.2381277,86 Z M79.782108,104.617979 L81.446314,104.617979 C82.5355809,104.617979 83.5677003,103.649934 83.5677003,101.790041 C83.5677003,100.021931 82.5355809,99.0313733 81.446314,99.0313733 L79.782108,99.0313733 L79.782108,104.617979 Z M79.782108,94.9894829 L81.2263825,94.9894829 C82.4420667,94.9894829 83.1209104,93.9019477 83.1209104,92.6793364 C83.1209104,91.3943824 82.4420667,90.3033837 81.2263825,90.3033837 L79.782108,90.3033837 L79.782108,94.9894829 Z M73.8041279,86 L82.8282456,86 C87.0900675,86 89.0850365,88.285902 89.0850365,91.7164868 C89.0850365,94.1495871 88.026941,96.3333162 85.4882043,96.8511076 L85.4882043,96.9151821 C88.5014388,97.2043834 89.730977,99.7708279 89.730977,102.141585 C89.730977,106.122865 87.796619,108.912704 82.8282456,108.912704 L73.8041279,108.912704 L73.8041279,86 Z M99.4214699,90.6912944 L99.3573953,90.6912944 L97.7174338,100.40811 L101.064895,100.40811 L99.4214699,90.6912944 Z M95.6393411,86 L103.141256,86 L108.72613,108.912704 L102.37063,108.912704 L101.757592,104.89679 L97.0091505,104.89679 L96.4047719,108.912704 L90.0544668,108.912704 L95.6393411,86 Z M116.322079,95.6960344 L117.51525,95.6960344 C119.210628,95.6960344 120.008962,94.6067675 120.008962,92.9633424 C120.008962,91.1051812 119.274702,90.3033837 117.471957,90.3033837 L116.322079,90.3033837 L116.322079,95.6960344 Z M110.356221,86 L119.700711,86 C124.250002,86 125.988673,88.5681763 125.988673,92.1026657 C125.988673,95.1488033 124.792038,97.1333819 122.071469,97.5576592 L122.071469,97.6182702 C124.956554,97.8728366 125.818962,99.6980947 125.818962,102.758086 L125.818962,104.709762 C125.818962,105.894275 125.818962,107.432063 126.113359,107.892707 C126.279606,108.140346 126.404292,108.403572 126.787007,108.585405 L126.787007,108.912704 L120.428044,108.912704 C119.856568,107.69702 119.856568,105.511559 119.856568,104.553905 L119.856568,103.005726 C119.856568,100.40811 119.335313,99.7309978 117.901429,99.7309978 L116.322079,99.7309978 L116.322079,108.912704 L110.356221,108.912704 L110.356221,86 Z M134.545913,104.617979 L135.735621,104.617979 C138.045768,104.617979 138.334969,103.649934 138.334969,97.4554863 C138.334969,91.2696969 138.045768,90.3033837 135.735621,90.3033837 L134.545913,90.3033837 L134.545913,104.617979 Z M128.576592,86 L137.231848,86 C144.134579,86 144.489587,91.4549935 144.489587,97.4554863 C144.489587,103.464638 144.134579,108.912704 137.231848,108.912704 L128.576592,108.912704 L128.576592,86 Z M146.891516,86 L152.85391,86 L152.85391,108.912704 L146.891516,108.912704 L146.891516,86 Z M155.540018,86 L169.1065,86 L169.1065,90.8783227 L161.495486,90.8783227 L161.495486,94.7955275 L168.623344,94.7955275 L168.623344,99.4816267 L161.495486,99.4816267 L161.495486,104.036113 L169.39397,104.036113 L169.39397,108.912704 L155.540018,108.912704 L155.540018,86 Z M177.541998,95.6960344 L178.726511,95.6960344 C180.434011,95.6960344 181.235808,94.6067675 181.235808,92.9633424 C181.235808,91.1051812 180.494622,90.3033837 178.698803,90.3033837 L177.541998,90.3033837 L177.541998,95.6960344 Z M171.57614,86 L180.91024,86 C185.473386,86 187.194739,88.5681763 187.194739,92.1026657 C187.194739,95.1488033 186.018885,97.1333819 183.287925,97.5576592 L183.287925,97.6182702 C186.183401,97.8728366 187.042346,99.6980947 187.042346,102.758086 L187.042346,104.709762 C187.042346,105.894275 187.042346,107.432063 187.333279,107.892707 C187.489136,108.140346 187.627675,108.403572 188,108.585405 L188,108.912704 L181.651427,108.912704 C181.076488,107.69702 181.076488,105.511559 181.076488,104.553905 L181.076488,103.005726 C181.076488,100.40811 180.555233,99.7309978 179.110958,99.7309978 L177.541998,99.7309978 L177.541998,108.912704 L171.57614,108.912704 L171.57614,86 Z" id="Bombardier-Logo"></path>
        </g>
    </g>
</svg>