<?xml version="1.0" encoding="UTF-8" standalone="no"?>
<svg width="200px" height="200px" viewBox="0 0 200 200" version="1.1" xmlns="http://www.w3.org/2000/svg" xmlns:xlink="http://www.w3.org/1999/xlink">
    <!-- Generator: Sketch 3.7.2 (28276) - http://www.bohemiancoding.com/sketch -->
    <title>designit</title>
    <desc>Created with Sketch.</desc>
    <defs></defs>
    <g id="Page-1" stroke="none" stroke-width="1" fill="none" fill-rule="evenodd">
        <g id="designit" fill="#000000">
            <g id="logo" transform="translate(14.000000, 74.000000)">
                <path d="M20.625,0.770359501 C23.25,1.540719 25.125,3.081438 26.8125,5.39251651 C28.125,7.12582539 28.875,9.24431401 29.25,11.1702128 C29.625,13.2887014 30,15.40719 30,17.1404989 C30,21.9552458 29.0625,25.9996332 27.1875,29.4662509 C24.5625,33.895818 20.625,36.2068966 15.1875,36.2068966 L0,36.2068966 L0,0 L15.1875,0 C17.4375,0 19.3125,0.192589875 20.625,0.770359501 L20.625,0.770359501 Z M7.125,6.35546588 L7.125,30.0440205 L13.875,30.0440205 C17.4375,30.0440205 19.875,28.3107117 21.1875,24.651504 C21.9375,22.7256053 22.3125,20.4145268 22.3125,17.7182685 C22.5,14.0590609 21.9375,11.1702128 20.8125,9.24431401 C19.6875,7.31841526 17.4375,6.35546588 14.0625,6.35546588 L7.125,6.35546588 L7.125,6.35546588 L7.125,6.35546588 Z" id="Shape"></path>
                <path d="M50.149925,10.3929932 C52.023988,11.143997 53.5232384,12.4582537 54.6476762,14.3357632 C55.7721139,15.8377708 56.3343328,17.7152803 56.7091454,19.7805408 C56.8965517,20.9070465 56.8965517,22.784556 56.8965517,25.0375674 L37.9685157,25.0375674 C38.155922,27.6660808 38.9055472,29.5435903 40.5922039,30.670096 C41.7166417,31.2333489 42.8410795,31.6088508 44.3403298,31.6088508 C45.8395802,31.6088508 47.1514243,31.2333489 48.0884558,30.482345 C48.838081,29.7313412 49.0254873,29.5435903 49.4002999,28.0415827 L56.3343328,28.0415827 C56.1469265,30.2945941 55.3973013,31.7966017 53.898051,33.4863603 C51.6491754,35.9271226 48.2758621,37.2413793 44.1529235,37.2413793 C40.7796102,37.2413793 37.5937031,36.1148736 34.970015,34.0496131 C32.3463268,31.9843527 31.0344828,28.4170846 31.0344828,23.5355598 C31.0344828,19.029537 32.1589205,15.4622689 34.5952024,13.0215065 C37.0314843,10.5807442 40.029985,9.45423844 43.9655172,9.45423844 C46.2143928,9.07873654 48.2758621,9.45423844 50.149925,10.3929932 M39.8425787,16.2132727 C38.9055472,17.1520275 38.3433283,18.4662841 37.9685157,20.1560427 L49.5877061,20.1560427 C49.4002999,18.4662841 48.838081,16.9642765 47.7136432,16.0255218 C46.964018,15.2745179 45.4647676,14.7112651 43.9655172,14.7112651 C42.2788606,14.7112651 40.7796102,15.2745179 39.8425787,16.2132727" id="Shape"></path>
                <path d="M64.9946121,27.9939422 C65.1804957,29.1262815 65.3663793,30.0698975 65.9240302,30.6360671 C66.8534483,31.5796831 68.3405172,31.9571295 70.5711207,31.9571295 C71.872306,31.9571295 72.9876078,31.7684063 73.7311422,31.3909599 C74.4746767,31.0135135 74.846444,30.4473439 74.846444,29.5037279 C74.846444,28.748835 74.4746767,28.1826654 73.9170259,27.805219 C73.359375,27.4277726 70.9428879,26.6728798 66.8534483,25.7292637 C63.8793103,24.9743709 61.8345905,24.0307549 60.7192888,22.8984157 C59.4181034,21.7660764 58.8604526,20.2562908 58.8604526,18.1803355 C58.8604526,15.7269338 59.7898707,13.6509786 61.6487069,11.9524697 C63.5075431,10.2539609 66.1099138,9.31034483 69.6417026,9.31034483 C72.8017241,9.31034483 75.4040948,9.87651445 77.4488147,11.1975769 C79.4935345,12.5186393 80.6088362,14.7833178 80.9806034,17.9916123 L74.2887931,17.9916123 C74.1029095,17.0479963 73.9170259,16.4818267 73.5452586,15.915657 C72.8017241,14.972041 71.5005388,14.5945946 69.6417026,14.5945946 C68.1546336,14.5945946 67.0393319,14.7833178 66.481681,15.3494874 C65.9240302,15.7269338 65.5522629,16.2931034 65.5522629,17.0479963 C65.5522629,17.8028891 65.9240302,18.3690587 66.481681,18.7465051 C67.2252155,19.1239515 69.455819,19.6901212 73.5452586,20.6337372 C76.3335129,21.1999068 78.1923491,22.332246 79.6794181,23.4645853 C80.9806034,24.7856477 81.7241379,26.4841566 81.7241379,28.3713886 C81.7241379,31.0135135 80.7947198,33.0894688 78.9358836,34.7879776 C77.0770474,36.4864865 74.1029095,37.2413793 70.0134698,37.2413793 C65.9240302,37.2413793 62.9498922,36.2977633 60.9051724,34.5992544 C59.0463362,32.9007456 57.9310345,30.6360671 57.9310345,27.9939422 L64.9946121,27.9939422 L64.9946121,27.9939422 L64.9946121,27.9939422 Z" id="Shape"></path>
                <path d="M107.011494,9.76957785 C108.735632,10.5374282 110.076628,11.6892037 111.034483,13.6088295 L111.034483,9.76957785 L117.931034,9.76957785 L117.931034,35.1086389 C117.931034,38.5639654 117.356322,41.2514416 116.206897,42.9791049 C114.291188,46.0505062 110.45977,47.5862069 104.712644,47.5862069 C101.264368,47.5862069 98.5823755,47.0103191 96.2835249,45.6665811 C94.1762452,44.322843 93.0268199,42.4032171 92.6436782,39.715741 L100.306513,39.715741 C100.498084,40.4835913 100.881226,41.059479 101.264368,41.4434042 C102.030651,42.019292 103.371648,42.4032171 105.095785,42.4032171 C107.586207,42.4032171 109.310345,41.6353668 110.076628,39.9077035 C110.651341,38.755928 110.842912,37.0282648 110.842912,34.5327512 L110.842912,32.8050879 C110.268199,33.9568634 109.501916,34.7247138 108.735632,35.3006015 C107.394636,36.452377 105.478927,36.8363022 103.371648,36.8363022 C99.9233716,36.8363022 97.2413793,35.6845267 95.1340996,33.1890131 C93.0268199,30.6934995 92.0689655,27.4301356 92.0689655,23.3989213 C92.0689655,19.367707 93.0268199,16.1043431 94.9425287,13.4168669 C96.8582375,10.7293908 99.7318008,9.38565268 103.371648,9.38565268 C104.712644,9.1936901 106.05364,9.38565268 107.011494,9.76957785 M109.310345,28.9658362 C110.45977,27.8140607 111.034483,25.7024723 111.034483,23.0149961 C111.034483,20.5194826 110.45977,18.5998567 109.501916,17.2561186 C108.35249,15.9123805 107.011494,15.3364928 105.287356,15.3364928 C102.796935,15.3364928 101.264368,16.4882683 100.306513,18.7918193 C99.9233716,19.9435948 99.5402299,21.4792955 99.5402299,23.3989213 C99.5402299,24.934622 99.7318008,26.2783601 100.306513,27.6220982 C101.264368,29.9256492 102.988506,31.0774247 105.287356,31.0774247 C106.819923,30.8854621 108.16092,30.1176118 109.310345,28.9658362" id="Shape"></path>
                <path d="M141.128276,11.3938805 C142.841379,12.9091792 143.793103,15.1821272 143.793103,18.402137 L143.793103,36.2068966 L136.750345,36.2068966 L136.750345,20.106848 C136.750345,18.7809616 136.56,17.6444876 136.17931,16.8868383 C135.417931,15.5609519 134.275862,14.8033026 132.372414,14.8033026 C130.088276,14.8033026 128.375172,15.7503643 127.613793,17.8339 C127.233103,18.970374 126.852414,20.2962603 126.852414,21.811559 L126.852414,36.2068966 L120,36.2068966 L120,9.87858184 L126.662069,9.87858184 L126.662069,13.6668286 C127.613793,12.3409422 128.375172,11.3938805 129.136552,10.8256435 C130.468966,9.6891695 132.372414,9.31034483 134.466207,9.31034483 C137.131034,9.31034483 139.415172,9.87858184 141.128276,11.3938805" id="Shape"></path>
                <path d="M153.103448,6.51340996 L145.862069,6.51340996 L145.862069,4.4408921e-16 L153.103448,4.4408921e-16 L153.103448,6.51340996 L153.103448,6.51340996 L153.103448,6.51340996 Z M145.862069,9.77011494 L153.103448,9.77011494 L153.103448,36.2068966 L145.862069,36.2068966 L145.862069,9.77011494 L145.862069,9.77011494 L145.862069,9.77011494 Z" id="Shape"></path>
                <path d="M91.0344828,6.51340996 L83.7931034,6.51340996 L83.7931034,4.4408921e-16 L91.0344828,4.4408921e-16 L91.0344828,6.51340996 L91.0344828,6.51340996 L91.0344828,6.51340996 Z M83.7931034,9.77011494 L91.0344828,9.77011494 L91.0344828,36.2068966 L83.7931034,36.2068966 L83.7931034,9.77011494 L83.7931034,9.77011494 L83.7931034,9.77011494 Z" id="Shape"></path>
                <path d="M155.172414,14.3837239 L155.172414,9.45782052 L158.700265,9.45782052 L158.700265,2.06896552 L165.384615,2.06896552 L165.384615,9.45782052 L169.655172,9.45782052 L169.655172,14.3837239 L165.384615,14.3837239 L165.384615,28.4036026 C165.384615,29.5403495 165.570292,30.108723 165.755968,30.4876386 C165.941645,30.6770964 166.870027,30.8665542 168.169761,30.8665542 L168.912467,30.8665542 L169.655172,30.8665542 L169.655172,35.9819154 L166.498674,36.1713732 C163.342175,36.360831 161.114058,35.7924576 160,34.4662528 C159.257294,33.7084215 158.885942,32.3822168 158.885942,30.8665542 L158.885942,14.3837239 L155.172414,14.3837239 L155.172414,14.3837239 L155.172414,14.3837239 Z" id="Shape"></path>
                <path d="M178.510345,8.00689655 C177.765517,8.93793103 176.648276,9.31034483 175.344828,9.31034483 C174.041379,9.31034483 172.924138,8.93793103 171.993103,8.00689655 C171.248276,7.07586207 170.689655,5.95862069 170.689655,4.65517241 C170.689655,3.35172414 171.248276,2.23448276 172.17931,1.30344828 C173.110345,0.372413793 174.041379,0 175.344828,0 C176.648276,0 177.765517,0.372413793 178.696552,1.30344828 C179.627586,2.23448276 180,3.35172414 180,4.65517241 C180,5.95862069 179.441379,7.07586207 178.510345,8.00689655 L178.510345,8.00689655 Z M172.551724,1.86206897 C171.806897,2.60689655 171.434483,3.53793103 171.434483,4.46896552 C171.434483,5.5862069 171.806897,6.51724138 172.551724,7.26206897 C173.296552,8.00689655 174.227586,8.37931034 175.344828,8.37931034 C176.462069,8.37931034 177.393103,8.00689655 178.137931,7.26206897 C178.882759,6.51724138 179.255172,5.5862069 179.255172,4.46896552 C179.255172,3.35172414 178.882759,2.60689655 178.137931,1.86206897 C177.393103,1.11724138 176.462069,0.744827586 175.344828,0.744827586 C174.227586,0.744827586 173.296552,1.11724138 172.551724,1.86206897 L172.551724,1.86206897 Z M173.296552,7.26206897 L173.296552,2.04827586 L174.786207,2.04827586 L175.903448,2.04827586 C176.275862,2.04827586 176.648276,2.23448276 176.834483,2.23448276 C177.206897,2.42068966 177.57931,2.97931034 177.57931,3.53793103 C177.57931,3.91034483 177.393103,4.28275862 177.206897,4.46896552 C177.02069,4.65517241 176.648276,4.84137931 176.275862,4.84137931 C176.648276,4.84137931 176.834483,5.02758621 177.02069,5.2137931 C177.393103,5.4 177.393103,5.77241379 177.393103,6.33103448 L177.393103,6.88965517 L177.393103,7.07586207 L177.393103,7.26206897 L177.393103,7.44827586 L176.275862,7.44827586 L176.275862,6.70344828 L176.275862,6.14482759 C176.275862,5.95862069 176.089655,5.77241379 175.903448,5.77241379 L175.344828,5.77241379 L174.972414,5.77241379 L174.6,5.77241379 L174.6,7.63448276 L173.296552,7.63448276 L173.296552,7.26206897 L173.296552,7.26206897 Z M175.717241,3.16551724 C175.531034,3.16551724 175.344828,2.97931034 174.972414,2.97931034 L174.6,2.97931034 L174.6,4.46896552 L175.158621,4.46896552 C175.531034,4.46896552 175.717241,4.46896552 175.903448,4.28275862 C176.089655,4.09655172 176.275862,3.91034483 176.275862,3.72413793 C176.275862,3.35172414 176.089655,3.16551724 175.717241,3.16551724 L175.717241,3.16551724 Z" id="Shape"></path>
            </g>
        </g>
    </g>
</svg>