<?xml version="1.0" encoding="UTF-8" standalone="no"?>
<svg width="200px" height="200px" viewBox="0 0 200 200" version="1.1" xmlns="http://www.w3.org/2000/svg" xmlns:xlink="http://www.w3.org/1999/xlink">
    <!-- Generator: Sketch 3.7.2 (28276) - http://www.bohemiancoding.com/sketch -->
    <title>ef</title>
    <desc>Created with Sketch.</desc>
    <defs></defs>
    <g id="Page-1" stroke="none" stroke-width="1" fill="none" fill-rule="evenodd">
        <g id="ef" fill="#003F5F">
            <g id="Group" transform="translate(13.000000, 39.000000)">
                <g id="EF-Logo" transform="translate(3.888889, 0.000000)">
                    <path d="M46.8886618,23.0550926 L55.2049353,23.0550926 C55.6416851,22.5924074 56.0854135,22.1314815 56.5401915,21.6729012 C65.3635832,12.7780864 76.3276884,7.03703704 87.5738489,5.38685185 L88.6270497,0.224598765 L79.5582407,0.224598765 C69.8188959,3.3220679 60.23599,9.07601852 52.0342834,17.3416049 C50.2029585,19.1923457 48.4885268,21.097037 46.8886618,23.0550926" id="Fill-1"></path>
                    <path d="M110.890237,45.1197222 C110.890237,52.3332716 107.372977,59.8552778 100.987475,66.291821 C96.9741457,70.3416358 92.1856006,73.2555556 87.1615246,74.776142 L85.9350197,80.8098148 C92.4065925,79.0792901 98.7839529,75.2875 104.191275,69.8296914 C118.231239,55.677037 120.355668,36.468858 109.133352,25.1462654 C106.205209,22.189537 102.56524,20.151142 98.4722381,19.1049691 L97.2009532,25.3491667 C100.029649,26.3408025 102.56524,27.9165123 104.639075,30.0076852 C108.72568,34.1284568 110.890237,39.3546296 110.890237,45.1197222" id="Fill-2"></path>
                    <path d="M99.3480638,47.8829321 C99.6341901,44.2676543 98.4943373,40.9590741 96.1355397,38.5829012 C95.7046055,38.1512963 95.2416857,37.7712963 94.7520142,37.4258951 L89.7738813,61.9048148 C91.3539732,60.9923457 92.8386898,59.8552778 94.1605701,58.5205864 C97.2056057,55.4477469 99.0479801,51.6700309 99.3480638,47.8829321" id="Fill-3"></path>
                    <path d="M20.2097076,0.224598765 L16.7232699,17.3832407 C20.6662303,11.3759568 25.3064783,5.64429012 30.5980708,0.224598765 L20.2097076,0.224598765" id="Fill-4"></path>
                    <path d="M98.7060242,63.989537 C104.48438,58.1669753 107.663756,51.467716 107.663756,45.1197222 C107.663756,40.2336728 105.82836,35.8062037 102.359951,32.3035185 C100.705419,30.6392593 98.7502226,29.3825617 96.547864,28.5527778 L95.4359259,34.046358 C96.532162,34.6462654 97.5365119,35.394537 98.4187348,36.2800309 C101.455047,39.3458333 102.924643,43.5598457 102.56524,48.1456481 C102.201185,52.7021296 100.029649,57.2058333 96.441439,60.8205247 C94.2664136,63.0166667 91.6848795,64.7636111 88.9573744,65.9470062 L87.9134786,71.0758333 C91.7290779,69.6455556 95.4626776,67.26 98.7060242,63.989537" id="Fill-5"></path>
                    <path d="M138.089685,23.0550926 L149.061932,23.0550926 C146.979375,14.4904321 142.857876,6.71685185 136.873649,0.224598765 L119.283858,0.224598765 C122.377163,2.0067284 125.203532,4.17824074 127.7304,6.72095679 C132.425315,11.4604012 135.903029,16.9498765 138.089685,23.0550926" id="Fill-6"></path>
                    <path d="M5.87198694,91.2492593 C4.85484272,88.6860185 4.00518709,86.0653086 3.31662291,83.3795062 L0.254140665,98.4651543 L9.26537544,98.4651543 C7.99234589,96.14 6.8583086,93.7368519 5.87198694,91.2492593" id="Fill-7"></path>
                    <path d="M25.1366635,36.1087963 C21.0459874,45.3091358 18.9715715,54.6314506 18.9715715,63.8071605 C18.9715715,70.8594444 20.218431,77.5886111 22.6743487,83.8181481 C24.8011048,89.197963 27.8019419,94.1109877 31.6192859,98.4651543 L48.6228666,98.4651543 C46.2378989,96.9234568 44.037285,95.1430864 42.0407978,93.125216 C32.4270694,83.4358025 27.8682395,70.2308025 29.2098928,55.9420988 C29.8699607,48.888642 31.9304192,41.8246296 35.3307864,34.9494444 C38.8457204,27.8496605 43.6999816,21.1527469 49.752833,15.0451852 C55.5224658,9.22496914 62.0609177,4.49256173 69.1745301,0.985771605 C69.7037475,0.725401235 70.2352911,0.469722222 70.769161,0.219907407 L54.3314358,0.219907407 C50.6001624,2.97959877 47.0387037,6.05888889 43.6714853,9.45425926 C35.6262177,17.567963 29.3907572,26.534321 25.1366635,36.1087963" id="Fill-8"></path>
                    <path d="M53.278235,56.8539815 C53.278235,58.0133333 53.3491851,59.1457099 53.4771277,60.2534568 L59.3840081,60.2534568 C58.9972723,58.5962346 58.7995427,56.8604321 58.7995427,55.0870988 C58.7995427,51.4120062 59.6137234,47.7070062 61.2194039,44.0606481 C62.2923776,41.6152778 63.6980023,39.2836728 65.4008029,37.0834259 L59.5759221,37.0834259 C55.5160686,43.2437654 53.278235,50.1459259 53.278235,56.8539815" id="Fill-9"></path>
                    <path d="M75.5774791,37.0834259 L69.6240741,37.0834259 C64.7808625,42.4345062 62.0271873,48.9220679 62.0271873,55.0876852 C62.0271873,56.8985494 62.2545764,58.6226235 62.6959786,60.2534568 L68.4394413,60.2534568 C67.4577721,58.253179 66.9366965,55.9978086 66.9366965,53.6339506 C66.9366965,48.4417901 69.3042174,43.2015432 73.5961124,38.8714198 C74.2317548,38.2292901 74.8935674,37.6299691 75.5774791,37.0834259" id="Fill-10"></path>
                    <path d="M106.4704,72.1284568 C100.23901,78.4183951 92.7706475,82.657037 85.2220301,84.3295062 L83.9030575,90.8217593 C93.6668278,88.8865741 103.361393,83.6398765 110.947811,75.9923765 C119.539743,67.3268519 125.106412,56.8053086 126.61381,46.3658642 C126.887142,44.4793519 127.015084,42.6162963 127.017411,40.7966358 C127.017411,40.3691358 127.011013,39.9357716 126.997638,39.5100309 C126.695228,31.0309877 123.396633,23.4350926 117.275739,17.2636111 C112.712839,12.6619753 106.925759,9.83895062 100.580966,8.71537037 L99.1212563,15.9125 C103.828965,17.0900309 108.021414,19.4327778 111.415384,22.8475 C123.937482,35.4783951 121.807818,56.6645679 106.4704,72.1284568" id="Fill-11"></path>
                    <path d="M85.5064117,15.6145988 L86.8835401,8.79746914 C77.459981,10.4482407 67.8235718,15.2703704 59.7521341,23.0550926 L68.5493557,23.0550926 C73.763601,19.2545062 79.571035,16.6936111 85.5064117,15.6145988" id="Fill-12"></path>
                    <path d="M119.55719,14.9671914 C123.904333,19.3500926 126.973212,24.4232099 128.674268,30.0545988 C128.724864,30.217037 128.776041,30.3794753 128.820239,30.5442593 L130.342757,23.0550926 L134.64512,23.0550926 C132.606179,17.841821 129.519271,13.1316975 125.448368,9.01972222 C121.507734,5.04848765 116.845387,2.12283951 111.728262,0.224598765 L102.307029,0.224598765 L101.230566,5.52231481 C102.757154,5.79382716 104.255247,6.16092593 105.722516,6.61481481 C111.064704,8.28552469 115.720654,11.0933025 119.55719,14.9671914" id="Fill-13"></path>
                    <path d="M71.5152993,84.396358 C66.3696778,83.2241049 61.7317561,80.6280247 57.8678875,76.7388889 C57.3648402,76.2269444 56.8885445,75.696821 56.4314403,75.1584877 L46.9061086,75.1584877 C48.3117333,77.7621914 50.0767605,80.1536111 52.1686232,82.2676543 C57.0077638,87.1472531 63.1327283,90.1942901 70.1009513,91.2445679 L71.5152993,84.396358" id="Fill-14"></path>
                    <path d="M84.8044717,19.069784 C81.2813959,19.8508951 77.8147311,21.1996605 74.5271861,23.0550926 L83.9972698,23.0550926 L84.8044717,19.069784" id="Fill-15"></path>
                    <path d="M42.9079002,58.8630556 C42.9079002,59.3304321 42.9189498,59.7907716 42.9387227,60.2534568 L50.2355257,60.2534568 C50.1145618,59.1369136 50.0546613,58.0062963 50.0546613,56.8545679 C50.0546613,50.1594136 52.071503,43.312963 55.7673015,37.0828395 L48.8653761,37.0828395 C44.9730112,44.0940741 42.9079002,51.5204938 42.9079002,58.8630556" id="Fill-16"></path>
                    <path d="M73.4169926,75.1766667 L73.4239713,75.1584877 L60.8995472,75.1584877 C64.1475463,78.185 67.966635,80.2316049 72.1753672,81.2150309 L73.4169926,75.1766667" id="Fill-17"></path>
                    <path d="M32.418346,56.2446914 C31.1738128,69.5517284 35.3994102,81.8378086 44.3205036,90.8329012 C47.4975526,94.0376852 51.2352232,96.5956481 55.4520973,98.4651543 L68.6139085,98.4651543 L69.4432097,94.4376235 C61.862025,93.264784 55.186907,89.910463 49.889499,84.5652469 C47.1643201,81.8155247 44.9421886,78.6406481 43.2830048,75.1584877 L35.6198205,75.1584877 L38.5764593,60.2534568 L39.7087519,60.2534568 C39.6953761,59.7890123 39.6820003,59.3298457 39.6820003,58.8589506 C39.6820003,51.5158025 41.588346,44.1116667 45.2050526,37.0810802 L43.3138274,37.0810802 L45.8912906,24.3053395 C38.164135,34.1906173 33.4465398,45.2815741 32.418346,56.2446914" id="Fill-18"></path>
                    <path d="M15.7456716,63.8071605 C15.7456716,54.1687654 17.9172076,44.4007716 22.1934006,34.7782099 C26.6085857,24.8395679 33.069109,15.5500926 41.3900349,7.15783951 C43.8436263,4.68138889 46.3943379,2.37382716 49.0357725,0.224598765 L35.1894679,0.224598765 C34.6317542,0.762932099 34.079856,1.31064815 33.5302841,1.85601852 C25.8455822,9.61435185 19.5566185,18.0347531 14.775052,26.9747222 L4.99616121,75.1139198 C5.68821474,80.293179 6.97985413,85.2865432 8.86875317,90.0429938 C10.0248896,92.9627778 11.3996918,95.7729012 12.9861809,98.4651543 L27.4076459,98.4651543 C24.1881431,94.3825 21.597304,89.877037 19.678164,85.0150309 C17.0704598,78.411358 15.7456716,71.2693519 15.7456716,63.8071605" id="Fill-19"></path>
                    <path d="M115.011736,98.4651543 L117.221073,87.6187346 C112.452301,91.9746605 107.07929,95.6239506 101.380026,98.4651543 L115.011736,98.4651543" id="Fill-20"></path>
                    <path d="M83.2051884,94.2529012 L82.3514618,98.4651543 L93.189369,98.4651543 C102.090689,95.2275309 110.490707,89.9274691 117.354831,82.9954012 C117.70144,82.6523457 118.036998,82.3004938 118.370231,81.955679 L121.062261,68.7512654 C118.815704,72.0997222 116.192298,75.3039198 113.225191,78.291142 C104.85774,86.727963 94.0390246,92.4068519 83.2051884,94.2529012" id="Fill-21"></path>
                    <path d="M156.383742,0.224598765 L141.170196,0.224598765 C146.669986,6.86228395 150.452437,14.6112346 152.38786,23.0545062 L164.150444,23.0545062 C163.422334,17.9825617 162.142907,13.0900617 160.315072,8.43037037 C159.197318,5.57978395 157.884743,2.84354938 156.383742,0.224598765" id="Fill-22"></path>
                    <path d="M160.079541,0.224598765 C161.290925,2.48583333 162.36797,4.82330247 163.31649,7.23524691 C164.459251,10.1544444 165.397303,13.1580864 166.131811,16.2373765 L169.37981,0.224598765 L160.079541,0.224598765" id="Fill-23"></path>
                    <path d="M137.478468,40.7966358 L130.240984,40.7966358 C130.240984,42.779321 130.099084,44.7948457 129.800745,46.8391049 C128.967955,52.6335185 126.966815,58.4402469 123.958999,63.9719444 L131.189505,63.9719444 C134.338057,57.6949074 136.374672,51.1762654 137.162683,44.6810802 C137.319703,43.3774691 137.425547,42.0826543 137.478468,40.7966358" id="Fill-24"></path>
                    <path d="M153.519571,43.3774691 C152.797858,50.3013272 151.000264,57.2298765 148.230887,63.971358 L155.664356,63.971358 L160.300533,40.7966358 L153.738818,40.7966358 C153.682989,41.6551543 153.607968,42.5142593 153.519571,43.3774691" id="Fill-25"></path>
                    <path d="M150.50594,40.7966358 L140.708439,40.7966358 C140.651447,42.216358 140.536298,43.6354938 140.364157,45.0728086 C139.591849,51.4337037 137.692482,57.8104321 134.777715,63.9719444 L144.728747,63.9719444 C147.678988,57.1278395 149.576611,50.0743827 150.3117,43.035 C150.393699,42.2873148 150.452437,41.544321 150.50594,40.7966358" id="Fill-26"></path>
                    <path d="M75.8775628,41.1707716 C72.1881615,44.8857407 70.1625964,49.3091049 70.1625964,53.634537 C70.1625964,56.1285802 70.8575577,58.384537 72.1817643,60.2499383 L75.632727,60.2499383 L80.1072311,37.8862346 C78.6027416,38.7605864 77.1726915,39.8618827 75.8775628,41.1707716" id="Fill-27"></path>
                    <path d="M46.8886618,23.0550926 L55.2049353,23.0550926 C55.6416851,22.5924074 56.0854135,22.1314815 56.5401915,21.6729012 C65.3635832,12.7780864 76.3276884,7.03703704 87.5738489,5.38685185 L88.6270497,0.224598765 L79.5582407,0.224598765 C69.8188959,3.3220679 60.23599,9.07601852 52.0342834,17.3416049 C50.2029585,19.1923457 48.4885268,21.097037 46.8886618,23.0550926" id="Fill-28"></path>
                    <path d="M110.890237,45.1197222 C110.890237,52.3332716 107.372977,59.8552778 100.987475,66.291821 C96.9741457,70.3416358 92.1856006,73.2555556 87.1615246,74.776142 L85.9350197,80.8098148 C92.4065925,79.0792901 98.7839529,75.2875 104.191275,69.8296914 C118.231239,55.677037 120.355668,36.468858 109.133352,25.1462654 C106.205209,22.189537 102.56524,20.151142 98.4722381,19.1049691 L97.2009532,25.3491667 C100.029649,26.3408025 102.56524,27.9165123 104.639075,30.0076852 C108.72568,34.1284568 110.890237,39.3546296 110.890237,45.1197222" id="Fill-29"></path>
                    <path d="M99.3480638,47.8829321 C99.6341901,44.2676543 98.4943373,40.9590741 96.1355397,38.5829012 C95.7046055,38.1512963 95.2416857,37.7712963 94.7520142,37.4258951 L89.7738813,61.9048148 C91.3539732,60.9923457 92.8386898,59.8552778 94.1605701,58.5205864 C97.2056057,55.4477469 99.0479801,51.6700309 99.3480638,47.8829321" id="Fill-30"></path>
                    <path d="M20.2097076,0.224598765 L16.7232699,17.3832407 C20.6662303,11.3759568 25.3064783,5.64429012 30.5980708,0.224598765 L20.2097076,0.224598765" id="Fill-31"></path>
                    <path d="M98.7060242,63.989537 C104.48438,58.1669753 107.663756,51.467716 107.663756,45.1197222 C107.663756,40.2336728 105.82836,35.8062037 102.359951,32.3035185 C100.705419,30.6392593 98.7502226,29.3825617 96.547864,28.5527778 L95.4359259,34.046358 C96.532162,34.6462654 97.5365119,35.394537 98.4187348,36.2800309 C101.455047,39.3458333 102.924643,43.5598457 102.56524,48.1456481 C102.201185,52.7021296 100.029649,57.2058333 96.441439,60.8205247 C94.2664136,63.0166667 91.6848795,64.7636111 88.9573744,65.9470062 L87.9134786,71.0758333 C91.7290779,69.6455556 95.4626776,67.26 98.7060242,63.989537" id="Fill-32"></path>
                    <path d="M138.089685,23.0550926 L149.061932,23.0550926 C146.979375,14.4904321 142.857876,6.71685185 136.873649,0.224598765 L119.283858,0.224598765 C122.377163,2.0067284 125.203532,4.17824074 127.7304,6.72095679 C132.425315,11.4604012 135.903029,16.9498765 138.089685,23.0550926" id="Fill-33"></path>
                    <path d="M5.87198694,91.2492593 C4.85484272,88.6860185 4.00518709,86.0653086 3.31662291,83.3795062 L0.254140665,98.4651543 L9.26537544,98.4651543 C7.99234589,96.14 6.8583086,93.7368519 5.87198694,91.2492593" id="Fill-34"></path>
                    <path d="M25.1366635,36.1087963 C21.0459874,45.3091358 18.9715715,54.6314506 18.9715715,63.8071605 C18.9715715,70.8594444 20.218431,77.5886111 22.6743487,83.8181481 C24.8011048,89.197963 27.8019419,94.1109877 31.6192859,98.4651543 L48.6228666,98.4651543 C46.2378989,96.9234568 44.037285,95.1430864 42.0407978,93.125216 C32.4270694,83.4358025 27.8682395,70.2308025 29.2098928,55.9420988 C29.8699607,48.888642 31.9304192,41.8246296 35.3307864,34.9494444 C38.8457204,27.8496605 43.6999816,21.1527469 49.752833,15.0451852 C55.5224658,9.22496914 62.0609177,4.49256173 69.1745301,0.985771605 C69.7037475,0.725401235 70.2352911,0.469722222 70.769161,0.219907407 L54.3314358,0.219907407 C50.6001624,2.97959877 47.0387037,6.05888889 43.6714853,9.45425926 C35.6262177,17.567963 29.3907572,26.534321 25.1366635,36.1087963" id="Fill-35"></path>
                    <path d="M53.278235,56.8539815 C53.278235,58.0133333 53.3491851,59.1457099 53.4771277,60.2534568 L59.3840081,60.2534568 C58.9972723,58.5962346 58.7995427,56.8604321 58.7995427,55.0870988 C58.7995427,51.4120062 59.6137234,47.7070062 61.2194039,44.0606481 C62.2923776,41.6152778 63.6980023,39.2836728 65.4008029,37.0834259 L59.5759221,37.0834259 C55.5160686,43.2437654 53.278235,50.1459259 53.278235,56.8539815" id="Fill-36"></path>
                    <path d="M75.5774791,37.0834259 L69.6240741,37.0834259 C64.7808625,42.4345062 62.0271873,48.9220679 62.0271873,55.0876852 C62.0271873,56.8985494 62.2545764,58.6226235 62.6959786,60.2534568 L68.4394413,60.2534568 C67.4577721,58.253179 66.9366965,55.9978086 66.9366965,53.6339506 C66.9366965,48.4417901 69.3042174,43.2015432 73.5961124,38.8714198 C74.2317548,38.2292901 74.8935674,37.6299691 75.5774791,37.0834259" id="Fill-37"></path>
                    <path d="M106.4704,72.1284568 C100.23901,78.4183951 92.7706475,82.657037 85.2220301,84.3295062 L83.9030575,90.8217593 C93.6668278,88.8865741 103.361393,83.6398765 110.947811,75.9923765 C119.539743,67.3268519 125.106412,56.8053086 126.61381,46.3658642 C126.887142,44.4793519 127.015084,42.6162963 127.017411,40.7966358 C127.017411,40.3691358 127.011013,39.9357716 126.997638,39.5100309 C126.695228,31.0309877 123.396633,23.4350926 117.275739,17.2636111 C112.712839,12.6619753 106.925759,9.83895062 100.580966,8.71537037 L99.1212563,15.9125 C103.828965,17.0900309 108.021414,19.4327778 111.415384,22.8475 C123.937482,35.4783951 121.807818,56.6645679 106.4704,72.1284568" id="Fill-38"></path>
                    <path d="M85.5064117,15.6145988 L86.8835401,8.79746914 C77.459981,10.4482407 67.8235718,15.2703704 59.7521341,23.0550926 L68.5493557,23.0550926 C73.763601,19.2545062 79.571035,16.6936111 85.5064117,15.6145988" id="Fill-39"></path>
                    <path d="M119.55719,14.9671914 C123.904333,19.3500926 126.973212,24.4232099 128.674268,30.0545988 C128.724864,30.217037 128.776041,30.3794753 128.820239,30.5442593 L130.342757,23.0550926 L134.64512,23.0550926 C132.606179,17.841821 129.519271,13.1316975 125.448368,9.01972222 C121.507734,5.04848765 116.845387,2.12283951 111.728262,0.224598765 L102.307029,0.224598765 L101.230566,5.52231481 C102.757154,5.79382716 104.255247,6.16092593 105.722516,6.61481481 C111.064704,8.28552469 115.720654,11.0933025 119.55719,14.9671914" id="Fill-40"></path>
                    <path d="M71.5152993,84.396358 C66.3696778,83.2241049 61.7317561,80.6280247 57.8678875,76.7388889 C57.3648402,76.2269444 56.8885445,75.696821 56.4314403,75.1584877 L46.9061086,75.1584877 C48.3117333,77.7621914 50.0767605,80.1536111 52.1686232,82.2676543 C57.0077638,87.1472531 63.1327283,90.1942901 70.1009513,91.2445679 L71.5152993,84.396358" id="Fill-41"></path>
                    <path d="M84.8044717,19.069784 C81.2813959,19.8508951 77.8147311,21.1996605 74.5271861,23.0550926 L83.9972698,23.0550926 L84.8044717,19.069784" id="Fill-42"></path>
                    <path d="M42.9079002,58.8630556 C42.9079002,59.3304321 42.9189498,59.7907716 42.9387227,60.2534568 L50.2355257,60.2534568 C50.1145618,59.1369136 50.0546613,58.0062963 50.0546613,56.8545679 C50.0546613,50.1594136 52.071503,43.312963 55.7673015,37.0828395 L48.8653761,37.0828395 C44.9730112,44.0940741 42.9079002,51.5204938 42.9079002,58.8630556" id="Fill-43"></path>
                    <path d="M73.4169926,75.1766667 L73.4239713,75.1584877 L60.8995472,75.1584877 C64.1475463,78.185 67.966635,80.2316049 72.1753672,81.2150309 L73.4169926,75.1766667" id="Fill-44"></path>
                    <path d="M32.418346,56.2446914 C31.1738128,69.5517284 35.3994102,81.8378086 44.3205036,90.8329012 C47.4975526,94.0376852 51.2352232,96.5956481 55.4520973,98.4651543 L68.6139085,98.4651543 L69.4432097,94.4376235 C61.862025,93.264784 55.186907,89.910463 49.889499,84.5652469 C47.1643201,81.8155247 44.9421886,78.6406481 43.2830048,75.1584877 L35.6198205,75.1584877 L38.5764593,60.2534568 L39.7087519,60.2534568 C39.6953761,59.7890123 39.6820003,59.3298457 39.6820003,58.8589506 C39.6820003,51.5158025 41.588346,44.1116667 45.2050526,37.0810802 L43.3138274,37.0810802 L45.8912906,24.3053395 C38.164135,34.1906173 33.4465398,45.2815741 32.418346,56.2446914" id="Fill-45"></path>
                    <path d="M15.7456716,63.8071605 C15.7456716,54.1687654 17.9172076,44.4007716 22.1934006,34.7782099 C26.6085857,24.8395679 33.069109,15.5500926 41.3900349,7.15783951 C43.8436263,4.68138889 46.3943379,2.37382716 49.0357725,0.224598765 L35.1894679,0.224598765 C34.6317542,0.762932099 34.079856,1.31064815 33.5302841,1.85601852 C25.8455822,9.61435185 19.5566185,18.0347531 14.775052,26.9747222 L4.99616121,75.1139198 C5.68821474,80.293179 6.97985413,85.2865432 8.86875317,90.0429938 C10.0248896,92.9627778 11.3996918,95.7729012 12.9861809,98.4651543 L27.4076459,98.4651543 C24.1881431,94.3825 21.597304,89.877037 19.678164,85.0150309 C17.0704598,78.411358 15.7456716,71.2693519 15.7456716,63.8071605" id="Fill-46"></path>
                    <path d="M115.011736,98.4651543 L117.221073,87.6187346 C112.452301,91.9746605 107.07929,95.6239506 101.380026,98.4651543 L115.011736,98.4651543" id="Fill-47"></path>
                    <path d="M83.2051884,94.2529012 L82.3514618,98.4651543 L93.189369,98.4651543 C102.090689,95.2275309 110.490707,89.9274691 117.354831,82.9954012 C117.70144,82.6523457 118.036998,82.3004938 118.370231,81.955679 L121.062261,68.7512654 C118.815704,72.0997222 116.192298,75.3039198 113.225191,78.291142 C104.85774,86.727963 94.0390246,92.4068519 83.2051884,94.2529012" id="Fill-48"></path>
                    <path d="M156.383742,0.224598765 L141.170196,0.224598765 C146.669986,6.86228395 150.452437,14.6112346 152.38786,23.0545062 L164.150444,23.0545062 C163.422334,17.9825617 162.142907,13.0900617 160.315072,8.43037037 C159.197318,5.57978395 157.884743,2.84354938 156.383742,0.224598765" id="Fill-49"></path>
                    <path d="M160.079541,0.224598765 C161.290925,2.48583333 162.36797,4.82330247 163.31649,7.23524691 C164.459251,10.1544444 165.397303,13.1580864 166.131811,16.2373765 L169.37981,0.224598765 L160.079541,0.224598765" id="Fill-50"></path>
                    <path d="M137.478468,40.7966358 L130.240984,40.7966358 C130.240984,42.779321 130.099084,44.7948457 129.800745,46.8391049 C128.967955,52.6335185 126.966815,58.4402469 123.958999,63.9719444 L131.189505,63.9719444 C134.338057,57.6949074 136.374672,51.1762654 137.162683,44.6810802 C137.319703,43.3774691 137.425547,42.0826543 137.478468,40.7966358" id="Fill-51"></path>
                    <path d="M153.519571,43.3774691 C152.797858,50.3013272 151.000264,57.2298765 148.230887,63.971358 L155.664356,63.971358 L160.300533,40.7966358 L153.738818,40.7966358 C153.682989,41.6551543 153.607968,42.5142593 153.519571,43.3774691" id="Fill-52"></path>
                    <path d="M150.50594,40.7966358 L140.708439,40.7966358 C140.651447,42.216358 140.536298,43.6354938 140.364157,45.0728086 C139.591849,51.4337037 137.692482,57.8104321 134.777715,63.9719444 L144.728747,63.9719444 C147.678988,57.1278395 149.576611,50.0743827 150.3117,43.035 C150.393699,42.2873148 150.452437,41.544321 150.50594,40.7966358" id="Fill-53"></path>
                    <path d="M75.8775628,41.1707716 C72.1881615,44.8857407 70.1625964,49.3091049 70.1625964,53.634537 C70.1625964,56.1285802 70.8575577,58.384537 72.1817643,60.2499383 L75.632727,60.2499383 L80.1072311,37.8862346 C78.6027416,38.7605864 77.1726915,39.8618827 75.8775628,41.1707716" id="Fill-54"></path>
                </g>
                <path d="M2.86740741,103.708889 L0.127037037,116.666667 L9.14666667,116.666667 L9.47333333,115.214815 L2.17777778,115.214815 L3.12148148,110.732222 L9.85444444,110.732222 L10.1448148,109.28037 L3.43,109.28037 L4.30111111,105.160741 L11.5059259,105.160741 L11.7962963,103.708889 L2.86740741,103.708889 Z M18.957037,116.666667 L21.6974074,103.708889 L20.1729629,103.708889 L19.1748148,108.717778 L19.1385185,108.717778 C19.0417279,108.403208 18.8904948,108.140063 18.6848148,107.928333 C18.4791348,107.716604 18.2401865,107.547223 17.9679629,107.420185 C17.6957394,107.293148 17.4083966,107.202408 17.1059259,107.147963 C16.8034553,107.093518 16.5070385,107.066296 16.2166667,107.066296 C15.3939465,107.066296 14.6589538,107.244751 14.0116667,107.601667 C13.3643795,107.958582 12.8199405,108.421355 12.3783333,108.99 C11.9367262,109.558645 11.5979641,110.196848 11.362037,110.90463 C11.1261099,111.612411 11.0081481,112.323206 11.0081481,113.037037 C11.0081481,113.605682 11.0867893,114.125924 11.2440741,114.597778 C11.4013588,115.069632 11.6372824,115.471912 11.9518518,115.80463 C12.2664213,116.137347 12.6535779,116.397468 13.1133333,116.585 C13.5730887,116.772532 14.0993797,116.866296 14.6922222,116.866296 C15.3213612,116.866296 15.8809235,116.760433 16.3709259,116.548704 C16.8609284,116.336974 17.3358002,115.928645 17.7955555,115.323704 L17.8318518,115.323704 L17.5051852,116.666667 L18.957037,116.666667 Z M12.5507407,113.037037 C12.5507407,112.516788 12.6293819,111.984447 12.7866667,111.44 C12.9439514,110.895553 13.179875,110.399508 13.4944444,109.951852 C13.8090139,109.504195 14.1961705,109.138211 14.6559259,108.853889 C15.1156813,108.569566 15.654071,108.427407 16.2711111,108.427407 C17.0333371,108.427407 17.6170967,108.657282 18.0224074,109.117037 C18.4277181,109.576792 18.6303704,110.157527 18.6303704,110.859259 C18.6303704,111.343212 18.5487045,111.860429 18.3853704,112.410926 C18.2220362,112.961423 17.9861126,113.466541 17.6775926,113.926296 C17.3690725,114.386052 16.9849406,114.767159 16.5251852,115.06963 C16.0654298,115.3721 15.5451881,115.523333 14.9644444,115.523333 C14.1175266,115.523333 13.5035204,115.299508 13.1224074,114.851852 C12.7412944,114.404195 12.5507407,113.799263 12.5507407,113.037037 L12.5507407,113.037037 Z M28.5314815,116.666667 L30.5096296,107.284074 L28.967037,107.284074 L27.8781481,112.474444 C27.7934563,112.861607 27.6512973,113.23969 27.4516666,113.608704 C27.252036,113.977718 27.0070385,114.304381 26.7166666,114.588704 C26.4262948,114.873026 26.0966068,115.099876 25.7275926,115.269259 C25.3585784,115.438643 24.9562984,115.523333 24.5207407,115.523333 C24.0609853,115.523333 23.6738287,115.41747 23.3592592,115.205741 C23.0446898,114.994011 22.8874074,114.664323 22.8874074,114.216667 C22.8874074,114.131975 22.8934567,114.026112 22.9055555,113.899074 C22.9176544,113.772036 22.9358023,113.638951 22.96,113.499815 C22.9841976,113.360678 23.0083949,113.224569 23.0325926,113.091481 C23.0567902,112.958394 23.0809875,112.849507 23.1051852,112.764815 L24.3029629,107.284074 L22.7603703,107.284074 L21.617037,112.637778 C21.5323452,113.000743 21.4658027,113.345554 21.4174074,113.672222 C21.3690121,113.998891 21.3448148,114.265061 21.3448148,114.470741 C21.3448148,115.30556 21.5595657,115.913517 21.989074,116.29463 C22.4185824,116.675743 23.0749338,116.866296 23.9581481,116.866296 C24.6114847,116.866296 25.2345649,116.733211 25.8274074,116.467037 C26.4202498,116.200863 26.9102449,115.795558 27.2974074,115.251111 L27.3337037,115.251111 L27.0433333,116.666667 L28.5314815,116.666667 Z M38.3237037,110.26037 L39.8662962,110.26037 C39.8299998,109.159377 39.5003117,108.351793 38.8772222,107.837593 C38.2541326,107.323392 37.4102522,107.066296 36.3455555,107.066296 C35.5107365,107.066296 34.7696945,107.226603 34.1224074,107.547222 C33.4751202,107.867841 32.9306812,108.297343 32.489074,108.835741 C32.0474669,109.374138 31.7147542,109.988145 31.4909259,110.677778 C31.2670976,111.367411 31.1551851,112.08728 31.1551851,112.837407 C31.1551851,114.119883 31.4788239,115.111972 32.1261111,115.813704 C32.7733983,116.515436 33.7382651,116.866296 35.0207407,116.866296 C36.1217339,116.866296 37.0412308,116.588027 37.7792592,116.031481 C38.5172876,115.474935 39.0254307,114.664326 39.3037037,113.59963 L37.7611111,113.59963 C37.5433322,114.180373 37.1985208,114.646171 36.7266666,114.997037 C36.2548124,115.347903 35.6861761,115.523333 35.0207407,115.523333 C34.585183,115.523333 34.219199,115.450741 33.9227777,115.305556 C33.6263565,115.16037 33.3874083,114.966791 33.2059259,114.724815 C33.0244435,114.482838 32.8943831,114.19852 32.8157407,113.871852 C32.7370983,113.545184 32.6977777,113.200372 32.6977777,112.837407 C32.6977777,112.329257 32.7764189,111.81204 32.9337037,111.285741 C33.0909884,110.759442 33.3238873,110.28457 33.6324074,109.861111 C33.9409274,109.437652 34.3220347,109.092841 34.7757407,108.826667 C35.2294467,108.560492 35.752713,108.427407 36.3455555,108.427407 C36.9625956,108.427407 37.4465414,108.587714 37.7974074,108.908333 C38.1482733,109.228952 38.3237037,109.679627 38.3237037,110.26037 L38.3237037,110.26037 Z M41.0925925,110.115185 L42.6351851,110.115185 C42.6835804,109.812715 42.7864189,109.555618 42.9437036,109.343889 C43.1009884,109.132159 43.2945667,108.956729 43.5244444,108.817593 C43.7543221,108.678456 44.0114183,108.578642 44.2957407,108.518148 C44.5800631,108.457654 44.8674059,108.427407 45.1577777,108.427407 C45.3634578,108.427407 45.5782087,108.445555 45.802037,108.481852 C46.0258653,108.518148 46.2285175,108.581666 46.4099999,108.672407 C46.5914823,108.763149 46.7427154,108.88716 46.8637036,109.044444 C46.9846919,109.201729 47.0451851,109.407406 47.0451851,109.661481 C47.0451851,109.976051 46.9998152,110.224073 46.909074,110.405556 C46.8183328,110.587038 46.6761737,110.726172 46.4825925,110.822963 C46.2890113,110.919754 46.0440138,110.989321 45.7475925,111.031667 C45.4511713,111.074013 45.0972859,111.113333 44.6859259,111.14963 C44.1656763,111.198025 43.6272867,111.258518 43.0707407,111.331111 C42.5141947,111.403704 42.0060516,111.539814 41.5462962,111.739444 C41.0865408,111.939075 40.7084582,112.232467 40.412037,112.61963 C40.1156157,113.006792 39.9674073,113.545182 39.9674073,114.234815 C39.9674073,114.718768 40.0430239,115.127097 40.1942592,115.459815 C40.3454945,115.792533 40.5481468,116.064752 40.8022222,116.276481 C41.0562975,116.488211 41.355739,116.639444 41.7005555,116.730185 C42.045372,116.820926 42.4174053,116.866296 42.8166666,116.866296 C43.6151891,116.866296 44.2564173,116.751359 44.7403703,116.521481 C45.2243233,116.291604 45.6296279,115.958891 45.9562962,115.523333 L45.9925925,115.55963 C45.9441972,115.97099 46.0288877,116.291604 46.2466666,116.521481 C46.4644455,116.751359 46.7850595,116.866296 47.2085185,116.866296 C47.3416055,116.866296 47.5019126,116.845124 47.6894444,116.802778 C47.8769762,116.760432 48.0312339,116.715062 48.1522222,116.666667 L48.3881481,115.523333 C48.3155551,115.547531 48.2338893,115.574753 48.1431481,115.605 C48.0524069,115.635247 47.970741,115.65037 47.8981481,115.65037 C47.765061,115.65037 47.6561732,115.608025 47.5714814,115.523333 C47.4867896,115.438642 47.4444444,115.287408 47.4444444,115.06963 C47.4444444,114.851851 47.4777157,114.621977 47.5442592,114.38 C47.6108027,114.138023 47.662222,113.920248 47.6985185,113.726667 L48.2974073,111.167778 C48.3579015,110.913702 48.4214194,110.632409 48.4879629,110.323889 C48.5545064,110.015369 48.5877777,109.728026 48.5877777,109.461852 C48.5877777,108.989998 48.4940132,108.599816 48.3064814,108.291296 C48.1189496,107.982776 47.8679027,107.737779 47.5533333,107.556296 C47.2387638,107.374814 46.8758045,107.247778 46.4644444,107.175185 C46.0530843,107.102592 45.6175331,107.066296 45.1577777,107.066296 C44.6617259,107.066296 44.1838294,107.12679 43.724074,107.247778 C43.2643186,107.368766 42.8529647,107.556295 42.4899999,107.81037 C42.1270352,108.064446 41.8215444,108.382035 41.5735185,108.763148 C41.3254925,109.144261 41.1651855,109.594936 41.0925925,110.115185 L41.0925925,110.115185 Z M41.4918518,114.216667 C41.5039506,113.817405 41.6067891,113.505865 41.8003703,113.282037 C41.9939515,113.058209 42.2419737,112.885803 42.5444444,112.764815 C42.846915,112.643827 43.1887017,112.556111 43.5698148,112.501667 C43.9509278,112.447222 44.3290104,112.401852 44.704074,112.365556 C45.0791376,112.329259 45.433023,112.27784 45.7657407,112.211296 C46.0984584,112.144753 46.3737026,112.03284 46.5914814,111.875556 L46.6277777,111.875556 C46.5188883,112.311113 46.4190745,112.734566 46.3283333,113.145926 C46.2375921,113.557286 46.0651864,113.938393 45.811111,114.289259 C45.2787627,115.111979 44.401611,115.523333 43.1796296,115.523333 C42.7440718,115.523333 42.3538906,115.414446 42.009074,115.196667 C41.6642575,114.978888 41.4918518,114.652224 41.4918518,114.216667 L41.4918518,114.216667 Z M53.1714814,107.284074 L53.7522221,104.507407 L52.2096296,104.507407 L51.6288888,107.284074 L50.0499999,107.284074 L49.7596296,108.645185 L51.3385184,108.645185 L50.1044444,114.470741 C50.0802467,114.615927 50.0590741,114.749012 50.0409258,114.87 C50.0227776,114.990988 50.0137036,115.118024 50.0137036,115.251111 C50.0137036,115.553582 50.0711722,115.801604 50.186111,115.995185 C50.3010499,116.188766 50.4522829,116.343024 50.6398147,116.457963 C50.8273465,116.572902 51.0481468,116.651543 51.3022221,116.693889 C51.5562975,116.736235 51.828517,116.757407 52.1188888,116.757407 C52.3003712,116.757407 52.4818509,116.748333 52.6633333,116.730185 C52.8448156,116.712037 53.0262953,116.690864 53.2077777,116.666667 L53.4799999,115.251111 C53.334814,115.299506 53.1896303,115.338827 53.0444444,115.369074 C52.8992585,115.399321 52.7480254,115.414444 52.5907407,115.414444 C52.3487641,115.414444 52.1340132,115.369075 51.9464814,115.278333 C51.7589496,115.187592 51.6651851,115.021236 51.6651851,114.779259 C51.6651851,114.67037 51.6712344,114.567531 51.6833333,114.470741 C51.6954321,114.37395 51.7075307,114.271112 51.7196296,114.162222 L52.881111,108.645185 L54.7503703,108.645185 L55.0407407,107.284074 L53.1714814,107.284074 Z M58.2633332,105.596296 L58.6625925,103.708889 L57.1018518,103.708889 L56.7025925,105.596296 L58.2633332,105.596296 Z M56.3577777,107.284074 L54.4159258,116.666667 L55.9403703,116.666667 L57.9003703,107.284074 L56.3577777,107.284074 Z M58.4370369,112.964444 C58.4370369,113.533089 58.5277768,114.056356 58.7092592,114.534259 C58.8907415,115.012163 59.1508624,115.423517 59.4896295,115.768333 C59.8283966,116.11315 60.2427752,116.382345 60.7327777,116.575926 C61.2227801,116.769507 61.7762931,116.866296 62.3933332,116.866296 C63.2160534,116.866296 63.9480214,116.702965 64.5892592,116.376296 C65.2304969,116.049628 65.7749359,115.611052 66.2225925,115.060556 C66.670249,114.510059 67.0090111,113.877905 67.2388888,113.164074 C67.4687665,112.450243 67.5837036,111.712226 67.5837036,110.95 C67.5837036,109.679623 67.2509909,108.714756 66.5855554,108.05537 C65.92012,107.395984 64.9522285,107.066296 63.6818517,107.066296 C62.8591316,107.066296 62.1241389,107.229628 61.4768517,107.556296 C60.8295646,107.882965 60.2790762,108.318516 59.8253703,108.862963 C59.3716643,109.40741 59.0268529,110.03654 58.7909258,110.75037 C58.5549987,111.464201 58.4370369,112.202218 58.4370369,112.964444 L58.4370369,112.964444 Z M59.9796295,112.946296 C59.9796295,112.462343 60.055246,111.9542 60.2064814,111.421852 C60.3577167,110.889504 60.5845663,110.402533 60.8870369,109.960926 C61.1895076,109.519319 61.5645656,109.153335 62.0122221,108.862963 C62.4598787,108.572591 62.9801204,108.427407 63.5729629,108.427407 C63.9964218,108.427407 64.3624058,108.496975 64.6709258,108.636111 C64.9794459,108.775248 65.2365421,108.962777 65.4422221,109.198704 C65.6479022,109.434631 65.7991352,109.715924 65.8959258,110.042593 C65.9927164,110.369261 66.041111,110.714072 66.041111,111.077037 C66.041111,111.536792 65.9654945,112.026788 65.8142592,112.547037 C65.6630238,113.067287 65.4391989,113.548208 65.1427777,113.989815 C64.8463564,114.431422 64.4833971,114.797406 64.0538888,115.087778 C63.6243805,115.37815 63.1253114,115.523333 62.5566666,115.523333 C61.7097487,115.523333 61.0685206,115.28741 60.6329629,114.815556 C60.1974051,114.343701 59.9796295,113.720621 59.9796295,112.946296 L59.9796295,112.946296 Z M70.044074,107.284074 L68.084074,116.666667 L69.6085184,116.666667 L70.6974073,111.476296 C70.7941979,111.101233 70.9212337,110.741298 71.0785184,110.396481 C71.2358031,110.051665 71.4535787,109.758273 71.7318517,109.516296 C72.0222236,109.201727 72.3761089,108.941606 72.7935184,108.735926 C73.2109279,108.530246 73.6313558,108.427407 74.0548147,108.427407 C74.5145701,108.427407 74.9017267,108.533271 75.2162962,108.745 C75.5308656,108.956729 75.688148,109.286418 75.688148,109.734074 C75.688148,109.818766 75.679074,109.924629 75.6609258,110.051667 C75.6427776,110.178704 75.6216049,110.311789 75.5974073,110.450926 C75.5732096,110.590062 75.5490123,110.723148 75.5248147,110.850185 C75.500617,110.977223 75.4824691,111.089135 75.4703702,111.185926 L74.2725925,116.666667 L75.8151851,116.666667 L76.9585184,111.312963 C77.0432102,110.949998 77.1097527,110.605187 77.158148,110.278519 C77.2065433,109.95185 77.2307406,109.68568 77.2307406,109.48 C77.2307406,108.645181 77.0159897,108.034199 76.5864814,107.647037 C76.156973,107.259875 75.5006216,107.066296 74.6174073,107.066296 C73.9640707,107.066296 73.3409905,107.202406 72.748148,107.47463 C72.1553056,107.746853 71.6653105,108.155182 71.278148,108.69963 L71.2418517,108.69963 L71.5322221,107.284074 L70.044074,107.284074 Z M85.3455554,103.708889 L82.6414813,116.666667 L84.3655554,116.666667 L85.5996295,110.732222 L91.5885184,110.732222 L91.8970369,109.28037 L85.908148,109.28037 L86.761111,105.160741 L93.5666665,105.160741 L93.875185,103.708889 L85.3455554,103.708889 Z M96.3174072,105.596296 L96.7166665,103.708889 L95.1559258,103.708889 L94.7566665,105.596296 L96.3174072,105.596296 Z M94.4118517,107.284074 L92.4699998,116.666667 L93.9944443,116.666667 L95.9544443,107.284074 L94.4118517,107.284074 Z M98.0518517,107.284074 L96.1099998,116.666667 L97.6344443,116.666667 L98.5237035,112.510741 C98.5962965,112.159875 98.6930856,111.781792 98.8140739,111.376481 C98.9350621,110.971171 99.0983938,110.617285 99.3040739,110.314815 C99.5460504,109.939751 99.8333932,109.619137 100.166111,109.352963 C100.498829,109.086789 100.876911,108.89926 101.30037,108.79037 C101.481853,108.741975 101.633086,108.714753 101.754074,108.708704 C101.875062,108.702654 102.032345,108.69963 102.225926,108.69963 L102.443704,108.69963 C102.552593,108.69963 102.631234,108.705679 102.679629,108.717778 L103.042592,107.066296 C102.945802,107.042099 102.855062,107.036049 102.77037,107.048148 C102.685678,107.060247 102.594939,107.066296 102.498148,107.066296 C101.711724,107.066296 101.037225,107.278023 100.474629,107.701481 C99.912034,108.12494 99.4492609,108.657281 99.0862961,109.298519 L99.0499998,109.298519 L99.5037035,107.284074 L98.0518517,107.284074 Z M108.279629,110.042593 L109.822222,110.042593 C109.822222,109.498145 109.719384,109.035372 109.513704,108.654259 C109.308023,108.273146 109.038829,107.964631 108.706111,107.728704 C108.373393,107.492777 107.995311,107.323396 107.571852,107.220556 C107.148393,107.117716 106.718891,107.066296 106.283333,107.066296 C105.847775,107.066296 105.421298,107.12679 105.003889,107.247778 C104.586479,107.368766 104.214446,107.541172 103.887778,107.765 C103.561109,107.988828 103.297964,108.270122 103.098333,108.608889 C102.898703,108.947656 102.798889,109.334813 102.798889,109.77037 C102.798889,110.121236 102.868456,110.429752 103.007592,110.695926 C103.146729,110.9621 103.334258,111.194999 103.570185,111.39463 C103.806112,111.59426 104.072282,111.766666 104.368704,111.911852 C104.665125,112.057038 104.970616,112.190123 105.285185,112.311111 C105.587656,112.444198 105.887097,112.568209 106.183518,112.683148 C106.47994,112.798087 106.743085,112.922098 106.972963,113.055185 C107.20284,113.188272 107.390369,113.336481 107.535555,113.499815 C107.680741,113.663149 107.753333,113.859752 107.753333,114.08963 C107.753333,114.355804 107.689815,114.579629 107.562778,114.761111 C107.43574,114.942594 107.269384,115.090802 107.063704,115.205741 C106.858023,115.32068 106.628149,115.402345 106.374074,115.450741 C106.119999,115.499136 105.865927,115.523333 105.611852,115.523333 C105.285183,115.523333 104.973643,115.493087 104.677222,115.432593 C104.380801,115.372098 104.12068,115.272285 103.896852,115.133148 C103.673023,114.994012 103.497593,114.806483 103.370555,114.570556 C103.243518,114.334628 103.192098,114.047286 103.216296,113.708519 L101.691852,113.708519 C101.691852,114.31346 101.788641,114.818578 101.982222,115.223889 C102.175803,115.6292 102.438949,115.952838 102.771666,116.194815 C103.104384,116.436791 103.500615,116.609197 103.96037,116.712037 C104.420126,116.814877 104.922219,116.866296 105.466666,116.866296 C105.926422,116.866296 106.383146,116.814877 106.836852,116.712037 C107.290558,116.609197 107.698887,116.442841 108.061852,116.212963 C108.424816,115.983085 108.721233,115.683644 108.951111,115.31463 C109.180989,114.945615 109.295926,114.50099 109.295926,113.980741 C109.295926,113.617776 109.223334,113.300187 109.078148,113.027963 C108.932962,112.755739 108.745433,112.519816 108.515555,112.320185 C108.285678,112.120555 108.022532,111.9421 107.726111,111.784815 C107.42969,111.62753 107.124199,111.482346 106.809629,111.349259 C106.507159,111.228271 106.207717,111.110309 105.911296,110.99537 C105.614875,110.880432 105.348705,110.75642 105.112778,110.623333 C104.87685,110.490246 104.689321,110.345063 104.550185,110.187778 C104.411048,110.030493 104.341481,109.842964 104.341481,109.625185 C104.341481,109.383209 104.401975,109.186606 104.522963,109.03537 C104.643951,108.884135 104.798209,108.763149 104.985741,108.672407 C105.173272,108.581666 105.388023,108.518148 105.63,108.481852 C105.871976,108.445555 106.1079,108.427407 106.337778,108.427407 C106.882225,108.427407 107.348023,108.563517 107.735185,108.835741 C108.122347,109.107964 108.303827,109.510244 108.279629,110.042593 L108.279629,110.042593 Z M114.188148,107.284074 L114.768889,104.507407 L113.226296,104.507407 L112.645555,107.284074 L111.066666,107.284074 L110.776296,108.645185 L112.355185,108.645185 L111.121111,114.470741 C111.096913,114.615927 111.075741,114.749012 111.057592,114.87 C111.039444,114.990988 111.03037,115.118024 111.03037,115.251111 C111.03037,115.553582 111.087839,115.801604 111.202778,115.995185 C111.317716,116.188766 111.468949,116.343024 111.656481,116.457963 C111.844013,116.572902 112.064813,116.651543 112.318889,116.693889 C112.572964,116.736235 112.845184,116.757407 113.135555,116.757407 C113.317038,116.757407 113.498517,116.748333 113.68,116.730185 C113.861482,116.712037 114.042962,116.690864 114.224444,116.666667 L114.496666,115.251111 C114.351481,115.299506 114.206297,115.338827 114.061111,115.369074 C113.915925,115.399321 113.764692,115.414444 113.607407,115.414444 C113.365431,115.414444 113.15068,115.369075 112.963148,115.278333 C112.775616,115.187592 112.681852,115.021236 112.681852,114.779259 C112.681852,114.67037 112.687901,114.567531 112.7,114.470741 C112.712099,114.37395 112.724197,114.271112 112.736296,114.162222 L113.897778,108.645185 L115.767037,108.645185 L116.057407,107.284074 L114.188148,107.284074 Z" id="Education-First"></path>
            </g>
        </g>
    </g>
</svg>