<?xml version="1.0" encoding="UTF-8" standalone="no"?>
<svg width="200px" height="200px" viewBox="0 0 200 200" version="1.1" xmlns="http://www.w3.org/2000/svg" xmlns:xlink="http://www.w3.org/1999/xlink">
    <!-- Generator: Sketch 3.7.2 (28276) - http://www.bohemiancoding.com/sketch -->
    <title>facebook</title>
    <desc>Created with Sketch.</desc>
    <defs>
        <polygon id="path-1" points="82.4669691 165 164.933876 165 164.933876 0.0648876404 82.4669691 0.0648876404 6.17977528e-05 0.0648876404 6.17977528e-05 165 82.4669691 165"></polygon>
    </defs>
    <g id="Page-1" stroke="none" stroke-width="1" fill="none" fill-rule="evenodd">
        <g id="facebook">
            <g id="fb-logo" transform="translate(18.000000, 17.000000)">
                <g id="Group-3" transform="translate(0.000000, 0.553090)">
                    <mask id="mask-2" fill="white">
                        <use xlink:href="#path-1"></use>
                    </mask>
                    <g id="Clip-2"></g>
                    <path d="M155.831129,165 C160.857758,165 164.933938,160.92382 164.933938,155.897191 L164.933938,9.16831461 C164.933938,4.13983146 160.857758,0.0648876404 155.831129,0.0648876404 L9.10287079,0.0648876404 C4.07438764,0.0648876404 6.17977528e-05,4.13983146 6.17977528e-05,9.16831461 L6.17977528e-05,155.897191 C6.17977528e-05,160.92382 4.07438764,165 9.10287079,165 L155.831129,165 Z" id="Fill-1" fill="#3C5999" mask="url(#mask-2)"></path>
                </g>
                <path d="M113.801427,165.55309 L113.801427,101.682022 L135.240921,101.682022 L138.450697,76.7898876 L113.801427,76.7898876 L113.801427,60.8973596 C113.801427,53.6905056 115.802438,48.7788202 126.137494,48.7788202 L139.318955,48.7732584 L139.318955,26.51 C137.038618,26.207191 129.214404,25.5292697 120.111596,25.5292697 C101.106933,25.5292697 88.0966517,37.1293258 88.0966517,58.4328652 L88.0966517,76.7898876 L66.6027753,76.7898876 L66.6027753,101.682022 L88.0966517,101.682022 L88.0966517,165.55309 L113.801427,165.55309 Z" id="Fill-4" fill="#FEFEFE"></path>
            </g>
        </g>
    </g>
</svg>