<?xml version="1.0" encoding="utf-8"?>
<!-- Generator: Adobe Illustrator 19.2.1, SVG Export Plug-In . SVG Version: 6.00 Build 0)  -->
<svg version="1.1" id="Layer_1" xmlns="http://www.w3.org/2000/svg" xmlns:xlink="http://www.w3.org/1999/xlink" x="0px" y="0px"
	 viewBox="0 0 200 200" style="enable-background:new 0 0 200 200;" xml:space="preserve">
<style type="text/css">
	.st0{fill:#D1D3D4;}
	.st1{fill:url(#SVGID_1_);}
	.st2{fill:url(#SVGID_2_);}
	.st3{fill:url(#SVGID_3_);}
	.st4{fill:url(#SVGID_4_);}
	.st5{fill:url(#SVGID_5_);}
	.st6{fill:url(#SVGID_6_);}
	.st7{fill:url(#SVGID_7_);}
	.st8{fill:url(#SVGID_8_);}
	.st9{fill:url(#SVGID_9_);}
	.st10{fill:url(#SVGID_10_);}
	.st11{fill:url(#SVGID_11_);}
	.st12{fill:url(#SVGID_12_);}
	.st13{fill:url(#SVGID_13_);}
	.st14{fill:url(#SVGID_14_);}
	.st15{fill:url(#SVGID_15_);}
	.st16{fill:url(#SVGID_16_);}
	.st17{fill:url(#SVGID_17_);}
	.st18{fill:url(#SVGID_18_);}
	.st19{fill:url(#SVGID_19_);}
	.st20{fill:url(#SVGID_20_);}
	.st21{fill:url(#SVGID_21_);}
	.st22{fill:url(#SVGID_22_);}
	.st23{fill:url(#SVGID_23_);}
	.st24{fill:url(#SVGID_24_);}
	.st25{fill:url(#SVGID_25_);}
	.st26{fill:#58595B;}
	.st27{fill:url(#SVGID_26_);}
	.st28{fill:url(#SVGID_27_);}
	.st29{fill:url(#SVGID_28_);}
	.st30{fill:url(#SVGID_29_);}
	.st31{fill:url(#SVGID_30_);}
</style>
<title>ford</title>
<g id="ford_oval">
	<path class="st0" d="M100,67.2c-48.5,0-87.5,14.6-87.5,32.8s39.2,32.8,87.5,32.8s87.5-14.7,87.5-32.8S148.2,67.2,100,67.2z
		 M187,97.5c0.1,0.2,0.1,0.3,0.1,0.5C187.1,97.8,187,97.6,187,97.5z"/>
	
		<radialGradient id="SVGID_1_" cx="34.6727" cy="1419.4502" r="238.75" gradientTransform="matrix(1.58 0 0 1.54 44.15 -1759.64)" gradientUnits="userSpaceOnUse">
		<stop  offset="0" style="stop-color:#000000"/>
		<stop  offset="0.22" style="stop-color:#00000C"/>
		<stop  offset="0.48" style="stop-color:#000023"/>
		<stop  offset="0.7" style="stop-color:#000033"/>
		<stop  offset="0.9" style="stop-color:#004282"/>
		<stop  offset="0.92" style="stop-color:#0063A1"/>
		<stop  offset="0.94" style="stop-color:#0184C0"/>
		<stop  offset="0.95" style="stop-color:#159BD5"/>
		<stop  offset="0.95" style="stop-color:#1CA6DF"/>
	</radialGradient>
	<path class="st1" d="M100,68.5c-47.6,0-86.2,14-86.2,31.5s38.6,31.5,86.2,31.5s86.2-14.1,86.2-31.5S147.6,68.5,100,68.5z"/>
	
		<linearGradient id="SVGID_2_" gradientUnits="userSpaceOnUse" x1="411.0429" y1="2905.9343" x2="411.0429" y2="2810.6643" gradientTransform="matrix(0.7 0 0 0.7 -187.88 -1900.62)">
		<stop  offset="0" style="stop-color:#00053D"/>
		<stop  offset="0.17" style="stop-color:#000840"/>
		<stop  offset="0.33" style="stop-color:#001046"/>
		<stop  offset="0.48" style="stop-color:#001950"/>
		<stop  offset="0.62" style="stop-color:#00245D"/>
		<stop  offset="0.76" style="stop-color:#002F6E"/>
		<stop  offset="0.81" style="stop-color:#003475"/>
		<stop  offset="0.92" style="stop-color:#005793"/>
		<stop  offset="1" style="stop-color:#006DA9"/>
	</linearGradient>
	<path class="st2" d="M20.7,101.2c0-14.4,35.7-26.1,79.7-26.1c40.5,0,73.9,9.9,79,22.7c-3.4-13.5-37.6-24.1-79.4-24.1
		C56,73.8,20.3,85.5,20.3,100c0,1.2,0.2,2.4,0.7,3.5C20.8,102.7,20.7,102,20.7,101.2z"/>
	
		<linearGradient id="SVGID_3_" gradientUnits="userSpaceOnUse" x1="412.6071" y1="2905.9343" x2="412.6071" y2="2810.6643" gradientTransform="matrix(0.7 0 0 0.7 -187.88 -1900.62)">
		<stop  offset="0" style="stop-color:#00053D"/>
		<stop  offset="0.17" style="stop-color:#000840"/>
		<stop  offset="0.33" style="stop-color:#001046"/>
		<stop  offset="0.48" style="stop-color:#001950"/>
		<stop  offset="0.62" style="stop-color:#00245D"/>
		<stop  offset="0.76" style="stop-color:#002F6E"/>
		<stop  offset="0.81" style="stop-color:#003475"/>
		<stop  offset="0.92" style="stop-color:#005793"/>
		<stop  offset="1" style="stop-color:#006DA9"/>
	</linearGradient>
	<path class="st3" d="M182,96.7c0.4,1.1,0.5,2.2,0.6,3.3c0,15.9-36.9,28.7-82.6,28.7c-40.6,0-74.3-10.2-81.2-23.6
		c5.3,14,39.9,24.8,81.8,24.8c45.6,0,82.6-12.8,82.6-28.5C183.1,99.8,182.7,98.2,182,96.7z"/>
	
		<linearGradient id="SVGID_4_" gradientUnits="userSpaceOnUse" x1="432.564" y1="2885.4844" x2="432.564" y2="2819.4744" gradientTransform="matrix(0.7 0 0 0.7 -187.87 -1897.76)">
		<stop  offset="0" style="stop-color:#00053D"/>
		<stop  offset="0.17" style="stop-color:#000840"/>
		<stop  offset="0.33" style="stop-color:#001046"/>
		<stop  offset="0.48" style="stop-color:#001950"/>
		<stop  offset="0.62" style="stop-color:#00245D"/>
		<stop  offset="0.76" style="stop-color:#002F6E"/>
		<stop  offset="0.81" style="stop-color:#003475"/>
		<stop  offset="0.92" style="stop-color:#005793"/>
		<stop  offset="1" style="stop-color:#006DA9"/>
	</linearGradient>
	<path class="st4" d="M115.4,102.8c-1.8,1.9-2,4.4-0.8,5.5c0.4,0.4,0.9,0.6,1.5,0.6c-1-1.3-1-3.1-0.2-4.5c-0.2-0.5-0.2-1-0.1-1.5
		C115.8,102.7,115.6,102.6,115.4,102.8z"/>
	
		<linearGradient id="SVGID_5_" gradientUnits="userSpaceOnUse" x1="460.8322" y1="2885.7444" x2="460.8322" y2="2818.8242" gradientTransform="matrix(0.7 0 0 0.7 -187.87 -1897.76)">
		<stop  offset="0" style="stop-color:#00053D"/>
		<stop  offset="0.17" style="stop-color:#000840"/>
		<stop  offset="0.33" style="stop-color:#001046"/>
		<stop  offset="0.48" style="stop-color:#001950"/>
		<stop  offset="0.62" style="stop-color:#00245D"/>
		<stop  offset="0.76" style="stop-color:#002F6E"/>
		<stop  offset="0.81" style="stop-color:#003475"/>
		<stop  offset="0.92" style="stop-color:#005793"/>
		<stop  offset="1" style="stop-color:#006DA9"/>
	</linearGradient>
	<path class="st5" d="M134.4,106.9L134.4,106.9L134.4,106.9c0,0.4,0.1,0.8,0.2,1.2c0.1-0.2,0.2-0.4,0.3-0.6c0.1-0.2,0.1-0.2,0-0.2
		C134.7,107.3,134.5,107.1,134.4,106.9z"/>
	
		<linearGradient id="SVGID_6_" gradientUnits="userSpaceOnUse" x1="464.9857" y1="2883.1643" x2="464.9857" y2="2821.8743" gradientTransform="matrix(0.7 0 0 0.7 -187.87 -1897.76)">
		<stop  offset="0" style="stop-color:#00053D"/>
		<stop  offset="0.17" style="stop-color:#000840"/>
		<stop  offset="0.33" style="stop-color:#001046"/>
		<stop  offset="0.48" style="stop-color:#001950"/>
		<stop  offset="0.62" style="stop-color:#00245D"/>
		<stop  offset="0.76" style="stop-color:#002F6E"/>
		<stop  offset="0.81" style="stop-color:#003475"/>
		<stop  offset="0.92" style="stop-color:#005793"/>
		<stop  offset="1" style="stop-color:#006DA9"/>
	</linearGradient>
	<path class="st6" d="M137.8,102.6c0,0.3,0.2,0.4,0.5,0.1c0.1-0.1,0.1-0.2,0.2-0.3c-0.1-0.1-0.1-0.1-0.2-0.2c-0.5-0.6-1-1.1-1.5-1.6
		C137.3,101.1,137.7,101.8,137.8,102.6z"/>
	
		<linearGradient id="SVGID_7_" gradientUnits="userSpaceOnUse" x1="427.9857" y1="2884.0144" x2="427.9857" y2="2820.6843" gradientTransform="matrix(0.7 0 0 0.7 -187.87 -1897.76)">
		<stop  offset="0" style="stop-color:#00053D"/>
		<stop  offset="0.17" style="stop-color:#000840"/>
		<stop  offset="0.33" style="stop-color:#001046"/>
		<stop  offset="0.48" style="stop-color:#001950"/>
		<stop  offset="0.62" style="stop-color:#00245D"/>
		<stop  offset="0.76" style="stop-color:#002F6E"/>
		<stop  offset="0.81" style="stop-color:#003475"/>
		<stop  offset="0.92" style="stop-color:#005793"/>
		<stop  offset="1" style="stop-color:#006DA9"/>
	</linearGradient>
	<path class="st7" d="M112.2,102.3c0.1-0.1,0.2-0.2,0.2-0.4c-0.3-0.9-0.7-1.8-1.3-2.6c0.5,0.8,0.8,1.9,0.7,2.9
		C111.8,102.6,112,102.6,112.2,102.3z"/>
	
		<linearGradient id="SVGID_8_" gradientUnits="userSpaceOnUse" x1="484.7715" y1="2840.2288" x2="484.7715" y2="2840.2288" gradientTransform="matrix(0.7 0 0 0.7 -187.87 -1897.76)">
		<stop  offset="0" style="stop-color:#00053D"/>
		<stop  offset="0.17" style="stop-color:#000840"/>
		<stop  offset="0.33" style="stop-color:#001046"/>
		<stop  offset="0.48" style="stop-color:#001950"/>
		<stop  offset="0.62" style="stop-color:#00245D"/>
		<stop  offset="0.76" style="stop-color:#002F6E"/>
		<stop  offset="0.81" style="stop-color:#003475"/>
		<stop  offset="0.92" style="stop-color:#005793"/>
		<stop  offset="1" style="stop-color:#006DA9"/>
	</linearGradient>
	<path class="st8" d="M151.5,90.4L151.5,90.4z"/>
	
		<linearGradient id="SVGID_9_" gradientUnits="userSpaceOnUse" x1="454.5856" y1="2885.7043" x2="454.5856" y2="2818.9143" gradientTransform="matrix(0.7 0 0 0.7 -187.87 -1897.76)">
		<stop  offset="0" style="stop-color:#00053D"/>
		<stop  offset="0.17" style="stop-color:#000840"/>
		<stop  offset="0.33" style="stop-color:#001046"/>
		<stop  offset="0.48" style="stop-color:#001950"/>
		<stop  offset="0.62" style="stop-color:#00245D"/>
		<stop  offset="0.76" style="stop-color:#002F6E"/>
		<stop  offset="0.81" style="stop-color:#003475"/>
		<stop  offset="0.92" style="stop-color:#005793"/>
		<stop  offset="1" style="stop-color:#006DA9"/>
	</linearGradient>
	<path class="st9" d="M126.4,114.2c0.2,0.1,0.4,0.2,0.7,0.2c-0.1-0.3-0.1-0.6-0.1-0.8c0-2.4,0.8-4.6,2.4-6.4
		c2.1-2.6,4.3-3.9,5.8-3.2c-0.1-0.6-0.4-1.1-1-1.3c-1.5-0.7-3.8,0.6-6,3.2c-1.6,1.8-2.5,4-2.7,6.4
		C125.4,113,125.8,113.8,126.4,114.2z"/>
	
		<linearGradient id="SVGID_10_" gradientUnits="userSpaceOnUse" x1="396.7414" y1="2885.6943" x2="396.7414" y2="2818.9343" gradientTransform="matrix(0.7 0 0 0.7 -187.87 -1897.76)">
		<stop  offset="0" style="stop-color:#00053D"/>
		<stop  offset="0.17" style="stop-color:#000840"/>
		<stop  offset="0.33" style="stop-color:#001046"/>
		<stop  offset="0.48" style="stop-color:#001950"/>
		<stop  offset="0.62" style="stop-color:#00245D"/>
		<stop  offset="0.76" style="stop-color:#002F6E"/>
		<stop  offset="0.81" style="stop-color:#003475"/>
		<stop  offset="0.92" style="stop-color:#005793"/>
		<stop  offset="1" style="stop-color:#006DA9"/>
	</linearGradient>
	<path class="st10" d="M94,103c0.2-0.1,0.3-0.2,0.3-0.4c0,0,0,0,0-0.1c-0.1-0.6-0.3-1.1-0.5-1.7l0,0c0.1,0.2,0,0.4-0.1,0.5
		c0,0-0.1,0-0.1,0c-2.5,0.9-4.7,2.4-6.3,4.4c-1.8,2.5-2.3,5.5-1.1,7.2c0.3,0.4,0.6,0.7,1,0.9c-0.6-2.4-0.1-4.9,1.4-6.9
		C89.9,105.1,91.8,103.7,94,103z"/>
	
		<linearGradient id="SVGID_11_" gradientUnits="userSpaceOnUse" x1="425.6929" y1="2885.6843" x2="425.6929" y2="2819.3643" gradientTransform="matrix(0.7 0 0 0.7 -187.87 -1897.76)">
		<stop  offset="0" style="stop-color:#00053D"/>
		<stop  offset="0.17" style="stop-color:#000840"/>
		<stop  offset="0.33" style="stop-color:#001046"/>
		<stop  offset="0.48" style="stop-color:#001950"/>
		<stop  offset="0.62" style="stop-color:#00245D"/>
		<stop  offset="0.76" style="stop-color:#002F6E"/>
		<stop  offset="0.81" style="stop-color:#003475"/>
		<stop  offset="0.92" style="stop-color:#005793"/>
		<stop  offset="1" style="stop-color:#006DA9"/>
	</linearGradient>
	<path class="st11" d="M120.1,110.6c-0.7,0.5-1.4,0.9-2.2,1.2c-0.8,0.4-1.8,0.6-2.7,0.6c-1.3,0-2.6-0.7-3.3-1.8
		c-0.5-0.8-0.7-1.7-0.7-2.6c0-0.1-0.1-0.2-0.2-0.1c-2.2,3.3-4.2,6.6-6.4,10c-0.1,0.2-0.2,0.3-0.4,0.2H100c-0.1,0-0.3-0.1-0.3-0.2
		c0.1,0.6,0.3,1.5,0.4,1.6c0,0.1,0.2,0.2,0.3,0.2h4.9c0.2,0,0.3-0.1,0.4-0.2c1.9-3.1,4.1-6.4,6.1-9.5c0.4,1.6,0.7,2.3,1.5,3
		c0.8,0.7,1.7,1,2.7,1c1.1-0.1,2.3-0.4,3.3-0.9c0.4-0.2,0.8-0.4,1.2-0.6c0-0.6,0.1-1.1,0.2-1.7C120.5,110.8,120.4,110.4,120.1,110.6
		z"/>
	
		<linearGradient id="SVGID_12_" gradientUnits="userSpaceOnUse" x1="460.9768" y1="2885.7043" x2="460.9768" y2="2818.9043" gradientTransform="matrix(0.7 0 0 0.7 -187.87 -1897.76)">
		<stop  offset="0" style="stop-color:#00053D"/>
		<stop  offset="0.17" style="stop-color:#000840"/>
		<stop  offset="0.33" style="stop-color:#001046"/>
		<stop  offset="0.48" style="stop-color:#001950"/>
		<stop  offset="0.62" style="stop-color:#00245D"/>
		<stop  offset="0.76" style="stop-color:#002F6E"/>
		<stop  offset="0.81" style="stop-color:#003475"/>
		<stop  offset="0.92" style="stop-color:#005793"/>
		<stop  offset="1" style="stop-color:#006DA9"/>
	</linearGradient>
	<path class="st12" d="M148.7,109.4c0,0.1,0,0.1-0.1,0.2c-1.9,2.4-4.1,4.7-6.6,6.6c-3.4,2.7-6.9,3.3-8.6,1.6c-0.6-0.6-0.9-1.4-1-2.3
		c0-0.4-0.2-0.4-0.4-0.2c-2,2-5.5,4.2-8.8,2.6c-1.5-0.8-2.6-2.3-2.8-4v0.1c0.1,1.4,0.5,2.7,1,3.9c0.4,0.7,1,1.3,1.7,1.8
		c2.9,1.4,6.9-0.2,9.5-2.7c0,0,0-0.1,0.1-0.1c0.1,0.4,0.2,1,0.3,1.1c0.1,0.5,0.4,1,0.7,1.4c1.8,2,5.6,1.1,9.5-1.9
		c2.1-1.7,4.1-3.6,5.8-5.7c0.1-0.1,0.1-0.3,0-0.4C149,110.8,148.8,109.9,148.7,109.4z"/>
	
		<linearGradient id="SVGID_13_" gradientUnits="userSpaceOnUse" x1="438.3296" y1="2885.7244" x2="438.3296" y2="2818.8843" gradientTransform="matrix(0.7 0 0 0.7 -187.87 -1897.76)">
		<stop  offset="0" style="stop-color:#00053D"/>
		<stop  offset="0.17" style="stop-color:#000840"/>
		<stop  offset="0.33" style="stop-color:#001046"/>
		<stop  offset="0.48" style="stop-color:#001950"/>
		<stop  offset="0.62" style="stop-color:#00245D"/>
		<stop  offset="0.76" style="stop-color:#002F6E"/>
		<stop  offset="0.81" style="stop-color:#003475"/>
		<stop  offset="0.92" style="stop-color:#005793"/>
		<stop  offset="1" style="stop-color:#006DA9"/>
	</linearGradient>
	<path class="st13" d="M120.1,107.2c1.3-0.8,2.1-2.2,1.9-3.8c-0.1-1-0.3-1.9-0.8-2.8c0.3,0.6,0.4,1.3,0.3,2c-0.2,1.3-0.9,2.4-2.1,3
		c-1,0.5-2.2,0.4-3-0.3c-0.2-0.2-0.4-0.5-0.6-0.8c0.1,0.7,0.3,1.4,0.7,2.1C117.4,107.7,118.9,108,120.1,107.2
		C120.1,107.2,120.1,107.2,120.1,107.2z"/>
	
		<linearGradient id="SVGID_14_" gradientUnits="userSpaceOnUse" x1="474.7839" y1="2885.7043" x2="474.7839" y2="2818.9143" gradientTransform="matrix(0.7 0 0 0.7 -187.87 -1897.76)">
		<stop  offset="0" style="stop-color:#00053D"/>
		<stop  offset="0.17" style="stop-color:#000840"/>
		<stop  offset="0.33" style="stop-color:#001046"/>
		<stop  offset="0.48" style="stop-color:#001950"/>
		<stop  offset="0.62" style="stop-color:#00245D"/>
		<stop  offset="0.76" style="stop-color:#002F6E"/>
		<stop  offset="0.81" style="stop-color:#003475"/>
		<stop  offset="0.92" style="stop-color:#005793"/>
		<stop  offset="1" style="stop-color:#006DA9"/>
	</linearGradient>
	<path class="st14" d="M152,92.7c-0.1-0.2-0.4-2.1-0.5-2.3c0,0.1,0,0.1-0.1,0.2c-0.7,1.2-13.5,20.7-14.3,22.7c-0.3,0.4-0.3,1,0,1.5
		c0.3,0.3,0.7,0.5,1.1,0.5c0.1-0.3,0.1-0.5,0.2-0.8c0.8-2,12.8-20.2,13.5-21.4L152,92.7L152,92.7z"/>
	
		<linearGradient id="SVGID_15_" gradientUnits="userSpaceOnUse" x1="410.2072" y1="2884.9543" x2="410.2072" y2="2819.7244" gradientTransform="matrix(0.7 0 0 0.7 -187.87 -1897.76)">
		<stop  offset="0" style="stop-color:#00053D"/>
		<stop  offset="0.17" style="stop-color:#000840"/>
		<stop  offset="0.33" style="stop-color:#001046"/>
		<stop  offset="0.48" style="stop-color:#001950"/>
		<stop  offset="0.62" style="stop-color:#00245D"/>
		<stop  offset="0.76" style="stop-color:#002F6E"/>
		<stop  offset="0.81" style="stop-color:#003475"/>
		<stop  offset="0.92" style="stop-color:#005793"/>
		<stop  offset="1" style="stop-color:#006DA9"/>
	</linearGradient>
	<path class="st15" d="M98.2,99.7l0.1,0.1c0.8,1.3,1.3,2.9,1.2,4.4c0.1,0.4,0.2,0.4,0.4,0.2l0.5-0.5c-0.2-0.9-0.5-1.7-0.9-2.5
		C99.1,100.8,98.7,100.2,98.2,99.7z"/>
	
		<linearGradient id="SVGID_16_" gradientUnits="userSpaceOnUse" x1="399.833" y1="2885.6843" x2="399.833" y2="2819.3542" gradientTransform="matrix(0.7 0 0 0.7 -187.87 -1897.76)">
		<stop  offset="0" style="stop-color:#00053D"/>
		<stop  offset="0.17" style="stop-color:#000840"/>
		<stop  offset="0.33" style="stop-color:#001046"/>
		<stop  offset="0.48" style="stop-color:#001950"/>
		<stop  offset="0.62" style="stop-color:#00245D"/>
		<stop  offset="0.76" style="stop-color:#002F6E"/>
		<stop  offset="0.81" style="stop-color:#003475"/>
		<stop  offset="0.92" style="stop-color:#005793"/>
		<stop  offset="1" style="stop-color:#006DA9"/>
	</linearGradient>
	<path class="st16" d="M105.3,105.3c0.9-0.8,1.9-1.3,2.5-1c0.4-1,0.2-1.5-0.2-1.8c-0.6-0.4-1.8,0.2-2.8,1c-2.8,2.1-5.1,5.3-6.3,6.8
		c-1,1.4-2,2.8-3.2,4.1c-2.9,3.1-6.6,4.9-10.3,3.7c-2-0.6-3.5-2.2-3.9-4.2c-0.1-0.4-0.3-0.5-0.6-0.2c-0.8,0.9-1.8,1.8-2.8,2.5
		c-0.2,0.1-0.4,0.2-0.6,0.1c-0.4-0.4-0.8-0.9-1.1-1.5c0,0,0-0.1-0.1-0.1l0,0c0.1,0.7,0.3,1.4,0.7,2.1c0.2,0.4,0.5,0.8,0.9,1.2
		c0.2,0.1,0.4,0.1,0.6-0.1c1.1-0.6,2.1-1.4,3-2.4c0.1-0.1,0.2-0.1,0.3,0c0.1,0,0.1,0.1,0.1,0.2c0.3,0.8,0.7,1.6,1.2,2.2
		c0.6,1,1.6,1.7,2.7,1.9c1.9,0.6,3.9,0.4,5.8-0.4c2-0.9,3.9-2.2,5.3-3.8c1.2-1.3,2.2-2.6,3.2-4.1
		C101.4,109.2,103.2,107.2,105.3,105.3z"/>
	
		<linearGradient id="SVGID_17_" gradientUnits="userSpaceOnUse" x1="349.3805" y1="2885.6943" x2="349.3805" y2="2818.9243" gradientTransform="matrix(0.7 0 0 0.7 -187.87 -1897.76)">
		<stop  offset="0" style="stop-color:#00053D"/>
		<stop  offset="0.17" style="stop-color:#000840"/>
		<stop  offset="0.33" style="stop-color:#001046"/>
		<stop  offset="0.48" style="stop-color:#001950"/>
		<stop  offset="0.62" style="stop-color:#00245D"/>
		<stop  offset="0.76" style="stop-color:#002F6E"/>
		<stop  offset="0.81" style="stop-color:#003475"/>
		<stop  offset="0.92" style="stop-color:#005793"/>
		<stop  offset="1" style="stop-color:#006DA9"/>
	</linearGradient>
	<path class="st17" d="M54.9,110.4c-0.3-1.4-0.1-2.9,0.6-4.1c0.8-1.5,2-2.7,3.5-3.5c0.6-0.3,0.8-0.9,0.5-1.5c0,0,0-0.1-0.1-0.1
		c-0.1-0.2-0.1-0.7-0.2-1.2c0,0.4-0.2,0.8-0.5,0.9c-1.8,0.9-3.4,2.3-4.4,4c-0.9,1.6-0.8,3.6,0.2,5.1
		C54.7,110.1,54.8,110.2,54.9,110.4z"/>
	
		<linearGradient id="SVGID_18_" gradientUnits="userSpaceOnUse" x1="379.3405" y1="2885.6943" x2="379.3405" y2="2818.9243" gradientTransform="matrix(0.7 0 0 0.7 -187.87 -1897.76)">
		<stop  offset="0" style="stop-color:#00053D"/>
		<stop  offset="0.17" style="stop-color:#000840"/>
		<stop  offset="0.33" style="stop-color:#001046"/>
		<stop  offset="0.48" style="stop-color:#001950"/>
		<stop  offset="0.62" style="stop-color:#00245D"/>
		<stop  offset="0.76" style="stop-color:#002F6E"/>
		<stop  offset="0.81" style="stop-color:#003475"/>
		<stop  offset="0.92" style="stop-color:#005793"/>
		<stop  offset="1" style="stop-color:#006DA9"/>
	</linearGradient>
	<path class="st18" d="M65.8,90.9c-0.3-2.2,1.3-5.8,5.7-7.2c5.7-1.9,12-0.7,17,0.4c0.7-0.4,1.3-0.7,1.9-1.1c0.3-0.2-0.1-0.4-0.1-0.4
		c-6.6-1.2-13.3-2.8-19.8-0.4C66,84,64.1,87.5,65,89.8C65.1,90.3,65.4,90.7,65.8,90.9z"/>
	
		<linearGradient id="SVGID_19_" gradientUnits="userSpaceOnUse" x1="370.5847" y1="2885.7043" x2="370.5847" y2="2818.9243" gradientTransform="matrix(0.7 0 0 0.7 -187.87 -1897.76)">
		<stop  offset="0" style="stop-color:#00053D"/>
		<stop  offset="0.17" style="stop-color:#000840"/>
		<stop  offset="0.33" style="stop-color:#001046"/>
		<stop  offset="0.48" style="stop-color:#001950"/>
		<stop  offset="0.62" style="stop-color:#00245D"/>
		<stop  offset="0.76" style="stop-color:#002F6E"/>
		<stop  offset="0.81" style="stop-color:#003475"/>
		<stop  offset="0.92" style="stop-color:#005793"/>
		<stop  offset="1" style="stop-color:#006DA9"/>
	</linearGradient>
	<path class="st19" d="M83.1,97.9c2.1-0.2,4.1-0.4,6-0.6c0.4-0.1,0.8-0.1,1.2,0.1c0.6,0.6,1.3,1.2,2,1.6c0.3,0,0.6,0.1,0.8,0.2
		c0.2,0,0.4-0.2,0.6-0.3c0.2-0.2,0.3-0.5,0.2-0.8c0-0.6-0.2-1.1-0.4-1.6c0.1,0.3,0,0.6-0.2,0.7c-0.2,0.2-0.4,0.3-0.7,0.3
		c-0.3,0-0.5-0.1-0.8-0.2c-0.8-0.4-1.4-0.9-2-1.6c-0.2-0.2-0.2-0.2-0.7-0.2c-2,0.1-5.2,0.4-7.3,0.7c-0.3,0-0.6,0.1-0.7,0.4
		c-3.4,5.7-7.1,11.7-11.1,15.8c-4.3,4.4-7.9,5.5-11.7,5.5c-4.4,0.1-8.3-2.4-9.3-6.8c0.5,2.4,2.1,5.4,4,6.7c1.7,1.2,3.7,1.8,5.8,1.8
		c4.3,0.1,8.3-1.7,12.5-6c4-4.1,7.5-9.8,10.9-15.4C82.4,98.1,82.5,98,83.1,97.9z"/>
	
		<linearGradient id="SVGID_20_" gradientUnits="userSpaceOnUse" x1="372.1876" y1="2885.7144" x2="372.1876" y2="2818.9043" gradientTransform="matrix(0.7 0 0 0.7 -187.87 -1897.76)">
		<stop  offset="0" style="stop-color:#00053D"/>
		<stop  offset="0.17" style="stop-color:#000840"/>
		<stop  offset="0.33" style="stop-color:#001046"/>
		<stop  offset="0.48" style="stop-color:#001950"/>
		<stop  offset="0.62" style="stop-color:#00245D"/>
		<stop  offset="0.76" style="stop-color:#002F6E"/>
		<stop  offset="0.81" style="stop-color:#003475"/>
		<stop  offset="0.92" style="stop-color:#005793"/>
		<stop  offset="1" style="stop-color:#006DA9"/>
	</linearGradient>
	<path class="st20" d="M76.1,97.2c-1.9,0-3.8,0.7-5.3,1.9c-0.4,0.4-1.1,0.3-1.4-0.1c0,0,0,0-0.1-0.1c-0.1-0.2-0.1-0.3-0.2-0.5
		c0,0.8,0.1,1.5,0.5,2.2c0.4,0.5,1.1,0.6,1.6,0.2c0,0,0,0,0,0c1.1-0.9,2.4-1.5,3.8-1.8c0.4-0.5,0.7-1,1.2-1.6
		C76.2,97.4,76.2,97.3,76.1,97.2C76.2,97.2,76.1,97.2,76.1,97.2z"/>
	
		<linearGradient id="SVGID_21_" gradientUnits="userSpaceOnUse" x1="447.5714" y1="2884.8442" x2="447.5714" y2="2819.0344" gradientTransform="matrix(0.7 0 0 0.7 -187.87 -1897.76)">
		<stop  offset="0" style="stop-color:#00053D"/>
		<stop  offset="0.17" style="stop-color:#000840"/>
		<stop  offset="0.33" style="stop-color:#001046"/>
		<stop  offset="0.48" style="stop-color:#001950"/>
		<stop  offset="0.62" style="stop-color:#00245D"/>
		<stop  offset="0.76" style="stop-color:#002F6E"/>
		<stop  offset="0.81" style="stop-color:#003475"/>
		<stop  offset="0.92" style="stop-color:#005793"/>
		<stop  offset="1" style="stop-color:#006DA9"/>
	</linearGradient>
	<path class="st21" d="M125.4,81c0,0.1,0.1,0.1,0.1,0.1C125.4,81.1,125.4,81,125.4,81z"/>
	
		<linearGradient id="SVGID_22_" gradientUnits="userSpaceOnUse" x1="417.5101" y1="2885.6943" x2="417.5101" y2="2818.9243" gradientTransform="matrix(0.7 0 0 0.7 -187.87 -1897.76)">
		<stop  offset="0" style="stop-color:#00053D"/>
		<stop  offset="0.17" style="stop-color:#000840"/>
		<stop  offset="0.33" style="stop-color:#001046"/>
		<stop  offset="0.48" style="stop-color:#001950"/>
		<stop  offset="0.62" style="stop-color:#00245D"/>
		<stop  offset="0.76" style="stop-color:#002F6E"/>
		<stop  offset="0.81" style="stop-color:#003475"/>
		<stop  offset="0.92" style="stop-color:#005793"/>
		<stop  offset="1" style="stop-color:#006DA9"/>
	</linearGradient>
	<path class="st22" d="M83,94c-0.1,0.1-0.1,0.2,0.1,0.2c0.6-0.1,1.2-0.1,1.8-0.1c2.1-3.3,4.4-5.2,7.8-7.8c0.4-0.2,0.6-0.7,0.4-1.1
		c6.9,1.5,12.2,4.1,21.2,4.1c2.9,0,5.8-0.8,8.4-2.1c2.3-1.4,3-2.4,3-3.5c0-0.4,0-0.7-0.1-1.1c-0.1-0.4-0.1-0.8-0.2-1.2
		c0.1,0.2,0.1,0.3,0.1,0.5c-0.1,1.3-1,2.4-3.4,3.8c-2.6,1.4-5.6,2.1-8.5,1.9c-7.2,0.1-13.8-2.7-20.8-4.2c0.1,0.3,0,0.6-0.2,0.8
		C88.9,87.1,85.4,89.9,83,94z"/>
	
		<linearGradient id="SVGID_23_" gradientUnits="userSpaceOnUse" x1="400.2932" y1="2883.4143" x2="400.2932" y2="2820.3242" gradientTransform="matrix(0.7 0 0 0.7 -187.87 -1897.76)">
		<stop  offset="0" style="stop-color:#00053D"/>
		<stop  offset="0.17" style="stop-color:#000840"/>
		<stop  offset="0.33" style="stop-color:#001046"/>
		<stop  offset="0.48" style="stop-color:#001950"/>
		<stop  offset="0.62" style="stop-color:#00245D"/>
		<stop  offset="0.76" style="stop-color:#002F6E"/>
		<stop  offset="0.81" style="stop-color:#003475"/>
		<stop  offset="0.92" style="stop-color:#005793"/>
		<stop  offset="1" style="stop-color:#006DA9"/>
	</linearGradient>
	<path class="st23" d="M92.4,92c0.3-0.2,0.6-0.4,1-0.3c0.3-0.4,0.3-1,0-1.5C93,90,92.5,90,92.2,90.3c-0.1,0.1-0.2,0.2-0.3,0.2
		c-0.6,0.6-0.9,1.6-0.8,2.5c0.1,0.3,0.2,0.4,0.3,0.3c0.1,0,0.3-0.1,0.4-0.1C91.8,92.7,92.1,92.3,92.4,92z"/>
	
		<linearGradient id="SVGID_24_" gradientUnits="userSpaceOnUse" x1="402.459" y1="2885.7043" x2="402.459" y2="2818.9243" gradientTransform="matrix(0.7 0 0 0.7 -187.87 -1897.76)">
		<stop  offset="0" style="stop-color:#00053D"/>
		<stop  offset="0.17" style="stop-color:#000840"/>
		<stop  offset="0.33" style="stop-color:#001046"/>
		<stop  offset="0.48" style="stop-color:#001950"/>
		<stop  offset="0.62" style="stop-color:#00245D"/>
		<stop  offset="0.76" style="stop-color:#002F6E"/>
		<stop  offset="0.81" style="stop-color:#003475"/>
		<stop  offset="0.92" style="stop-color:#005793"/>
		<stop  offset="1" style="stop-color:#006DA9"/>
	</linearGradient>
	<path class="st24" d="M95.3,94.3c0.4-0.8,0.5-1.7,0.4-2.6c-0.1-0.7-0.2-1.4-0.5-2.1c0.4,1,0.3,2.1-0.2,3c-0.6,1.1-1.6,1.9-2.8,2.3
		c0,0-0.2,0.1-0.2,0.2c0.3,0.4,0.8,0.7,1.2,1c0.1,0,0.1,0,0.2-0.1C94.2,95.8,94.9,95.2,95.3,94.3z"/>
	
		<linearGradient id="SVGID_25_" gradientUnits="userSpaceOnUse" x1="365.745" y1="2885.7043" x2="365.745" y2="2818.9143" gradientTransform="matrix(0.7 0 0 0.7 -187.87 -1897.76)">
		<stop  offset="0" style="stop-color:#00053D"/>
		<stop  offset="0.17" style="stop-color:#000840"/>
		<stop  offset="0.33" style="stop-color:#001046"/>
		<stop  offset="0.48" style="stop-color:#001950"/>
		<stop  offset="0.62" style="stop-color:#00245D"/>
		<stop  offset="0.76" style="stop-color:#002F6E"/>
		<stop  offset="0.81" style="stop-color:#003475"/>
		<stop  offset="0.92" style="stop-color:#005793"/>
		<stop  offset="1" style="stop-color:#006DA9"/>
	</linearGradient>
	<path class="st25" d="M63.4,96.8c1,0.6,2.2,0.9,3.5,0.9c4.6-0.2,8.1-3.9,9.2-7.2c0.2-0.8,0.2-1.6-0.1-2.4c-0.1-0.4-0.2-0.8-0.3-1.2
		l0,0c0.1,0.5,0.1,1-0.1,1.4c-1.9,4.4-5.5,8-10,8.1c-2.4,0.2-4.6-1.1-5.6-3.3C60.9,94.7,62,95.9,63.4,96.8z"/>
	<path class="st26" d="M100,67.2c-48.5,0-87.5,14.6-87.5,32.8s39.2,32.8,87.5,32.8s87.5-14.7,87.5-32.8S148.2,67.2,100,67.2z
		 M13.1,100.4c0-3.8,1.7-7.7,5.2-11.2c12.5-12.6,45.3-21.2,81.5-21.3c47.9-0.2,87,14.1,87.1,31.8c0,3.8-1.8,7.6-5.4,11.2
		c-12.5,12.6-45.3,21.2-81.4,21.4C52.2,132.4,13.2,118.1,13.1,100.4z M187,97.4c0.1,0.2,0.1,0.3,0.1,0.5
		C187.1,97.8,187,97.6,187,97.4z"/>
	
		<linearGradient id="SVGID_26_" gradientUnits="userSpaceOnUse" x1="93.2807" y1="570.6498" x2="73.0607" y2="495.1998" gradientTransform="matrix(1 0 0 1 -12.5 -422.19)">
		<stop  offset="0" style="stop-color:#B1B3B6"/>
		<stop  offset="0.35" style="stop-color:#DCDDDE"/>
		<stop  offset="0.65" style="stop-color:#DCDDDE"/>
		<stop  offset="1" style="stop-color:#B1B3B6"/>
	</linearGradient>
	<path class="st27" d="M18.1,88.9c12.6-12.7,45.4-21.3,81.7-21.4c5,0,10,0.1,14.8,0.4c-4.7-0.3-9.6-0.5-14.6-0.5
		C51.6,67.5,12.7,82,12.7,100c0,0.9,0.1,1.7,0.3,2.6c-0.1-0.7-0.2-1.5-0.2-2.2C12.8,96.5,14.6,92.5,18.1,88.9z"/>
	
		<linearGradient id="SVGID_27_" gradientUnits="userSpaceOnUse" x1="146.5447" y1="529.3488" x2="126.4147" y2="454.2387" gradientTransform="matrix(1 0 0 1 -12.5 -422.19)">
		<stop  offset="0" style="stop-color:#B1B3B6"/>
		<stop  offset="0.35" style="stop-color:#DCDDDE"/>
		<stop  offset="0.65" style="stop-color:#DCDDDE"/>
		<stop  offset="1" style="stop-color:#B1B3B6"/>
	</linearGradient>
	<path class="st28" d="M181.8,111.1c-12.6,12.6-45.4,21.3-81.6,21.4c-5.1,0-10.2-0.1-15-0.4c4.9,0.3,9.8,0.5,14.9,0.5
		c48.1,0,87.3-14.7,87.3-32.5c0-0.7-0.1-1.3-0.2-2c0.1,0.5,0.1,1.1,0.1,1.6C187.2,103.5,185.4,107.4,181.8,111.1z"/>
	
		<linearGradient id="SVGID_28_" gradientUnits="userSpaceOnUse" x1="411.2571" y1="2810.0344" x2="411.2571" y2="2905.7942" gradientTransform="matrix(0.7 0 0 0.7 -187.88 -1900.62)">
		<stop  offset="0" style="stop-color:#FFFFFF"/>
		<stop  offset="0.56" style="stop-color:#FCFCFC"/>
		<stop  offset="0.69" style="stop-color:#F8F8F8"/>
		<stop  offset="0.8" style="stop-color:#D1D3D4"/>
		<stop  offset="1" style="stop-color:#BCBEC0"/>
	</linearGradient>
	<path class="st29" d="M100,128.7c-45.6,0-82.6-12.9-82.6-28.7s37-28.7,82.6-28.7s82.6,12.9,82.6,28.7S145.6,128.7,100,128.7z
		 M100,73.7c-44,0-79.7,11.7-79.7,26.3S56,126.2,100,126.2s79.7-11.7,79.7-26.2S144,73.8,100,73.7L100,73.7z"/>
	
		<linearGradient id="SVGID_29_" gradientUnits="userSpaceOnUse" x1="430.8488" y1="2836.5842" x2="430.8488" y2="2884.0842" gradientTransform="matrix(0.7 0 0 0.7 -187.88 -1897.78)">
		<stop  offset="0" style="stop-color:#FFFFFF"/>
		<stop  offset="0.43" style="stop-color:#FCFCFC"/>
		<stop  offset="0.59" style="stop-color:#F5F5F5"/>
		<stop  offset="0.69" style="stop-color:#ECECED"/>
		<stop  offset="0.8" style="stop-color:#E6E7E8"/>
		<stop  offset="1" style="stop-color:#D1D3D4"/>
	</linearGradient>
	<path class="st30" d="M151.4,90.6c0.1-0.2,0-0.4-0.2-0.4h-4.4c-0.3,0-0.5,0.1-0.7,0.4c-0.5,1-6.7,10.2-7.8,12
		c-0.2,0.3-0.4,0.2-0.5-0.1c-0.2-1.3-1.2-2.4-2.5-2.9c-1.1-0.4-2.2-0.5-3.3-0.4c-2,0.4-3.9,1.2-5.4,2.6c-2.4,1.8-4.5,4.2-7.2,6
		c-1.5,1-3.5,1.8-4.8,0.6s-1.1-3.6,0.8-5.5c0.2-0.2,0.4-0.1,0.4,0.1c-0.2,0.9,0.1,1.8,0.7,2.4c0.8,0.7,2,0.8,3,0.3
		c1.1-0.6,1.9-1.7,2.1-3c0.3-1.8-1-3.5-2.9-3.8c-0.1,0-0.2,0-0.2,0c-1.6-0.1-3.2,0.5-4.4,1.6c-0.7,0.5-1.3,1.2-1.8,1.9
		c-0.1,0.2-0.4,0.2-0.4-0.1c0.1-2.5-1-3.9-3-4c-1.7,0.1-3.4,0.7-4.7,1.9c-1.5,1.3-2.9,2.7-4.1,4.2c-0.2,0.2-0.3,0.2-0.4-0.2
		c0-1.6-0.4-3.1-1.2-4.4c-0.3-0.4-0.9-0.6-1.3-0.3c-0.5,0.3-1.1,0.6-1.6,0.9c-0.3,0.2-0.4,0.7-0.2,1c0.7,2.5,0.6,5.3-0.4,7.7
		c-0.9,2.2-2.7,4-4.9,4.8c-1.3,0.6-2.9,0.1-3.8-1c-1.2-1.7-0.7-4.7,1.1-7.2c1.6-2,3.8-3.6,6.3-4.4c0.2-0.1,0.3-0.3,0.3-0.5
		c0,0,0-0.1,0-0.1c-0.1-0.4-0.3-0.8-0.4-1.2c-0.3-0.5-1-0.8-1.6-0.6c-1.7,0.2-3.3,0.8-4.7,1.6c-3.9,2.1-6,6.3-6.8,8.4
		c-0.3,0.8-0.7,1.6-1.2,2.3c-0.9,1-1.8,2-2.9,2.8c-0.2,0.2-0.2,0.4-0.1,0.6c0.3,0.5,0.7,1,1.1,1.5c0.2,0.1,0.4,0,0.6-0.1
		c1-0.7,2-1.5,2.8-2.5c0.2-0.2,0.4-0.1,0.6,0.2c0.5,2,2,3.6,3.9,4.2c3.7,1.2,7.4-0.6,10.3-3.7c1.2-1.3,2.2-2.6,3.2-4.1
		c1.8-2.5,3.9-4.8,6.3-6.8c1-0.8,2.2-1.3,2.8-1s0.7,1-0.1,2.4c-2.8,5.2-7,11.2-7.7,12.6c-0.1,0.1-0.1,0.3,0,0.4
		c0.1,0.1,0.1,0.1,0.2,0.1h4.2c0.2,0,0.3-0.1,0.4-0.2c2.2-3.4,4.2-6.6,6.4-10c0.1-0.2,0.2-0.1,0.2,0.1c0,0.9,0.3,1.8,0.7,2.6
		c0.7,1.1,1.9,1.8,3.3,1.8c0.9,0,1.8-0.2,2.7-0.6c0.8-0.3,1.5-0.7,2.2-1.2c0.3-0.2,0.4,0.2,0.4,0.2c-0.5,2.7,0.1,5.9,2.8,7.2
		c3.2,1.6,6.7-0.7,8.8-2.6c0.2-0.2,0.4-0.2,0.4,0.2c0,0.9,0.4,1.7,1,2.3c1.7,1.7,5.1,1,8.6-1.6c2.4-2,4.6-4.2,6.6-6.6
		c0.1-0.1,0.1-0.3,0-0.4c-0.3-0.3-0.8-0.7-1.1-1c-0.2-0.1-0.3-0.1-0.5,0c-2.1,2-4.1,4.3-6.8,6.3c-0.9,0.7-2.4,1.2-3.1,0.3
		c-0.2-0.5-0.2-1,0-1.5C137.9,111.2,150.7,91.7,151.4,90.6z M134.4,106.9c0.1,0.2,0.2,0.3,0.4,0.4c0.1,0,0.1,0.1,0,0.2
		c-0.5,1-1.1,2-1.7,2.9c-0.6,0.9-1.4,1.7-2.2,2.4c-1.3,1.1-3.1,2.2-4.6,1.5c-0.6-0.4-1-1.2-0.9-2c0.2-2.4,1.1-4.6,2.7-6.4
		c2.1-2.6,4.4-3.9,6-3.2s1.1,2.6,0.4,4C134.5,106.7,134.4,106.8,134.4,106.9L134.4,106.9z"/>
	
		<linearGradient id="SVGID_30_" gradientUnits="userSpaceOnUse" x1="392.9529" y1="2818.5044" x2="392.9529" y2="2884.3843" gradientTransform="matrix(0.7 0 0 0.7 -187.88 -1897.78)">
		<stop  offset="0" style="stop-color:#FFFFFF"/>
		<stop  offset="0.43" style="stop-color:#FCFCFC"/>
		<stop  offset="0.59" style="stop-color:#F5F5F5"/>
		<stop  offset="0.69" style="stop-color:#ECECED"/>
		<stop  offset="0.8" style="stop-color:#E6E7E8"/>
		<stop  offset="1" style="stop-color:#D1D3D4"/>
	</linearGradient>
	<path class="st31" d="M58.4,118c-4.8,0.1-9-2.9-9.5-8c-0.3-2.7,0.5-5.3,2.1-7.4c1.5-1.9,3.6-3.2,5.9-3.7c0.7-0.2,1.4,0,1.9,0.4
		c0.4,0.3,0.5,1,0.2,1.4c-0.1,0.1-0.2,0.2-0.4,0.3c-1.8,0.9-3.4,2.3-4.4,4c-0.9,1.6-0.8,3.6,0.2,5.1c1.9,2.9,7.3,3,12.2-1.6
		c1.2-1.1,2.4-2.3,3.5-3.5c2.1-2.4,4-4.9,5.8-7.5c0.1-0.1,0.1-0.1,0-0.1s-0.1-0.1-0.1-0.1c-1.9,0-3.8,0.7-5.3,1.9
		c-0.4,0.4-1.1,0.3-1.4-0.1c0,0,0,0-0.1-0.1c-0.3-0.6-0.1-1.2,0.4-1.6c2.7-1.8,5.5-2.2,8.5-2.7c0.1,0,0.3-0.1,0.4-0.2
		c1.2-1.6,2.1-3,3.4-4.6c1.3-1.5,2.7-2.9,4.2-4.2c1.3-1.1,2.6-2,4.1-2.7c0.3-0.2-0.1-0.4-0.1-0.4c-6.6-1.2-13.3-2.8-19.8-0.4
		c-4.5,1.7-6.4,5.2-5.5,7.6c0.7,1.7,2.9,1.9,5,1c1.8-0.9,3.4-2.3,4.4-3.9c0.6-1,1.9-0.2,1.3,1.4c-1.9,4.4-5.5,8-10,8.1
		c-3.2,0.2-6-2.2-6.2-5.5c0-0.2,0-0.4,0-0.6c0-6.7,7.5-11.2,15.4-11.8c9.5-0.8,18.5,1.8,27.9,2.9c7.1,1,14.4,0.7,21.4-0.8
		c0.6-0.2,1.2,0.1,1.4,0.7c0.1,0.2,0.1,0.3,0,0.5c-0.1,1.3-1,2.4-3.4,3.8c-2.6,1.4-5.6,2.1-8.5,1.9c-7.2,0.1-13.8-2.7-20.8-4.2
		c0.1,0.3,0,0.6-0.2,0.8c-3.8,2.9-7.3,5.7-9.6,9.7c-0.1,0.1-0.1,0.2,0.1,0.2c2-0.1,3.8-0.2,5.7-0.3c0.3,0,0.4-0.1,0.3-0.4
		c-0.2-1.5,0.3-3,1.5-4.1c1.3-1.1,2.8-1.3,3.8-0.4c1.1,1,1.2,2.6,0.4,3.8c-0.6,1.1-1.6,1.9-2.8,2.2c0,0-0.2,0.1-0.2,0.2
		c0.5,0.5,1,0.9,1.6,1.3c0.1,0.3,0,0.6-0.2,0.7c-0.2,0.2-0.4,0.3-0.7,0.3c-0.3,0-0.5-0.1-0.7-0.2c-0.7-0.4-1.4-0.9-1.9-1.6
		c-0.2-0.2-0.2-0.2-0.7-0.2c-2,0.1-5.2,0.4-7.3,0.7c-0.3,0-0.6,0.1-0.7,0.4c-3.4,5.7-7.1,11.7-11.1,15.8
		C65.8,116.9,62.3,118,58.4,118z M91.1,93c0.1,0.3,0.2,0.4,0.3,0.3c0.7-0.2,1.4-0.7,1.8-1.3c0.4-0.5,0.5-1.2,0.2-1.7
		c-0.4-0.3-1-0.2-1.3,0.2C91.3,91.1,91,92.1,91.1,93L91.1,93"/>
</g>
</svg>
