<svg id="Layer_1" data-name="Layer 1" xmlns="http://www.w3.org/2000/svg" xmlns:xlink="http://www.w3.org/1999/xlink" viewBox="0 0 175 65.63"><defs><style>.cls-1{fill:#d1d3d4;}.cls-2{fill:url(#radial-gradient);}.cls-3{fill:url(#linear-gradient);}.cls-4{fill:url(#linear-gradient-2);}.cls-5{fill:url(#linear-gradient-3);}.cls-6{fill:url(#linear-gradient-4);}.cls-7{fill:url(#linear-gradient-5);}.cls-8{fill:url(#linear-gradient-6);}.cls-9{fill:url(#linear-gradient-7);}.cls-10{fill:url(#linear-gradient-8);}.cls-11{fill:url(#linear-gradient-9);}.cls-12{fill:url(#linear-gradient-10);}.cls-13{fill:url(#linear-gradient-11);}.cls-14{fill:url(#linear-gradient-12);}.cls-15{fill:url(#linear-gradient-13);}.cls-16{fill:url(#linear-gradient-14);}.cls-17{fill:url(#linear-gradient-15);}.cls-18{fill:url(#linear-gradient-16);}.cls-19{fill:url(#linear-gradient-17);}.cls-20{fill:url(#linear-gradient-18);}.cls-21{fill:url(#linear-gradient-19);}.cls-22{fill:url(#linear-gradient-20);}.cls-23{fill:url(#linear-gradient-21);}.cls-24{fill:url(#linear-gradient-22);}.cls-25{fill:url(#linear-gradient-23);}.cls-26{fill:url(#linear-gradient-24);}.cls-27{fill:#58595b;}.cls-28{fill:url(#linear-gradient-25);}.cls-29{fill:url(#linear-gradient-26);}.cls-30{fill:url(#linear-gradient-27);}.cls-31{fill:url(#linear-gradient-28);}.cls-32{fill:url(#linear-gradient-29);}</style><radialGradient id="radial-gradient" cx="170.66" cy="-902.08" r="238.75" gradientTransform="matrix(1.58, 0, 0, -1.54, -170.71, -965.89)" gradientUnits="userSpaceOnUse"><stop offset="0"/><stop offset="0.22" stop-color="#00000c"/><stop offset="0.48" stop-color="#000023"/><stop offset="0.7" stop-color="#003"/><stop offset="0.9" stop-color="#004282"/><stop offset="0.92" stop-color="#0063a1"/><stop offset="0.94" stop-color="#0184c0"/><stop offset="0.95" stop-color="#159bd5"/><stop offset="0.95" stop-color="#1ca6df"/></radialGradient><linearGradient id="linear-gradient" x1="225.19" y1="-2144.52" x2="225.19" y2="-2049.25" gradientTransform="matrix(0.7, 0, 0, -0.7, -57.78, -1370.63)" gradientUnits="userSpaceOnUse"><stop offset="0" stop-color="#00053d"/><stop offset="0.17" stop-color="#000840"/><stop offset="0.33" stop-color="#001046"/><stop offset="0.48" stop-color="#001950"/><stop offset="0.62" stop-color="#00245d"/><stop offset="0.76" stop-color="#002f6e"/><stop offset="0.81" stop-color="#003475"/><stop offset="0.92" stop-color="#005793"/><stop offset="1" stop-color="#006da9"/></linearGradient><linearGradient id="linear-gradient-2" x1="226.8" y1="-2144.52" x2="226.8" y2="-2049.25" xlink:href="#linear-gradient"/><linearGradient id="linear-gradient-3" x1="246.71" y1="-2124.07" x2="246.71" y2="-2058.06" gradientTransform="matrix(0.7, 0, 0, -0.7, -57.77, -1367.77)" xlink:href="#linear-gradient"/><linearGradient id="linear-gradient-4" x1="274.99" y1="-2124.33" x2="274.99" y2="-2057.41" gradientTransform="matrix(0.7, 0, 0, -0.7, -57.77, -1367.77)" xlink:href="#linear-gradient"/><linearGradient id="linear-gradient-5" x1="279.12" y1="-2121.75" x2="279.12" y2="-2060.46" gradientTransform="matrix(0.7, 0, 0, -0.7, -57.77, -1367.77)" xlink:href="#linear-gradient"/><linearGradient id="linear-gradient-6" x1="242.14" y1="-2122.6" x2="242.14" y2="-2059.27" gradientTransform="matrix(0.7, 0, 0, -0.7, -57.77, -1367.77)" xlink:href="#linear-gradient"/><linearGradient id="linear-gradient-7" x1="298.91" y1="-2078.82" x2="298.91" y2="-2078.82" gradientTransform="matrix(0.7, 0, 0, -0.7, -57.77, -1367.77)" xlink:href="#linear-gradient"/><linearGradient id="linear-gradient-8" x1="268.74" y1="-2124.29" x2="268.74" y2="-2057.5" gradientTransform="matrix(0.7, 0, 0, -0.7, -57.77, -1367.77)" xlink:href="#linear-gradient"/><linearGradient id="linear-gradient-9" x1="210.87" y1="-2124.28" x2="210.87" y2="-2057.52" gradientTransform="matrix(0.7, 0, 0, -0.7, -57.77, -1367.77)" xlink:href="#linear-gradient"/><linearGradient id="linear-gradient-10" x1="239.84" y1="-2124.27" x2="239.84" y2="-2057.95" gradientTransform="matrix(0.7, 0, 0, -0.7, -57.77, -1367.77)" xlink:href="#linear-gradient"/><linearGradient id="linear-gradient-11" x1="275.12" y1="-2124.29" x2="275.12" y2="-2057.49" gradientTransform="matrix(0.7, 0, 0, -0.7, -57.77, -1367.77)" xlink:href="#linear-gradient"/><linearGradient id="linear-gradient-12" x1="252.48" y1="-2124.31" x2="252.48" y2="-2057.47" gradientTransform="matrix(0.7, 0, 0, -0.7, -57.77, -1367.77)" xlink:href="#linear-gradient"/><linearGradient id="linear-gradient-13" x1="288.87" y1="-2124.29" x2="288.87" y2="-2057.5" gradientTransform="matrix(0.7, 0, 0, -0.7, -57.77, -1367.77)" xlink:href="#linear-gradient"/><linearGradient id="linear-gradient-14" x1="224.35" y1="-2123.54" x2="224.35" y2="-2058.31" gradientTransform="matrix(0.7, 0, 0, -0.7, -57.77, -1367.77)" xlink:href="#linear-gradient"/><linearGradient id="linear-gradient-15" x1="213.99" y1="-2124.27" x2="213.99" y2="-2057.94" gradientTransform="matrix(0.7, 0, 0, -0.7, -57.77, -1367.77)" xlink:href="#linear-gradient"/><linearGradient id="linear-gradient-16" x1="163.48" y1="-2124.28" x2="163.48" y2="-2057.51" gradientTransform="matrix(0.7, 0, 0, -0.7, -57.77, -1367.77)" xlink:href="#linear-gradient"/><linearGradient id="linear-gradient-17" x1="193.5" y1="-2124.28" x2="193.5" y2="-2057.51" gradientTransform="matrix(0.7, 0, 0, -0.7, -57.77, -1367.77)" xlink:href="#linear-gradient"/><linearGradient id="linear-gradient-18" x1="184.72" y1="-2124.29" x2="184.72" y2="-2057.51" gradientTransform="matrix(0.7, 0, 0, -0.7, -57.77, -1367.77)" xlink:href="#linear-gradient"/><linearGradient id="linear-gradient-19" x1="186.35" y1="-2124.3" x2="186.35" y2="-2057.49" gradientTransform="matrix(0.7, 0, 0, -0.7, -57.77, -1367.77)" xlink:href="#linear-gradient"/><linearGradient id="linear-gradient-20" x1="261.72" y1="-2123.43" x2="261.72" y2="-2057.62" gradientTransform="matrix(0.7, 0, 0, -0.7, -57.77, -1367.77)" xlink:href="#linear-gradient"/><linearGradient id="linear-gradient-21" x1="231.74" y1="-2124.28" x2="231.74" y2="-2057.51" gradientTransform="matrix(0.7, 0, 0, -0.7, -57.77, -1367.77)" xlink:href="#linear-gradient"/><linearGradient id="linear-gradient-22" x1="214.42" y1="-2122" x2="214.42" y2="-2058.91" gradientTransform="matrix(0.7, 0, 0, -0.7, -57.77, -1367.77)" xlink:href="#linear-gradient"/><linearGradient id="linear-gradient-23" x1="216.6" y1="-2124.29" x2="216.6" y2="-2057.51" gradientTransform="matrix(0.7, 0, 0, -0.7, -57.77, -1367.77)" xlink:href="#linear-gradient"/><linearGradient id="linear-gradient-24" x1="179.92" y1="-2124.29" x2="179.92" y2="-2057.5" gradientTransform="matrix(0.7, 0, 0, -0.7, -57.77, -1367.77)" xlink:href="#linear-gradient"/><linearGradient id="linear-gradient-25" x1="80.78" y1="56.54" x2="60.56" y2="131.99" gradientTransform="matrix(1, 0, 0, -1, 0, 202)" gradientUnits="userSpaceOnUse"><stop offset="0" stop-color="#b1b3b6"/><stop offset="0.35" stop-color="#dcddde"/><stop offset="0.65" stop-color="#dcddde"/><stop offset="1" stop-color="#b1b3b6"/></linearGradient><linearGradient id="linear-gradient-26" x1="134.04" y1="97.84" x2="113.91" y2="172.95" xlink:href="#linear-gradient-25"/><linearGradient id="linear-gradient-27" x1="225.41" y1="-2048.62" x2="225.41" y2="-2144.38" gradientTransform="matrix(0.7, 0, 0, -0.7, -57.78, -1370.63)" gradientUnits="userSpaceOnUse"><stop offset="0" stop-color="#fff"/><stop offset="0.56" stop-color="#fcfcfc"/><stop offset="0.69" stop-color="#f8f8f8"/><stop offset="0.8" stop-color="#d1d3d4"/><stop offset="1" stop-color="#bcbec0"/></linearGradient><linearGradient id="linear-gradient-28" x1="245.02" y1="-2075.17" x2="245.02" y2="-2122.67" gradientTransform="matrix(0.7, 0, 0, -0.7, -57.78, -1367.79)" gradientUnits="userSpaceOnUse"><stop offset="0" stop-color="#fff"/><stop offset="0.43" stop-color="#fcfcfc"/><stop offset="0.59" stop-color="#f5f5f5"/><stop offset="0.69" stop-color="#ececed"/><stop offset="0.8" stop-color="#e6e7e8"/><stop offset="1" stop-color="#d1d3d4"/></linearGradient><linearGradient id="linear-gradient-29" x1="207.11" y1="-2057.09" x2="207.11" y2="-2122.97" xlink:href="#linear-gradient-28"/></defs><title>ford</title><g id="ford_oval" data-name="ford oval"><path class="cls-1" d="M100,64.19C51.45,64.19,12.5,78.77,12.5,97s39.25,32.81,87.5,32.81,87.5-14.7,87.5-32.81S148.25,64.19,100,64.19Zm87,30.26a1.34,1.34,0,0,1,.06.49A1.51,1.51,0,0,0,187,94.45Z" transform="translate(-12.5 -64.19)"/><path class="cls-2" d="M100,65.52c-47.58,0-86.16,14-86.16,31.48S52.42,128.48,100,128.48s86.16-14.1,86.16-31.48S147.64,65.52,100,65.52Z" transform="translate(-12.5 -64.19)"/><path class="cls-3" d="M20.7,98.22c0-14.4,35.67-26.07,79.66-26.07,40.47,0,73.89,9.9,79,22.66C176,81.32,141.74,70.75,99.94,70.75,56,70.75,20.34,82.48,20.34,97a9.74,9.74,0,0,0,.67,3.46A9.53,9.53,0,0,1,20.7,98.22Z" transform="translate(-12.5 -64.19)"/><path class="cls-4" d="M182,93.72a10.32,10.32,0,0,1,.55,3.28c0,15.86-36.94,28.74-82.58,28.74-40.59,0-74.31-10.21-81.24-23.64,5.29,14,39.92,24.79,81.85,24.79,45.57,0,82.58-12.76,82.58-28.5A11.79,11.79,0,0,0,182,93.72Z" transform="translate(-12.5 -64.19)"/><path class="cls-5" d="M115.37,99.8c-1.82,1.94-2,4.44-.79,5.53a2,2,0,0,0,1.46.61,4.1,4.1,0,0,1-.18-4.5,2.57,2.57,0,0,1-.12-1.52C115.8,99.73,115.56,99.55,115.37,99.8Z" transform="translate(-12.5 -64.19)"/><path class="cls-6" d="M134.45,103.93v-0.06h0a12.82,12.82,0,0,0,.18,1.28,5.65,5.65,0,0,0,.3-0.61c0.06-.18.06-0.18,0-0.24A0.63,0.63,0,0,1,134.45,103.93Z" transform="translate(-12.5 -64.19)"/><path class="cls-7" d="M137.8,99.55c0,0.3.24,0.36,0.49,0.06a1.33,1.33,0,0,0,.18-0.3,0.84,0.84,0,0,1-.18-0.24,16.63,16.63,0,0,0-1.52-1.58A4.15,4.15,0,0,1,137.8,99.55Z" transform="translate(-12.5 -64.19)"/><path class="cls-8" d="M112.15,99.31c0.06-.12.18-0.24,0.24-0.36a7.91,7.91,0,0,0-1.34-2.61,4.44,4.44,0,0,1,.67,2.86C111.79,99.55,112,99.55,112.15,99.31Z" transform="translate(-12.5 -64.19)"/><path class="cls-9" d="M151.47,87.4h0Z" transform="translate(-12.5 -64.19)"/><path class="cls-10" d="M126.43,111.22a3,3,0,0,0,.67.24,4.77,4.77,0,0,1-.12-0.85,10,10,0,0,1,2.37-6.44c2.07-2.55,4.31-3.89,5.83-3.16a1.62,1.62,0,0,0-1-1.34c-1.52-.73-3.83.61-6,3.22a10.41,10.41,0,0,0-2.67,6.38A2.1,2.1,0,0,0,126.43,111.22Z" transform="translate(-12.5 -64.19)"/><path class="cls-11" d="M94,100a0.36,0.36,0,0,0,.24-0.49,9.6,9.6,0,0,0-.49-1.7h0a0.34,0.34,0,0,1-.24.49,13.85,13.85,0,0,0-6.32,4.44c-1.82,2.49-2.31,5.47-1.09,7.17a3.6,3.6,0,0,0,1,.91,7.83,7.83,0,0,1,1.4-6.87A11.61,11.61,0,0,1,94,100Z" transform="translate(-12.5 -64.19)"/><path class="cls-12" d="M120.11,107.57a7.35,7.35,0,0,1-2.19,1.15,6.2,6.2,0,0,1-2.67.55,3.72,3.72,0,0,1-3.28-1.82,4.72,4.72,0,0,1-.67-2.55c0-.06-0.12-0.24-0.24-0.06-2.19,3.34-4.19,6.56-6.38,10a0.41,0.41,0,0,1-.43.24H100a0.28,0.28,0,0,1-.3-0.18c0.12,0.55.3,1.46,0.36,1.64a0.33,0.33,0,0,0,.3.24h4.86a0.62,0.62,0,0,0,.43-0.24c1.94-3.1,4.07-6.44,6.08-9.54,0.43,1.58.67,2.31,1.46,3a4,4,0,0,0,2.73,1,9.25,9.25,0,0,0,3.28-.91,10,10,0,0,0,1.15-.61,8.1,8.1,0,0,1,.18-1.7C120.48,107.76,120.42,107.39,120.11,107.57Z" transform="translate(-12.5 -64.19)"/><path class="cls-13" d="M148.67,106.42a0.61,0.61,0,0,1-.06.18,42.35,42.35,0,0,1-6.56,6.62c-3.4,2.67-6.87,3.34-8.57,1.64a3.82,3.82,0,0,1-1-2.31c0-.43-0.24-0.43-0.43-0.24-2,2-5.53,4.19-8.75,2.61a5.33,5.33,0,0,1-2.8-4V111a14,14,0,0,0,1,3.95,4.75,4.75,0,0,0,1.7,1.76c2.86,1.4,6.87-.18,9.48-2.67a0.06,0.06,0,0,1,.06-0.06c0.12,0.43.24,1,.3,1.09a3.35,3.35,0,0,0,.73,1.4c1.76,2,5.59,1.09,9.48-1.94a39.63,39.63,0,0,0,5.83-5.71,0.51,0.51,0,0,0,0-.43C149,107.82,148.79,106.9,148.67,106.42Z" transform="translate(-12.5 -64.19)"/><path class="cls-14" d="M120.11,104.17A3.77,3.77,0,0,0,122,100.4a7.1,7.1,0,0,0-.79-2.8,3.21,3.21,0,0,1,.3,2,3.93,3.93,0,0,1-2.07,3,2.67,2.67,0,0,1-3-.3,2.31,2.31,0,0,1-.55-0.79,5.44,5.44,0,0,0,.67,2.07A2.51,2.51,0,0,0,120.11,104.17Z" transform="translate(-12.5 -64.19)"/><path class="cls-15" d="M152,89.71c-0.06-.18-0.43-2.13-0.49-2.31a0.22,0.22,0,0,1-.06.18c-0.67,1.15-13.49,20.66-14.28,22.66a1.36,1.36,0,0,0,0,1.46,1.25,1.25,0,0,0,1.09.49,3.93,3.93,0,0,1,.24-0.79c0.79-2,12.82-20.23,13.49-21.39v-0.3Z" transform="translate(-12.5 -64.19)"/><path class="cls-16" d="M98.18,96.7l0.12,0.12a7.93,7.93,0,0,1,1.22,4.44c0.06,0.36.18,0.36,0.36,0.18l0.49-.49a15.07,15.07,0,0,0-.91-2.49A7,7,0,0,0,98.18,96.7Z" transform="translate(-12.5 -64.19)"/><path class="cls-17" d="M105.29,102.35c0.91-.79,1.88-1.28,2.49-1,0.36-1,.18-1.46-0.18-1.76-0.61-.36-1.82.18-2.8,1-2.8,2.07-5.1,5.35-6.26,6.81a34.8,34.8,0,0,1-3.16,4.07c-2.86,3.1-6.62,4.86-10.27,3.65a6,6,0,0,1-3.95-4.25c-0.12-.36-0.3-0.49-0.55-0.24a14.25,14.25,0,0,1-2.8,2.49,0.66,0.66,0,0,1-.61.12,7,7,0,0,1-1.09-1.46,0.12,0.12,0,0,0-.06-0.12h0a4.75,4.75,0,0,0,.67,2.07,3.61,3.61,0,0,0,.91,1.15,0.67,0.67,0,0,0,.61-0.06,13.43,13.43,0,0,0,3-2.37,0.24,0.24,0,0,1,.43.12,9.82,9.82,0,0,0,1.15,2.25,4.53,4.53,0,0,0,2.73,1.94,8.43,8.43,0,0,0,5.77-.36,15.29,15.29,0,0,0,5.35-3.83,34.8,34.8,0,0,0,3.16-4.07A36,36,0,0,1,105.29,102.35Z" transform="translate(-12.5 -64.19)"/><path class="cls-18" d="M54.91,107.39a6.32,6.32,0,0,1,.61-4.13A8.07,8.07,0,0,1,59,99.73a1.11,1.11,0,0,0,.49-1.58c-0.12-.24-0.12-0.73-0.24-1.15a0.86,0.86,0,0,1-.55.91,9.86,9.86,0,0,0-4.37,4,5,5,0,0,0,.24,5.1A1,1,0,0,1,54.91,107.39Z" transform="translate(-12.5 -64.19)"/><path class="cls-19" d="M65.85,87.95c-0.3-2.19,1.34-5.77,5.65-7.23,5.65-1.88,12-.67,17,0.43,0.73-.43,1.34-0.73,1.94-1.09,0.3-.18-0.06-0.36-0.12-0.36-6.56-1.22-13.31-2.8-19.81-.43C66,81,64.09,84.48,65,86.85A1.94,1.94,0,0,0,65.85,87.95Z" transform="translate(-12.5 -64.19)"/><path class="cls-20" d="M83.11,94.93c2.13-.24,4.07-0.36,6-0.55a1.52,1.52,0,0,1,1.22.12,10.85,10.85,0,0,0,2,1.64,1.19,1.19,0,0,1,.85.24,1.17,1.17,0,0,0,.55-0.3,1,1,0,0,0,.24-0.79,5.48,5.48,0,0,0-.36-1.64,0.61,0.61,0,0,1-.18.73,0.78,0.78,0,0,1-.67.3A1.45,1.45,0,0,1,92,94.45,6.75,6.75,0,0,1,90,92.87c-0.18-.24-0.24-0.24-0.73-0.18-2,.12-5.23.43-7.35,0.67a0.74,0.74,0,0,0-.73.36c-3.4,5.65-7.11,11.73-11.12,15.8-4.31,4.37-7.9,5.53-11.67,5.53-4.37.06-8.32-2.43-9.3-6.81,0.55,2.43,2.13,5.41,3.95,6.68a9.58,9.58,0,0,0,5.83,1.76c4.31,0.06,8.26-1.7,12.46-6,4-4.07,7.47-9.78,10.94-15.43C82.38,95.06,82.5,95,83.11,94.93Z" transform="translate(-12.5 -64.19)"/><path class="cls-21" d="M76.06,94.2a8.65,8.65,0,0,0-5.29,1.88,1,1,0,0,1-1.46-.18,1.59,1.59,0,0,1-.18-0.49,4.49,4.49,0,0,0,.49,2.19,1.11,1.11,0,0,0,1.58.18A9,9,0,0,1,75,96c0.36-.49.73-1,1.15-1.58,0.06-.06.06-0.12,0-0.12A0.1,0.1,0,0,0,76.06,94.2Z" transform="translate(-12.5 -64.19)"/><path class="cls-22" d="M125.4,78c0,0.06.06,0.06,0.06,0.12A0.21,0.21,0,0,1,125.4,78Z" transform="translate(-12.5 -64.19)"/><path class="cls-23" d="M83,91c-0.06.12-.06,0.18,0.12,0.18,0.61-.06,1.22-0.06,1.76-0.06,2.13-3.28,4.37-5.23,7.84-7.78a0.94,0.94,0,0,0,.43-1.09c6.93,1.52,12.21,4.07,21.21,4.13a19.08,19.08,0,0,0,8.45-2.13c2.31-1.4,3-2.43,3-3.52a5.45,5.45,0,0,0-.12-1.09,8.6,8.6,0,0,0-.24-1.22,1.18,1.18,0,0,1,.06.49c-0.06,1.28-1,2.43-3.4,3.77a16.82,16.82,0,0,1-8.51,1.94c-7.17.06-13.85-2.73-20.78-4.25a1,1,0,0,1-.18.85C88.88,84.06,85.42,86.91,83,91Z" transform="translate(-12.5 -64.19)"/><path class="cls-24" d="M92.4,89a1.24,1.24,0,0,1,1-.3,1.27,1.27,0,0,0,0-1.46,1,1,0,0,0-1.22.06,1.33,1.33,0,0,1-.3.24A2.9,2.9,0,0,0,91.07,90c0.06,0.3.18,0.36,0.3,0.3a1.55,1.55,0,0,0,.43-0.12A1.82,1.82,0,0,1,92.4,89Z" transform="translate(-12.5 -64.19)"/><path class="cls-25" d="M95.32,91.35a4.45,4.45,0,0,0,.36-2.55,9.43,9.43,0,0,0-.49-2.07,3.59,3.59,0,0,1-.24,3A4.52,4.52,0,0,1,92.16,92s-0.24.06-.18,0.24a4.51,4.51,0,0,0,1.22,1,0.61,0.61,0,0,0,.18-0.06A3.52,3.52,0,0,0,95.32,91.35Z" transform="translate(-12.5 -64.19)"/><path class="cls-26" d="M63.42,93.78a6.4,6.4,0,0,0,3.46.91c4.62-.18,8.08-3.95,9.24-7.17a4.65,4.65,0,0,0-.06-2.43,5.45,5.45,0,0,0-.3-1.15h0a2,2,0,0,1-.12,1.4c-1.88,4.44-5.53,8-10,8.14a5.73,5.73,0,0,1-5.59-3.28A10,10,0,0,0,63.42,93.78Z" transform="translate(-12.5 -64.19)"/><path class="cls-27" d="M100,64.19C51.45,64.19,12.5,78.77,12.5,97s39.25,32.81,87.5,32.81,87.5-14.7,87.5-32.81S148.25,64.19,100,64.19ZM13.11,97.36c0-3.83,1.7-7.66,5.23-11.24C30.85,73.48,63.66,64.92,99.88,64.8c47.94-.18,87,14.1,87.07,31.84,0,3.83-1.76,7.6-5.35,11.18-12.52,12.64-45.27,21.21-81.42,21.39C52.24,129.39,13.17,115.11,13.11,97.36ZM187,94.45a1.34,1.34,0,0,1,.06.49A1.51,1.51,0,0,0,187,94.45Z" transform="translate(-12.5 -64.19)"/><path class="cls-28" d="M18.15,85.94C30.73,73.24,63.6,64.67,99.88,64.55c5,0,10,.12,14.77.43-4.74-.3-9.6-0.49-14.58-0.49C51.63,64.49,12.74,79,12.74,97a12.2,12.2,0,0,0,.3,2.55,13.28,13.28,0,0,1-.18-2.19C12.8,93.48,14.57,89.53,18.15,85.94Z" transform="translate(-12.5 -64.19)"/><path class="cls-29" d="M181.79,108.06c-12.58,12.64-45.39,21.33-81.61,21.45-5.1,0-10.15-.12-15-0.43,4.86,0.3,9.78.49,14.89,0.49,48.12,0,87.26-14.7,87.26-32.51a11.19,11.19,0,0,0-.18-2,14.9,14.9,0,0,1,.12,1.64C187.2,100.52,185.37,104.41,181.79,108.06Z" transform="translate(-12.5 -64.19)"/><path class="cls-30" d="M100,125.74c-45.63,0-82.58-12.88-82.58-28.74S54.37,68.26,100,68.26,182.58,81.14,182.58,97,145.57,125.74,100,125.74Zm0-55C56,70.75,20.34,82.48,20.34,97S56,123.25,100,123.25,179.66,111.52,179.66,97,144,70.75,100,70.75Z" transform="translate(-12.5 -64.19)"/><path class="cls-31" d="M151.41,87.58c0.12-.18,0-0.36-0.24-0.36h-4.44a0.65,0.65,0,0,0-.67.36c-0.49,1-6.68,10.21-7.84,12-0.18.3-.43,0.24-0.49-0.06a3.73,3.73,0,0,0-2.49-2.86,6.28,6.28,0,0,0-3.34-.36,11.44,11.44,0,0,0-5.41,2.55c-2.37,1.82-4.5,4.19-7.17,6-1.46,1-3.46,1.76-4.8.55s-1.09-3.59.79-5.53c0.18-.18.43-0.06,0.36,0.12a2.48,2.48,0,0,0,.73,2.37,2.65,2.65,0,0,0,3,.3,4.09,4.09,0,0,0,2.07-3,3.37,3.37,0,0,0-3.1-3.83,6,6,0,0,0-4.44,1.64,7.85,7.85,0,0,0-1.76,1.94c-0.12.24-.36,0.24-0.36-0.06,0.06-2.49-1-3.95-3-4a7.73,7.73,0,0,0-4.68,1.88,39.41,39.41,0,0,0-4.13,4.25c-0.18.18-.3,0.18-0.36-0.18a9.25,9.25,0,0,0-1.22-4.44,1,1,0,0,0-1.34-.3,13.2,13.2,0,0,0-1.58.91,0.82,0.82,0,0,0-.24,1,11.6,11.6,0,0,1-.43,7.72A8.51,8.51,0,0,1,89.91,111a3.21,3.21,0,0,1-3.77-1c-1.22-1.7-.73-4.68,1.09-7.17a13.85,13.85,0,0,1,6.32-4.44,0.38,0.38,0,0,0,.24-0.55,12,12,0,0,0-.43-1.15,1.38,1.38,0,0,0-1.58-.61,13.24,13.24,0,0,0-4.74,1.58c-3.95,2.13-6,6.26-6.81,8.45A11.36,11.36,0,0,1,79,108.42a20.87,20.87,0,0,1-2.86,2.8,0.53,0.53,0,0,0-.12.61,7,7,0,0,0,1.09,1.46,0.66,0.66,0,0,0,.61-0.12,14.25,14.25,0,0,0,2.8-2.49c0.18-.24.43-0.12,0.55,0.24a6.29,6.29,0,0,0,3.95,4.25c3.65,1.22,7.41-.55,10.27-3.65a34.8,34.8,0,0,0,3.16-4.07,37.49,37.49,0,0,1,6.26-6.81c1-.79,2.19-1.34,2.8-1s0.67,1-.12,2.43c-2.8,5.16-7,11.18-7.72,12.64a0.26,0.26,0,0,0,.24.43h4.25a0.51,0.51,0,0,0,.43-0.24c2.19-3.4,4.19-6.62,6.38-10,0.12-.18.24-0.06,0.24,0.06a6.37,6.37,0,0,0,.67,2.55,3.79,3.79,0,0,0,3.28,1.82,6.2,6.2,0,0,0,2.67-.55,11.9,11.9,0,0,0,2.19-1.15c0.3-.24.36,0.18,0.36,0.18-0.49,2.67.12,5.89,2.8,7.17,3.22,1.58,6.68-.67,8.75-2.61,0.18-.18.43-0.18,0.43,0.24a3.64,3.64,0,0,0,1,2.31c1.7,1.7,5.1,1,8.57-1.64a45.17,45.17,0,0,0,6.56-6.62,0.36,0.36,0,0,0,0-.43c-0.3-.3-0.79-0.73-1.09-1a0.47,0.47,0,0,0-.49,0c-2.13,2-4.07,4.31-6.81,6.26-0.91.67-2.43,1.15-3.1,0.3a1.53,1.53,0,0,1,0-1.46C137.92,108.24,150.74,88.74,151.41,87.58Zm-17,16.35a0.66,0.66,0,0,0,.43.36c0.06,0,.12.06,0,0.24a22.14,22.14,0,0,1-1.7,2.86,11.53,11.53,0,0,1-2.19,2.37c-1.28,1.09-3.1,2.25-4.56,1.46a2.14,2.14,0,0,1-.91-2,10.78,10.78,0,0,1,2.67-6.38c2.13-2.61,4.44-3.95,6-3.22s1.09,2.55.36,4A0.66,0.66,0,0,0,134.45,103.93Z" transform="translate(-12.5 -64.19)"/><path class="cls-32" d="M58.44,115c-4.8.06-9-2.92-9.48-8a10.43,10.43,0,0,1,2.13-7.41A10.56,10.56,0,0,1,57,95.85a2.3,2.3,0,0,1,1.94.36,1,1,0,0,1-.18,1.7,9.86,9.86,0,0,0-4.37,4,5,5,0,0,0,.24,5.1c1.94,2.92,7.29,3,12.21-1.64a47.59,47.59,0,0,0,3.46-3.52,74.15,74.15,0,0,0,5.83-7.47c0.06-.06.06-0.12,0-0.12S76.06,94.2,76,94.2a8.65,8.65,0,0,0-5.29,1.88,1,1,0,0,1-1.46-.18,1.2,1.2,0,0,1,.43-1.58c2.67-1.82,5.53-2.19,8.51-2.67a0.51,0.51,0,0,0,.36-0.24c1.22-1.58,2.13-3,3.4-4.56a39.25,39.25,0,0,1,4.25-4.19A18.2,18.2,0,0,1,90.34,80c0.3-.18-0.06-0.36-0.12-0.36-6.56-1.22-13.31-2.8-19.81-.43-4.5,1.7-6.44,5.23-5.53,7.6,0.67,1.7,2.92,1.94,5,1a11,11,0,0,0,4.44-3.95c0.61-1,1.94-.24,1.28,1.4-1.88,4.44-5.53,8-10,8.14a5.84,5.84,0,0,1-6.2-6.08c0-6.74,7.53-11.18,15.37-11.85,9.48-.79,18.47,1.76,27.89,2.86a60.35,60.35,0,0,0,21.39-.79,1.09,1.09,0,0,1,1.4,1.22c-0.06,1.28-1,2.43-3.4,3.77a16.82,16.82,0,0,1-8.51,1.94c-7.17.06-13.85-2.73-20.78-4.25a1,1,0,0,1-.18.85c-3.83,2.86-7.29,5.71-9.6,9.72-0.06.12-.06,0.18,0.12,0.18,2-.12,3.83-0.18,5.71-0.3,0.3,0,.36-0.12.3-0.36a4.66,4.66,0,0,1,1.46-4.07c1.28-1.09,2.8-1.28,3.83-.43a3,3,0,0,1,.43,3.83A4.52,4.52,0,0,1,92,91.84s-0.24.06-.18,0.24a16.69,16.69,0,0,0,1.58,1.34,0.61,0.61,0,0,1-.18.73,0.78,0.78,0,0,1-.67.3,1.45,1.45,0,0,1-.73-0.24,6.75,6.75,0,0,1-1.94-1.58c-0.18-.24-0.24-0.24-0.73-0.18-2,.12-5.23.43-7.35,0.67a0.74,0.74,0,0,0-.73.36C77.7,99.13,74,105.2,70,109.27,65.85,113.89,62.27,115,58.44,115ZM91.13,90c0.06,0.3.18,0.36,0.3,0.3A2.87,2.87,0,0,0,93.19,89a1.5,1.5,0,0,0,.18-1.7,1,1,0,0,0-1.34.18A2.77,2.77,0,0,0,91.13,90h0" transform="translate(-12.5 -64.19)"/></g></svg>