<?xml version="1.0" encoding="UTF-8" standalone="no"?>
<svg width="200px" height="200px" viewBox="0 0 200 200" version="1.1" xmlns="http://www.w3.org/2000/svg" xmlns:xlink="http://www.w3.org/1999/xlink">
    <!-- Generator: Sketch 3.7.2 (28276) - http://www.bohemiancoding.com/sketch -->
    <title>google</title>
    <desc>Created with Sketch.</desc>
    <defs></defs>
    <g id="Page-1" stroke="none" stroke-width="1" fill="none" fill-rule="evenodd">
        <g id="google">
            <g transform="translate(13.000000, 69.000000)" id="Group">
                <g>
                    <path d="M75.0231481,30.5796296 C75.0231481,38.8564815 68.5481481,44.9555556 60.6018519,44.9555556 C52.6555556,44.9555556 46.1805556,38.8564815 46.1805556,30.5796296 C46.1805556,22.2444444 52.6555556,16.2037037 60.6018519,16.2037037 C68.5481481,16.2037037 75.0231481,22.2444444 75.0231481,30.5796296 L75.0231481,30.5796296 Z M68.7101852,30.5796296 C68.7101852,25.4074074 64.9574074,21.8685185 60.6018519,21.8685185 C56.2462963,21.8685185 52.4935185,25.4074074 52.4935185,30.5796296 C52.4935185,35.7 56.2462963,39.2907407 60.6018519,39.2907407 C64.9574074,39.2907407 68.7101852,35.6935185 68.7101852,30.5796296 L68.7101852,30.5796296 Z" id="Shape" fill="#EA4335"></path>
                    <path d="M106.134259,30.5796296 C106.134259,38.8564815 99.6592593,44.9555556 91.712963,44.9555556 C83.7666667,44.9555556 77.2916667,38.8564815 77.2916667,30.5796296 C77.2916667,22.2509259 83.7666667,16.2037037 91.712963,16.2037037 C99.6592593,16.2037037 106.134259,22.2444444 106.134259,30.5796296 L106.134259,30.5796296 Z M99.8212963,30.5796296 C99.8212963,25.4074074 96.0685185,21.8685185 91.712963,21.8685185 C87.3574074,21.8685185 83.6046296,25.4074074 83.6046296,30.5796296 C83.6046296,35.7 87.3574074,39.2907407 91.712963,39.2907407 C96.0685185,39.2907407 99.8212963,35.6935185 99.8212963,30.5796296 L99.8212963,30.5796296 Z" id="Shape" fill="#FBBC05"></path>
                    <path d="M135.949074,17.0722222 L135.949074,42.8814815 C135.949074,53.4981481 129.687963,57.8342593 122.286111,57.8342593 C115.318519,57.8342593 111.125,53.1740741 109.543519,49.362963 L115.039815,47.075 C116.018519,49.4148148 118.416667,52.1759259 122.27963,52.1759259 C127.017593,52.1759259 129.953704,49.2527778 129.953704,43.75 L129.953704,41.6824074 L129.733333,41.6824074 C128.32037,43.4259259 125.598148,44.9490741 122.162963,44.9490741 C114.975,44.9490741 108.389815,38.687963 108.389815,30.6314815 C108.389815,22.5166667 114.975,16.2037037 122.162963,16.2037037 C125.591667,16.2037037 128.313889,17.7268519 129.733333,19.4185185 L129.953704,19.4185185 L129.953704,17.0787037 L135.949074,17.0787037 L135.949074,17.0722222 Z M130.400926,30.6314815 C130.400926,25.5694444 127.024074,21.8685185 122.726852,21.8685185 C118.371296,21.8685185 114.722222,25.5694444 114.722222,30.6314815 C114.722222,35.6416667 118.371296,39.2907407 122.726852,39.2907407 C127.024074,39.2907407 130.400926,35.6416667 130.400926,30.6314815 L130.400926,30.6314815 Z" id="Shape" fill="#4285F4"></path>
                    <polygon id="Shape" fill="#34A853" points="145.833333 1.94444444 145.833333 44.0740741 139.675926 44.0740741 139.675926 1.94444444"></polygon>
                    <path d="M169.827778,35.3111111 L174.727778,38.5777778 C173.146296,40.9175926 169.335185,44.9490741 162.75,44.9490741 C154.583333,44.9490741 148.484259,38.6361111 148.484259,30.5731481 C148.484259,22.0240741 154.635185,16.1972222 162.043519,16.1972222 C169.503704,16.1972222 173.152778,22.1342593 174.34537,25.3425926 L175,26.9759259 L155.782407,34.9351852 C157.253704,37.8194444 159.541667,39.2907407 162.75,39.2907407 C165.964815,39.2907407 168.194444,37.7092593 169.827778,35.3111111 L169.827778,35.3111111 Z M154.74537,30.1388889 L167.591667,24.8046296 C166.885185,23.0092593 164.759259,21.7583333 162.257407,21.7583333 C159.049074,21.7583333 154.583333,24.5907407 154.74537,30.1388889 L154.74537,30.1388889 Z" id="Shape" fill="#EA4335"></path>
                    <path d="M22.8731481,26.8398148 L22.8731481,20.7407407 L43.4259259,20.7407407 C43.6268519,21.8037037 43.7305556,23.0611111 43.7305556,24.4222222 C43.7305556,28.9981481 42.4796296,34.6564815 38.4481481,38.687963 C34.5268519,42.7712963 29.5166667,44.9490741 22.8796296,44.9490741 C10.5777778,44.9490741 0.233333333,34.9287037 0.233333333,22.6268519 C0.233333333,10.325 10.5777778,0.30462963 22.8796296,0.30462963 C29.6851852,0.30462963 34.5333333,2.975 38.1759259,6.45555556 L33.8722222,10.7592593 C31.2601852,8.30925926 27.7212963,6.4037037 22.8731481,6.4037037 C13.8898148,6.4037037 6.86388889,13.6435185 6.86388889,22.6268519 C6.86388889,31.6101852 13.8898148,38.85 22.8731481,38.85 C28.7,38.85 32.0185185,36.5101852 34.1444444,34.3842593 C35.8685185,32.6601852 37.0027778,30.1972222 37.45,26.8333333 L22.8731481,26.8398148 L22.8731481,26.8398148 Z" id="Shape" fill="#4285F4"></path>
                </g>
            </g>
        </g>
    </g>
</svg>