<?xml version="1.0" encoding="UTF-8" standalone="no"?>
<svg width="200px" height="200px" viewBox="0 0 200 200" version="1.1" xmlns="http://www.w3.org/2000/svg" xmlns:xlink="http://www.w3.org/1999/xlink">
    <!-- Generator: Sketch 3.7.2 (28276) - http://www.bohemiancoding.com/sketch -->
    <title>lightspeed</title>
    <desc>Created with Sketch.</desc>
    <defs>
        <polygon id="path-1" points="16.0586498 21.687558 16.0586498 0.177695148 0.194013713 0.177695148 0.194013713 21.687558 16.0586498 21.687558"></polygon>
        <polygon id="path-3" points="0 40.0369726 174.813924 40.0369726 174.813924 0 0 0"></polygon>
    </defs>
    <g id="Page-1" stroke="none" stroke-width="1" fill="none" fill-rule="evenodd">
        <g id="lightspeed">
            <g id="Page-1" transform="translate(13.000000, 78.000000)">
                <path d="M57.1576582,27.4955643 C55.0406751,27.4955643 53.3113502,25.6750475 53.3113502,23.1109652 C53.3113502,20.5468829 55.0406751,18.6684019 57.1576582,18.6684019 C59.2447363,18.6684019 60.9740612,20.5764188 60.9740612,23.1109652 C60.9740612,25.6451424 59.2447363,27.4955643 57.1576582,27.4955643 L57.1576582,27.4955643 Z M57.1270148,15.6568513 C53.0263291,15.6705116 49.7039135,18.5303217 49.7039135,23.1109652 C49.7039135,27.7026846 52.5659388,30.5048998 57.1576582,30.5048998 C58.9763291,30.5048998 60.8847152,31.4293724 60.8847152,33.4570095 C60.8847152,35.4842774 59.2447363,36.617347 57.1576582,36.617347 C55.0705802,36.617347 53.3113502,35.3650264 53.3113502,33.4570095 L49.7039135,33.4570095 C49.7039135,37.4221994 52.8941561,40.0161867 57.1576582,40.0161867 C61.4215295,40.0161867 64.522057,37.5119146 64.522057,33.4570095 C64.522057,31.5785285 63.9258017,29.8192985 61.4809705,28.5968829 C63.8958966,27.4937184 64.5807595,24.9281593 64.5807595,23.1094884 C64.5800211,18.5188766 61.2413608,15.6568513 57.1270148,15.6568513 L57.1270148,15.6568513 Z" id="Fill-1" fill="#010201"></path>
                <path d="M43.7078376,11.321134 C43.7078376,10.1504061 44.6566772,9.20156646 45.8274051,9.20156646 C46.9981329,9.20156646 47.9469726,10.1504061 47.9469726,11.321134 C47.9469726,12.4918618 46.9981329,13.4407015 45.8274051,13.4407015 C44.6566772,13.4407015 43.7078376,12.4918618 43.7078376,11.321134" id="Fill-3" fill="#010201"></path>
                <path d="M154.221593,21.9052004 C153.807722,20.16 152.066951,18.6621624 149.978766,18.6621624 C148.009831,18.6621624 146.219958,20.0075211 145.683513,21.9052004 L154.221593,21.9052004 Z M145.678713,24.6756646 C146.083354,26.4160654 147.684198,27.9375316 150.249757,27.9375316 C151.591793,27.9375316 153.352131,27.2851582 154.187257,26.4252954 L156.513945,28.7084177 C154.962943,30.31 152.427289,31.0838397 150.189947,31.0808861 C145.603397,31.0749789 142.277289,28.0412764 142.277289,23.3561498 C142.277289,18.9080485 145.708987,15.6819937 149.933724,15.6653797 C154.381456,15.6480274 158.07307,18.7035127 157.676551,24.6756646 L145.678713,24.6756646 Z" id="Fill-5" fill="#010201"></path>
                <path d="M137.455707,21.9052004 C137.041835,20.16 135.301065,18.6621624 133.21288,18.6621624 C131.243945,18.6621624 129.454072,20.0075211 128.917627,21.9052004 L137.455707,21.9052004 Z M128.912827,24.6756646 C129.317468,26.4160654 130.918312,27.9375316 133.483871,27.9375316 C134.825907,27.9375316 136.586245,27.2851582 137.421371,26.4252954 L139.748059,28.7084177 C138.197057,30.31 135.661403,31.0838397 133.424061,31.0808861 C128.837511,31.0749789 125.511403,28.0412764 125.511403,23.3561498 C125.511403,18.9080485 128.943101,15.6819937 133.167838,15.6653797 C137.61557,15.6480274 141.307184,18.7035127 140.910665,24.6756646 L128.912827,24.6756646 Z" id="Fill-7" fill="#010201"></path>
                <path d="M75.0917247,15.643154 C73.4307015,15.643154 71.8298576,16.1471097 70.5247416,17.8376688 L70.5247416,9.53292194 L66.9069673,9.53292194 L66.9069673,30.6953692 L70.5247416,30.6953692 L70.5247416,23.2227954 C70.5247416,21.0282806 72.0078112,19.2195781 74.1425158,19.2195781 C76.0701002,19.2195781 77.4638238,20.3463713 77.4638238,23.0149367 L77.4638238,30.6953692 L81.0815981,30.6953692 L81.0815981,22.7601899 C81.0815981,18.4601371 79.2429905,15.643154 75.0917247,15.643154" id="Fill-9" fill="#010201"></path>
                <path d="M116.404684,27.9459863 C113.943608,27.9459863 112.253418,25.6839082 112.253418,23.4007859 C112.253418,21.1172943 113.79519,18.6621255 116.404684,18.6621255 C119.014177,18.6621255 120.556319,21.1172943 120.556319,23.4007859 C120.556319,25.6839082 118.866129,27.9459863 116.404684,27.9459863 M116.671983,15.6609124 C115.01096,15.6609124 113.05384,16.3727268 111.927046,18.0038449 L111.80558,15.9987289 L108.309272,15.9987289 L108.309272,37.1707753 L111.927046,36.7823787 L111.927046,28.9753112 C112.964863,30.5768935 115.217711,31.0815876 116.759852,31.0815876 C121.444979,31.0815876 124.174093,27.5819568 124.174093,23.3118091 C124.174093,19.0117563 121.179156,15.6609124 116.671983,15.6609124" id="Fill-11" fill="#010201"></path>
                <g id="Group-15" transform="translate(158.755274, 9.393513)">
                    <mask id="mask-2" fill="white">
                        <use xlink:href="#path-1"></use>
                    </mask>
                    <g id="Clip-14"></g>
                    <path d="M7.963423,9.40248418 C10.4244989,9.40248418 12.1146888,11.6645622 12.1146888,13.9476846 C12.1146888,16.2311762 10.5729167,18.6863449 7.963423,18.6863449 C5.35392932,18.6863449 3.81178797,16.2311762 3.81178797,13.9476846 C3.81178797,11.6645622 5.50197785,9.40248418 7.963423,9.40248418 M7.69612342,21.687558 C9.35714662,21.687558 11.3142669,20.9757437 12.4410601,19.3446255 L12.5625264,21.302115 L16.0588344,21.302115 L16.0588344,0.177695148 L12.4410601,0.177695148 L12.4410601,8.37315928 C11.4032437,6.771577 9.11975211,6.29752637 7.57761076,6.29752637 C2.89248418,6.29752637 0.194013713,9.76651371 0.194013713,14.0366614 C0.194013713,18.3367141 3.18895042,21.687558 7.69612342,21.687558" id="Fill-13" fill="#010201" mask="url(#mask-2)"></path>
                </g>
                <path d="M89.8835443,28.2091508 C89.4261076,28.2091508 89.0871835,28.0655327 88.8671414,27.7771888 C88.64673,27.4895833 88.5367089,27.0236551 88.5367089,26.3797732 L88.5378165,19.1530854 L91.4493143,19.1530854 L91.7845464,16.0082542 L88.5677215,16.0082542 L88.5677215,11.9699631 L84.9145042,12.3594673 L84.9145042,16.0082542 L82.1595464,16.0082542 L82.1595464,19.1530854 L84.9145042,19.1530854 L84.9281646,26.4558281 C84.9281646,27.9640032 85.2837025,29.1074103 85.9955169,29.8864188 C86.706962,30.6661656 87.7573312,31.0637922 89.1466245,31.0807753 C89.7565401,31.0807753 90.3705169,30.9921677 90.9889241,30.8142141 C91.6073312,30.6358914 92.1618671,30.3781909 92.6536392,30.0388977 L91.4083333,27.7262395 C90.865981,28.0481804 90.3575949,28.2091508 89.8835443,28.2091508" id="Fill-16" fill="#010201"></path>
                <path d="M104.782505,22.8231751 C103.312358,21.9119937 101.566788,21.7920042 99.8850897,21.6882595 C98.8945306,21.6273418 97.3582964,21.3917932 97.3586656,20.1047679 C97.3586656,19.1854641 98.318212,18.6516034 100.057136,18.6516034 C101.466366,18.6516034 102.665891,18.9779747 103.715522,19.9567194 L105.754604,17.5842511 C104.045216,16.1011814 102.306292,15.6570359 99.9973259,15.6570359 C97.2984863,15.6570359 93.7604589,16.8429008 93.7604589,20.2232806 C93.7604589,21.6347257 94.5114082,22.925443 95.7076108,23.6667932 C97.0799209,24.5177954 98.8306593,24.64 100.3776,24.7987553 C101.408771,24.9047152 103.104868,25.1720148 102.830185,26.5993354 C102.635986,27.6061392 101.441999,27.8907911 100.567737,27.9299262 C99.6414188,27.9716456 98.7062395,27.9059283 97.806134,27.6740717 C96.8510179,27.4285549 96.054288,26.9563502 95.2387289,26.4151055 L93.4071361,28.7591456 C93.5064504,28.8425844 93.6179483,28.933038 93.6271783,28.9404219 C96.0048154,30.8846203 99.2921572,31.5266561 102.263834,30.8539768 C104.504499,30.3470675 106.443898,28.7144726 106.443898,26.2770253 C106.443898,24.9028692 105.972431,23.5608333 104.782505,22.8231751" id="Fill-18" fill="#010201"></path>
                <polygon id="Fill-20" fill="#010201" points="41.0542247 30.7168565 41.0542247 9.54739451 37.4659863 9.54850211 37.4659863 30.7168565"></polygon>
                <mask id="mask-4" fill="white">
                    <use xlink:href="#path-3"></use>
                </mask>
                <g id="Clip-23"></g>
                <polygon id="Fill-22" fill="#010201" mask="url(#mask-4)" points="44.0184072 30.6955169 47.6361814 30.6955169 47.6361814 16.0169304 44.0184072 16.0169304"></polygon>
                <path d="M13.4358281,-3.69198312e-05 L15.2928956,3.21604958 C15.6742774,3.87765295 15.6742774,4.69985759 15.2928956,5.36035338 L4.27121835,24.4512289 L9.47285338,33.4578217 C10.2880432,34.8700053 11.8010179,35.7472205 13.4332437,35.7472205 C15.0654694,35.7472205 16.5854589,34.8700053 17.4006487,33.4585601 L22.6019146,24.4512289 L21.1967458,22.0185812 L15.2940032,32.2438977 C14.9122521,32.9055011 14.1926846,33.314942 13.4354589,33.314942 C12.6782331,33.314942 11.9616192,32.9055011 11.5798681,32.2438977 L7.0822943,24.4504905 L17.3164715,6.72047996 L19.1731698,9.93656646 C19.5549209,10.5989082 19.5549209,11.4207437 19.1731698,12.0816086 L12.0317669,24.4512289 L13.4361973,26.8849842 L21.1967458,13.4417352 L26.2876213,22.2581909 C27.0677373,23.6113027 27.0677373,25.2922627 26.2876213,26.6438977 L21.1144146,35.6032331 C20.3217458,36.9762816 17.8732226,40.0369357 13.4288133,40.0369357 C8.98477321,40.0369357 6.55101793,36.9762816 5.75871835,35.6032331 L0.585511603,26.6453745 C-0.194973629,25.2911551 -0.194973629,23.6109335 0.585511603,22.2592985 L13.4358281,-3.69198312e-05" id="Fill-24" fill="#EC5153" mask="url(#mask-4)"></path>
            </g>
        </g>
    </g>
</svg>