<?xml version="1.0" encoding="UTF-8" standalone="no"?>
<svg width="200px" height="200px" viewBox="0 0 200 200" version="1.1" xmlns="http://www.w3.org/2000/svg" xmlns:xlink="http://www.w3.org/1999/xlink">
    <!-- Generator: Sketch 3.7.2 (28276) - http://www.bohemiancoding.com/sketch -->
    <title>lincoln</title>
    <desc>Created with Sketch.</desc>
    <defs></defs>
    <g id="Page-1" stroke="none" stroke-width="1" fill="none" fill-rule="evenodd">
        <g id="lincoln" fill="#000000">
            <g id="Group-2" transform="translate(13.000000, 55.000000)">
                <g id="Group" transform="translate(50.000000, 32.692308)">
                    <polygon id="Fill-2" points="1.62403846 1.88423077 5.56826923 1.88423077 5.56826923 16.2323077 14.5105769 16.2323077 14.5105769 19.8188462 1.62403846 19.8188462"></polygon>
                    <polygon id="Fill-3" points="18.5326923 19.8192308 22.4788462 19.8192308 22.4788462 1.88461538 18.5326923 1.88461538"></polygon>
                    <polygon id="Fill-4" points="28.2015385 1.88423077 31.84 1.88423077 40.2419231 12.9265385 40.2419231 1.88423077 44.1361538 1.88423077 44.1361538 19.8188462 40.7803846 19.8188462 32.0957692 8.41692308 32.0957692 19.8188462 28.2015385 19.8188462"></polygon>
                    <path d="M48.9090385,10.9025 L48.9090385,10.8505769 C48.9090385,5.75442308 52.7532692,1.5775 58.2609615,1.5775 C61.6417308,1.5775 63.6667308,2.70442308 65.3321154,4.34288462 L62.8225,7.23903846 C61.4378846,5.98326923 60.0282692,5.21403846 58.2359615,5.21403846 C55.2128846,5.21403846 53.0340385,7.7275 53.0340385,10.8005769 L53.0340385,10.8505769 C53.0340385,13.9255769 55.1609615,16.4871154 58.2359615,16.4871154 C60.2840385,16.4871154 61.5398077,15.6678846 62.9494231,14.3871154 L65.4590385,16.9236538 C63.6148077,18.8967308 61.5667308,20.1275 58.1071154,20.1275 C52.8282692,20.1275 48.9090385,16.0525 48.9090385,10.9025 L48.9090385,10.9025 Z" id="Fill-5"></path>
                    <path d="M83.2457692,10.9025 L83.2457692,10.8505769 C83.2457692,7.7775 80.9919231,5.21403846 77.8130769,5.21403846 C74.6361538,5.21403846 72.4342308,7.7275 72.4342308,10.8005769 L72.4342308,10.8505769 C72.4342308,13.9255769 74.6880769,16.4871154 77.865,16.4871154 C81.0419231,16.4871154 83.2457692,13.9775 83.2457692,10.9025 M68.3092308,10.9025 L68.3092308,10.8505769 C68.3092308,5.75442308 72.3323077,1.5775 77.865,1.5775 C83.3996154,1.5775 87.3707692,5.7025 87.3707692,10.8005769 L87.3707692,10.8505769 C87.3707692,15.9505769 83.3476923,20.1275 77.8130769,20.1275 C72.2803846,20.1275 68.3092308,16.0005769 68.3092308,10.9025" id="Fill-7"></path>
                    <polygon id="Fill-9" points="92.1034615 1.88423077 96.0476923 1.88423077 96.0476923 16.2323077 104.99 16.2323077 104.99 19.8188462 92.1034615 19.8188462"></polygon>
                    <polygon id="Fill-11" points="108.923846 1.88423077 112.560385 1.88423077 120.964231 12.9265385 120.964231 1.88423077 124.858462 1.88423077 124.858462 19.8188462 121.502692 19.8188462 112.816154 8.41692308 112.816154 19.8188462 108.923846 19.8188462"></polygon>
                </g>
                <path d="M19.7069231,78.1 C19.2569231,80.2576923 18.6953846,80.3115385 17.0473077,80.5230769 C16.7396154,80.5615385 16.4530769,80.5980769 16.1626923,80.6269231 L16.1607692,80.6307692 C15.9530769,80.6615385 15.8953846,80.7211538 15.8280769,81.1442308 C15.6992308,81.9730769 15.6242308,82.375 15.3646154,83.9307692 C15.3646154,83.9307692 15.3126923,84.5307692 14.6607692,84.6692308 C15.1703846,71.2480769 15.3838462,49.5788462 15.3838462,48.3346154 C15.3838462,45.6942308 15.6819231,44.8230769 19.2165385,44.6269231 C20.905,44.5288462 23.3838462,44.3307692 25.1511538,44.2057692 C25.0357692,44.6038462 24.9280769,44.7211538 24.7473077,44.7961538 C24.3819231,44.9480769 24.1242308,45.0211538 23.5453846,45.2365385 C23.2453846,45.3480769 23.0646154,45.4557692 23.0703846,45.7384615 L23.0703846,45.8730769 L23.0646154,45.8730769 C22.7838462,63.075 20.0396154,76.5038462 19.7069231,78.1 M10.53,83.9307692 C10.2703846,82.375 10.1973077,81.9730769 10.0684615,81.1442308 C10.0011538,80.7153846 9.93961538,80.6615385 9.72423077,80.6307692 L9.72423077,80.6269231 C9.43384615,80.5980769 9.14923077,80.5615385 8.83961538,80.5230769 C7.19346154,80.3115385 6.63,80.2576923 6.18576923,78.1 C5.85115385,76.5038462 3.105,63.075 2.82423077,45.8730769 L2.81846154,45.8730769 L2.81846154,45.7384615 C2.82423077,45.4557692 2.64538462,45.3480769 2.34730769,45.2365385 C1.76461538,45.0211538 1.505,44.9480769 1.14153846,44.7961538 C0.962692308,44.7211538 0.851153846,44.6038462 0.739615385,44.2173077 C2.51076923,44.3423077 5.01076923,44.5288462 6.68,44.6269231 C10.2126923,44.8230769 10.5088462,45.6942308 10.5088462,48.3346154 C10.5088462,49.575 10.7280769,71.2211538 11.2415385,84.675 C10.5838462,84.5346154 10.53,83.9307692 10.53,83.9307692 M6.18576923,7.72884615 C6.63,5.575 7.19346154,5.51346154 8.83961538,5.30961538 C9.14923077,5.26923077 9.43384615,5.23461538 9.72423077,5.20192308 C9.93961538,5.16923077 10.0011538,5.11346154 10.0684615,4.68461538 C10.1973077,3.85769231 10.2703846,3.45769231 10.53,1.9 C10.53,1.9 10.5838462,1.29807692 11.2396154,1.15961538 C10.7357692,14.7442308 10.5088462,36.3384615 10.5088462,37.4942308 C10.5088462,40.1365385 10.2126923,41.0038462 6.68,41.2038462 C4.90115385,41.3019231 2.305,41.5076923 0.737692308,41.6173077 C0.851153846,41.2230769 0.960769231,41.1096154 1.14153846,41.0326923 C1.505,40.8807692 1.76461538,40.8076923 2.34730769,40.5903846 C2.64538462,40.4788462 2.82423077,40.3711538 2.81846154,40.0923077 L2.81846154,39.9596154 L2.82423077,39.9538462 C3.105,22.75 5.85115385,9.32115385 6.18576923,7.72884615 M15.3646154,1.9 C15.6242308,3.45769231 15.6992308,3.85769231 15.8280769,4.68461538 C15.8953846,5.10769231 15.9530769,5.16923077 16.1607692,5.19615385 L16.1626923,5.20192308 C16.4530769,5.23461538 16.7396154,5.26923077 17.0473077,5.30961538 C18.6953846,5.51346154 19.2569231,5.575 19.7069231,7.72884615 C20.0396154,9.32115385 22.7838462,22.75 23.0646154,39.9538462 L23.0703846,39.9596154 L23.0703846,40.0923077 C23.0646154,40.3711538 23.2453846,40.4788462 23.5453846,40.5903846 C24.1242308,40.8076923 24.3819231,40.8807692 24.7473077,41.0326923 C24.9280769,41.1096154 25.0357692,41.225 25.1511538,41.6269231 C23.7396154,41.525 20.9838462,41.3019231 19.2165385,41.2038462 C15.6819231,41.0038462 15.3838462,40.1365385 15.3838462,37.4942308 C15.3838462,36.2653846 15.1703846,14.7230769 14.6588462,1.15961538 C15.3126923,1.29807692 15.3646154,1.9 15.3646154,1.9 M25.8876923,42.9115385 C25.8569231,41.1423077 25.8607692,41.2057692 25.8530769,40.55 C25.8530769,40.5480769 25.8511538,40.5480769 25.8511538,40.5442308 C25.6607692,23.7942308 23.5223077,9.94423077 22.4934615,3.71538462 C22.0703846,1.15961538 21.8780769,0.905769231 19.1530769,0.503846154 C17.7857692,0.301923077 16.5588462,0.161538462 15.3876923,0.075 L15.3876923,0.0788461538 L15.3876923,0.0807692308 C14.3338462,0.00576923077 12.9473077,0 12.9473077,0 C12.9473077,0 11.5530769,0.00576923077 10.5011538,0.0807692308 L10.5011538,0.0788461538 L10.5011538,0.075 C9.33,0.161538462 8.10307692,0.301923077 6.73384615,0.503846154 C4.01076923,0.905769231 3.81653846,1.15961538 3.39538462,3.71538462 C2.36653846,9.94423077 0.226153846,23.7942308 0.0396153846,40.5442308 C0.0396153846,40.5480769 0.0357692308,40.5480769 0.0357692308,40.55 C0.0280769231,41.2057692 0.0280769231,41.1423077 0.00115384615,42.9115385 C0.0280769231,44.6807692 0.0280769231,44.6230769 0.0357692308,45.2788462 L0.0396153846,45.2826923 C0.226153846,62.0346154 2.36653846,75.8826923 3.39538462,82.1153846 C3.81653846,84.6673077 4.01076923,84.9211538 6.73384615,85.325 C7.97038462,85.5057692 9.08576923,85.6384615 10.1511538,85.7211538 C10.1569231,85.7230769 10.1588462,85.7230769 10.1626923,85.7269231 C11.2261538,85.8230769 12.9473077,85.8288462 12.9473077,85.8288462 C12.9473077,85.8288462 14.6723077,85.8230769 15.7319231,85.7269231 C15.7376923,85.7230769 15.7415385,85.7211538 15.7473077,85.7211538 C16.8126923,85.6384615 17.9242308,85.5057692 19.1530769,85.325 C21.8780769,84.9211538 22.0703846,84.6673077 22.4934615,82.1153846 C23.5223077,75.8826923 25.6607692,62.0346154 25.8511538,45.2826923 L25.8530769,45.2788462 C25.8607692,44.6230769 25.8569231,44.6807692 25.8876923,42.9115385" id="Fill-48"></path>
            </g>
        </g>
    </g>
</svg>