<?xml version="1.0" encoding="UTF-8" standalone="no"?>
<svg width="200px" height="200px" viewBox="0 0 200 200" version="1.1" xmlns="http://www.w3.org/2000/svg" xmlns:xlink="http://www.w3.org/1999/xlink">
    <!-- Generator: Sketch 3.7.2 (28276) - http://www.bohemiancoding.com/sketch -->
    <title>mastercard</title>
    <desc>Created with Sketch.</desc>
    <defs></defs>
    <g id="Page-1" stroke="none" stroke-width="1" fill="none" fill-rule="evenodd">
        <g id="mastercard">
            <g transform="translate(13.000000, 44.000000)">
                <polyline id="Fill-2" fill="#F2AD3D" points="122.024335 104.295346 124.713564 104.224601 127.368351 104.031915 129.971011 103.69867 132.555053 103.240691 135.068351 102.660771 137.548138 101.957048 139.973936 101.131383 142.347606 100.199601 144.667287 99.1449468 146.918085 98.0018617 149.098138 96.7359043 151.225133 95.3824468 153.264628 93.9238032 155.233378 92.3767287 157.132314 90.7412234 158.942819 89.0014628 160.683511 87.1900266 162.318085 85.2910904 163.86516 83.3223404 165.324734 81.2837766 166.678191 79.1558511 167.944149 76.9757979 169.086303 74.7259309 170.141888 72.4053191 171.07367 70.0316489 171.899335 67.6058511 172.603059 65.1269947 173.182979 62.612766 173.640027 60.0287234 173.974202 57.4269947 174.167819 54.7722074 174.237633 52.0829787 174.167819 49.4105053 173.974202 46.7734043 173.640027 44.1716755 173.182979 41.6220745 172.603059 39.1078457 171.899335 36.6476064 171.07367 34.2208777 170.141888 31.8648936 169.086303 29.5619681 167.944149 27.3121011 166.678191 25.149734 165.324734 23.0227394 163.86516 20.9832447 162.318085 19.03125 160.683511 17.1332447 158.942819 15.3227394 157.132314 13.5988032 155.233378 11.9642287 153.264628 10.4171543 151.225133 8.95851064 149.098138 7.60412234 146.918085 6.35585106 144.667287 5.21369681 142.347606 4.15904255 139.973936 3.22726064 137.548138 2.40066489 135.068351 1.69787234 132.555053 1.11702128 129.971011 0.659973404 127.368351 0.325797872 124.713564 0.133111702 122.024335 0.0623670213 119.351862 0.133111702 116.698005 0.325797872 114.095346 0.659973404 111.528989 1.11702128 109.014761 1.69787234 106.535904 2.40066489 104.127793 3.22726064 101.754122 4.15904255 99.4511968 5.21369681 97.219016 6.35585106 95.0389628 7.60412234 92.9287234 8.95851064 90.8892287 10.4171543 88.9204787 11.9642287 87.0392287 13.5988032 85.2287234 15.3227394 83.5057181 17.1332447 81.8711436 19.03125 80.3240691 20.9832447 78.8821809 23.0227394 77.5287234 25.149734 76.2804521 27.3121011 75.1206117 29.5619681 74.0827128 31.8648936 73.1509309 34.2208777 72.3429521 36.6476064 71.6392287 39.1078457 71.0593085 41.6220745 70.6022606 44.1716755 70.2680851 46.7734043 70.0744681 49.4105053 70.0046543 52.0829787 70.0744681 54.7722074 70.2680851 57.4269947 70.6022606 60.0287234 71.0593085 62.612766 71.6392287 65.1269947 72.3429521 67.6058511 73.1509309 70.0316489 74.0827128 72.4053191 75.1206117 74.7259309 76.2804521 76.9757979 77.5287234 79.1558511 78.8821809 81.2837766 80.3240691 83.3223404 81.8711436 85.2910904 83.5057181 87.1900266 85.2287234 89.0014628 87.0392287 90.7412234 88.9204787 92.3767287 90.8892287 93.9238032 92.9287234 95.3824468 95.0389628 96.7359043 97.219016 98.0018617 99.4511968 99.1449468 101.754122 100.199601 104.127793 101.131383 106.535904 101.957048 109.014761 102.660771 111.528989 103.240691 114.095346 103.69867 116.698005 104.031915 119.351862 104.224601 122.024335 104.295346"></polyline>
                <polyline id="Fill-3" fill="#D82331" points="52.3007979 104.295346 54.9732713 104.224601 57.6280585 104.031915 60.2297872 103.69867 62.7961436 103.240691 65.3103723 102.660771 67.7892287 101.957048 70.1973404 101.131383 72.5710106 100.199601 74.8739362 99.1449468 77.1070479 98.0018617 79.2871011 96.7359043 81.3964096 95.3824468 83.4359043 93.9238032 85.4046543 92.3767287 87.2859043 90.7412234 89.0964096 89.0014628 90.8194149 87.1900266 92.4539894 85.2910904 94.0010638 83.3223404 95.4429521 81.2837766 96.7964096 79.1558511 98.0446809 76.9757979 99.2054521 74.7259309 100.24242 72.4053191 101.174202 70.0316489 101.983112 67.6058511 102.685904 65.1269947 103.265824 62.612766 103.722872 60.0287234 104.057048 57.4269947 104.250665 54.7722074 104.32141 52.0829787 104.250665 49.4105053 104.057048 46.7734043 103.722872 44.1716755 103.265824 41.6220745 102.685904 39.1078457 101.983112 36.6476064 101.174202 34.2208777 100.24242 31.8648936 99.2054521 29.5619681 98.0446809 27.3121011 96.7964096 25.149734 95.4429521 23.0227394 94.0010638 20.9832447 92.4539894 19.03125 90.8194149 17.1332447 89.0964096 15.3227394 87.2859043 13.5988032 85.4046543 11.9642287 83.4359043 10.4171543 81.3964096 8.95851064 79.2871011 7.60412234 77.1070479 6.35585106 74.8739362 5.21369681 72.5710106 4.15904255 70.1973404 3.22726064 67.7892287 2.40066489 65.3103723 1.69787234 62.7961436 1.11702128 60.2297872 0.659973404 57.6280585 0.325797872 54.9732713 0.133111702 52.3007979 0.0623670213 49.6115691 0.133111702 46.9567819 0.325797872 44.3550532 0.659973404 41.7700798 1.11702128 39.2567819 1.69787234 36.7779255 2.40066489 34.3521277 3.22726064 31.9784574 4.15904255 29.6578457 5.21369681 27.4070479 6.35585106 25.2279255 7.60412234 23.1 8.95851064 21.0605053 10.4171543 19.0917553 11.9642287 17.1928191 13.5988032 15.3823138 15.3227394 13.6416223 17.1332447 12.0070479 19.03125 10.4599734 20.9832447 9.00132979 23.0227394 7.64694149 25.149734 6.38098404 27.3121011 5.23882979 29.5619681 4.18417553 31.8648936 3.25239362 34.2208777 2.42579787 36.6476064 1.72300532 39.1078457 1.14215426 41.6220745 0.685106383 44.1716755 0.350930851 46.7734043 0.158244681 49.4105053 0.0875 52.0829787 0.158244681 54.7722074 0.350930851 57.4269947 0.685106383 60.0287234 1.14215426 62.612766 1.72300532 65.1269947 2.42579787 67.6058511 3.25239362 70.0316489 4.18417553 72.4053191 5.23882979 74.7259309 6.38098404 76.9757979 7.64694149 79.1558511 9.00132979 81.2837766 10.4599734 83.3223404 12.0070479 85.2910904 13.6416223 87.1900266 15.3823138 89.0014628 17.1928191 90.7412234 19.0917553 92.3767287 21.0605053 93.9238032 23.1 95.3824468 25.2279255 96.7359043 27.4070479 98.0018617 29.6578457 99.1449468 31.9784574 100.199601 34.3521277 101.131383 36.7779255 101.957048 39.2567819 102.660771 41.7700798 103.240691 44.3550532 103.69867 46.9567819 104.031915 49.6115691 104.224601 52.3007979 104.295346"></polyline>
                <polyline id="Fill-4" fill="#F2AD3D" points="81.062234 20.0514628 108.75133 20.0514628 108.75133 17.2207447 83.4535904 17.2207447 81.062234 20.0514628"></polyline>
                <polyline id="Fill-5" fill="#F2AD3D" points="76.9134309 26.3449468 108.75133 26.3449468 108.75133 23.5151596 78.5833777 23.5151596 76.9134309 26.3449468"></polyline>
                <polyline id="Fill-6" fill="#F2AD3D" points="73.8192819 32.6207447 108.75133 32.6207447 108.75133 29.7900266 75.049867 29.7900266 73.8192819 32.6207447"></polyline>
                <polyline id="Fill-7" fill="#F2AD3D" points="71.6922872 38.9142287 108.75133 38.9142287 108.75133 36.0844415 72.5710106 36.0844415 71.6922872 38.9142287"></polyline>
                <polyline id="Fill-8" fill="#F2AD3D" points="72.9228723 69.3288564 108.83883 69.3288564 108.83883 66.4981383 72.0441489 66.4981383 72.9228723 69.3288564"></polyline>
                <polyline id="Fill-9" fill="#F2AD3D" points="75.5776596 75.6223404 108.83883 75.6223404 108.83883 72.7916223 74.2586436 72.7916223 75.5776596 75.6223404"></polyline>
                <polyline id="Fill-10" fill="#F2AD3D" points="79.3047872 81.8990691 108.83883 81.8990691 108.83883 79.0683511 77.5287234 79.0683511 79.3047872 81.8990691"></polyline>
                <polyline id="Fill-11" fill="#F2AD3D" points="84.4375 88.1925532 108.83883 88.1925532 108.83883 85.3441489 81.9586436 85.3441489 84.4375 88.1925532"></polyline>
                <polyline id="Fill-12" fill="#F2AD3D" points="70.444016 45.1909574 108.75133 45.1909574 108.75133 42.3602394 70.9885638 42.3602394 70.444016 45.1909574"></polyline>
                <polyline id="Fill-13" fill="#F2AD3D" points="93.7906915 63.0521277 108.399468 63.0521277 108.399468 60.2223404 94.3175532 60.2223404 93.7906915 63.0521277"></polyline>
                <polyline id="Fill-14" fill="#F2AD3D" points="94.9505319 56.7763298 108.399468 56.7763298 108.399468 53.9279255 95.4783245 53.9279255 94.9505319 56.7763298"></polyline>
                <polyline id="Fill-15" fill="#F2AD3D" points="69.4768617 53.9279255 73.274734 53.9279255 73.274734 56.7763298 69.6527926 56.7763298 69.4768617 53.9279255"></polyline>
                <polyline id="Fill-16" fill="#FFFFFF" points="62.3921543 50.5005319 62.1464096 50.4828457 61.899734 50.4474734 61.6716755 50.4121011 61.4426862 50.3776596 61.2323138 50.3422872 61.0033245 50.3069149 60.7743351 50.2715426 60.5285904 50.2371011 60.2828457 50.2017287 60.0017287 50.1840426 59.6852394 50.1663564 59.3510638 50.1486702 58.981516 50.1486702 58.5775266 50.1663564 58.1204787 50.2017287 57.6103723 50.2371011 57.2585106 50.2892287 56.9243351 50.3422872 56.6255319 50.4474734 56.3621011 50.5526596 56.1154255 50.6755319 55.887367 50.8170213 55.7114362 50.9929521 55.5531915 51.150266 55.4480053 51.343883 55.3595745 51.5375 55.325133 51.7488032 55.325133 51.9591755 55.3772606 52.1881649 55.4480053 52.4162234 55.5885638 52.6452128 55.7644947 52.8732713 56.1154255 53.2074468 56.5380319 53.4718085 57.0304521 53.699867 57.5573138 53.893484 58.1204787 54.0694149 58.7003989 54.2621011 59.2803191 54.4734043 59.8425532 54.7023936 60.3703457 55.000266 60.862766 55.3698138 61.3021277 55.8091755 61.6716755 56.3546543 61.9527926 57.0220745 62.1287234 57.8132979 62.1985372 58.762766 62.1287234 59.8704787 62.0049202 60.6970745 61.7945479 61.4175532 61.5134309 62.0859043 61.1615691 62.6658245 60.7575798 63.1759309 60.2996011 63.6152926 59.8081117 64.0015957 59.262633 64.3357713 58.7003989 64.5992021 58.1204787 64.8281915 57.5219415 65.0041223 56.9075798 65.1446809 56.3090426 65.249867 55.7291223 65.3029255 55.1492021 65.3382979 54.6037234 65.3550532 53.8478723 65.3550532 53.1450798 65.3382979 52.5297872 65.3382979 51.949867 65.3196809 51.4220745 65.3029255 50.9473404 65.2675532 50.5256649 65.2321809 50.1207447 65.1800532 49.7521277 65.1446809 49.4179521 65.0739362 49.0837766 65.0218085 48.7849734 64.9333777 48.4861702 64.8635638 48.2050532 64.7574468 47.9230053 64.6522606 47.625133 64.5470745 48.4154255 60.6617021 48.5746011 60.6970745 48.7672872 60.7492021 49.0130319 60.8199468 49.312766 60.8897606 49.6292553 60.9605053 49.9801862 61.03125 50.3674202 61.11875 50.7890957 61.1894947 51.2284574 61.2593085 51.6855053 61.3300532 52.1602394 61.3821809 52.6526596 61.4352394 53.162766 61.4529255 53.6719415 61.4706117 54.1820479 61.4706117 54.6921543 61.4529255 55.2022606 61.3468085 55.60625 61.20625 55.9227394 61.0135638 56.168484 60.7668883 56.3444149 60.5211436 56.4849734 60.2400266 56.5734043 59.9589096 56.6432181 59.6945479 56.6785904 59.1844415 56.5203457 58.7450798 56.2215426 58.3941489 55.7821809 58.0953457 55.2543883 57.830984 54.6390957 57.5675532 53.9530585 57.3218085 53.2679521 57.0397606 52.5651596 56.7242021 51.8968085 56.3546543 51.281516 55.8976064 50.7192819 55.3521277 50.2789894 54.6847074 49.9625 53.893484 49.8042553 52.944016 49.8219415 51.818617 49.9103723 51.1335106 50.0332447 50.4828457 50.2091755 49.8852394 50.4195479 49.3220745 50.7015957 48.7952128 51.0180851 48.3381649 51.3867021 47.8988032 51.8269947 47.5115691 52.3361702 47.1773936 52.8984043 46.8962766 53.531383 46.6328457 54.2351064 46.4392287 55.0263298 46.280984 55.887367 46.1581117 56.8368351 46.087367 57.8738032 46.0696809 58.5244681 46.0696809 59.1220745 46.087367 59.6675532 46.1050532 60.1590426 46.1227394 60.5993351 46.1581117 61.0033245 46.193484 61.3551862 46.2279255 61.6716755 46.2632979 61.9704787 46.2986702 62.2162234 46.3517287 62.4452128 46.3871011 62.6555851 46.4215426 62.831516 46.4569149 62.9897606 46.4746011 63.1480053 46.5099734 63.2885638 46.5276596 62.3921543 50.5005319"></polyline>
                <polyline id="Stroke-17" stroke="#FFFFFF" stroke-width="0.216" points="62.3921543 50.5005319 62.3921543 50.5005319 62.1464096 50.4828457 61.899734 50.4474734 61.6716755 50.4121011 61.4426862 50.3776596 61.2323138 50.3422872 61.0033245 50.3069149 60.7743351 50.2715426 60.5285904 50.2371011 60.2828457 50.2017287 60.0017287 50.1840426 59.6852394 50.1663564 59.3510638 50.1486702 58.981516 50.1486702 58.5775266 50.1663564 58.1204787 50.2017287 57.6103723 50.2371011 57.2585106 50.2892287 56.9243351 50.3422872 56.6255319 50.4474734 56.3621011 50.5526596 56.1154255 50.6755319 55.887367 50.8170213 55.7114362 50.9929521 55.5531915 51.150266 55.4480053 51.343883 55.3595745 51.5375 55.325133 51.7488032 55.325133 51.9591755 55.3772606 52.1881649 55.4480053 52.4162234 55.5885638 52.6452128 55.7644947 52.8732713 56.1154255 53.2074468 56.5380319 53.4718085 57.0304521 53.699867 57.5573138 53.893484 58.1204787 54.0694149 58.7003989 54.2621011 59.2803191 54.4734043 59.8425532 54.7023936 60.3703457 55.000266 60.862766 55.3698138 61.3021277 55.8091755 61.6716755 56.3546543 61.9527926 57.0220745 62.1287234 57.8132979 62.1985372 58.762766 62.1287234 59.8704787 62.0049202 60.6970745 61.7945479 61.4175532 61.5134309 62.0859043 61.1615691 62.6658245 60.7575798 63.1759309 60.2996011 63.6152926 59.8081117 64.0015957 59.262633 64.3357713 58.7003989 64.5992021 58.1204787 64.8281915 57.5219415 65.0041223 56.9075798 65.1446809 56.3090426 65.249867 55.7291223 65.3029255 55.1492021 65.3382979 54.6037234 65.3550532 53.8478723 65.3550532 53.1450798 65.3382979 52.5297872 65.3382979 51.949867 65.3196809 51.4220745 65.3029255 50.9473404 65.2675532 50.5256649 65.2321809 50.1207447 65.1800532 49.7521277 65.1446809 49.4179521 65.0739362 49.0837766 65.0218085 48.7849734 64.9333777 48.4861702 64.8635638 48.2050532 64.7574468 47.9230053 64.6522606 47.625133 64.5470745 48.4154255 60.6617021 48.5746011 60.6970745 48.7672872 60.7492021 49.0130319 60.8199468 49.312766 60.8897606 49.6292553 60.9605053 49.9801862 61.03125 50.3674202 61.11875 50.7890957 61.1894947 51.2284574 61.2593085 51.6855053 61.3300532 52.1602394 61.3821809 52.6526596 61.4352394 53.162766 61.4529255 53.6719415 61.4706117 54.1820479 61.4706117 54.6921543 61.4529255 55.2022606 61.3468085 55.60625 61.20625 55.9227394 61.0135638 56.168484 60.7668883 56.3444149 60.5211436 56.4849734 60.2400266 56.5734043 59.9589096 56.6432181 59.6945479 56.6785904 59.1844415 56.5203457 58.7450798 56.2215426 58.3941489 55.7821809 58.0953457 55.2543883 57.830984 54.6390957 57.5675532 53.9530585 57.3218085 53.2679521 57.0397606 52.5651596 56.7242021 51.8968085 56.3546543 51.281516 55.8976064 50.7192819 55.3521277 50.2789894 54.6847074 49.9625 53.893484 49.8042553 52.944016 49.8219415 51.818617 49.9103723 51.1335106 50.0332447 50.4828457 50.2091755 49.8852394 50.4195479 49.3220745 50.7015957 48.7952128 51.0180851 48.3381649 51.3867021 47.8988032 51.8269947 47.5115691 52.3361702 47.1773936 52.8984043 46.8962766 53.531383 46.6328457 54.2351064 46.4392287 55.0263298 46.280984 55.887367 46.1581117 56.8368351 46.087367 57.8738032 46.0696809 58.5244681 46.0696809 59.1220745 46.087367 59.6675532 46.1050532 60.1590426 46.1227394 60.5993351 46.1581117 61.0033245 46.193484 61.3551862 46.2279255 61.6716755 46.2632979 61.9704787 46.2986702 62.2162234 46.3517287 62.4452128 46.3871011 62.6555851 46.4215426 62.831516 46.4569149 62.9897606 46.4746011 63.1480053 46.5099734 63.2885638 46.5276596 62.3921543 50.5005319"></polyline>
                <polyline id="Fill-18" fill="#FFFFFF" points="66.5586436 42.1852394 71.4288564 42.1852394 70.7074468 46.4392287 73.6433511 46.4392287 73.0103723 50.4121011 69.9162234 50.3246011 68.2285904 60.1339096 68.2109043 60.4857713 68.2993351 60.7845745 68.475266 61.0135638 68.7033245 61.20625 69.0198138 61.3300532 69.3716755 61.4352394 69.7579787 61.5050532 70.1796543 61.5404255 70.5668883 61.5227394 70.91875 61.487367 71.2352394 61.4352394 71.5163564 61.3644947 71.7444149 61.2946809 71.9026596 61.2416223 72.0087766 61.20625 72.0441489 61.1894947 71.4288564 64.4586436 71.3050532 64.5470745 71.0593085 64.687633 70.9364362 64.7574468 70.812633 64.8105053 70.6730053 64.8635638 70.5138298 64.9166223 70.356516 64.96875 70.1796543 65.0218085 70.0046543 65.0571809 69.7933511 65.0916223 69.5829787 65.1269947 69.3539894 65.162367 69.0905585 65.1977394 68.8094415 65.2321809 68.5097074 65.2675532 67.1739362 65.2675532 66.4711436 65.2144947 65.8549202 65.1446809 65.2926862 65.0394947 64.8179521 64.9166223 64.4139628 64.7574468 64.0797872 64.5824468 63.780984 64.3711436 63.5519947 64.1421543 63.3769947 63.8964096 63.2531915 63.5976064 63.1656915 63.2988032 63.112633 62.9646277 63.0949468 62.5950798 63.0949468 62.2087766 63.1480053 61.8047872 63.2010638 61.3644947 66.5586436 42.1852394"></polyline>
                <polyline id="Stroke-19" stroke="#FFFFFF" stroke-width="0.216" points="66.5586436 42.1852394 71.4288564 42.1852394 70.7074468 46.4392287 73.6433511 46.4392287 73.0103723 50.4121011 69.9162234 50.3246011 68.2285904 60.1339096 68.2109043 60.4857713 68.2993351 60.7845745 68.475266 61.0135638 68.7033245 61.20625 69.0198138 61.3300532 69.3716755 61.4352394 69.7579787 61.5050532 70.1796543 61.5404255 70.5668883 61.5227394 70.91875 61.487367 71.2352394 61.4352394 71.5163564 61.3644947 71.7444149 61.2946809 71.9026596 61.2416223 72.0087766 61.20625 72.0441489 61.1894947 71.4288564 64.4586436 71.3050532 64.5470745 71.0593085 64.687633 70.9364362 64.7574468 70.812633 64.8105053 70.6730053 64.8635638 70.5138298 64.9166223 70.356516 64.96875 70.1796543 65.0218085 70.0046543 65.0571809 69.7933511 65.0916223 69.5829787 65.1269947 69.3539894 65.162367 69.0905585 65.1977394 68.8094415 65.2321809 68.5097074 65.2675532 67.1739362 65.2675532 66.4711436 65.2144947 65.8549202 65.1446809 65.2926862 65.0394947 64.8179521 64.9166223 64.4139628 64.7574468 64.0797872 64.5824468 63.780984 64.3711436 63.5519947 64.1421543 63.3769947 63.8964096 63.2531915 63.5976064 63.1656915 63.2988032 63.112633 62.9646277 63.0949468 62.5950798 63.0949468 62.2087766 63.1480053 61.8047872 63.2010638 61.3644947 66.5586436 42.1852394"></polyline>
                <polyline id="Fill-20" fill="#FFFFFF" points="77.5287234 57.0397606 77.4756649 57.3394947 77.4589096 57.6550532 77.4933511 57.9892287 77.5640957 58.3234043 77.6869681 58.6575798 77.8275266 58.9740691 78.0211436 59.3082447 78.231516 59.6070479 78.4781915 59.9058511 78.7416223 60.1692819 79.0236702 60.4327128 79.3392287 60.644016 79.6557181 60.837633 80.0075798 60.9958777 80.3594415 61.11875 80.7113032 61.1894947 81.1674202 61.2593085 81.6077128 61.312367 82.0647606 61.3644947 82.5218085 61.399867 82.9788564 61.4175532 83.4535904 61.4175532 83.9106383 61.399867 84.3853723 61.3644947 84.8601064 61.2946809 85.3339096 61.20625 85.8263298 61.1010638 86.3010638 60.9428191 86.793484 60.7492021 87.3035904 60.5388298 87.7960106 60.2577128 88.3051862 59.9589096 87.6023936 64.2827128 87.0392287 64.5647606 86.7581117 64.6699468 86.4946809 64.775133 86.23125 64.8635638 85.9492021 64.9510638 85.669016 65.0218085 85.3692819 65.0739362 85.0527926 65.1269947 84.7018617 65.162367 84.3323138 65.1977394 83.9273936 65.2321809 83.4712766 65.249867 82.9965426 65.249867 82.4510638 65.2675532 81.8711436 65.2675532 81.0091755 65.249867 80.1304521 65.162367 79.2517287 65.0394947 78.3720745 64.8281915 77.5110372 64.5647606 76.6844415 64.2305851 75.8941489 63.7912234 75.1550532 63.281117 74.4699468 62.6835106 73.8723404 61.9621011 73.362234 61.1541223 72.9405585 60.2223404 72.6417553 59.1844415 72.4481383 58.0069149 72.3950798 56.706516 72.4835106 55.2646277 72.5533245 54.7023936 72.6594415 54.0517287 72.8 53.3656915 72.9926862 52.6275266 73.2570479 51.8716755 73.5735372 51.1158245 73.9775266 50.3422872 74.4699468 49.6041223 75.0321809 48.9003989 75.7182181 48.2320479 76.4917553 47.6344415 77.3704787 47.1075798 78.3897606 46.6682181 79.5328457 46.3517287 80.7988032 46.1404255 82.2230053 46.0696809 82.9081117 46.087367 83.6295213 46.1581117 84.35 46.280984 85.0704787 46.4569149 85.7742021 46.7203457 86.4593085 47.0368351 87.0922872 47.4585106 87.6722074 47.9509309 88.2 48.5485372 88.6393617 49.2522606 88.9912234 50.0611702 89.2369681 50.9929521 89.3775266 52.0476064 89.3952128 53.2428191 89.2723404 54.5785904 89.0089096 56.0558511 88.9204787 57.1281915 76.1045213 57.1281915 76.9134309 53.6644947 84.6134309 53.6644947 84.6488032 53.225133 84.631117 52.8034574 84.5957447 52.4162234 84.5259309 52.0652926 84.4021277 51.731117 84.2792553 51.4323138 84.1042553 51.1679521 83.9273936 50.9222074 83.7170213 50.7109043 83.4889628 50.5349734 83.2246011 50.3776596 82.9611702 50.2371011 82.6800532 50.130984 82.3989362 50.0611702 82.0992021 50.0081117 81.7836436 49.9727394 81.4494681 49.9904255 81.1329787 50.043484 80.8341755 50.1132979 80.5344415 50.2194149 80.2365691 50.3599734 79.9722074 50.5182181 79.7087766 50.7109043 79.4797872 50.9222074 79.2517287 51.1679521 79.0404255 51.4323138 78.8468085 51.7134309 78.6894947 52.012234 78.53125 52.3287234 78.4074468 52.6805851 78.3022606 53.031516 78.231516 53.4010638 77.5287234 57.0397606"></polyline>
                <polyline id="Stroke-21" stroke="#FFFFFF" stroke-width="0.216" points="77.5287234 57.0397606 77.5287234 57.0397606 77.4756649 57.3394947 77.4589096 57.6550532 77.4933511 57.9892287 77.5640957 58.3234043 77.6869681 58.6575798 77.8275266 58.9740691 78.0211436 59.3082447 78.231516 59.6070479 78.4781915 59.9058511 78.7416223 60.1692819 79.0236702 60.4327128 79.3392287 60.644016 79.6557181 60.837633 80.0075798 60.9958777 80.3594415 61.11875 80.7113032 61.1894947 81.1674202 61.2593085 81.6077128 61.312367 82.0647606 61.3644947 82.5218085 61.399867 82.9788564 61.4175532 83.4535904 61.4175532 83.9106383 61.399867 84.3853723 61.3644947 84.8601064 61.2946809 85.3339096 61.20625 85.8263298 61.1010638 86.3010638 60.9428191 86.793484 60.7492021 87.3035904 60.5388298 87.7960106 60.2577128 88.3051862 59.9589096 87.6023936 64.2827128 87.0392287 64.5647606 86.7581117 64.6699468 86.4946809 64.775133 86.23125 64.8635638 85.9492021 64.9510638 85.669016 65.0218085 85.3692819 65.0739362 85.0527926 65.1269947 84.7018617 65.162367 84.3323138 65.1977394 83.9273936 65.2321809 83.4712766 65.249867 82.9965426 65.249867 82.4510638 65.2675532 81.8711436 65.2675532 81.0091755 65.249867 80.1304521 65.162367 79.2517287 65.0394947 78.3720745 64.8281915 77.5110372 64.5647606 76.6844415 64.2305851 75.8941489 63.7912234 75.1550532 63.281117 74.4699468 62.6835106 73.8723404 61.9621011 73.362234 61.1541223 72.9405585 60.2223404 72.6417553 59.1844415 72.4481383 58.0069149 72.3950798 56.706516 72.4835106 55.2646277 72.5533245 54.7023936 72.6594415 54.0517287 72.8 53.3656915 72.9926862 52.6275266 73.2570479 51.8716755 73.5735372 51.1158245 73.9775266 50.3422872 74.4699468 49.6041223 75.0321809 48.9003989 75.7182181 48.2320479 76.4917553 47.6344415 77.3704787 47.1075798 78.3897606 46.6682181 79.5328457 46.3517287 80.7988032 46.1404255 82.2230053 46.0696809 82.9081117 46.087367 83.6295213 46.1581117 84.35 46.280984 85.0704787 46.4569149 85.7742021 46.7203457 86.4593085 47.0368351 87.0922872 47.4585106 87.6722074 47.9509309 88.2 48.5485372 88.6393617 49.2522606 88.9912234 50.0611702 89.2369681 50.9929521 89.3775266 52.0476064 89.3952128 53.2428191 89.2723404 54.5785904 89.0089096 56.0558511 88.9204787 57.1281915 76.1045213 57.1281915 76.9134309 53.6644947 84.6134309 53.6644947 84.6488032 53.225133 84.631117 52.8034574 84.5957447 52.4162234 84.5259309 52.0652926 84.4021277 51.731117 84.2792553 51.4323138 84.1042553 51.1679521 83.9273936 50.9222074 83.7170213 50.7109043 83.4889628 50.5349734 83.2246011 50.3776596 82.9611702 50.2371011 82.6800532 50.130984 82.3989362 50.0611702 82.0992021 50.0081117 81.7836436 49.9727394 81.4494681 49.9904255 81.1329787 50.043484 80.8341755 50.1132979 80.5344415 50.2194149 80.2365691 50.3599734 79.9722074 50.5182181 79.7087766 50.7109043 79.4797872 50.9222074 79.2517287 51.1679521 79.0404255 51.4323138 78.8468085 51.7134309 78.6894947 52.012234 78.53125 52.3287234 78.4074468 52.6805851 78.3022606 53.031516 78.231516 53.4010638 77.5287234 57.0397606"></polyline>
                <polyline id="Fill-22" fill="#FFFFFF" points="119.457979 47.493883 119.228989 47.3710106 119.000931 47.2658245 118.754255 47.1429521 118.490824 47.0191489 118.227394 46.9139628 117.92859 46.8087766 117.628856 46.7026596 117.313298 46.5974734 116.979122 46.5099734 116.644947 46.4392287 116.275399 46.3694149 115.906782 46.3163564 115.501862 46.280984 115.097872 46.2456117 113.796543 46.2456117 113.339495 46.280984 112.864761 46.3340426 112.373271 46.4215426 111.880851 46.5621011 111.388431 46.7557181 110.896011 47.0023936 110.40359 47.3179521 109.928856 47.7051862 109.471809 48.162234 109.032447 48.7244681 108.610771 49.375133 108.223537 50.1486702 107.85492 51.0273936 107.520745 52.012234 107.239628 53.137633 107.133511 53.7696809 107.063697 54.3849734 107.028324 55.000266 107.046011 55.5988032 107.099069 56.1964096 107.221941 56.7586436 107.380186 57.2864362 107.573803 57.8132979 107.837234 58.2880319 108.153723 58.7450798 108.52234 59.15 108.944947 59.518617 109.41875 59.8351064 109.964229 60.0994681 110.561835 60.3275266 111.230186 60.4857713 111.458245 60.5388298 111.722606 60.5918883 112.039096 60.6263298 112.390027 60.6617021 112.777261 60.6970745 113.620612 60.6970745 114.060904 60.6617021 114.517952 60.6086436 114.975 60.5211436 115.414362 60.3982713 115.853723 60.2577128 116.293085 60.0640957 116.698005 59.8351064 117.066622 59.5539894 117.418484 59.2375 116.627261 63.9317819 116.521144 64.0192819 116.415957 64.1244681 116.275399 64.2482713 116.117154 64.3534574 115.923537 64.494016 115.677793 64.6168883 115.396676 64.7397606 115.080186 64.8458777 114.676197 64.96875 114.218218 65.0571809 113.691356 65.1269947 113.076064 65.1977394 112.390027 65.2321809 111.598803 65.249867 110.702394 65.2321809 109.718484 65.1800532 108.909574 65.0916223 108.100665 64.9166223 107.291755 64.6522606 106.483777 64.3003989 105.710239 63.8787234 104.971144 63.3518617 104.268351 62.7365691 103.617686 62.0328457 103.037766 61.2416223 102.545346 60.3628989 102.12367 59.3780585 101.807181 58.3057181 101.595878 57.1281915 101.526064 55.8799202 101.560505 54.5087766 101.754122 53.0492021 101.894681 52.3287234 102.052926 51.625 102.228856 50.9398936 102.404787 50.2892287 102.598404 49.6739362 102.826463 49.0586436 103.055452 48.4787234 103.301197 47.9332447 103.565559 47.3886968 103.828989 46.8785904 104.127793 46.3871011 104.444282 45.9291223 104.760771 45.4897606 105.111702 45.0680851 105.463564 44.6808511 105.833112 44.312234 106.237101 43.9603723 106.64109 43.6261968 107.063697 43.3273936 107.503059 43.0462766 107.977793 42.7828457 108.452527 42.5538564 108.944947 42.343484 109.454122 42.149867 109.999601 41.9739362 110.544149 41.8333777 111.107314 41.7105053 111.70492 41.6043883 112.302527 41.5168883 112.935505 41.4461436 113.568484 41.4107713 114.235904 41.394016 114.799069 41.4107713 115.343617 41.4461436 115.87141 41.4992021 116.398271 41.5699468 116.890691 41.6397606 117.365426 41.7449468 117.822473 41.8333777 118.24508 41.9385638 118.649069 42.0446809 119.000931 42.149867 119.334176 42.2550532 119.616223 42.3602394 119.861968 42.4486702 120.073271 42.5194149 120.231516 42.5892287 120.336702 42.6246011 119.457979 47.493883"></polyline>
                <polyline id="Stroke-23" stroke="#FFFFFF" stroke-width="0.216" points="119.457979 47.493883 119.457979 47.493883 119.228989 47.3710106 119.000931 47.2658245 118.754255 47.1429521 118.490824 47.0191489 118.227394 46.9139628 117.92859 46.8087766 117.628856 46.7026596 117.313298 46.5974734 116.979122 46.5099734 116.644947 46.4392287 116.275399 46.3694149 115.906782 46.3163564 115.501862 46.280984 115.097872 46.2456117 113.796543 46.2456117 113.339495 46.280984 112.864761 46.3340426 112.373271 46.4215426 111.880851 46.5621011 111.388431 46.7557181 110.896011 47.0023936 110.40359 47.3179521 109.928856 47.7051862 109.471809 48.162234 109.032447 48.7244681 108.610771 49.375133 108.223537 50.1486702 107.85492 51.0273936 107.520745 52.012234 107.239628 53.137633 107.133511 53.7696809 107.063697 54.3849734 107.028324 55.000266 107.046011 55.5988032 107.099069 56.1964096 107.221941 56.7586436 107.380186 57.2864362 107.573803 57.8132979 107.837234 58.2880319 108.153723 58.7450798 108.52234 59.15 108.944947 59.518617 109.41875 59.8351064 109.964229 60.0994681 110.561835 60.3275266 111.230186 60.4857713 111.458245 60.5388298 111.722606 60.5918883 112.039096 60.6263298 112.390027 60.6617021 112.777261 60.6970745 113.620612 60.6970745 114.060904 60.6617021 114.517952 60.6086436 114.975 60.5211436 115.414362 60.3982713 115.853723 60.2577128 116.293085 60.0640957 116.698005 59.8351064 117.066622 59.5539894 117.418484 59.2375 116.627261 63.9317819 116.521144 64.0192819 116.415957 64.1244681 116.275399 64.2482713 116.117154 64.3534574 115.923537 64.494016 115.677793 64.6168883 115.396676 64.7397606 115.080186 64.8458777 114.676197 64.96875 114.218218 65.0571809 113.691356 65.1269947 113.076064 65.1977394 112.390027 65.2321809 111.598803 65.249867 110.702394 65.2321809 109.718484 65.1800532 108.909574 65.0916223 108.100665 64.9166223 107.291755 64.6522606 106.483777 64.3003989 105.710239 63.8787234 104.971144 63.3518617 104.268351 62.7365691 103.617686 62.0328457 103.037766 61.2416223 102.545346 60.3628989 102.12367 59.3780585 101.807181 58.3057181 101.595878 57.1281915 101.526064 55.8799202 101.560505 54.5087766 101.754122 53.0492021 101.894681 52.3287234 102.052926 51.625 102.228856 50.9398936 102.404787 50.2892287 102.598404 49.6739362 102.826463 49.0586436 103.055452 48.4787234 103.301197 47.9332447 103.565559 47.3886968 103.828989 46.8785904 104.127793 46.3871011 104.444282 45.9291223 104.760771 45.4897606 105.111702 45.0680851 105.463564 44.6808511 105.833112 44.312234 106.237101 43.9603723 106.64109 43.6261968 107.063697 43.3273936 107.503059 43.0462766 107.977793 42.7828457 108.452527 42.5538564 108.944947 42.343484 109.454122 42.149867 109.999601 41.9739362 110.544149 41.8333777 111.107314 41.7105053 111.70492 41.6043883 112.302527 41.5168883 112.935505 41.4461436 113.568484 41.4107713 114.235904 41.394016 114.799069 41.4107713 115.343617 41.4461436 115.87141 41.4992021 116.398271 41.5699468 116.890691 41.6397606 117.365426 41.7449468 117.822473 41.8333777 118.24508 41.9385638 118.649069 42.0446809 119.000931 42.149867 119.334176 42.2550532 119.616223 42.3602394 119.861968 42.4486702 120.073271 42.5194149 120.231516 42.5892287 120.336702 42.6246011 119.457979 47.493883"></polyline>
                <polyline id="Fill-24" fill="#FFFFFF" points="162.739761 65.2675532 157.870479 65.2675532 158.22234 63.3164894 158.22234 63.1405585 157.940293 63.4914894 157.64242 63.8089096 157.342686 64.0900266 157.027128 64.3357713 156.709707 64.5647606 156.394149 64.7574468 156.07766 64.9166223 155.743484 65.0739362 155.409309 65.1977394 155.075133 65.2852394 154.740957 65.3727394 154.390027 65.4257979 154.038165 65.4788564 153.703989 65.5132979 153.352128 65.5319149 153.000266 65.5319149 152.087101 65.4611702 151.242819 65.2675532 150.469282 64.96875 149.765559 64.5647606 149.13258 64.0546543 148.570346 63.4570479 148.077926 62.806383 147.65625 62.0682181 147.304388 61.2769947 147.023271 60.4503989 146.829654 59.5893617 146.689096 58.6929521 146.636968 57.7965426 146.654654 56.881516 146.742154 55.9851064 146.900399 55.0886968 147.16383 54.0517287 147.480319 53.0668883 147.849867 52.1704787 148.289229 51.3271277 148.746277 50.5349734 149.274069 49.8321809 149.818617 49.1992021 150.398537 48.6192819 151.014761 48.1091755 151.664495 47.6698138 152.332846 47.2835106 153.000266 46.9847074 153.703989 46.7380319 154.406782 46.5797872 155.110505 46.4746011 155.830984 46.4392287 156.34109 46.4569149 156.833511 46.5099734 157.290559 46.5974734 157.712234 46.7203457 158.117154 46.8609043 158.468085 47.0191489 158.819947 47.212766 159.136436 47.406383 159.417553 47.6167553 159.680984 47.8457447 159.909973 48.074734 160.120346 48.3027926 160.296277 48.5308511 160.454521 48.7598404 160.59508 48.9711436 160.701197 49.181516 161.931782 42.2727394 166.713564 42.2727394 162.739761 65.2675532"></polyline>
                <polyline id="Stroke-25" stroke="#FFFFFF" stroke-width="0.216" points="162.739761 65.2675532 157.870479 65.2675532 158.22234 63.3164894 158.22234 63.1405585 157.940293 63.4914894 157.64242 63.8089096 157.342686 64.0900266 157.027128 64.3357713 156.709707 64.5647606 156.394149 64.7574468 156.07766 64.9166223 155.743484 65.0739362 155.409309 65.1977394 155.075133 65.2852394 154.740957 65.3727394 154.390027 65.4257979 154.038165 65.4788564 153.703989 65.5132979 153.352128 65.5319149 153.000266 65.5319149 152.087101 65.4611702 151.242819 65.2675532 150.469282 64.96875 149.765559 64.5647606 149.13258 64.0546543 148.570346 63.4570479 148.077926 62.806383 147.65625 62.0682181 147.304388 61.2769947 147.023271 60.4503989 146.829654 59.5893617 146.689096 58.6929521 146.636968 57.7965426 146.654654 56.881516 146.742154 55.9851064 146.900399 55.0886968 147.16383 54.0517287 147.480319 53.0668883 147.849867 52.1704787 148.289229 51.3271277 148.746277 50.5349734 149.274069 49.8321809 149.818617 49.1992021 150.398537 48.6192819 151.014761 48.1091755 151.664495 47.6698138 152.332846 47.2835106 153.000266 46.9847074 153.703989 46.7380319 154.406782 46.5797872 155.110505 46.4746011 155.830984 46.4392287 156.34109 46.4569149 156.833511 46.5099734 157.290559 46.5974734 157.712234 46.7203457 158.117154 46.8609043 158.468085 47.0191489 158.819947 47.212766 159.136436 47.406383 159.417553 47.6167553 159.680984 47.8457447 159.909973 48.074734 160.120346 48.3027926 160.296277 48.5308511 160.454521 48.7598404 160.59508 48.9711436 160.701197 49.181516 161.931782 42.2727394 166.713564 42.2727394 162.739761 65.2675532"></polyline>
                <polyline id="Fill-26" fill="#F2AD3D" points="154.77633 61.0135638 155.26875 60.9781915 155.725798 60.8730053 156.147473 60.7492021 156.552394 60.556516 156.921011 60.3452128 157.272872 60.0817819 157.607048 59.7829787 157.905851 59.4664894 158.169282 59.1146277 158.415027 58.7273936 158.644016 58.3234043 158.837633 57.9017287 159.013564 57.462367 159.154122 57.0053191 159.276995 56.5305851 159.364495 56.0558511 159.452926 55.5634309 159.505053 55.0533245 159.505053 54.5785904 159.487367 54.0871011 159.435239 53.6291223 159.364495 53.1897606 159.241622 52.7680851 159.101064 52.3640957 158.925133 52.012234 158.714761 51.6780585 158.485771 51.3969415 158.22234 51.150266 157.923537 50.9398936 157.607048 50.7993351 157.272872 50.7109043 156.903324 50.6755319 156.42859 50.7109043 155.99016 50.7816489 155.585239 50.9222074 155.180319 51.0981383 154.829388 51.3271277 154.477527 51.6082447 154.178723 51.9070479 153.87992 52.2402926 153.615559 52.6275266 153.369814 53.031516 153.141755 53.4541223 152.948138 53.9111702 152.772207 54.3849734 152.631649 54.8597074 152.49109 55.3698138 152.385904 55.8799202 152.297473 56.6534574 152.332846 57.4968085 152.455718 58.3587766 152.684707 59.1844415 153.035638 59.9058511 153.492686 60.4857713 154.073537 60.8730053 154.77633 61.0135638"></polyline>
                <polyline id="Fill-27" fill="#FFFFFF" points="46.8162234 61.3644947 46.1125 65.2675532 41.6825798 65.2675532 41.8054521 64.5470745 41.893883 63.8964096 41.9636968 63.4039894 42.0344415 63.1405585 41.787766 63.4216755 41.5066489 63.7027926 41.1734043 63.9671543 40.8038564 64.2128989 40.38125 64.4586436 39.9418883 64.6699468 39.4848404 64.88125 39.0101064 65.0571809 38.5009309 65.2144947 37.9908245 65.3382979 37.4807181 65.443484 36.9538564 65.5132979 36.44375 65.5486702 35.9336436 65.5663564 35.4412234 65.5132979 34.9674202 65.443484 34.3521277 65.2852394 33.7889628 65.1093085 33.2965426 64.88125 32.8571809 64.6168883 32.4708777 64.3357713 32.119016 64.0192819 31.8378989 63.6851064 31.5912234 63.3341755 31.3808511 62.9646277 31.2049202 62.5773936 31.0643617 62.1910904 30.9582447 61.8047872 30.8884309 61.399867 30.8353723 60.9958777 30.8 60.6086436 30.8 60.2223404 30.8530585 59.5363032 30.9582447 58.8856383 31.1341755 58.2703457 31.3631649 57.6727394 31.6442819 57.1105053 31.9607713 56.6003989 32.3303191 56.1079787 32.7519947 55.668617 33.1913564 55.2646277 33.6837766 54.8950798 34.1929521 54.5618351 34.7207447 54.2797872 35.2829787 54.0340426 35.8638298 53.8404255 36.4614362 53.6821809 37.0767287 53.5769947 37.1121011 53.5769947 37.1996011 53.5593085 37.3234043 53.5416223 37.5160904 53.5239362 37.7273936 53.4885638 37.9731383 53.4718085 38.2365691 53.4364362 38.5353723 53.4010638 38.8351064 53.3656915 39.1329787 53.3303191 39.4503989 53.312633 39.731516 53.2781915 40.012633 53.2605053 40.2760638 53.2428191 40.5227394 53.225133 41.1203457 53.225133 41.5420213 53.2428191 41.9283245 53.2605053 42.3155585 53.2605053 42.6320479 53.2781915 42.8777926 53.2958777 43.0537234 53.312633 43.1067819 53.312633 43.1421543 53.1897606 43.2473404 52.8732713 43.3348404 52.5046543 43.3702128 52.1704787 43.3003989 51.7841755 43.1421543 51.4323138 42.9308511 51.1158245 42.649734 50.8523936 42.3155585 50.6234043 41.9460106 50.4651596 41.5243351 50.3599734 41.0672872 50.3246011 40.574867 50.3069149 40.0480053 50.2892287 39.5025266 50.2892287 38.9402926 50.3069149 38.3603723 50.3422872 37.7972074 50.3944149 37.2349734 50.4474734 36.6894947 50.5182181 36.162633 50.5880319 35.6525266 50.6755319 35.1954787 50.7639628 34.7738032 50.8523936 34.3865691 50.9575798 34.0700798 51.062766 33.8243351 51.1856383 33.6307181 51.2917553 34.8789894 47.0545213 35.2652926 46.8962766 35.6525266 46.7557181 36.0742021 46.6328457 36.918484 46.4569149 37.3755319 46.3871011 37.8325798 46.3163564 38.3073138 46.280984 38.799734 46.2456117 39.3089096 46.2279255 39.8367021 46.2102394 41.5243351 46.2102394 42.1396277 46.2279255 42.7549202 46.2456117 43.2473404 46.280984 43.775133 46.3694149 44.3196809 46.4922872 44.8819149 46.6505319 45.4273936 46.8609043 45.9542553 47.1075798 46.4820479 47.406383 46.9744681 47.7405585 47.4138298 48.1268617 47.800133 48.5485372 48.1519947 49.0232713 48.4154255 49.5510638 48.5913564 50.1132979 48.6974734 50.7109043 48.6974734 51.3792553 48.5913564 52.0829787 46.8162234 61.3644947"></polyline>
                <polyline id="Stroke-28" stroke="#FFFFFF" stroke-width="0.216" points="46.8162234 61.3644947 46.1125 65.2675532 41.6825798 65.2675532 41.8054521 64.5470745 41.893883 63.8964096 41.9636968 63.4039894 42.0344415 63.1405585 41.787766 63.4216755 41.5066489 63.7027926 41.1734043 63.9671543 40.8038564 64.2128989 40.38125 64.4586436 39.9418883 64.6699468 39.4848404 64.88125 39.0101064 65.0571809 38.5009309 65.2144947 37.9908245 65.3382979 37.4807181 65.443484 36.9538564 65.5132979 36.44375 65.5486702 35.9336436 65.5663564 35.4412234 65.5132979 34.9674202 65.443484 34.3521277 65.2852394 33.7889628 65.1093085 33.2965426 64.88125 32.8571809 64.6168883 32.4708777 64.3357713 32.119016 64.0192819 31.8378989 63.6851064 31.5912234 63.3341755 31.3808511 62.9646277 31.2049202 62.5773936 31.0643617 62.1910904 30.9582447 61.8047872 30.8884309 61.399867 30.8353723 60.9958777 30.8 60.6086436 30.8 60.2223404 30.8530585 59.5363032 30.9582447 58.8856383 31.1341755 58.2703457 31.3631649 57.6727394 31.6442819 57.1105053 31.9607713 56.6003989 32.3303191 56.1079787 32.7519947 55.668617 33.1913564 55.2646277 33.6837766 54.8950798 34.1929521 54.5618351 34.7207447 54.2797872 35.2829787 54.0340426 35.8638298 53.8404255 36.4614362 53.6821809 37.0767287 53.5769947 37.1121011 53.5769947 37.1996011 53.5593085 37.3234043 53.5416223 37.5160904 53.5239362 37.7273936 53.4885638 37.9731383 53.4718085 38.2365691 53.4364362 38.5353723 53.4010638 38.8351064 53.3656915 39.1329787 53.3303191 39.4503989 53.312633 39.731516 53.2781915 40.012633 53.2605053 40.2760638 53.2428191 40.5227394 53.225133 41.1203457 53.225133 41.5420213 53.2428191 41.9283245 53.2605053 42.3155585 53.2605053 42.6320479 53.2781915 42.8777926 53.2958777 43.0537234 53.312633 43.1067819 53.312633 43.1421543 53.1897606 43.2473404 52.8732713 43.3348404 52.5046543 43.3702128 52.1704787 43.3003989 51.7841755 43.1421543 51.4323138 42.9308511 51.1158245 42.649734 50.8523936 42.3155585 50.6234043 41.9460106 50.4651596 41.5243351 50.3599734 41.0672872 50.3246011 40.574867 50.3069149 40.0480053 50.2892287 39.5025266 50.2892287 38.9402926 50.3069149 38.3603723 50.3422872 37.7972074 50.3944149 37.2349734 50.4474734 36.6894947 50.5182181 36.162633 50.5880319 35.6525266 50.6755319 35.1954787 50.7639628 34.7738032 50.8523936 34.3865691 50.9575798 34.0700798 51.062766 33.8243351 51.1856383 33.6307181 51.2917553 34.8789894 47.0545213 35.2652926 46.8962766 35.6525266 46.7557181 36.0742021 46.6328457 36.918484 46.4569149 37.3755319 46.3871011 37.8325798 46.3163564 38.3073138 46.280984 38.799734 46.2456117 39.3089096 46.2279255 39.8367021 46.2102394 41.5243351 46.2102394 42.1396277 46.2279255 42.7549202 46.2456117 43.2473404 46.280984 43.775133 46.3694149 44.3196809 46.4922872 44.8819149 46.6505319 45.4273936 46.8609043 45.9542553 47.1075798 46.4820479 47.406383 46.9744681 47.7405585 47.4138298 48.1268617 47.800133 48.5485372 48.1519947 49.0232713 48.4154255 49.5510638 48.5913564 50.1132979 48.6974734 50.7109043 48.6974734 51.3792553 48.5913564 52.0829787 46.8162234 61.3644947"></polyline>
                <polyline id="Fill-29" fill="#D82331" points="42.5789894 56.7763298 42.5613032 56.6888298 42.4914894 56.6003989 42.3853723 56.5473404 42.2103723 56.5128989 42.0167553 56.4775266 41.787766 56.4598404 41.2609043 56.4598404 40.9797872 56.4775266 40.6800532 56.5128989 40.3989362 56.5473404 40.1178191 56.5827128 39.8543883 56.6180851 39.6077128 56.6711436 39.3973404 56.7242021 39.2037234 56.7763298 39.0808511 56.8117021 38.9402926 56.8647606 38.7466755 56.9345745 38.5530585 57.0220745 38.325 57.1281915 38.0960106 57.2510638 37.850266 57.3739362 37.6212766 57.5144947 37.3755319 57.6904255 37.1474734 57.8663564 36.9361702 58.0776596 36.7425532 58.2880319 36.5666223 58.5170213 36.44375 58.762766 36.3385638 59.043883 36.2855053 59.325 36.2678191 59.9235372 36.3553191 60.3982713 36.53125 60.7492021 36.7602394 61.0135638 37.0236702 61.1894947 37.3234043 61.2946809 37.6035904 61.3468085 37.8856383 61.3644947 38.4125 61.3468085 38.887234 61.2946809 39.3442819 61.2239362 39.7482713 61.11875 40.100133 60.9958777 40.4343085 60.837633 40.7331117 60.6793883 40.9974734 60.4857713 41.2255319 60.3098404 41.4368351 60.0994681 41.612766 59.9058511 41.7533245 59.6945479 41.8761968 59.4841755 41.981383 59.2728723 42.0698138 59.0792553 42.1219415 58.8856383 42.2625 58.3764628 42.3853723 57.7965426 42.4914894 57.2333777 42.5789894 56.7763298"></polyline>
                <polyline id="Fill-30" fill="#FFFFFF" points="9.82699468 65.2675532 5.04521277 65.2675532 9.03577128 42.1852394 17.3510638 42.1852394 18.1422872 55.8799202 23.8912234 42.1852394 32.5760638 42.1852394 28.4970745 65.2675532 23.7152926 65.2675532 26.7396277 48.0216755 26.5460106 48.0216755 19.3905585 65.2675532 13.993484 65.2675532 13.9581117 64.5470745 13.8352394 62.6304521 13.6769947 59.9058511 13.3260638 53.6291223 13.1678191 50.8691489 13.044016 48.8650266 13.0086436 48.0216755 12.7452128 48.0216755 9.82699468 65.2675532"></polyline>
                <polyline id="Stroke-31" stroke="#FFFFFF" stroke-width="0.216" points="9.82699468 65.2675532 5.04521277 65.2675532 9.03577128 42.1852394 17.3510638 42.1852394 18.1422872 55.8799202 23.8912234 42.1852394 32.5760638 42.1852394 28.4970745 65.2675532 23.7152926 65.2675532 26.7396277 48.0216755 26.5460106 48.0216755 19.3905585 65.2675532 13.993484 65.2675532 13.9581117 64.5470745 13.8352394 62.6304521 13.6769947 59.9058511 13.3260638 53.6291223 13.1678191 50.8691489 13.044016 48.8650266 13.0086436 48.0216755 12.7452128 48.0216755 9.82699468 65.2675532"></polyline>
                <polyline id="Fill-32" fill="#FFFFFF" points="134.066755 61.3644947 133.346277 65.2675532 128.934043 65.2675532 128.968484 64.5470745 128.98617 63.9140957 128.98617 63.4393617 129.021543 63.2280585 128.792553 63.4914894 128.529122 63.7558511 128.212633 64.0015957 127.860771 64.2482713 127.492154 64.4763298 127.069548 64.687633 126.630186 64.8989362 126.190824 65.0739362 125.71609 65.2144947 125.224601 65.3550532 124.73125 65.443484 124.239761 65.5132979 123.729654 65.5486702 123.237234 65.5663564 122.7625 65.5132979 122.287766 65.443484 121.654787 65.2852394 121.092553 65.1093085 120.600133 64.88125 120.143085 64.6168883 119.756782 64.3357713 119.422606 64.0192819 119.141489 63.6851064 118.894814 63.3341755 118.684441 62.9646277 118.526197 62.5773936 118.385638 62.1910904 118.297207 61.8047872 118.227394 61.399867 118.174335 60.9958777 118.138963 60.6086436 118.138963 60.2223404 118.174335 59.5363032 118.279521 58.8856383 118.437766 58.2703457 118.666755 57.6727394 118.930186 57.1105053 119.264362 56.6003989 119.632979 56.1079787 120.037899 55.668617 120.494947 55.2646277 120.969681 54.8950798 121.478856 54.5618351 122.024335 54.2797872 122.568883 54.0340426 123.149734 53.8404255 123.729654 53.6821809 124.327261 53.5769947 124.362633 53.5769947 124.450133 53.5593085 124.573005 53.5416223 124.748936 53.5239362 124.977926 53.4885638 125.224601 53.4718085 125.488032 53.4364362 125.769149 53.4010638 126.067952 53.3656915 126.384441 53.3303191 126.683245 53.312633 126.982048 53.2781915 127.263165 53.2605053 127.50984 53.2428191 127.755585 53.225133 128.370878 53.225133 128.792553 53.2428191 129.197473 53.2605053 129.583777 53.2605053 129.917952 53.2781915 130.199069 53.2958777 130.358245 53.312633 130.428059 53.312633 130.4625 53.1897606 130.515559 52.8732713 130.568617 52.5046543 130.603059 52.1704787 130.533245 51.7841755 130.392686 51.4323138 130.163697 51.1158245 129.900266 50.8523936 129.583777 50.6234043 129.21516 50.4651596 128.827926 50.3599734 128.40625 50.3246011 127.91383 50.3069149 127.386037 50.2892287 126.841489 50.2892287 126.278324 50.3069149 125.698404 50.3422872 125.13617 50.3944149 124.573005 50.4474734 124.028457 50.5182181 123.500665 50.5880319 122.991489 50.6755319 122.534441 50.7639628 122.112766 50.8523936 121.725532 50.9575798 121.409043 51.062766 121.163298 51.1856383 120.969681 51.2917553 122.200266 47.0545213 122.586569 46.8962766 122.991489 46.7557181 123.395479 46.6328457 123.817154 46.5444149 124.257447 46.4569149 124.696809 46.3871011 125.153856 46.3163564 125.62859 46.280984 126.121011 46.2456117 126.630186 46.2279255 127.140293 46.2102394 128.792553 46.2102394 129.39016 46.2279255 129.987766 46.2456117 130.480186 46.280984 131.007979 46.3694149 131.552527 46.4922872 132.115691 46.6505319 132.660239 46.8609043 133.205718 47.1075798 133.73258 47.406383 134.225 47.7405585 134.664362 48.1268617 135.068351 48.5485372 135.420213 49.0232713 135.684574 49.5510638 135.877261 50.1132979 136.001064 50.7109043 136.001064 51.3792553 135.912633 52.0829787 134.066755 61.3644947"></polyline>
                <polyline id="Fill-33" fill="#FFFFFF" points="133.346277 65.3904255 133.451463 65.2852394 134.171941 61.3821809 133.961569 61.3468085 133.24016 65.249867 133.346277 65.1446809 133.346277 65.3904255 133.433777 65.3727394 133.451463 65.2852394 133.346277 65.3904255"></polyline>
                <polyline id="Fill-34" fill="#FFFFFF" points="128.827926 65.2675532 128.934043 65.3904255 133.346277 65.3904255 133.346277 65.1446809 128.934043 65.1446809 129.038298 65.2675532 128.827926 65.2675532 128.810239 65.3904255 128.934043 65.3904255 128.827926 65.2675532"></polyline>
                <polyline id="Fill-35" fill="#FFFFFF" points="129.109043 63.2988032 128.950798 63.1582447 128.880984 63.4393617 128.863298 63.9140957 128.863298 64.5470745 128.827926 65.2675532 129.038298 65.2675532 129.07367 64.5470745 129.109043 63.9140957 129.091356 63.4393617 129.091356 63.2988032 128.934043 63.1582447 129.109043 63.2988032"></polyline>
                <polyline id="Fill-36" fill="#FFFFFF" points="122.27008 65.5486702 122.27008 65.5486702 122.7625 65.6194149 123.237234 65.6724734 123.729654 65.6547872 124.239761 65.6194149 124.748936 65.5486702 125.241356 65.4611702 125.733777 65.3196809 126.226197 65.1800532 126.665559 65.0041223 127.122606 64.7928191 127.544282 64.5824468 127.91383 64.3357713 128.283378 64.0900266 128.598936 63.8433511 128.880984 63.562234 129.109043 63.2988032 128.934043 63.1582447 128.705053 63.4216755 128.458378 63.6674202 128.142819 63.9140957 127.808644 64.1598404 127.439096 64.3711436 126.594814 64.7928191 126.155452 64.96875 125.698404 65.1093085 125.205984 65.249867 124.713564 65.3382979 124.239761 65.4081117 123.729654 65.443484 123.237234 65.4611702 122.7625 65.4081117 122.305452 65.3382979 122.27008 65.5486702"></polyline>
                <polyline id="Fill-37" fill="#FFFFFF" points="118.01609 60.2223404 118.01609 60.2223404 118.033777 60.6086436 118.069149 60.9958777 118.121277 61.4175532 118.192021 61.8215426 118.279521 62.2087766 118.42008 62.612766 118.578324 63.0176862 118.807314 63.3863032 119.053059 63.7558511 119.334176 64.0900266 119.686037 64.4242021 120.090957 64.7053191 120.548005 64.9864362 121.057181 65.2144947 121.638032 65.3904255 122.27008 65.5486702 122.305452 65.3382979 121.672473 65.1800532 121.127926 65.0041223 120.653191 64.775133 120.196144 64.5293883 119.826596 64.2482713 119.510106 63.9494681 119.228989 63.6152926 118.983245 63.281117 118.789628 62.9115691 118.631383 62.5429521 118.490824 62.1734043 118.403324 61.7871011 118.33258 61.3821809 118.279521 60.9958777 118.24508 60.6086436 118.261835 60.2223404 118.01609 60.2223404"></polyline>
                <polyline id="Fill-38" fill="#FFFFFF" points="124.327261 53.4718085 124.327261 53.4718085 123.711968 53.5769947 123.114362 53.7352394 122.534441 53.9279255 121.971277 54.1746011 121.426729 54.4557181 120.898936 54.8075798 120.424202 55.1771277 119.967154 55.5988032 119.545479 56.0381649 119.175931 56.5305851 118.825 57.0574468 118.560638 57.637367 118.33258 58.2359043 118.174335 58.868883 118.069149 59.5363032 118.01609 60.2223404 118.261835 60.2223404 118.279521 59.5363032 118.385638 58.9033245 118.543883 58.3057181 118.771941 57.7081117 119.035372 57.162633 119.351862 56.6711436 119.72141 56.1787234 120.107713 55.7393617 120.565691 55.3521277 121.039495 54.9835106 121.531915 54.6670213 122.077394 54.3849734 122.604255 54.1392287 123.185106 53.9456117 123.74734 53.787367 124.327261 53.6821809 124.327261 53.4718085"></polyline>
                <polyline id="Fill-39" fill="#FFFFFF" points="127.949202 53.1022606 127.755585 53.1022606 127.50984 53.137633 127.263165 53.1553191 126.982048 53.1720745 126.683245 53.2074468 126.384441 53.225133 126.067952 53.2605053 125.769149 53.2958777 125.488032 53.3303191 125.224601 53.3656915 124.977926 53.3833777 124.748936 53.41875 124.573005 53.4364362 124.432447 53.4541223 124.362633 53.4718085 124.327261 53.4718085 124.327261 53.6821809 124.362633 53.6821809 124.467819 53.6644947 124.573005 53.6468085 124.748936 53.6291223 124.977926 53.5946809 125.224601 53.5769947 125.488032 53.5416223 125.769149 53.50625 126.067952 53.4718085 126.384441 53.4364362 126.683245 53.41875 126.982048 53.3833777 127.263165 53.3656915 127.50984 53.3480053 127.949202 53.3480053 127.949202 53.1022606"></polyline>
                <polyline id="Fill-40" fill="#FFFFFF" points="130.321941 53.2958777 130.428059 53.2074468 130.358245 53.2074468 130.199069 53.1897606 129.917952 53.1720745 129.583777 53.137633 128.792553 53.137633 128.370878 53.1022606 127.949202 53.1022606 127.949202 53.3480053 128.792553 53.3480053 129.197473 53.3833777 129.917952 53.3833777 130.199069 53.4010638 130.358245 53.41875 130.428059 53.41875 130.533245 53.3303191 130.428059 53.41875 130.515559 53.4364362 130.533245 53.3303191 130.321941 53.2958777"></polyline>
                <polyline id="Fill-41" fill="#FFFFFF" points="130.497872 52.1704787 130.480186 52.1704787 130.4625 52.5046543 130.410372 52.856516 130.358245 53.1720745 130.321941 53.2958777 130.533245 53.3303191 130.568617 53.2074468 130.620745 52.8909574 130.673803 52.5046543 130.726862 52.1704787 130.497872 52.1704787"></polyline>
                <polyline id="Fill-42" fill="#FFFFFF" points="128.40625 50.4297872 128.40625 50.4474734 128.810239 50.4651596 129.179787 50.5703457 129.530718 50.7285904 129.830452 50.9398936 130.076197 51.1856383 130.2875 51.4844415 130.428059 51.8009309 130.497872 52.1704787 130.709176 52.1704787 130.638431 51.7664894 130.497872 51.3792553 130.252128 51.0450798 129.971011 50.7639628 129.636835 50.5182181 129.249601 50.3599734 128.845612 50.2538564 128.40625 50.2017287 128.40625 50.4297872"></polyline>
                <polyline id="Fill-43" fill="#FFFFFF" points="120.863564 51.2740691 121.039495 51.3792553 121.215426 51.2917553 121.444415 51.1679521 121.743218 51.062766 122.129521 50.9575798 122.551197 50.8691489 123.009176 50.7816489 123.518351 50.6941489 124.028457 50.6234043 124.573005 50.5526596 125.13617 50.5005319 125.698404 50.4474734 126.278324 50.4121011 127.91383 50.4121011 128.40625 50.4297872 128.40625 50.2194149 127.91383 50.2017287 127.386037 50.1663564 126.841489 50.1663564 126.278324 50.2017287 125.698404 50.2371011 125.13617 50.2892287 124.573005 50.3422872 124.028457 50.4121011 123.48391 50.4828457 122.973803 50.5703457 122.516755 50.6587766 122.09508 50.7462766 121.707846 50.8523936 121.37367 50.9575798 121.110239 51.0804521 120.898936 51.2033245 121.074867 51.3094415 120.863564 51.2740691"></polyline>
                <polyline id="Fill-44" fill="#FFFFFF" points="122.164894 46.9493351 122.09508 47.0368351 120.863564 51.2740691 121.074867 51.3094415 122.305452 47.0722074 122.235638 47.1597074 122.164894 46.9493351 122.112766 46.9670213 122.09508 47.0368351 122.164894 46.9493351"></polyline>
                <polyline id="Fill-45" fill="#FFFFFF" points="129.987766 46.1404255 129.987766 46.1404255 129.39016 46.1050532 128.792553 46.087367 127.140293 46.087367 126.630186 46.1227394 126.121011 46.1404255 125.62859 46.1757979 125.153856 46.2102394 124.679122 46.280984 124.239761 46.3517287 123.800399 46.4392287 123.377793 46.5276596 122.956117 46.6505319 122.551197 46.7910904 122.164894 46.9493351 122.235638 47.1597074 122.621941 47.0023936 123.025931 46.8609043 123.413165 46.7380319 123.83484 46.6505319 124.275133 46.5621011 124.713564 46.4922872 125.153856 46.4215426 125.62859 46.3871011 126.121011 46.3517287 126.630186 46.3340426 128.792553 46.3340426 129.39016 46.3517287 129.987766 46.3517287 129.987766 46.1404255"></polyline>
                <polyline id="Fill-46" fill="#FFFFFF" points="136.017819 52.099734 136.017819 52.099734 136.10625 51.3792553 136.10625 50.7109043 135.983378 50.0956117 135.789761 49.5156915 135.508644 48.9711436 135.156782 48.4787234 134.735106 48.0393617 134.295745 47.6521277 133.785638 47.3179521 133.257846 47.0023936 132.695612 46.7557181 132.150133 46.5444149 131.570213 46.3871011 131.025665 46.2632979 130.480186 46.1757979 129.987766 46.1404255 129.987766 46.3517287 130.480186 46.3871011 130.990293 46.4746011 131.53484 46.5974734 132.080319 46.7557181 132.625798 46.9670213 133.15266 47.212766 133.680452 47.493883 134.155186 47.8280585 134.594548 48.2152926 134.980851 48.6192819 135.332713 49.0763298 135.578457 49.5864362 135.772074 50.130984 135.894947 50.7109043 135.894947 51.3792553 135.807447 52.0652926 136.017819 52.099734"></polyline>
                <polyline id="Fill-47" fill="#FFFFFF" points="134.171941 61.3821809 134.171941 61.3821809 136.017819 52.099734 135.807447 52.0652926 133.961569 61.3468085 134.171941 61.3821809"></polyline>
                <polyline id="Fill-48" fill="#F2AD3D" points="129.812766 56.7763298 129.777394 56.6711436 129.706649 56.5827128 129.583777 56.5305851 129.407846 56.4775266 129.21516 56.4598404 128.98617 56.4421543 128.722739 56.4421543 128.458378 56.4598404 128.178191 56.4952128 127.896144 56.5305851 127.615027 56.5650266 127.350665 56.6003989 127.087234 56.6534574 126.859176 56.6888298 126.630186 56.7409574 126.454255 56.7763298 126.331383 56.794016 126.190824 56.8470745 126.015824 56.8992021 125.821277 56.9699468 125.593218 57.075133 125.381915 57.1803191 125.13617 57.3041223 124.679122 57.6206117 124.450133 57.8132979 124.257447 58.0069149 124.06383 58.2359043 123.905585 58.4816489 123.782713 58.7450798 123.676596 59.0271277 123.624468 59.325 123.606782 59.9235372 123.694282 60.3982713 123.83484 60.7492021 124.046144 61.0135638 124.309574 61.1894947 124.608378 61.2946809 124.907181 61.3468085 125.205984 61.3644947 125.733777 61.3468085 126.226197 61.2946809 126.683245 61.20625 127.087234 61.0833777 127.474468 60.9428191 127.808644 60.7845745 128.125133 60.6086436 128.40625 60.3982713 128.651995 60.2046543 128.863298 59.9756649 129.055984 59.7652926 129.21516 59.5363032 129.338032 59.325 129.425532 59.1146277 129.496277 58.9033245 129.548404 58.7106383 129.619149 58.2182181 129.706649 57.7081117 129.777394 57.2156915 129.812766 56.7763298"></polyline>
                <polyline id="Fill-49" fill="#FFFFFF" points="166.027527 62.8594415 166.062899 62.4545213 166.203457 61.9797872 166.450133 61.5581117 166.748936 61.1894947 167.117553 60.8897606 167.539229 60.6793883 167.997207 60.5388298 168.488697 60.4857713 168.981117 60.5388298 169.438165 60.6793883 169.85984 60.8897606 170.229388 61.1894947 170.528191 61.5581117 170.774867 61.9797872 170.915426 62.4545213 170.949867 62.8594415 170.423005 62.8594415 170.405319 62.5429521 170.300133 62.1557181 170.124202 61.8047872 169.895213 61.5050532 169.614096 61.2593085 169.27992 61.0833777 168.893617 60.9605053 168.488697 60.925133 168.084707 60.9605053 167.697473 61.0833777 167.364229 61.2593085 167.082181 61.5050532 166.854122 61.8047872 166.678191 62.1557181 166.573005 62.5429521 166.537633 62.8594415 166.027527 62.8594415"></polyline>
                <polyline id="Fill-50" fill="#FFFFFF" points="167.609973 62.8594415 167.609973 61.8047872 168.577128 61.8047872 168.7875 61.8215426 168.981117 61.8569149 169.121676 61.9099734 169.244548 61.9797872 169.332979 62.0859043 169.402793 62.1910904 169.438165 62.3139628 169.455851 62.4368351 169.438165 62.5950798 169.402793 62.718883 169.350665 62.8240691 169.315293 62.8594415 168.577128 62.8594415 168.646941 62.8417553 168.769814 62.8240691 168.875931 62.7886968 168.963431 62.7542553 169.034176 62.7011968 169.069548 62.6481383 169.103989 62.5606383 169.103989 62.4368351 169.086303 62.3493351 169.051862 62.2795213 168.998803 62.2441489 168.945745 62.2087766 168.858245 62.1910904 168.769814 62.1734043 168.049335 62.1734043 168.049335 62.8594415 167.609973 62.8594415"></polyline>
                <polyline id="Fill-51" fill="#FFFFFF" points="166.027527 62.8594415 166.00984 62.9646277 166.062899 63.474734 166.203457 63.9494681 166.450133 64.3711436 166.748936 64.7230053 167.117553 65.0218085 167.539229 65.249867 167.997207 65.3904255 168.488697 65.443484 168.981117 65.3904255 169.438165 65.249867 169.85984 65.0218085 170.229388 64.7230053 170.528191 64.3711436 170.774867 63.9494681 170.915426 63.474734 170.967553 62.9646277 170.949867 62.8594415 170.423005 62.8594415 170.440691 62.9646277 170.405319 63.3863032 170.300133 63.7735372 170.124202 64.1077128 169.895213 64.4055851 169.614096 64.6522606 169.27992 64.8458777 168.893617 64.96875 168.488697 65.0041223 168.084707 64.96875 167.697473 64.8458777 167.364229 64.6522606 167.082181 64.4055851 166.854122 64.1077128 166.678191 63.7735372 166.573005 63.3863032 166.537633 62.9646277 166.537633 62.8594415 166.027527 62.8594415"></polyline>
                <polyline id="Fill-52" fill="#FFFFFF" points="167.609973 62.8594415 167.609973 63.9317819 168.049335 63.9317819 168.049335 63.0521277 168.488697 63.0521277 169.016489 63.9317819 169.368351 63.9317819 168.840559 63.0521277 168.963431 63.0521277 169.086303 63.0176862 169.19242 62.9823138 169.27992 62.9115691 169.315293 62.8594415 168.577128 62.8594415 168.488697 62.8771277 168.049335 62.8771277 168.049335 62.8594415 167.609973 62.8594415"></polyline>
                <path d="M166.00984,62.9646277 L166.00984,62.9646277 L166.062899,62.4545213 L166.203457,61.9797872 L166.450133,61.5581117 L166.748936,61.1894947 L167.117553,60.8897606 L167.539229,60.6793883 L167.997207,60.5388298 L168.488697,60.4857713 L168.981117,60.5388298 L169.438165,60.6793883 L169.85984,60.8897606 L170.229388,61.1894947 L170.528191,61.5581117 L170.774867,61.9797872 L170.915426,62.4545213 L170.967553,62.9646277 L170.915426,63.474734 L170.774867,63.9494681 L170.528191,64.3711436 L170.229388,64.7230053 L169.85984,65.0218085 L169.438165,65.249867 L168.981117,65.3904255 L168.488697,65.443484 L167.997207,65.3904255 L167.539229,65.249867 L167.117553,65.0218085 L166.748936,64.7230053 L166.450133,64.3711436 L166.203457,63.9494681 L166.062899,63.474734 L166.00984,62.9646277 M168.049335,63.9317819 L167.609973,63.9317819 L167.609973,61.8047872 L168.577128,61.8047872 L168.7875,61.8215426 L168.981117,61.8569149 L169.121676,61.9099734 L169.244548,61.9797872 L169.332979,62.0859043 L169.402793,62.1910904 L169.438165,62.3139628 L169.455851,62.4368351 L169.438165,62.5950798 L169.402793,62.718883 L169.350665,62.8240691 L169.27992,62.9115691 L169.19242,62.9823138 L169.086303,63.0176862 L168.963431,63.0521277 L168.840559,63.0521277 L169.368351,63.9317819 L169.016489,63.9317819 L168.488697,63.0521277 L168.049335,63.0521277 L168.049335,63.9317819 M168.488697,62.8771277 L168.488697,62.8771277 L168.646941,62.8417553 L168.769814,62.8240691 L168.875931,62.7886968 L168.963431,62.7542553 L169.034176,62.7011968 L169.069548,62.6481383 L169.103989,62.5606383 L169.103989,62.4368351 L169.086303,62.3493351 L169.051862,62.2795213 L168.998803,62.2441489 L168.945745,62.2087766 L168.858245,62.1910904 L168.769814,62.1734043 L168.049335,62.1734043 L168.049335,62.8771277 L168.488697,62.8771277 M168.488697,65.0041223 L168.488697,65.0041223 L168.893617,64.96875 L169.27992,64.8458777 L169.614096,64.6522606 L169.895213,64.4055851 L170.124202,64.1077128 L170.300133,63.7735372 L170.405319,63.3863032 L170.440691,62.9646277 L170.405319,62.5429521 L170.300133,62.1557181 L170.124202,61.8047872 L169.895213,61.5050532 L169.614096,61.2593085 L169.27992,61.0833777 L168.893617,60.9605053 L168.488697,60.925133 L168.084707,60.9605053 L167.697473,61.0833777 L167.364229,61.2593085 L167.082181,61.5050532 L166.854122,61.8047872 L166.678191,62.1557181 L166.573005,62.5429521 L166.537633,62.9646277 L166.573005,63.3863032 L166.678191,63.7735372 L166.854122,64.1077128 L167.082181,64.4055851 L167.364229,64.6522606 L167.697473,64.8458777 L168.084707,64.96875 L168.488697,65.0041223" id="Stroke-53" stroke="#FFFFFF" stroke-width="0.216"></path>
                <polyline id="Fill-54" fill="#FFFFFF" points="135.385771 65.2675532 140.342553 65.2675532 142.118617 55.2646277 142.188431 54.8773936 142.399734 54.1038564 142.540293 53.7175532 142.716223 53.3303191 142.927527 52.9617021 143.155585 52.6098404 143.437633 52.2756649 143.753191 51.9768617 144.105053 51.6957447 144.509973 51.4323138 144.967021 51.2210106 145.476197 51.0450798 146.039362 50.9045213 146.654654 50.7993351 147.339761 50.7639628 147.779122 50.7639628 148.570346 46.2456117 148.077926 46.280984 147.603191 46.3340426 147.16383 46.4215426 146.742154 46.5444149 146.355851 46.6849734 145.986303 46.8609043 145.634441 47.0545213 145.300266 47.2658245 144.984707 47.5115691 144.684973 47.7582447 144.122739 48.3204787 143.859309 48.6192819 143.595878 48.9534574 143.331516 49.2699468 143.085771 49.6208777 143.613564 46.4392287 138.672606 46.4392287 135.385771 65.2675532"></polyline>
                <polyline id="Stroke-55" stroke="#FFFFFF" stroke-width="0.216" points="135.385771 65.2675532 140.342553 65.2675532 142.118617 55.2646277 142.188431 54.8773936 142.399734 54.1038564 142.540293 53.7175532 142.716223 53.3303191 142.927527 52.9617021 143.155585 52.6098404 143.437633 52.2756649 143.753191 51.9768617 144.105053 51.6957447 144.509973 51.4323138 144.967021 51.2210106 145.476197 51.0450798 146.039362 50.9045213 146.654654 50.7993351 147.339761 50.7639628 147.779122 50.7639628 148.570346 46.2456117 148.077926 46.280984 147.603191 46.3340426 147.16383 46.4215426 146.742154 46.5444149 146.355851 46.6849734 145.986303 46.8609043 145.634441 47.0545213 145.300266 47.2658245 144.984707 47.5115691 144.684973 47.7582447 144.122739 48.3204787 143.859309 48.6192819 143.595878 48.9534574 143.331516 49.2699468 143.085771 49.6208777 143.613564 46.4392287 138.672606 46.4392287 135.385771 65.2675532"></polyline>
                <polyline id="Fill-56" fill="#FFFFFF" points="88.8329787 65.2675532 93.8781915 65.2675532 95.5658245 55.2646277 95.6365691 54.8773936 95.7240691 54.5087766 95.8125 54.1392287 95.9353723 53.787367 96.0759309 53.4364362 96.2518617 53.1022606 96.4631649 52.7857713 96.7089096 52.4869681 96.9900266 52.2226064 97.306516 51.9591755 97.69375 51.7488032 98.1154255 51.5551862 98.6069149 51.3969415 99.1523936 51.256383 99.75 51.1679521 100.436037 51.1158245 100.488165 51.1158245 100.55891 51.1335106 100.64641 51.150266 100.73484 51.150266 100.82234 51.1679521 100.893085 51.1856383 100.945213 51.2033245 100.962899 51.2033245 100.980585 51.1335106 101.033644 50.9222074 101.103457 50.6057181 101.191888 50.2194149 101.314761 49.762367 101.437633 49.2699468 101.595878 48.7775266 101.754122 48.2851064 101.894681 47.9509309 102.246543 47.2835106 102.422473 46.9847074 102.580718 46.7203457 102.70359 46.5099734 102.79109 46.3871011 102.826463 46.3340426 102.808777 46.3340426 102.738963 46.3163564 102.650532 46.2986702 102.52766 46.280984 102.404787 46.280984 102.264229 46.2632979 102.141356 46.2456117 102.018484 46.2456117 101.473005 46.280984 100.980585 46.3340426 100.523537 46.4215426 100.101862 46.5276596 99.6969415 46.6682181 99.3283245 46.8432181 98.9941489 47.0191489 98.6776596 47.2304521 98.3788564 47.4585106 98.0977394 47.7228723 97.8343085 47.9863032 97.5699468 48.2851064 97.306516 48.5839096 97.0607713 48.9180851 96.5329787 49.6208777 97.1659574 46.4392287 92.1207447 46.4392287 88.8329787 65.2675532"></polyline>
                <polyline id="Stroke-57" stroke="#FFFFFF" stroke-width="0.216" points="88.8329787 65.2675532 93.8781915 65.2675532 95.5658245 55.2646277 95.6365691 54.8773936 95.7240691 54.5087766 95.8125 54.1392287 95.9353723 53.787367 96.0759309 53.4364362 96.2518617 53.1022606 96.4631649 52.7857713 96.7089096 52.4869681 96.9900266 52.2226064 97.306516 51.9591755 97.69375 51.7488032 98.1154255 51.5551862 98.6069149 51.3969415 99.1523936 51.256383 99.75 51.1679521 100.436037 51.1158245 100.488165 51.1158245 100.55891 51.1335106 100.64641 51.150266 100.73484 51.150266 100.82234 51.1679521 100.893085 51.1856383 100.945213 51.2033245 100.962899 51.2033245 100.980585 51.1335106 101.033644 50.9222074 101.103457 50.6057181 101.191888 50.2194149 101.314761 49.762367 101.437633 49.2699468 101.595878 48.7775266 101.754122 48.2851064 101.894681 47.9509309 102.246543 47.2835106 102.422473 46.9847074 102.580718 46.7203457 102.70359 46.5099734 102.79109 46.3871011 102.826463 46.3340426 102.808777 46.3340426 102.738963 46.3163564 102.650532 46.2986702 102.52766 46.280984 102.404787 46.280984 102.264229 46.2632979 102.141356 46.2456117 102.018484 46.2456117 101.473005 46.280984 100.980585 46.3340426 100.523537 46.4215426 100.101862 46.5276596 99.6969415 46.6682181 99.3283245 46.8432181 98.9941489 47.0191489 98.6776596 47.2304521 98.3788564 47.4585106 98.0977394 47.7228723 97.8343085 47.9863032 97.5699468 48.2851064 97.306516 48.5839096 97.0607713 48.9180851 96.5329787 49.6208777 97.1659574 46.4392287 92.1207447 46.4392287 88.8329787 65.2675532"></polyline>
                <polyline id="Fill-58" fill="#F2AD3D" points="166.062899 83.7617021 166.062899 83.6918883 166.203457 83.2348404 166.450133 82.8308511 166.748936 82.4789894 167.117553 82.1969415 167.539229 81.9865691 167.997207 81.8636968 168.488697 81.8106383 168.981117 81.8636968 169.438165 81.9865691 169.85984 82.1969415 170.229388 82.4789894 170.528191 82.8308511 170.774867 83.2348404 170.915426 83.6918883 170.915426 83.7617021 170.405319 83.7617021 170.300133 83.3930851 170.124202 83.0589096 169.895213 82.7601064 169.614096 82.5143617 169.27992 82.3207447 168.893617 82.1969415 168.488697 82.1625 168.084707 82.1969415 167.697473 82.3207447 167.364229 82.5143617 167.082181 82.7601064 166.854122 83.0589096 166.678191 83.3930851 166.573005 83.7617021 166.062899 83.7617021"></polyline>
                <polyline id="Fill-59" fill="#F2AD3D" points="167.609973 83.7617021 167.609973 83.1464096 168.7875 83.1464096 168.981117 83.1817819 169.121676 83.2171543 169.244548 83.2869681 169.332979 83.3753989 169.402793 83.4805851 169.438165 83.6043883 169.455851 83.7617021 169.103989 83.7617021 169.103989 83.6742021 169.086303 83.5867021 169.051862 83.5159574 168.998803 83.4805851 168.945745 83.4461436 168.858245 83.4284574 168.769814 83.4107713 168.049335 83.4107713 168.049335 83.7617021 167.609973 83.7617021"></polyline>
                <polyline id="Fill-60" fill="#F2AD3D" points="166.00984 84.1489362 166.062899 83.7617021 166.573005 83.7617021 166.573005 83.7793883 166.537633 84.1489362 166.00984 84.1489362"></polyline>
                <polyline id="Fill-61" fill="#F2AD3D" points="167.609973 84.1489362 167.609973 83.7617021 168.049335 83.7617021 168.049335 84.1135638 168.488697 84.1135638 168.646941 84.0781915 168.769814 84.0614362 168.875931 84.0260638 168.963431 83.9906915 169.034176 83.937633 169.069548 83.8855053 169.103989 83.7970745 169.103989 83.7617021 169.455851 83.7617021 169.438165 83.8855053 169.402793 83.9906915 169.350665 84.0781915 169.27992 84.1489362 167.609973 84.1489362"></polyline>
                <polyline id="Fill-62" fill="#F2AD3D" points="170.440691 84.1489362 170.405319 83.7793883 170.405319 83.7617021 170.915426 83.7617021 170.967553 84.1489362 170.440691 84.1489362"></polyline>
                <polyline id="Fill-63" fill="#F2AD3D" points="166.00984 84.1489362 166.00984 84.2019947 166.062899 84.7111702 166.203457 85.1859043 166.450133 85.6085106 166.748936 85.9771277 167.117553 86.2759309 167.539229 86.487234 167.997207 86.6277926 168.488697 86.6808511 168.981117 86.6277926 169.438165 86.487234 169.85984 86.2759309 170.229388 85.9771277 170.528191 85.6085106 170.774867 85.1859043 170.915426 84.7111702 170.967553 84.2019947 170.967553 84.1489362 170.440691 84.1489362 170.440691 84.2019947 170.405319 84.6236702 170.300133 85.0099734 170.124202 85.3441489 169.895213 85.6429521 169.614096 85.8896277 169.27992 86.0823138 168.893617 86.2051862 168.488697 86.2405585 168.084707 86.2051862 167.697473 86.0823138 167.364229 85.8896277 167.082181 85.6429521 166.854122 85.3441489 166.678191 85.0099734 166.573005 84.6236702 166.537633 84.2019947 166.537633 84.1489362 166.00984 84.1489362"></polyline>
                <polyline id="Fill-64" fill="#F2AD3D" points="167.609973 84.1489362 167.609973 85.1682181 168.049335 85.1682181 168.049335 84.2894947 168.488697 84.2894947 169.016489 85.1682181 169.368351 85.1682181 168.840559 84.2894947 168.963431 84.2894947 169.086303 84.2541223 169.19242 84.21875 169.27992 84.1489362 167.609973 84.1489362"></polyline>
            </g>
        </g>
    </g>
</svg>