<?xml version="1.0" encoding="UTF-8" standalone="no"?>
<svg width="200px" height="200px" viewBox="0 0 200 200" version="1.1" xmlns="http://www.w3.org/2000/svg" xmlns:xlink="http://www.w3.org/1999/xlink">
    <!-- Generator: Sketch 3.7.2 (28276) - http://www.bohemiancoding.com/sketch -->
    <title>seb</title>
    <desc>Created with Sketch.</desc>
    <defs></defs>
    <g id="Page-1" stroke="none" stroke-width="1" fill="none" fill-rule="evenodd">
        <g id="seb" fill="#1A1918">
            <g id="SEB_k_cmyk" transform="translate(13.000000, 60.000000)">
                <path d="M47.4084211,19.7789474 C47.4084211,19.7789474 39.0139474,11.5705263 24.6768421,11.5705263 C10.6971053,11.5705263 3.05052632,20.0036842 3.05052632,28.2176316 C3.05052632,34.1768421 6.27052632,40.8157895 17.6915789,43.8128947 C21.9026316,44.9181579 25.6789474,45.7507895 30.1515789,46.7860526 C34.1084211,47.7015789 35.8565789,49.3815789 35.4052632,51.4889474 C34.8452632,54.0955263 30.5052632,55.0902632 25.865,55.0902632 C21.8215789,55.0902632 16.9786842,54.2336842 10.0173684,48.1657895 L0.108684211,55.5765789 C2.92710526,58.9439474 12.3623684,66.1539474 26.2094737,66.1539474 C40.0565789,66.1539474 50.3926316,60.1210526 50.3926316,48.4771053 C50.3926316,40.0310526 44.6360526,36.3892105 36.2139474,33.9852632 C30.5513158,32.3697368 26.8744737,31.4118421 22.8384211,30.3176316 C19.2978947,29.3597368 17.2384211,27.6373684 17.7357895,25.4194737 C18.2497368,23.1352632 21.5710526,22.2234211 24.7578947,22.2234211 C27.9023684,22.2234211 33.6092105,22.9713158 38.0339474,26.7771053 L47.4084211,19.7789474" id="Fill-1"></path>
                <polyline id="Fill-2" points="107.162632 12.3902632 107.162632 24.3215789 80.0468421 24.3215789 80.0468421 32.635 99.2526316 32.635 99.2526316 44.1592105 80.0468421 44.1592105 80.0468421 52.5684211 107.927105 52.5684211 107.927105 64.6065789 65.3726316 64.6065789 65.3726316 12.3902632 107.162632 12.3902632"></polyline>
                <polygon id="Fill-3" points="54.5576316 76.6594737 57.8015789 76.6594737 57.8015789 0.320789474 54.5576316 0.320789474"></polygon>
                <polygon id="Fill-4" points="113.412895 76.6594737 116.656842 76.6594737 116.656842 0.320789474 113.412895 0.320789474"></polygon>
                <path d="M124.215,64.6065789 L124.215,12.3902632 L154.911842,12.3902632 C163.735526,12.3902632 170.888421,17.5444737 170.888421,25.6276316 C170.888421,31.9994737 166.953684,35.7426316 163.402105,37.15 C163.402105,37.15 163.147895,37.22 162.803421,37.2531579 C163.147895,37.2678947 163.402105,37.3323684 163.402105,37.3323684 C169.604474,39.2978947 174.027368,43.7834211 174.027368,50.5402632 C174.027368,59.2018421 166.751053,64.6065789 157.776316,64.6065789 L124.215,64.6065789 L124.215,64.6065789 Z M138.959211,23.2494737 L138.959211,32.4157895 L150.682368,32.4157895 C153.381053,32.4157895 155.567632,30.2826316 155.567632,27.8326316 C155.567632,25.3826316 153.381053,23.2494737 150.682368,23.2494737 L138.959211,23.2494737 L138.959211,23.2494737 Z M153.3,53.0013158 C155.834737,53.0013158 157.892368,50.9492105 157.892368,48.2413158 C157.892368,45.5352632 155.834737,43.4813158 153.3,43.4813158 L138.959211,43.4813158 L138.959211,53.0031579 L153.3,53.0013158 L153.3,53.0013158 Z" id="Fill-5"></path>
            </g>
        </g>
    </g>
</svg>