<?xml version="1.0" encoding="UTF-8" standalone="no"?>
<svg
   xmlns:sketch="http://www.bohemiancoding.com/sketch/ns"
   xmlns:dc="http://purl.org/dc/elements/1.1/"
   xmlns:cc="http://creativecommons.org/ns#"
   xmlns:rdf="http://www.w3.org/1999/02/22-rdf-syntax-ns#"
   xmlns:svg="http://www.w3.org/2000/svg"
   xmlns="http://www.w3.org/2000/svg"
   xmlns:sodipodi="http://sodipodi.sourceforge.net/DTD/sodipodi-0.dtd"
   xmlns:inkscape="http://www.inkscape.org/namespaces/inkscape"
   width="208px"
   height="169px"
   viewBox="0 0 208 169"
   version="1.1"
   id="svg2"
   inkscape:version="0.48.4 r9939"
   sodipodi:docname="jblAmpUpLogo.svg">
  <metadata
     id="metadata33">
    <rdf:RDF>
      <cc:Work
         rdf:about="">
        <dc:format>image/svg+xml</dc:format>
        <dc:type
           rdf:resource="http://purl.org/dc/dcmitype/StillImage" />
      </cc:Work>
    </rdf:RDF>
  </metadata>
  <sodipodi:namedview
     pagecolor="#ffffff"
     bordercolor="#666666"
     borderopacity="1"
     objecttolerance="10"
     gridtolerance="10"
     guidetolerance="10"
     inkscape:pageopacity="0"
     inkscape:pageshadow="2"
     inkscape:window-width="1855"
     inkscape:window-height="1056"
     id="namedview31"
     showgrid="false"
     inkscape:zoom="2.7928994"
     inkscape:cx="40.178897"
     inkscape:cy="44.326333"
     inkscape:window-x="65"
     inkscape:window-y="24"
     inkscape:window-maximized="1"
     inkscape:current-layer="wide-projects-normal" />
  <!-- Generator: Sketch 3.4.4 (17249) - http://www.bohemiancoding.com/sketch -->
  <title
     id="title4">jbl AmpUp</title>
  <desc
     id="desc6">Created with Sketch.</desc>
  <defs
     id="defs8" />
  <g
     id="Page-1"
     stroke="none"
     stroke-width="1"
     fill="none"
     fill-rule="evenodd"
     sketch:type="MSPage">
    <g
       id="wide-projects-normal"
       sketch:type="MSArtboardGroup"
       transform="translate(-50.000000, -1447.000000)">
      <g
         style="font-size:58.9175148px;font-style:normal;font-variant:normal;font-weight:bold;font-stretch:normal;text-align:start;line-height:125%;writing-mode:lr-tb;text-anchor:start;fill:#303033;font-family:Helvetica Neue LT Std;-inkscape-font-specification:Helvetica Neue LT Std Bold"
         id="text14"
         transform="translate(0,5.72)">
        <path
           d="m 49.720001,1599.557 9.367885,0 3.29938,-9.3679 15.730977,0 3.181546,9.3679 9.603555,0 -15.730977,-42.0671 -9.48572,0 -15.966646,42.0671 m 20.562212,-31.6976 0.117835,0 5.302577,15.4364 -10.89974,0 5.479328,-15.4364"
           style="line-height:125%;font-family:Helvetica Neue LT Std;-inkscape-font-specification:Helvetica Neue LT Std Bold"
           id="path3042"
           inkscape:connector-curvature="0" />
        <path
           d="m 93.940356,1599.557 8.366284,0 0,-17.6752 c 0,-5.9507 4.0064,-7.0112 5.65608,-7.0112 5.30258,0 5.06691,4.0653 5.06691,7.6003 l 0,17.0861 8.36629,0 0,-16.9682 c 0,-3.8297 0.88377,-7.7182 5.59716,-7.7182 4.77232,0 5.12583,3.3583 5.12583,7.4236 l 0,17.2628 8.36628,0 0,-20.3855 c 0,-7.8949 -4.65449,-10.8997 -11.13541,-10.8997 -4.24205,0 -7.42361,2.4156 -9.19113,5.0669 -1.64969,-3.6529 -5.06691,-5.0669 -8.89654,-5.0669 -3.94747,0 -7.12903,1.8265 -9.30897,4.9491 l -0.11784,0 0,-4.1242 -7.894944,0 0,30.4603"
           style="line-height:125%;font-family:Helvetica Neue LT Std;-inkscape-font-specification:Helvetica Neue LT Std Bold"
           id="path3044"
           inkscape:connector-curvature="0" />
        <path
           d="m 147.09868,1610.28 8.36629,0 0,-14.4937 0.11784,0 c 2.00319,3.0048 5.47933,4.5956 9.13221,4.5956 8.89654,0 13.37428,-7.6004 13.37428,-15.731 0,-8.6609 -4.30099,-16.3791 -13.84562,-16.3791 -3.77072,0 -7.0701,1.4729 -9.0733,4.7134 l -0.11783,0 0,-3.8885 -7.95387,0 0,41.1833 m 15.37747,-16.2023 c -5.4204,0 -7.30577,-4.7134 -7.30577,-9.6625 0,-4.9491 1.76753,-9.8392 7.24686,-9.8392 5.36149,0 7.30577,5.008 7.30577,9.8392 0,4.9491 -1.76753,9.6625 -7.24686,9.6625"
           style="line-height:125%;font-family:Helvetica Neue LT Std;-inkscape-font-specification:Helvetica Neue LT Std Bold"
           id="path3046"
           inkscape:connector-curvature="0" />
        <path
           d="m 219.70439,1557.4899 -9.25005,0 0,26.1594 c 0,6.2452 -2.12104,9.1322 -8.71979,9.1322 -7.48252,0 -8.66088,-4.5367 -8.66088,-9.1322 l 0,-26.1594 -9.25005,0 0,26.1594 c 0,11.43 6.59878,16.9093 17.91093,16.9093 11.25323,0 17.96984,-5.5383 17.96984,-16.9093 l 0,-26.1594"
           style="line-height:125%;font-family:Helvetica Neue LT Std;-inkscape-font-specification:Helvetica Neue LT Std Bold"
           id="path3048"
           inkscape:connector-curvature="0" />
        <path
           d="m 226.72939,1610.28 8.36629,0 0,-14.4937 0.11783,0 c 2.0032,3.0048 5.47933,4.5956 9.13222,4.5956 8.89653,0 13.37427,-7.6004 13.37427,-15.731 0,-8.6609 -4.30099,-16.3791 -13.84561,-16.3791 -3.77072,0 -7.07011,1.4729 -9.0733,4.7134 l -0.11784,0 0,-3.8885 -7.95386,0 0,41.1833 m 15.37747,-16.2023 c -5.4204,0 -7.30577,-4.7134 -7.30577,-9.6625 0,-4.9491 1.76753,-9.8392 7.24685,-9.8392 5.36149,0 7.30578,5.008 7.30578,9.8392 0,4.9491 -1.76754,9.6625 -7.24686,9.6625"
           style="line-height:125%;font-family:Helvetica Neue LT Std;-inkscape-font-specification:Helvetica Neue LT Std Bold"
           id="path3050"
           inkscape:connector-curvature="0" />
      </g>
      <g
         id="jblLogo"
         transform="translate(95,1447)"
         sketch:type="MSShapeGroup">
        <g
           id="g8"
           style="fill:#303033">
          <path
             d="M 0,0 121,0 121,99 0,99 0,0 0,0 z"
             id="path10"
             inkscape:connector-curvature="0" />
        </g>
        <g
           id="g12"
           transform="translate(79,28)"
           style="fill:#ffffff">
          <path
             d="m 20,42 0,-13.372306 -6.601317,0 0.0031,7.31563 c 0,1.95888 -1.521555,3.553119 -3.396497,3.553119 -1.8786876,0 -3.4014922,-1.594239 -3.4014922,-3.553119 L 6.600693,0 0,0 l 0,42 20,0 0,0 z"
             id="path14"
             inkscape:connector-curvature="0" />
        </g>
        <g
           id="g16"
           transform="translate(28,28)"
           style="fill:#ffffff">
          <path
             d="M 20,34.174783 C 20,38.29112 17.397157,42 9.9996878,42 2.5973491,42 0,37.160011 0,34.174783 l 0,-5.969812 6.5988225,0 0,7.207605 c 0,1.929955 1.5260565,3.500654 3.4033005,3.500654 1.878492,0 3.399117,-1.6189 3.399117,-3.550782 L 13.398805,0 20,0 l 0,34.174783 0,0 z"
             id="path18"
             inkscape:connector-curvature="0" />
        </g>
        <g
           id="g20"
           transform="translate(54,28)"
           style="fill:#ffffff">
          <path
             d="M 21,13.999109 21,6.8434897 C 21,2.1932539 16.704583,0 13.999007,0 L 0,0 0,42 13.999007,42 C 19.251241,42 21,38.654314 21,36.515398 L 21,23.925861 C 21,22.148518 19.145296,19.796623 16.384099,19.796623 19.145296,19.796623 21,16.089167 21,13.999109 l 0,0 z M 11.245867,39 7,38.991489 7,22 11.245867,22 C 14,22 14,23.943388 14,30.545959 14,37.153113 14,39 11.245867,39 l 0,0 z M 10.818182,18 7,17.994954 7,4 10.818182,4 C 13.364431,4 14,4.5230688 14,11.046452 14,17.576693 13.364431,18 10.818182,18 l 0,0 z"
             id="path22"
             inkscape:connector-curvature="0" />
        </g>
        <g
           id="g24"
           transform="translate(27,44)"
           style="fill:#ffffff">
          <path
             d="M 3.9999673,0 C 1.7933865,0 0,1.7921558 0,4.0004248 0,6.2086938 1.7933865,8 3.9999673,8 6.2097527,8 8,6.2086938 8,4.0004248 8,1.7921558 6.2097527,0 3.9999673,0 l 0,0 z"
             id="path26"
             inkscape:connector-curvature="0" />
        </g>
        <g
           id="g28"
           transform="translate(25,28)"
           style="fill:#ffffff">
          <path
             d="M 0,0 6.5015964,15 13,0 0,0 0,0 z"
             id="path30"
             inkscape:connector-curvature="0" />
        </g>
      </g>
    </g>
  </g>
</svg>
