<?xml version="1.0" encoding="UTF-8" standalone="no"?>
<svg width="277px" height="100px" viewBox="0 0 277 100" version="1.1" xmlns="http://www.w3.org/2000/svg" xmlns:xlink="http://www.w3.org/1999/xlink" xmlns:sketch="http://www.bohemiancoding.com/sketch/ns">
    <!-- Generator: Sketch 3.4.4 (17249) - http://www.bohemiancoding.com/sketch -->
    <title>ef-classroom</title>
    <desc>Created with Sketch.</desc>
    <defs></defs>
    <g id="Page-1" stroke="none" stroke-width="1" fill="none" fill-rule="evenodd" sketch:type="MSPage">
        <g id="wide-projects-hover" sketch:type="MSArtboardGroup" transform="translate(-50.000000, -36.000000)" fill="#FFFFFF">
            <g id="EF-Classroom" sketch:type="MSLayerGroup">
                <g id="EF-Classroom-iPad" transform="translate(50.000000, 36.000000)" sketch:type="MSShapeGroup">
                    <g id="EF-Logo" transform="translate(93.000000, 0.000000)">
                        <path d="M25.1265959,12.0733276 L29.5831027,12.0733276 C29.8171473,11.8310319 30.0549315,11.5896575 30.298637,11.3495115 C35.0268973,6.69153782 40.9023185,3.68510573 46.928887,2.82094843 L47.493274,0.117616291 L42.6335,0.117616291 C37.4144007,1.739677 32.2791336,4.75286511 27.8840205,9.08132888 C26.9026541,10.0505117 25.9839281,11.047947 25.1265959,12.0733276" id="Fill-1"></path>
                        <path d="M59.4236233,23.6279766 C59.4236233,27.4055171 57.5388014,31.344588 54.1169521,34.7152314 C51.9662979,36.8360098 49.4002226,38.3619506 46.7079315,39.1582406 L46.0506747,42.3179116 C49.5186473,41.4116827 52.9361336,39.4260249 55.8337979,36.5679183 C63.3575034,29.1565565 64.4959384,19.0977533 58.4821473,13.1684182 C56.9130205,11.6200596 54.9624418,10.5526073 52.7690925,10.004755 L52.087839,13.2746721 C53.6036747,13.7939649 54.9624418,14.6191215 56.0737637,15.7142121 C58.2636849,17.8721486 59.4236233,20.6089538 59.4236233,23.6279766" id="Fill-2"></path>
                        <path d="M53.2384281,25.0749948 C53.3917568,23.1817718 52.7809349,21.4491579 51.5169075,20.2048205 C51.2859795,19.9788007 51.037911,19.779805 50.7755068,19.5989277 L48.1078356,32.4178751 C48.9545719,31.9400397 49.7501986,31.344588 50.4585651,30.6456463 C52.0903322,29.0364835 53.0776199,27.0581959 53.2384281,25.0749948" id="Fill-3"></path>
                        <path d="M10.8299349,0.117616291 L8.96163014,9.10313242 C11.0745753,5.9572805 13.5611815,2.95576189 16.3968288,0.117616291 L10.8299349,0.117616291" id="Fill-4"></path>
                        <path d="M52.8943733,33.5095877 C55.9908664,30.4604698 57.6946233,26.9522491 57.6946233,23.6279766 C57.6946233,21.0692849 56.7110753,18.7507392 54.8524315,16.9164778 C53.9658048,16.0449503 52.9180582,15.3868519 51.737863,14.9523165 L51.142,17.8291557 C51.7294486,18.143311 52.2676575,18.5351605 52.7404212,18.9988697 C54.3675137,20.6043474 55.1550377,22.8111115 54.9624418,25.2125721 C54.7673527,27.5986781 53.6036747,29.9571457 51.6808322,31.8500617 C50.5152842,33.0001218 49.1318973,33.9149493 47.6702877,34.5346612 L47.110887,37.2204891 C49.1555822,36.4714914 51.1563356,35.2222405 52.8943733,33.5095877" id="Fill-5"></path>
                        <path d="M73.9992055,12.0733276 L79.8789897,12.0733276 C78.7629932,7.58824688 76.5543733,3.51743342 73.3475582,0.117616291 L63.9215788,0.117616291 C65.5792123,1.05086932 67.0938014,2.18803153 68.4478938,3.51958306 C70.9637945,6.00150177 72.8274247,8.87619133 73.9992055,12.0733276" id="Fill-6"></path>
                        <path d="M3.14666781,47.784766 C2.60160274,46.4424662 2.1462911,45.0700714 1.77730479,43.6635894 L0.136188356,51.5635348 L4.96510959,51.5635348 C4.28292123,50.3459145 3.67521575,49.0874508 3.14666781,47.784766" id="Fill-7"></path>
                        <path d="M13.4701815,18.9091988 C11.2780788,23.7271674 10.1664452,28.6090112 10.1664452,33.414082 C10.1664452,37.1071721 10.8346096,40.6310545 12.1506815,43.8932943 C13.290363,46.7105577 14.8984452,49.2833756 16.9440753,51.5635348 L26.0559178,51.5635348 C24.7778664,50.7561896 23.5986062,49.8238578 22.5287329,48.7671537 C17.3769486,43.6930702 14.9339726,36.7779693 15.6529349,29.2953622 C16.0066507,25.6016579 17.1108048,21.9024259 18.9329863,18.3020776 C20.8165616,14.584113 23.4178527,11.0771207 26.6614418,7.87875605 C29.7532603,4.83086652 33.2570719,2.35263291 37.0690993,0.516221894 C37.3526952,0.379872982 37.6375377,0.245980807 37.9236267,0.115159554 L29.1150137,0.115159554 C27.1155068,1.56033518 25.207,3.17287603 23.4025822,4.95093955 C19.0913014,9.19986645 15.7498562,13.8953053 13.4701815,18.9091988" id="Fill-8"></path>
                        <path d="M28.5506267,29.7728905 C28.5506267,30.3800116 28.5886473,30.9730065 28.6572089,31.5531036 L31.8225753,31.5531036 C31.6153322,30.6852612 31.5093733,29.7762685 31.5093733,28.8476218 C31.5093733,26.9230754 31.9456747,24.9828672 32.8061233,23.0733682 C33.3811062,21.792794 34.1343493,20.5717956 35.0468425,19.4195859 L31.9254178,19.4195859 C29.7498322,22.6455889 28.5506267,26.2600634 28.5506267,29.7728905" id="Fill-9"></path>
                        <path d="M40.5002979,19.4195859 L37.31,19.4195859 C34.7146301,22.2218017 33.2389966,25.6191621 33.2389966,28.8479289 C33.2389966,29.7962295 33.3608493,30.6990804 33.597387,31.5531036 L36.6751815,31.5531036 C36.1491267,30.5056123 35.8698938,29.3245359 35.8698938,28.0866475 C35.8698938,25.3676536 37.1385959,22.6234782 39.4385274,20.3559099 C39.7791541,20.019644 40.1338048,19.7057958 40.5002979,19.4195859" id="Fill-10"></path>
                        <path d="M57.0551301,37.7717195 C53.7158664,41.0655899 49.7137363,43.2852519 45.6685993,44.1610787 L44.9617911,47.5608958 C50.1939795,46.5474917 55.3890822,43.7999383 59.454476,39.7951497 C64.0587021,35.257249 67.0417568,29.7474018 67.8495377,24.2805475 C67.9960103,23.292632 68.0645719,22.3170003 68.0658185,21.3640934 C68.0658185,21.1402232 68.0623904,20.9132821 68.0552226,20.6903332 C67.8931678,16.2500879 66.125524,12.2723233 62.8454726,9.04048563 C60.4003151,6.63073357 57.2991473,5.15239199 53.899113,4.56400344 L53.116887,8.33294533 C55.6396438,8.94958635 57.8862842,10.1764195 59.7050377,11.964617 C66.4153527,18.5790747 65.274113,29.6736997 57.0551301,37.7717195" id="Fill-11"></path>
                        <path d="M45.8209932,8.17694252 L46.5589658,4.60699634 C41.509089,5.47146073 36.3451507,7.99667943 32.0198459,12.0733276 L36.7340822,12.0733276 C39.5282808,10.0830635 42.6403562,8.74199206 45.8209932,8.17694252" id="Fill-12"></path>
                        <path d="M64.0680514,7.83791279 C66.397589,10.1331195 68.0421336,12.7897736 68.9536918,15.7387795 C68.9808048,15.823844 69.0082295,15.9089085 69.0319144,15.9952014 L69.8477979,12.0733276 L72.153339,12.0733276 C71.0607158,9.34327848 69.4065103,6.87671438 67.2250034,4.72338427 C65.1133048,2.64375627 62.6148562,1.11167356 59.8727021,0.117616291 L54.8240719,0.117616291 L54.2472192,2.89188672 C55.0652842,3.03407038 55.8680788,3.22631006 56.6543562,3.46399938 C59.5171164,4.3389049 62.012137,5.80926209 64.0680514,7.83791279" id="Fill-13"></path>
                        <path d="M38.3234658,44.1960872 C35.5660411,43.58221 33.0806815,42.2227131 31.0101199,40.186078 C30.7405479,39.9179865 30.4853116,39.6403752 30.2403596,39.3584646 L25.1359452,39.3584646 C25.8891884,40.7219538 26.8350274,41.9742755 27.9560103,43.0813427 C30.5491986,45.6366564 33.8314315,47.2323072 37.5655479,47.7823092 L38.3234658,44.1960872" id="Fill-14"></path>
                        <path d="M45.444839,9.98632943 C43.5569007,10.3953762 41.6991918,11.1016881 39.9374692,12.0733276 L45.0122774,12.0733276 L45.444839,9.98632943" id="Fill-15"></path>
                        <path d="M22.9933938,30.8249881 C22.9933938,31.0697406 22.9993151,31.3108079 23.009911,31.5531036 L26.9201062,31.5531036 C26.8552842,30.9684002 26.8231849,30.3763265 26.8231849,29.7731975 C26.8231849,26.2671265 27.9039658,22.6818258 29.8844623,19.4192788 L26.1858733,19.4192788 C24.1000411,23.0908725 22.9933938,26.9798874 22.9933938,30.8249881" id="Fill-16"></path>
                        <path d="M39.3425411,39.3679845 L39.3462808,39.3584646 L32.6347192,39.3584646 C34.37525,40.9433672 36.4218151,42.0151188 38.6771815,42.5301123 L39.3425411,39.3679845" id="Fill-17"></path>
                        <path d="M17.372274,29.4538217 C16.7053562,36.4223566 18.9697603,42.8562442 23.7503767,47.5667305 C25.452887,49.2449891 27.4558219,50.584525 29.7155514,51.5635348 L36.7686747,51.5635348 L37.2130788,49.454426 C33.1504897,48.8402417 29.5734418,47.0836746 26.7346781,44.2845297 C25.2743151,42.8445747 24.083524,41.1819778 23.1944041,39.3584646 L19.0878733,39.3584646 L20.6722705,31.5531036 L21.2790411,31.5531036 C21.2718733,31.3098866 21.2647055,31.0694335 21.2647055,30.8228385 C21.2647055,26.9774307 22.286274,23.1000853 24.224387,19.4183575 L23.2109212,19.4183575 L24.5921267,12.7280481 C20.4513151,17.9047004 17.9232603,23.7127341 17.372274,29.4538217" id="Fill-18"></path>
                        <path d="M8.43775685,33.414082 C8.43775685,28.3667155 9.60143493,23.2514817 11.8929521,18.2124067 C14.2589521,13.007809 17.7210034,8.14316238 22.1800034,3.74836671 C23.4948288,2.45151659 24.8616986,1.243109 26.2771849,0.117616291 L18.8572568,0.117616291 C18.5583904,0.399526879 18.2626404,0.686350942 17.968137,0.971946636 C13.8500753,5.0347757 10.4799589,9.4443118 7.91762329,14.1259315 L2.67733219,39.3351256 C3.04818836,42.0473634 3.74034932,44.6622531 4.75256849,47.1530774 C5.37211644,48.6820892 6.10884247,50.1536748 6.95900685,51.5635348 L14.6871507,51.5635348 C12.9618904,49.4255593 11.5735171,47.0661704 10.5450925,44.5200694 C9.14768151,41.0619048 8.43775685,37.3218295 8.43775685,33.414082" id="Fill-19"></path>
                        <path d="M61.6322432,51.5635348 L62.8161781,45.8835585 C60.2606986,48.164639 57.3814212,50.0756734 54.3273116,51.5635348 L61.6322432,51.5635348" id="Fill-20"></path>
                        <path d="M44.5878185,49.3576919 L44.1303253,51.5635348 L49.9381199,51.5635348 C54.7081404,49.8680791 59.209524,47.0925803 62.8878562,43.462444 C63.0735959,43.2827951 63.2534144,43.0985399 63.4319863,42.9179697 L64.8745856,36.0031759 C63.6707055,37.756672 62.2648801,39.4346235 60.6748733,40.9989509 C56.1909418,45.4170855 50.3934315,48.3909659 44.5878185,49.3576919" id="Fill-21"></path>
                        <path d="M83.8025856,0.117616291 L75.6499829,0.117616291 C78.5971986,3.59359227 80.6241301,7.65150786 81.6612808,12.0730205 L87.964589,12.0730205 C87.574411,9.41698059 86.8887945,6.85491084 85.9092979,4.41475666 C85.3103185,2.92198175 84.6069384,1.48908981 83.8025856,0.117616291" id="Fill-22"></path>
                        <path d="M85.7830822,0.117616291 C86.4322363,1.3017636 87.0094007,2.52583288 87.5176918,3.78890287 C88.1300719,5.31760756 88.6327534,6.89053353 89.0263596,8.50307437 L90.7668904,0.117616291 L85.7830822,0.117616291" id="Fill-23"></path>
                        <path d="M73.6716678,21.3640934 L69.7932603,21.3640934 C69.7932603,22.4023719 69.7172192,23.4578476 69.5573459,24.5283708 C69.1110719,27.5627483 68.0387055,30.6035747 66.4268836,33.5003749 L70.3015514,33.5003749 C71.9887911,30.2132606 73.0801678,26.7996243 73.5024452,23.3982717 C73.586589,22.7156059 73.6433082,22.0375464 73.6716678,21.3640934" id="Fill-24"></path>
                        <path d="M82.2677397,22.7156059 C81.8809897,26.3414428 80.9176986,29.9697365 79.4336507,33.5000678 L83.4170822,33.5000678 L85.9015068,21.3640934 L82.3852295,21.3640934 C82.3553116,21.8136763 82.3151096,22.2635663 82.2677397,22.7156059" id="Fill-25"></path>
                        <path d="M80.6528014,21.3640934 L75.4025377,21.3640934 C75.3719966,22.1075634 75.3102911,22.8507264 75.2180445,23.6034093 C74.8041815,26.9344378 73.7863527,30.2737577 72.2243938,33.5003749 L77.5569315,33.5003749 C79.1379007,29.9163025 80.1547945,26.2225982 80.5487123,22.5362641 C80.5926541,22.1447216 80.6241301,21.7556358 80.6528014,21.3640934" id="Fill-26"></path>
                        <path d="M40.6611062,21.5600182 C38.6840377,23.5054469 37.5985822,25.8218429 37.5985822,28.0869546 C37.5985822,29.3930175 37.9709966,30.5744009 38.6806096,31.5512611 L40.5299041,31.5512611 L42.9276918,19.8399951 C42.1214692,20.2978694 41.355137,20.8745885 40.6611062,21.5600182" id="Fill-27"></path>
                        <path d="M25.1265959,12.0733276 L29.5831027,12.0733276 C29.8171473,11.8310319 30.0549315,11.5896575 30.298637,11.3495115 C35.0268973,6.69153782 40.9023185,3.68510573 46.928887,2.82094843 L47.493274,0.117616291 L42.6335,0.117616291 C37.4144007,1.739677 32.2791336,4.75286511 27.8840205,9.08132888 C26.9026541,10.0505117 25.9839281,11.047947 25.1265959,12.0733276" id="Fill-28"></path>
                        <path d="M59.4236233,23.6279766 C59.4236233,27.4055171 57.5388014,31.344588 54.1169521,34.7152314 C51.9662979,36.8360098 49.4002226,38.3619506 46.7079315,39.1582406 L46.0506747,42.3179116 C49.5186473,41.4116827 52.9361336,39.4260249 55.8337979,36.5679183 C63.3575034,29.1565565 64.4959384,19.0977533 58.4821473,13.1684182 C56.9130205,11.6200596 54.9624418,10.5526073 52.7690925,10.004755 L52.087839,13.2746721 C53.6036747,13.7939649 54.9624418,14.6191215 56.0737637,15.7142121 C58.2636849,17.8721486 59.4236233,20.6089538 59.4236233,23.6279766" id="Fill-29"></path>
                        <path d="M53.2384281,25.0749948 C53.3917568,23.1817718 52.7809349,21.4491579 51.5169075,20.2048205 C51.2859795,19.9788007 51.037911,19.779805 50.7755068,19.5989277 L48.1078356,32.4178751 C48.9545719,31.9400397 49.7501986,31.344588 50.4585651,30.6456463 C52.0903322,29.0364835 53.0776199,27.0581959 53.2384281,25.0749948" id="Fill-30"></path>
                        <path d="M10.8299349,0.117616291 L8.96163014,9.10313242 C11.0745753,5.9572805 13.5611815,2.95576189 16.3968288,0.117616291 L10.8299349,0.117616291" id="Fill-31"></path>
                        <path d="M52.8943733,33.5095877 C55.9908664,30.4604698 57.6946233,26.9522491 57.6946233,23.6279766 C57.6946233,21.0692849 56.7110753,18.7507392 54.8524315,16.9164778 C53.9658048,16.0449503 52.9180582,15.3868519 51.737863,14.9523165 L51.142,17.8291557 C51.7294486,18.143311 52.2676575,18.5351605 52.7404212,18.9988697 C54.3675137,20.6043474 55.1550377,22.8111115 54.9624418,25.2125721 C54.7673527,27.5986781 53.6036747,29.9571457 51.6808322,31.8500617 C50.5152842,33.0001218 49.1318973,33.9149493 47.6702877,34.5346612 L47.110887,37.2204891 C49.1555822,36.4714914 51.1563356,35.2222405 52.8943733,33.5095877" id="Fill-32"></path>
                        <path d="M73.9992055,12.0733276 L79.8789897,12.0733276 C78.7629932,7.58824688 76.5543733,3.51743342 73.3475582,0.117616291 L63.9215788,0.117616291 C65.5792123,1.05086932 67.0938014,2.18803153 68.4478938,3.51958306 C70.9637945,6.00150177 72.8274247,8.87619133 73.9992055,12.0733276" id="Fill-33"></path>
                        <path d="M3.14666781,47.784766 C2.60160274,46.4424662 2.1462911,45.0700714 1.77730479,43.6635894 L0.136188356,51.5635348 L4.96510959,51.5635348 C4.28292123,50.3459145 3.67521575,49.0874508 3.14666781,47.784766" id="Fill-34"></path>
                        <path d="M13.4701815,18.9091988 C11.2780788,23.7271674 10.1664452,28.6090112 10.1664452,33.414082 C10.1664452,37.1071721 10.8346096,40.6310545 12.1506815,43.8932943 C13.290363,46.7105577 14.8984452,49.2833756 16.9440753,51.5635348 L26.0559178,51.5635348 C24.7778664,50.7561896 23.5986062,49.8238578 22.5287329,48.7671537 C17.3769486,43.6930702 14.9339726,36.7779693 15.6529349,29.2953622 C16.0066507,25.6016579 17.1108048,21.9024259 18.9329863,18.3020776 C20.8165616,14.584113 23.4178527,11.0771207 26.6614418,7.87875605 C29.7532603,4.83086652 33.2570719,2.35263291 37.0690993,0.516221894 C37.3526952,0.379872982 37.6375377,0.245980807 37.9236267,0.115159554 L29.1150137,0.115159554 C27.1155068,1.56033518 25.207,3.17287603 23.4025822,4.95093955 C19.0913014,9.19986645 15.7498562,13.8953053 13.4701815,18.9091988" id="Fill-35"></path>
                        <path d="M28.5506267,29.7728905 C28.5506267,30.3800116 28.5886473,30.9730065 28.6572089,31.5531036 L31.8225753,31.5531036 C31.6153322,30.6852612 31.5093733,29.7762685 31.5093733,28.8476218 C31.5093733,26.9230754 31.9456747,24.9828672 32.8061233,23.0733682 C33.3811062,21.792794 34.1343493,20.5717956 35.0468425,19.4195859 L31.9254178,19.4195859 C29.7498322,22.6455889 28.5506267,26.2600634 28.5506267,29.7728905" id="Fill-36"></path>
                        <path d="M40.5002979,19.4195859 L37.31,19.4195859 C34.7146301,22.2218017 33.2389966,25.6191621 33.2389966,28.8479289 C33.2389966,29.7962295 33.3608493,30.6990804 33.597387,31.5531036 L36.6751815,31.5531036 C36.1491267,30.5056123 35.8698938,29.3245359 35.8698938,28.0866475 C35.8698938,25.3676536 37.1385959,22.6234782 39.4385274,20.3559099 C39.7791541,20.019644 40.1338048,19.7057958 40.5002979,19.4195859" id="Fill-37"></path>
                        <path d="M57.0551301,37.7717195 C53.7158664,41.0655899 49.7137363,43.2852519 45.6685993,44.1610787 L44.9617911,47.5608958 C50.1939795,46.5474917 55.3890822,43.7999383 59.454476,39.7951497 C64.0587021,35.257249 67.0417568,29.7474018 67.8495377,24.2805475 C67.9960103,23.292632 68.0645719,22.3170003 68.0658185,21.3640934 C68.0658185,21.1402232 68.0623904,20.9132821 68.0552226,20.6903332 C67.8931678,16.2500879 66.125524,12.2723233 62.8454726,9.04048563 C60.4003151,6.63073357 57.2991473,5.15239199 53.899113,4.56400344 L53.116887,8.33294533 C55.6396438,8.94958635 57.8862842,10.1764195 59.7050377,11.964617 C66.4153527,18.5790747 65.274113,29.6736997 57.0551301,37.7717195" id="Fill-38"></path>
                        <path d="M45.8209932,8.17694252 L46.5589658,4.60699634 C41.509089,5.47146073 36.3451507,7.99667943 32.0198459,12.0733276 L36.7340822,12.0733276 C39.5282808,10.0830635 42.6403562,8.74199206 45.8209932,8.17694252" id="Fill-39"></path>
                        <path d="M64.0680514,7.83791279 C66.397589,10.1331195 68.0421336,12.7897736 68.9536918,15.7387795 C68.9808048,15.823844 69.0082295,15.9089085 69.0319144,15.9952014 L69.8477979,12.0733276 L72.153339,12.0733276 C71.0607158,9.34327848 69.4065103,6.87671438 67.2250034,4.72338427 C65.1133048,2.64375627 62.6148562,1.11167356 59.8727021,0.117616291 L54.8240719,0.117616291 L54.2472192,2.89188672 C55.0652842,3.03407038 55.8680788,3.22631006 56.6543562,3.46399938 C59.5171164,4.3389049 62.012137,5.80926209 64.0680514,7.83791279" id="Fill-40"></path>
                        <path d="M38.3234658,44.1960872 C35.5660411,43.58221 33.0806815,42.2227131 31.0101199,40.186078 C30.7405479,39.9179865 30.4853116,39.6403752 30.2403596,39.3584646 L25.1359452,39.3584646 C25.8891884,40.7219538 26.8350274,41.9742755 27.9560103,43.0813427 C30.5491986,45.6366564 33.8314315,47.2323072 37.5655479,47.7823092 L38.3234658,44.1960872" id="Fill-41"></path>
                        <path d="M45.444839,9.98632943 C43.5569007,10.3953762 41.6991918,11.1016881 39.9374692,12.0733276 L45.0122774,12.0733276 L45.444839,9.98632943" id="Fill-42"></path>
                        <path d="M22.9933938,30.8249881 C22.9933938,31.0697406 22.9993151,31.3108079 23.009911,31.5531036 L26.9201062,31.5531036 C26.8552842,30.9684002 26.8231849,30.3763265 26.8231849,29.7731975 C26.8231849,26.2671265 27.9039658,22.6818258 29.8844623,19.4192788 L26.1858733,19.4192788 C24.1000411,23.0908725 22.9933938,26.9798874 22.9933938,30.8249881" id="Fill-43"></path>
                        <path d="M39.3425411,39.3679845 L39.3462808,39.3584646 L32.6347192,39.3584646 C34.37525,40.9433672 36.4218151,42.0151188 38.6771815,42.5301123 L39.3425411,39.3679845" id="Fill-44"></path>
                        <path d="M17.372274,29.4538217 C16.7053562,36.4223566 18.9697603,42.8562442 23.7503767,47.5667305 C25.452887,49.2449891 27.4558219,50.584525 29.7155514,51.5635348 L36.7686747,51.5635348 L37.2130788,49.454426 C33.1504897,48.8402417 29.5734418,47.0836746 26.7346781,44.2845297 C25.2743151,42.8445747 24.083524,41.1819778 23.1944041,39.3584646 L19.0878733,39.3584646 L20.6722705,31.5531036 L21.2790411,31.5531036 C21.2718733,31.3098866 21.2647055,31.0694335 21.2647055,30.8228385 C21.2647055,26.9774307 22.286274,23.1000853 24.224387,19.4183575 L23.2109212,19.4183575 L24.5921267,12.7280481 C20.4513151,17.9047004 17.9232603,23.7127341 17.372274,29.4538217" id="Fill-45"></path>
                        <path d="M8.43775685,33.414082 C8.43775685,28.3667155 9.60143493,23.2514817 11.8929521,18.2124067 C14.2589521,13.007809 17.7210034,8.14316238 22.1800034,3.74836671 C23.4948288,2.45151659 24.8616986,1.243109 26.2771849,0.117616291 L18.8572568,0.117616291 C18.5583904,0.399526879 18.2626404,0.686350942 17.968137,0.971946636 C13.8500753,5.0347757 10.4799589,9.4443118 7.91762329,14.1259315 L2.67733219,39.3351256 C3.04818836,42.0473634 3.74034932,44.6622531 4.75256849,47.1530774 C5.37211644,48.6820892 6.10884247,50.1536748 6.95900685,51.5635348 L14.6871507,51.5635348 C12.9618904,49.4255593 11.5735171,47.0661704 10.5450925,44.5200694 C9.14768151,41.0619048 8.43775685,37.3218295 8.43775685,33.414082" id="Fill-46"></path>
                        <path d="M61.6322432,51.5635348 L62.8161781,45.8835585 C60.2606986,48.164639 57.3814212,50.0756734 54.3273116,51.5635348 L61.6322432,51.5635348" id="Fill-47"></path>
                        <path d="M44.5878185,49.3576919 L44.1303253,51.5635348 L49.9381199,51.5635348 C54.7081404,49.8680791 59.209524,47.0925803 62.8878562,43.462444 C63.0735959,43.2827951 63.2534144,43.0985399 63.4319863,42.9179697 L64.8745856,36.0031759 C63.6707055,37.756672 62.2648801,39.4346235 60.6748733,40.9989509 C56.1909418,45.4170855 50.3934315,48.3909659 44.5878185,49.3576919" id="Fill-48"></path>
                        <path d="M83.8025856,0.117616291 L75.6499829,0.117616291 C78.5971986,3.59359227 80.6241301,7.65150786 81.6612808,12.0730205 L87.964589,12.0730205 C87.574411,9.41698059 86.8887945,6.85491084 85.9092979,4.41475666 C85.3103185,2.92198175 84.6069384,1.48908981 83.8025856,0.117616291" id="Fill-49"></path>
                        <path d="M85.7830822,0.117616291 C86.4322363,1.3017636 87.0094007,2.52583288 87.5176918,3.78890287 C88.1300719,5.31760756 88.6327534,6.89053353 89.0263596,8.50307437 L90.7668904,0.117616291 L85.7830822,0.117616291" id="Fill-50"></path>
                        <path d="M73.6716678,21.3640934 L69.7932603,21.3640934 C69.7932603,22.4023719 69.7172192,23.4578476 69.5573459,24.5283708 C69.1110719,27.5627483 68.0387055,30.6035747 66.4268836,33.5003749 L70.3015514,33.5003749 C71.9887911,30.2132606 73.0801678,26.7996243 73.5024452,23.3982717 C73.586589,22.7156059 73.6433082,22.0375464 73.6716678,21.3640934" id="Fill-51"></path>
                        <path d="M82.2677397,22.7156059 C81.8809897,26.3414428 80.9176986,29.9697365 79.4336507,33.5000678 L83.4170822,33.5000678 L85.9015068,21.3640934 L82.3852295,21.3640934 C82.3553116,21.8136763 82.3151096,22.2635663 82.2677397,22.7156059" id="Fill-52"></path>
                        <path d="M80.6528014,21.3640934 L75.4025377,21.3640934 C75.3719966,22.1075634 75.3102911,22.8507264 75.2180445,23.6034093 C74.8041815,26.9344378 73.7863527,30.2737577 72.2243938,33.5003749 L77.5569315,33.5003749 C79.1379007,29.9163025 80.1547945,26.2225982 80.5487123,22.5362641 C80.5926541,22.1447216 80.6241301,21.7556358 80.6528014,21.3640934" id="Fill-53"></path>
                        <path d="M40.6611062,21.5600182 C38.6840377,23.5054469 37.5985822,25.8218429 37.5985822,28.0869546 C37.5985822,29.3930175 37.9709966,30.5744009 38.6806096,31.5512611 L40.5299041,31.5512611 L42.9276918,19.8399951 C42.1214692,20.2978694 41.355137,20.8745885 40.6611062,21.5600182" id="Fill-54"></path>
                    </g>
                    <path d="M24.4940497,80.9648711 C24.3816916,74.9478025 20.1495393,71.8446602 14.531638,71.8446602 C5.35573257,71.8446602 0,79.8674183 0,88.4956676 C0,95.3074434 3.96998358,100 10.9736339,100 C17.8274735,100 21.797457,95.7237186 22.9959427,90.1986115 L20.4491607,90.1986115 C19.1757698,94.8911682 15.6177656,97.8050945 11.3856133,97.8050945 C5.84261735,97.8050945 2.54678192,94.2478338 2.54678192,88.7227268 C2.54678192,81.3811463 6.44186016,74.0395657 14.4941854,74.0395657 C18.9510537,74.0395657 21.8349097,76.385844 21.9472677,80.9648711 L24.4940497,80.9648711 Z M31.4181147,99.432352 L48.7212507,99.432352 L49.2455881,97.2374465 L34.4517814,97.2374465 L39.7326086,72.4123082 L37.1858267,72.4123082 L31.4181147,99.432352 Z M71.9372295,74.6072137 L72.0121348,74.6072137 L74.296748,88.8362564 L63.7350936,88.8362564 L71.9372295,74.6072137 Z M54.6715461,99.432352 L57.5179495,99.432352 L62.4617026,91.0311619 L74.6712748,91.0311619 L76.0195711,99.432352 L78.678711,99.432352 L73.8098632,72.4123082 L71.0383652,72.4123082 L54.6715461,99.432352 Z M109.947015,80.2836935 C110.246636,74.0395657 105.864673,71.8446602 100.434035,71.8446602 C95.640093,71.8446602 90.9585086,74.1530953 90.9585086,79.5646727 C90.9585086,83.046247 93.0933111,84.9384069 96.2393358,85.8466437 L98.8610231,86.6413509 C101.819784,87.5495876 105.490147,88.192922 105.490147,92.0150851 C105.490147,96.0643073 101.370352,97.8050945 97.8872535,97.8050945 C93.0558584,97.8050945 89.872381,95.7994049 90.1720024,90.5392003 L87.6252205,90.5392003 C87.3255991,97.0860737 91.7075621,100 97.6999902,100 C106.389011,100 108.036929,94.3235202 108.036929,91.6744963 C108.036929,87.1333125 104.55383,85.8844869 100.846015,84.7870341 L97.9996116,83.9166406 C95.752451,83.235463 93.5052905,82.3272262 93.5052905,79.4511431 C93.5052905,75.6289801 97.025842,74.0395657 100.321677,74.0395657 C104.890904,74.0395657 107.400233,75.5532937 107.400233,80.2836935 L109.947015,80.2836935 Z M139.679759,80.2836935 C139.979381,74.0395657 135.597418,71.8446602 130.16678,71.8446602 C125.372837,71.8446602 120.691253,74.1530953 120.691253,79.5646727 C120.691253,83.046247 122.826055,84.9384069 125.97208,85.8466437 L128.593767,86.6413509 C131.552529,87.5495876 135.222891,88.192922 135.222891,92.0150851 C135.222891,96.0643073 131.103097,97.8050945 127.619998,97.8050945 C122.788603,97.8050945 119.605125,95.7994049 119.904747,90.5392003 L117.357965,90.5392003 C117.058343,97.0860737 121.440306,100 127.432734,100 C136.121755,100 137.769673,94.3235202 137.769673,91.6744963 C137.769673,87.1333125 134.286574,85.8844869 130.578759,84.7870341 L127.732356,83.9166406 C125.485195,83.235463 123.238035,82.3272262 123.238035,79.4511431 C123.238035,75.6289801 126.758586,74.0395657 130.054422,74.0395657 C134.623648,74.0395657 137.132977,75.5532937 137.132977,80.2836935 L139.679759,80.2836935 Z M154.656149,74.6072137 L163.832055,74.6072137 C167.12789,74.6072137 168.401281,76.1587848 168.401281,79.3376135 C168.401281,83.3489926 165.292709,85.2411525 161.435084,85.2411525 L152.408989,85.2411525 L154.656149,74.6072137 Z M146.865993,99.432352 L149.412775,99.432352 L151.922104,87.436058 L161.360178,87.436058 C164.094224,87.436058 165.030541,89.2525316 165.030541,91.8258691 C165.030541,93.4531266 164.656014,95.042541 164.656014,96.6697985 C164.656014,96.9725441 164.730919,99.243136 165.030541,99.432352 L167.652228,99.432352 C167.240248,98.864704 167.202796,97.7294081 167.202796,97.0860737 C167.202796,95.231757 167.577322,93.3774402 167.577322,91.4474371 C167.577322,88.9876292 166.715911,87.1711557 164.169129,86.6035077 L164.169129,86.5278213 C168.10166,86.2250757 170.948063,83.1219334 170.948063,79.1483975 C170.948063,74.7207433 168.438734,72.4123082 163.944413,72.4123082 L152.5588,72.4123082 L146.865993,99.432352 Z M189.332647,100 C198.770721,100 203.976643,91.9393987 203.976643,83.1597766 C203.976643,76.3480008 199.707038,71.8446602 192.890651,71.8446602 C183.714746,71.8446602 178.359013,79.8674183 178.359013,88.4956676 C178.359013,95.3074434 182.328997,100 189.332647,100 L189.332647,100 Z M201.429861,83.803111 C201.429861,90.5013571 197.010445,97.8050945 189.744626,97.8050945 C184.20163,97.8050945 180.905795,94.2478338 180.905795,88.7227268 C180.905795,81.3811463 184.800873,74.0395657 192.853198,74.0395657 C198.733268,74.0395657 201.429861,78.2023176 201.429861,83.803111 L201.429861,83.803111 Z M223.222638,100 C232.660712,100 237.866634,91.9393987 237.866634,83.1597766 C237.866634,76.3480008 233.597029,71.8446602 226.780642,71.8446602 C217.604737,71.8446602 212.249004,79.8674183 212.249004,88.4956676 C212.249004,95.3074434 216.218988,100 223.222638,100 L223.222638,100 Z M235.319852,83.803111 C235.319852,90.5013571 230.900437,97.8050945 223.634618,97.8050945 C218.091622,97.8050945 214.795786,94.2478338 214.795786,88.7227268 C214.795786,81.3811463 218.690864,74.0395657 226.74319,74.0395657 C232.62326,74.0395657 235.319852,78.2023176 235.319852,83.803111 L235.319852,83.803111 Z M244.94051,99.432352 L247.412386,99.432352 L252.468498,74.6072137 L252.543403,74.6072137 L256.850461,99.432352 L259.397243,99.432352 L274.191049,74.9856457 L274.265955,74.9856457 L268.760411,99.432352 L271.269741,99.432352 L277,72.4123082 L273.292185,72.4123082 L258.610736,96.6697985 L254.453489,72.4123082 L250.745675,72.4123082 L244.94051,99.432352 Z" id="CLASSROOM"></path>
                </g>
            </g>
        </g>
    </g>
</svg>